# Blender 3.5.0
# www.blender.org
mtllib Skydome.mtl
o 球
v 0.000000 0.831470 -0.555570
v 0.000000 0.555570 -0.831470
v 0.000000 0.195090 -0.980785
v 0.000000 0.000000 -1.000000
v 0.000000 -0.195090 -0.980785
v 0.000000 -0.555570 -0.831470
v 0.038060 0.980785 -0.191342
v 0.074658 0.923880 -0.375330
v 0.108386 0.831470 -0.544895
v 0.137950 0.707107 -0.693520
v 0.162212 0.555570 -0.815493
v 0.180240 0.382683 -0.906127
v 0.191342 0.195090 -0.961940
v 0.195090 0.000000 -0.980785
v 0.191342 -0.195090 -0.961940
v 0.180240 -0.382683 -0.906127
v 0.162212 -0.555570 -0.815493
v 0.137950 -0.707107 -0.693520
v 0.108386 -0.831470 -0.544895
v 0.074658 -0.923880 -0.375330
v 0.038060 -0.980785 -0.191342
v 0.074658 0.980785 -0.180240
v 0.146447 0.923880 -0.353553
v 0.212608 0.831470 -0.513280
v 0.270598 0.707107 -0.653281
v 0.318190 0.555570 -0.768178
v 0.353553 0.382683 -0.853553
v 0.375330 0.195090 -0.906127
v 0.382683 0.000000 -0.923879
v 0.375330 -0.195090 -0.906127
v 0.353553 -0.382683 -0.853553
v 0.318190 -0.555570 -0.768178
v 0.270598 -0.707107 -0.653281
v 0.212608 -0.831470 -0.513280
v 0.146447 -0.923880 -0.353553
v 0.074658 -0.980785 -0.180240
v 0.108386 0.980785 -0.162212
v 0.212608 0.923880 -0.318190
v 0.308658 0.831470 -0.461940
v 0.392847 0.707107 -0.587938
v 0.461940 0.555570 -0.691342
v 0.513280 0.382683 -0.768178
v 0.544895 0.195090 -0.815493
v 0.555570 0.000000 -0.831469
v 0.544895 -0.195090 -0.815493
v 0.513280 -0.382683 -0.768178
v 0.461940 -0.555570 -0.691342
v 0.392847 -0.707107 -0.587938
v 0.308658 -0.831470 -0.461940
v 0.212608 -0.923880 -0.318190
v 0.108386 -0.980785 -0.162212
v 0.137950 0.980785 -0.137950
v 0.270598 0.923880 -0.270598
v 0.392847 0.831470 -0.392847
v 0.500000 0.707107 -0.500000
v 0.587938 0.555570 -0.587938
v 0.653281 0.382683 -0.653281
v 0.693520 0.195090 -0.693520
v 0.707107 0.000000 -0.707107
v 0.693520 -0.195090 -0.693520
v 0.653281 -0.382683 -0.653281
v 0.587938 -0.555570 -0.587938
v 0.500000 -0.707107 -0.500000
v 0.392847 -0.831470 -0.392847
v 0.270598 -0.923880 -0.270598
v 0.137950 -0.980785 -0.137950
v 0.162212 0.980785 -0.108386
v 0.318190 0.923880 -0.212608
v 0.461940 0.831470 -0.308658
v 0.587938 0.707107 -0.392847
v 0.691342 0.555570 -0.461940
v 0.768178 0.382683 -0.513280
v 0.815493 0.195090 -0.544895
v 0.831470 0.000000 -0.555570
v 0.815493 -0.195090 -0.544895
v 0.768178 -0.382683 -0.513280
v 0.691342 -0.555570 -0.461940
v 0.587938 -0.707107 -0.392847
v 0.461940 -0.831470 -0.308658
v 0.318190 -0.923880 -0.212608
v 0.162212 -0.980785 -0.108386
v 0.000000 1.000000 0.000000
v 0.180240 0.980785 -0.074658
v 0.353553 0.923880 -0.146447
v 0.513280 0.831470 -0.212607
v 0.653281 0.707107 -0.270598
v 0.768178 0.555570 -0.318190
v 0.853553 0.382683 -0.353553
v 0.906127 0.195090 -0.375330
v 0.923879 0.000000 -0.382683
v 0.906127 -0.195090 -0.375330
v 0.853553 -0.382683 -0.353553
v 0.768178 -0.555570 -0.318190
v 0.653281 -0.707107 -0.270598
v 0.513280 -0.831470 -0.212607
v 0.353553 -0.923880 -0.146447
v 0.180240 -0.980785 -0.074658
v 0.191342 0.980785 -0.038060
v 0.375330 0.923880 -0.074658
v 0.544895 0.831470 -0.108386
v 0.693520 0.707107 -0.137950
v 0.815493 0.555570 -0.162212
v 0.906127 0.382683 -0.180240
v 0.961940 0.195090 -0.191342
v 0.980785 0.000000 -0.195090
v 0.961940 -0.195090 -0.191342
v 0.906127 -0.382683 -0.180240
v 0.815493 -0.555570 -0.162212
v 0.693520 -0.707107 -0.137950
v 0.544895 -0.831470 -0.108386
v 0.375330 -0.923880 -0.074658
v 0.191342 -0.980785 -0.038060
v 0.195090 0.980785 0.000000
v 0.382683 0.923880 0.000000
v 0.555570 0.831470 0.000000
v 0.707107 0.707107 -0.000000
v 0.831469 0.555570 0.000000
v 0.923879 0.382683 -0.000000
v 0.980785 0.195090 0.000000
v 1.000000 0.000000 0.000000
v 0.980785 -0.195090 0.000000
v 0.923879 -0.382683 -0.000000
v 0.831469 -0.555570 0.000000
v 0.707107 -0.707107 -0.000000
v 0.555570 -0.831470 0.000000
v 0.382683 -0.923880 0.000000
v 0.195090 -0.980785 0.000000
v 0.191342 0.980785 0.038060
v 0.375330 0.923880 0.074658
v 0.544895 0.831470 0.108386
v 0.693520 0.707107 0.137950
v 0.815493 0.555570 0.162212
v 0.906127 0.382683 0.180240
v 0.961940 0.195090 0.191342
v 0.980785 0.000000 0.195090
v 0.961940 -0.195090 0.191342
v 0.906127 -0.382683 0.180240
v 0.815493 -0.555570 0.162212
v 0.693520 -0.707107 0.137950
v 0.544895 -0.831470 0.108386
v 0.375330 -0.923880 0.074658
v 0.191342 -0.980785 0.038060
v 0.180240 0.980785 0.074658
v 0.353553 0.923880 0.146447
v 0.513280 0.831470 0.212608
v 0.653281 0.707107 0.270598
v 0.768178 0.555570 0.318190
v 0.853553 0.382683 0.353553
v 0.906127 0.195090 0.375330
v 0.923879 0.000000 0.382683
v 0.906127 -0.195090 0.375330
v 0.853553 -0.382683 0.353553
v 0.768178 -0.555570 0.318190
v 0.653281 -0.707107 0.270598
v 0.513280 -0.831470 0.212608
v 0.353553 -0.923880 0.146447
v 0.180240 -0.980785 0.074658
v 0.162212 0.980785 0.108386
v 0.318190 0.923880 0.212608
v 0.461940 0.831470 0.308658
v 0.587938 0.707107 0.392847
v 0.691341 0.555570 0.461940
v 0.768178 0.382683 0.513280
v 0.815493 0.195090 0.544895
v 0.831469 0.000000 0.555570
v 0.815493 -0.195090 0.544895
v 0.768178 -0.382683 0.513280
v 0.691341 -0.555570 0.461940
v 0.587938 -0.707107 0.392847
v 0.461940 -0.831470 0.308658
v 0.318190 -0.923880 0.212608
v 0.162212 -0.980785 0.108386
v 0.137950 0.980785 0.137950
v 0.270598 0.923880 0.270598
v 0.392847 0.831470 0.392847
v 0.500000 0.707107 0.500000
v 0.587938 0.555570 0.587938
v 0.653281 0.382683 0.653281
v 0.693520 0.195090 0.693520
v 0.707106 0.000000 0.707107
v 0.693520 -0.195090 0.693520
v 0.653281 -0.382683 0.653281
v 0.587938 -0.555570 0.587938
v 0.500000 -0.707107 0.500000
v 0.392847 -0.831470 0.392847
v 0.270598 -0.923880 0.270598
v 0.137950 -0.980785 0.137950
v 0.108386 0.980785 0.162212
v 0.212607 0.923880 0.318190
v 0.308658 0.831470 0.461940
v 0.392847 0.707107 0.587938
v 0.461940 0.555570 0.691342
v 0.513280 0.382683 0.768178
v 0.544895 0.195090 0.815493
v 0.555570 0.000000 0.831469
v 0.544895 -0.195090 0.815493
v 0.513280 -0.382683 0.768178
v 0.461940 -0.555570 0.691342
v 0.392847 -0.707107 0.587938
v 0.308658 -0.831470 0.461940
v 0.212607 -0.923880 0.318190
v 0.108386 -0.980785 0.162212
v 0.074658 0.980785 0.180240
v 0.146447 0.923880 0.353553
v 0.212607 0.831470 0.513280
v 0.270598 0.707107 0.653281
v 0.318189 0.555570 0.768178
v 0.353553 0.382683 0.853553
v 0.375330 0.195090 0.906127
v 0.382683 0.000000 0.923879
v 0.375330 -0.195090 0.906127
v 0.353553 -0.382683 0.853553
v 0.318189 -0.555570 0.768178
v 0.270598 -0.707107 0.653281
v 0.212607 -0.831470 0.513280
v 0.146447 -0.923880 0.353553
v 0.074658 -0.980785 0.180240
v 0.038060 0.980785 0.191342
v 0.074658 0.923880 0.375330
v 0.108386 0.831470 0.544895
v 0.137950 0.707107 0.693520
v 0.162212 0.555570 0.815493
v 0.180240 0.382683 0.906127
v 0.191342 0.195090 0.961939
v 0.195090 0.000000 0.980785
v 0.191342 -0.195090 0.961939
v 0.180240 -0.382683 0.906127
v 0.162212 -0.555570 0.815493
v 0.137950 -0.707107 0.693520
v 0.108386 -0.831470 0.544895
v 0.074658 -0.923880 0.375330
v 0.038060 -0.980785 0.191342
v -0.000000 0.980785 0.195090
v -0.000000 0.923880 0.382683
v -0.000000 0.831470 0.555570
v -0.000000 0.707107 0.707107
v -0.000000 0.555570 0.831469
v 0.000000 0.382683 0.923879
v -0.000000 0.195090 0.980785
v -0.000000 0.000000 0.999999
v -0.000000 -0.195090 0.980785
v 0.000000 -0.382683 0.923879
v -0.000000 -0.555570 0.831469
v -0.000000 -0.707107 0.707107
v -0.000000 -0.831470 0.555570
v -0.000000 -0.923880 0.382683
v -0.000000 -0.980785 0.195090
v -0.038060 0.980785 0.191342
v -0.074658 0.923880 0.375330
v -0.108386 0.831470 0.544895
v -0.137950 0.707107 0.693520
v -0.162212 0.555570 0.815493
v -0.180240 0.382683 0.906127
v -0.191342 0.195090 0.961939
v -0.195091 0.000000 0.980785
v -0.191342 -0.195090 0.961939
v -0.180240 -0.382683 0.906127
v -0.162212 -0.555570 0.815493
v -0.137950 -0.707107 0.693520
v -0.108386 -0.831470 0.544895
v -0.074658 -0.923880 0.375330
v -0.038060 -0.980785 0.191342
v -0.074658 0.980785 0.180240
v -0.146447 0.923880 0.353553
v -0.212608 0.831470 0.513280
v -0.270598 0.707107 0.653281
v -0.318190 0.555570 0.768177
v -0.353553 0.382683 0.853553
v -0.375330 0.195090 0.906127
v -0.382683 0.000000 0.923879
v -0.375330 -0.195090 0.906127
v -0.353553 -0.382683 0.853553
v -0.318190 -0.555570 0.768177
v -0.270598 -0.707107 0.653281
v -0.212608 -0.831470 0.513280
v -0.146447 -0.923880 0.353553
v -0.074658 -0.980785 0.180240
v -0.108386 0.980785 0.162212
v -0.212608 0.923880 0.318190
v -0.308658 0.831470 0.461939
v -0.392847 0.707107 0.587938
v -0.461940 0.555570 0.691341
v -0.513280 0.382683 0.768178
v -0.544895 0.195090 0.815493
v -0.555570 0.000000 0.831469
v -0.544895 -0.195090 0.815493
v -0.513280 -0.382683 0.768178
v -0.461940 -0.555570 0.691341
v -0.392847 -0.707107 0.587938
v -0.308658 -0.831470 0.461939
v -0.212608 -0.923880 0.318190
v -0.108386 -0.980785 0.162212
v -0.137950 0.980785 0.137950
v -0.270598 0.923880 0.270598
v -0.392847 0.831470 0.392847
v -0.500000 0.707107 0.500000
v -0.587938 0.555570 0.587937
v -0.653281 0.382683 0.653281
v -0.693520 0.195090 0.693520
v -0.707106 0.000000 0.707106
v -0.693520 -0.195090 0.693520
v -0.653281 -0.382683 0.653281
v -0.587938 -0.555570 0.587937
v -0.500000 -0.707107 0.500000
v -0.392847 -0.831470 0.392847
v -0.270598 -0.923880 0.270598
v -0.137950 -0.980785 0.137950
v 0.000000 -1.000000 0.000000
v -0.162212 0.980785 0.108386
v -0.318190 0.923880 0.212607
v -0.461940 0.831470 0.308658
v -0.587938 0.707107 0.392847
v -0.691341 0.555570 0.461939
v -0.768177 0.382683 0.513280
v -0.815493 0.195090 0.544895
v -0.831469 0.000000 0.555569
v -0.815493 -0.195090 0.544895
v -0.768177 -0.382683 0.513280
v -0.691341 -0.555570 0.461939
v -0.587938 -0.707107 0.392847
v -0.461940 -0.831470 0.308658
v -0.318190 -0.923880 0.212607
v -0.162212 -0.980785 0.108386
v -0.180240 0.980785 0.074658
v -0.353553 0.923880 0.146447
v -0.513280 0.831470 0.212607
v -0.653281 0.707107 0.270598
v -0.768177 0.555570 0.318189
v -0.853553 0.382683 0.353553
v -0.906127 0.195090 0.375330
v -0.923879 0.000000 0.382683
v -0.906127 -0.195090 0.375330
v -0.853553 -0.382683 0.353553
v -0.768177 -0.555570 0.318189
v -0.653281 -0.707107 0.270598
v -0.513280 -0.831470 0.212607
v -0.353553 -0.923880 0.146447
v -0.180240 -0.980785 0.074658
v -0.191342 0.980785 0.038060
v -0.375330 0.923880 0.074658
v -0.544895 0.831470 0.108386
v -0.693520 0.707107 0.137950
v -0.815493 0.555570 0.162211
v -0.906127 0.382683 0.180240
v -0.961939 0.195090 0.191341
v -0.980784 0.000000 0.195090
v -0.961939 -0.195090 0.191341
v -0.906127 -0.382683 0.180240
v -0.815493 -0.555570 0.162211
v -0.693520 -0.707107 0.137950
v -0.544895 -0.831470 0.108386
v -0.375330 -0.923880 0.074658
v -0.191342 -0.980785 0.038060
v -0.195090 0.980785 -0.000000
v -0.382683 0.923880 -0.000000
v -0.555570 0.831470 -0.000000
v -0.707107 0.707107 -0.000000
v -0.831469 0.555570 -0.000000
v -0.923879 0.382683 -0.000000
v -0.980785 0.195090 -0.000000
v -0.999999 0.000000 -0.000000
v -0.980785 -0.195090 -0.000000
v -0.923879 -0.382683 -0.000000
v -0.831469 -0.555570 -0.000000
v -0.707107 -0.707107 -0.000000
v -0.555570 -0.831470 -0.000000
v -0.382683 -0.923880 -0.000000
v -0.195090 -0.980785 -0.000000
v -0.191342 0.980785 -0.038060
v -0.375330 0.923880 -0.074658
v -0.544895 0.831470 -0.108386
v -0.693520 0.707107 -0.137950
v -0.815493 0.555570 -0.162212
v -0.906127 0.382683 -0.180240
v -0.961939 0.195090 -0.191342
v -0.980784 0.000000 -0.195091
v -0.961939 -0.195090 -0.191342
v -0.906127 -0.382683 -0.180240
v -0.815493 -0.555570 -0.162212
v -0.693520 -0.707107 -0.137950
v -0.544895 -0.831470 -0.108386
v -0.375330 -0.923880 -0.074658
v -0.191342 -0.980785 -0.038060
v -0.180240 0.980785 -0.074658
v -0.353553 0.923880 -0.146447
v -0.513279 0.831470 -0.212607
v -0.653281 0.707107 -0.270598
v -0.768177 0.555570 -0.318190
v -0.853553 0.382683 -0.353553
v -0.906127 0.195090 -0.375330
v -0.923878 0.000000 -0.382683
v -0.906127 -0.195090 -0.375330
v -0.853553 -0.382683 -0.353553
v -0.768177 -0.555570 -0.318190
v -0.653281 -0.707107 -0.270598
v -0.513279 -0.831470 -0.212607
v -0.353553 -0.923880 -0.146447
v -0.180240 -0.980785 -0.074658
v -0.162212 0.980785 -0.108386
v -0.318189 0.923880 -0.212607
v -0.461939 0.831470 -0.308658
v -0.587938 0.707107 -0.392847
v -0.691341 0.555570 -0.461940
v -0.768177 0.382683 -0.513280
v -0.815493 0.195090 -0.544895
v -0.831468 0.000000 -0.555570
v -0.815493 -0.195090 -0.544895
v -0.768177 -0.382683 -0.513280
v -0.691341 -0.555570 -0.461940
v -0.587938 -0.707107 -0.392847
v -0.461939 -0.831470 -0.308658
v -0.318189 -0.923880 -0.212607
v -0.162212 -0.980785 -0.108386
v -0.137950 0.980785 -0.137950
v -0.270598 0.923880 -0.270598
v -0.392847 0.831470 -0.392847
v -0.500000 0.707107 -0.500000
v -0.587937 0.555570 -0.587938
v -0.653281 0.382683 -0.653281
v -0.693519 0.195090 -0.693520
v -0.707106 0.000000 -0.707106
v -0.693519 -0.195090 -0.693520
v -0.653281 -0.382683 -0.653281
v -0.587937 -0.555570 -0.587938
v -0.500000 -0.707107 -0.500000
v -0.392847 -0.831470 -0.392847
v -0.270598 -0.923880 -0.270598
v -0.137950 -0.980785 -0.137950
v -0.108386 0.980785 -0.162212
v -0.212607 0.923880 -0.318190
v -0.308658 0.831470 -0.461939
v -0.392847 0.707107 -0.587938
v -0.461939 0.555570 -0.691341
v -0.513280 0.382683 -0.768177
v -0.544895 0.195090 -0.815493
v -0.555569 0.000000 -0.831469
v -0.544895 -0.195090 -0.815493
v -0.513280 -0.382683 -0.768177
v -0.461939 -0.555570 -0.691341
v -0.392847 -0.707107 -0.587938
v -0.308658 -0.831470 -0.461939
v -0.212607 -0.923880 -0.318190
v -0.108386 -0.980785 -0.162212
v -0.074658 0.980785 -0.180240
v -0.146446 0.923880 -0.353553
v -0.212607 0.831470 -0.513279
v -0.270598 0.707107 -0.653281
v -0.318189 0.555570 -0.768177
v -0.353553 0.382683 -0.853553
v -0.375330 0.195090 -0.906127
v -0.382683 0.000000 -0.923879
v -0.375330 -0.195090 -0.906127
v -0.353553 -0.382683 -0.853553
v -0.318189 -0.555570 -0.768177
v -0.270598 -0.707107 -0.653281
v -0.212607 -0.831470 -0.513279
v -0.146446 -0.923880 -0.353553
v -0.074658 -0.980785 -0.180240
v -0.038060 0.980785 -0.191342
v -0.074658 0.923880 -0.375330
v -0.108386 0.831470 -0.544895
v -0.137950 0.707107 -0.693520
v -0.162211 0.555570 -0.815493
v -0.180240 0.382683 -0.906127
v -0.191341 0.195090 -0.961939
v -0.195090 0.000000 -0.980784
v -0.191341 -0.195090 -0.961939
v -0.180240 -0.382683 -0.906127
v -0.162211 -0.555570 -0.815493
v -0.137950 -0.707107 -0.693520
v -0.108386 -0.831470 -0.544895
v -0.074658 -0.923880 -0.375330
v -0.038060 -0.980785 -0.191342
v 0.000000 0.980785 -0.195090
v 0.000000 0.923880 -0.382683
v 0.000000 0.707107 -0.707107
v 0.000000 0.382683 -0.923879
v 0.000000 -0.382683 -0.923879
v 0.000000 -0.707107 -0.707107
v 0.000000 -0.831470 -0.555570
v 0.000000 -0.923880 -0.382683
v 0.000000 -0.980785 -0.195090
vn -0.0624 0.7715 0.6332
vn -0.0865 -0.4696 0.8786
vn -0.0464 0.8810 0.4709
vn -0.0938 -0.2890 0.9527
vn -0.0286 0.9565 0.2902
vn -0.0975 -0.0975 0.9904
vn -0.0097 -0.9951 0.0980
vn -0.0097 0.9951 0.0980
vn -0.0975 0.0976 0.9904
vn -0.0286 -0.9565 0.2902
vn -0.0938 0.2890 0.9527
vn -0.0464 -0.8810 0.4709
vn -0.0865 0.4696 0.8786
vn -0.0624 -0.7715 0.6332
vn -0.0759 0.6326 0.7708
vn -0.0759 -0.6326 0.7708
vn -0.1847 -0.7715 0.6088
vn -0.2248 0.6326 0.7412
vn -0.2248 -0.6326 0.7412
vn -0.1847 0.7715 0.6088
vn -0.2563 -0.4696 0.8448
vn -0.1374 0.8810 0.4528
vn -0.2779 -0.2890 0.9161
vn -0.0846 0.9565 0.2790
vn -0.2889 -0.0976 0.9524
vn -0.0286 -0.9951 0.0942
vn -0.0286 0.9951 0.0942
vn -0.2889 0.0975 0.9524
vn -0.0846 -0.9565 0.2790
vn -0.2779 0.2890 0.9161
vn -0.1374 -0.8810 0.4528
vn -0.2563 0.4696 0.8448
vn -0.4691 -0.0975 0.8777
vn -0.0464 -0.9951 0.0869
vn -0.0464 0.9951 0.0869
vn -0.4691 0.0975 0.8777
vn -0.1374 -0.9565 0.2571
vn -0.4513 0.2890 0.8443
vn -0.2231 -0.8810 0.4173
vn -0.4162 0.4696 0.7786
vn -0.2999 -0.7715 0.5611
vn -0.3651 0.6326 0.6831
vn -0.3651 -0.6326 0.6831
vn -0.2999 0.7715 0.5611
vn -0.4162 -0.4696 0.7786
vn -0.2230 0.8810 0.4173
vn -0.4513 -0.2890 0.8443
vn -0.1374 0.9565 0.2571
vn -0.4913 0.6326 0.5987
vn -0.4913 -0.6326 0.5987
vn -0.4036 0.7715 0.4918
vn -0.5601 -0.4696 0.6825
vn -0.3002 0.8810 0.3658
vn -0.6073 -0.2890 0.7400
vn -0.1850 0.9565 0.2254
vn -0.6314 -0.0975 0.7693
vn -0.0625 -0.9951 0.0761
vn -0.0625 0.9951 0.0761
vn -0.6314 0.0975 0.7693
vn -0.1850 -0.9565 0.2254
vn -0.6073 0.2890 0.7400
vn -0.3002 -0.8810 0.3658
vn -0.5601 0.4696 0.6825
vn -0.4036 -0.7715 0.4918
vn -0.0761 0.9951 0.0625
vn -0.7693 0.0975 0.6314
vn -0.2254 -0.9565 0.1850
vn -0.7400 0.2890 0.6073
vn -0.3658 -0.8810 0.3002
vn -0.6825 0.4696 0.5601
vn -0.4918 -0.7715 0.4036
vn -0.5987 0.6326 0.4913
vn -0.5987 -0.6326 0.4913
vn -0.4918 0.7715 0.4036
vn -0.6825 -0.4696 0.5601
vn -0.3658 0.8810 0.3002
vn -0.7400 -0.2890 0.6073
vn -0.2254 0.9565 0.1850
vn -0.7693 -0.0975 0.6314
vn -0.0761 -0.9951 0.0625
vn -0.5611 0.7715 0.2999
vn -0.7786 -0.4696 0.4162
vn -0.4173 0.8810 0.2230
vn -0.8443 -0.2890 0.4513
vn -0.2571 0.9565 0.1374
vn -0.8777 -0.0975 0.4691
vn -0.0869 -0.9951 0.0464
vn -0.0869 0.9951 0.0464
vn -0.8777 0.0975 0.4691
vn -0.2571 -0.9565 0.1374
vn -0.8443 0.2890 0.4513
vn -0.4173 -0.8810 0.2230
vn -0.7786 0.4696 0.4162
vn -0.5611 -0.7715 0.2999
vn -0.6831 0.6326 0.3651
vn -0.6831 -0.6326 0.3651
vn -0.2790 -0.9565 0.0846
vn -0.9161 0.2890 0.2779
vn -0.4528 -0.8810 0.1374
vn -0.8448 0.4696 0.2563
vn -0.6088 -0.7715 0.1847
vn -0.7412 0.6326 0.2248
vn -0.7412 -0.6326 0.2248
vn -0.6088 0.7715 0.1847
vn -0.8448 -0.4696 0.2563
vn -0.4528 0.8810 0.1374
vn -0.9161 -0.2890 0.2779
vn -0.2790 0.9565 0.0846
vn -0.9524 -0.0975 0.2889
vn -0.0942 -0.9951 0.0286
vn -0.0942 0.9951 0.0286
vn -0.9524 0.0975 0.2889
vn -0.8786 -0.4696 0.0865
vn -0.4709 0.8810 0.0464
vn -0.9527 -0.2890 0.0938
vn -0.2902 0.9565 0.0286
vn -0.9904 -0.0975 0.0975
vn -0.0980 -0.9951 0.0097
vn -0.0980 0.9951 0.0097
vn -0.9904 0.0975 0.0975
vn -0.2902 -0.9565 0.0286
vn -0.9527 0.2890 0.0938
vn -0.4709 -0.8810 0.0464
vn -0.8786 0.4696 0.0865
vn -0.6332 -0.7715 0.0624
vn -0.7708 0.6326 0.0759
vn -0.7708 -0.6326 0.0759
vn -0.6332 0.7715 0.0624
vn -0.9527 0.2890 -0.0938
vn -0.4709 -0.8810 -0.0464
vn -0.8786 0.4696 -0.0865
vn -0.6332 -0.7715 -0.0624
vn -0.7708 0.6326 -0.0759
vn -0.7708 -0.6326 -0.0759
vn -0.6332 0.7715 -0.0624
vn -0.8786 -0.4696 -0.0865
vn -0.4709 0.8810 -0.0464
vn -0.9527 -0.2890 -0.0938
vn -0.2902 0.9565 -0.0286
vn -0.9904 -0.0975 -0.0976
vn -0.0980 -0.9951 -0.0097
vn -0.0980 0.9951 -0.0097
vn -0.9904 0.0975 -0.0976
vn -0.2902 -0.9565 -0.0286
vn -0.4528 0.8810 -0.1374
vn -0.9161 -0.2890 -0.2779
vn -0.2790 0.9565 -0.0846
vn -0.9524 -0.0975 -0.2889
vn -0.0942 -0.9951 -0.0286
vn -0.0942 0.9951 -0.0286
vn -0.9524 0.0975 -0.2889
vn -0.2790 -0.9565 -0.0846
vn -0.9161 0.2890 -0.2779
vn -0.4528 -0.8810 -0.1374
vn -0.8448 0.4696 -0.2563
vn -0.6088 -0.7715 -0.1847
vn -0.7412 0.6326 -0.2248
vn -0.7412 -0.6326 -0.2248
vn -0.6088 0.7715 -0.1847
vn -0.8448 -0.4696 -0.2563
vn -0.4173 -0.8810 -0.2230
vn -0.7786 0.4696 -0.4162
vn -0.5611 -0.7715 -0.2999
vn -0.6831 0.6326 -0.3651
vn -0.6831 -0.6326 -0.3651
vn -0.5611 0.7715 -0.2999
vn -0.7786 -0.4696 -0.4162
vn -0.4173 0.8810 -0.2230
vn -0.8443 -0.2890 -0.4513
vn -0.2571 0.9565 -0.1374
vn -0.8777 -0.0975 -0.4691
vn -0.0869 -0.9951 -0.0464
vn -0.0869 0.9951 -0.0464
vn -0.8777 0.0975 -0.4691
vn -0.2571 -0.9565 -0.1374
vn -0.8443 0.2890 -0.4513
vn -0.7400 -0.2890 -0.6073
vn -0.2254 0.9565 -0.1850
vn -0.7693 -0.0975 -0.6314
vn -0.0761 -0.9951 -0.0625
vn -0.0761 0.9951 -0.0625
vn -0.7693 0.0975 -0.6314
vn -0.2254 -0.9565 -0.1850
vn -0.7400 0.2890 -0.6073
vn -0.3658 -0.8810 -0.3002
vn -0.6825 0.4696 -0.5601
vn -0.4918 -0.7715 -0.4036
vn -0.5987 0.6326 -0.4913
vn -0.5987 -0.6326 -0.4913
vn -0.4918 0.7715 -0.4036
vn -0.6825 -0.4696 -0.5601
vn -0.3658 0.8810 -0.3002
vn -0.5601 0.4696 -0.6825
vn -0.4036 -0.7715 -0.4918
vn -0.4913 0.6326 -0.5987
vn -0.4913 -0.6326 -0.5987
vn -0.4036 0.7715 -0.4918
vn -0.5601 -0.4696 -0.6825
vn -0.3002 0.8810 -0.3658
vn -0.6073 -0.2890 -0.7400
vn -0.1850 0.9565 -0.2254
vn -0.6314 -0.0975 -0.7693
vn -0.0625 -0.9951 -0.0761
vn -0.0625 0.9951 -0.0761
vn -0.6314 0.0975 -0.7693
vn -0.1850 -0.9565 -0.2254
vn -0.6073 0.2890 -0.7400
vn -0.3002 -0.8810 -0.3658
vn -0.1374 0.9565 -0.2571
vn -0.4691 -0.0975 -0.8777
vn -0.0464 -0.9951 -0.0869
vn -0.0464 0.9951 -0.0869
vn -0.4691 0.0975 -0.8777
vn -0.1374 -0.9565 -0.2571
vn -0.4513 0.2890 -0.8443
vn -0.2230 -0.8810 -0.4173
vn -0.4162 0.4696 -0.7786
vn -0.2999 -0.7715 -0.5611
vn -0.3651 0.6326 -0.6831
vn -0.3651 -0.6326 -0.6831
vn -0.2999 0.7715 -0.5611
vn -0.4162 -0.4696 -0.7786
vn -0.2230 0.8810 -0.4173
vn -0.4513 -0.2890 -0.8443
vn -0.2248 0.6326 -0.7412
vn -0.2248 -0.6326 -0.7412
vn -0.1847 0.7715 -0.6088
vn -0.2563 -0.4696 -0.8448
vn -0.1374 0.8810 -0.4528
vn -0.2779 -0.2890 -0.9161
vn -0.0846 0.9565 -0.2790
vn -0.2889 -0.0975 -0.9524
vn -0.0286 -0.9951 -0.0942
vn -0.0286 0.9951 -0.0942
vn -0.2889 0.0975 -0.9524
vn -0.0846 -0.9565 -0.2790
vn -0.2779 0.2890 -0.9161
vn -0.1374 -0.8810 -0.4528
vn -0.2563 0.4696 -0.8448
vn -0.1847 -0.7715 -0.6088
vn -0.0097 -0.9951 -0.0980
vn -0.0097 0.9951 -0.0980
vn -0.0975 0.0975 -0.9904
vn -0.0286 -0.9565 -0.2902
vn -0.0938 0.2890 -0.9527
vn -0.0464 -0.8810 -0.4709
vn -0.0865 0.4696 -0.8786
vn -0.0624 -0.7715 -0.6332
vn -0.0759 0.6326 -0.7708
vn -0.0759 -0.6326 -0.7708
vn -0.0624 0.7715 -0.6332
vn -0.0865 -0.4696 -0.8786
vn -0.0464 0.8810 -0.4709
vn -0.0938 -0.2890 -0.9527
vn -0.0286 0.9565 -0.2902
vn -0.0975 -0.0975 -0.9904
vn 0.0759 -0.6326 -0.7708
vn 0.0624 0.7715 -0.6332
vn 0.0865 -0.4696 -0.8786
vn 0.0464 0.8810 -0.4709
vn 0.0938 -0.2890 -0.9527
vn 0.0286 0.9565 -0.2902
vn 0.0975 -0.0975 -0.9904
vn 0.0097 -0.9951 -0.0980
vn 0.0097 0.9951 -0.0980
vn 0.0975 0.0975 -0.9904
vn 0.0286 -0.9565 -0.2902
vn 0.0938 0.2890 -0.9527
vn 0.0464 -0.8810 -0.4709
vn 0.0865 0.4696 -0.8786
vn 0.0624 -0.7715 -0.6332
vn 0.0759 0.6326 -0.7708
vn 0.2889 0.0975 -0.9524
vn 0.0846 -0.9565 -0.2790
vn 0.2779 0.2890 -0.9161
vn 0.1374 -0.8810 -0.4528
vn 0.2563 0.4696 -0.8448
vn 0.1847 -0.7715 -0.6088
vn 0.2248 0.6326 -0.7412
vn 0.2248 -0.6326 -0.7412
vn 0.1847 0.7715 -0.6088
vn 0.2563 -0.4696 -0.8448
vn 0.1374 0.8810 -0.4528
vn 0.2779 -0.2890 -0.9161
vn 0.0846 0.9565 -0.2790
vn 0.2889 -0.0975 -0.9524
vn 0.0286 -0.9951 -0.0942
vn 0.0286 0.9951 -0.0942
vn 0.2999 0.7715 -0.5611
vn 0.4162 -0.4696 -0.7786
vn 0.2230 0.8810 -0.4173
vn 0.4513 -0.2890 -0.8443
vn 0.1374 0.9565 -0.2571
vn 0.4691 -0.0975 -0.8777
vn 0.0464 -0.9951 -0.0869
vn 0.0464 0.9951 -0.0869
vn 0.4691 0.0975 -0.8777
vn 0.1374 -0.9565 -0.2571
vn 0.4513 0.2890 -0.8443
vn 0.2230 -0.8810 -0.4173
vn 0.4162 0.4696 -0.7786
vn 0.2999 -0.7715 -0.5611
vn 0.3651 0.6326 -0.6831
vn 0.3651 -0.6326 -0.6831
vn 0.1850 -0.9565 -0.2254
vn 0.6073 0.2890 -0.7400
vn 0.3002 -0.8810 -0.3658
vn 0.5601 0.4696 -0.6825
vn 0.4036 -0.7715 -0.4918
vn 0.4913 0.6326 -0.5987
vn 0.4913 -0.6326 -0.5987
vn 0.4036 0.7715 -0.4918
vn 0.5601 -0.4696 -0.6825
vn 0.3002 0.8810 -0.3658
vn 0.6073 -0.2890 -0.7400
vn 0.1850 0.9565 -0.2254
vn 0.6314 -0.0975 -0.7693
vn 0.0625 -0.9951 -0.0761
vn 0.0625 0.9951 -0.0761
vn 0.6314 0.0975 -0.7693
vn 0.6825 -0.4696 -0.5601
vn 0.3658 0.8810 -0.3002
vn 0.7400 -0.2890 -0.6073
vn 0.2254 0.9565 -0.1850
vn 0.7693 -0.0975 -0.6314
vn 0.0761 -0.9951 -0.0625
vn 0.0761 0.9951 -0.0625
vn 0.7693 0.0975 -0.6314
vn 0.2254 -0.9566 -0.1850
vn 0.7400 0.2890 -0.6073
vn 0.3658 -0.8810 -0.3002
vn 0.6825 0.4696 -0.5601
vn 0.4918 -0.7715 -0.4036
vn 0.5987 0.6326 -0.4913
vn 0.5987 -0.6326 -0.4913
vn 0.4918 0.7715 -0.4036
vn 0.8443 0.2890 -0.4513
vn 0.4173 -0.8810 -0.2231
vn 0.7786 0.4696 -0.4162
vn 0.5611 -0.7715 -0.2999
vn 0.6831 0.6326 -0.3651
vn 0.6831 -0.6326 -0.3651
vn 0.5611 0.7715 -0.2999
vn 0.7786 -0.4696 -0.4162
vn 0.4173 0.8810 -0.2230
vn 0.8443 -0.2890 -0.4513
vn 0.2571 0.9565 -0.1374
vn 0.8777 -0.0975 -0.4691
vn 0.0869 -0.9951 -0.0464
vn 0.0869 0.9951 -0.0464
vn 0.8777 0.0975 -0.4691
vn 0.2571 -0.9565 -0.1374
vn 0.4528 0.8810 -0.1374
vn 0.9161 -0.2890 -0.2779
vn 0.2790 0.9565 -0.0846
vn 0.9524 -0.0975 -0.2889
vn 0.0942 -0.9951 -0.0286
vn 0.0942 0.9951 -0.0286
vn 0.9524 0.0975 -0.2889
vn 0.2790 -0.9565 -0.0846
vn 0.9161 0.2890 -0.2779
vn 0.4528 -0.8810 -0.1374
vn 0.8448 0.4696 -0.2563
vn 0.6088 -0.7715 -0.1847
vn 0.7412 0.6326 -0.2248
vn 0.7412 -0.6326 -0.2248
vn 0.6088 0.7715 -0.1847
vn 0.8448 -0.4696 -0.2563
vn 0.8786 0.4696 -0.0865
vn 0.6332 -0.7715 -0.0624
vn 0.7708 0.6326 -0.0759
vn 0.7708 -0.6326 -0.0759
vn 0.6332 0.7715 -0.0624
vn 0.8786 -0.4696 -0.0865
vn 0.4709 0.8810 -0.0464
vn 0.9527 -0.2890 -0.0938
vn 0.2902 0.9565 -0.0286
vn 0.9904 -0.0975 -0.0976
vn 0.0980 -0.9951 -0.0097
vn 0.0980 0.9951 -0.0097
vn 0.9904 0.0975 -0.0976
vn 0.2902 -0.9565 -0.0286
vn 0.9527 0.2890 -0.0938
vn 0.4709 -0.8810 -0.0464
vn 0.2902 0.9565 0.0286
vn 0.9904 -0.0975 0.0976
vn 0.0980 -0.9951 0.0097
vn 0.0980 0.9951 0.0097
vn 0.9904 0.0975 0.0976
vn 0.2902 -0.9565 0.0286
vn 0.9527 0.2890 0.0938
vn 0.4709 -0.8810 0.0464
vn 0.8786 0.4696 0.0865
vn 0.6332 -0.7715 0.0624
vn 0.7708 0.6326 0.0759
vn 0.7708 -0.6326 0.0759
vn 0.6332 0.7715 0.0624
vn 0.8786 -0.4696 0.0865
vn 0.4709 0.8810 0.0464
vn 0.9527 -0.2890 0.0938
vn 0.6088 -0.7715 0.1847
vn 0.7412 0.6326 0.2248
vn 0.7412 -0.6326 0.2248
vn 0.6088 0.7715 0.1847
vn 0.8448 -0.4696 0.2563
vn 0.4528 0.8810 0.1374
vn 0.9161 -0.2890 0.2779
vn 0.2790 0.9565 0.0846
vn 0.9524 -0.0975 0.2889
vn 0.0942 -0.9951 0.0286
vn 0.0942 0.9951 0.0286
vn 0.9524 0.0975 0.2889
vn 0.2790 -0.9565 0.0846
vn 0.9161 0.2890 0.2779
vn 0.4528 -0.8810 0.1374
vn 0.8448 0.4696 0.2563
vn 0.8777 -0.0975 0.4691
vn 0.0869 -0.9951 0.0464
vn 0.0869 0.9951 0.0464
vn 0.8777 0.0975 0.4691
vn 0.2571 -0.9565 0.1374
vn 0.8443 0.2890 0.4513
vn 0.4173 -0.8810 0.2231
vn 0.7786 0.4696 0.4162
vn 0.5611 -0.7715 0.2999
vn 0.6831 0.6326 0.3651
vn 0.6831 -0.6326 0.3651
vn 0.5611 0.7715 0.2999
vn 0.7786 -0.4696 0.4162
vn 0.4173 0.8810 0.2231
vn 0.8443 -0.2890 0.4513
vn 0.2571 0.9565 0.1374
vn 0.5987 0.6326 0.4913
vn 0.5987 -0.6326 0.4913
vn 0.4918 0.7715 0.4036
vn 0.6825 -0.4696 0.5601
vn 0.3658 0.8810 0.3002
vn 0.7400 -0.2890 0.6073
vn 0.2254 0.9565 0.1850
vn 0.7693 -0.0975 0.6314
vn 0.0761 -0.9951 0.0625
vn 0.0761 0.9951 0.0625
vn 0.7693 0.0975 0.6314
vn 0.2254 -0.9565 0.1850
vn 0.7400 0.2890 0.6073
vn 0.3658 -0.8810 0.3002
vn 0.6825 0.4696 0.5601
vn 0.4918 -0.7715 0.4036
vn 0.0625 -0.9951 0.0761
vn 0.0625 0.9951 0.0761
vn 0.6314 0.0975 0.7693
vn 0.1850 -0.9565 0.2254
vn 0.6073 0.2890 0.7400
vn 0.3002 -0.8810 0.3658
vn 0.5601 0.4696 0.6825
vn 0.4036 -0.7715 0.4918
vn 0.4913 0.6326 0.5987
vn 0.4913 -0.6326 0.5987
vn 0.4036 0.7715 0.4918
vn 0.5601 -0.4696 0.6825
vn 0.3002 0.8810 0.3658
vn 0.6073 -0.2890 0.7400
vn 0.1850 0.9565 0.2254
vn 0.6314 -0.0975 0.7693
vn 0.3651 -0.6326 0.6831
vn 0.2999 0.7715 0.5611
vn 0.4162 -0.4696 0.7786
vn 0.2230 0.8810 0.4173
vn 0.4513 -0.2890 0.8443
vn 0.1374 0.9565 0.2571
vn 0.4691 -0.0975 0.8777
vn 0.0464 -0.9951 0.0869
vn 0.0464 0.9951 0.0869
vn 0.4691 0.0975 0.8777
vn 0.1374 -0.9565 0.2571
vn 0.4513 0.2890 0.8443
vn 0.2230 -0.8810 0.4173
vn 0.4162 0.4696 0.7786
vn 0.2999 -0.7715 0.5611
vn 0.3651 0.6326 0.6831
vn 0.2889 0.0975 0.9524
vn 0.0846 -0.9565 0.2790
vn 0.2779 0.2890 0.9161
vn 0.1374 -0.8810 0.4528
vn 0.2563 0.4696 0.8448
vn 0.1847 -0.7715 0.6088
vn 0.2248 0.6326 0.7412
vn 0.2248 -0.6326 0.7412
vn 0.1847 0.7715 0.6088
vn 0.2563 -0.4696 0.8448
vn 0.1374 0.8810 0.4528
vn 0.2779 -0.2890 0.9161
vn 0.0846 0.9565 0.2790
vn 0.2889 -0.0975 0.9524
vn 0.0286 -0.9951 0.0942
vn 0.0286 0.9951 0.0942
vn 0.0624 0.7715 0.6332
vn 0.0865 -0.4696 0.8786
vn 0.0464 0.8810 0.4709
vn 0.0938 -0.2890 0.9527
vn 0.0286 0.9565 0.2902
vn 0.0976 -0.0975 0.9904
vn 0.0097 -0.9951 0.0980
vn 0.0097 0.9951 0.0980
vn 0.0976 0.0975 0.9904
vn 0.0286 -0.9565 0.2902
vn 0.0938 0.2890 0.9527
vn 0.0464 -0.8810 0.4709
vn 0.0865 0.4696 0.8786
vn 0.0624 -0.7715 0.6332
vn 0.0759 0.6326 0.7708
vn 0.0759 -0.6326 0.7708
vn -0.0975 -0.0976 0.9904
vn -0.0975 0.0975 0.9904
vn -0.2889 0.0976 0.9524
vn -0.2230 -0.8810 0.4173
vn -0.2231 0.8810 0.4173
vn -0.4173 -0.8810 -0.2231
vn -0.4173 0.8810 -0.2231
vn 0.0976 -0.0975 -0.9904
vn 0.0976 0.0975 -0.9904
vn 0.2231 0.8810 -0.4173
vn 0.2231 -0.8810 -0.4173
vn 0.2254 -0.9565 -0.1850
vn 0.4173 -0.8810 -0.2230
vn 0.9904 -0.0975 -0.0975
vn 0.9904 0.0975 -0.0975
vn 0.9904 -0.0975 0.0975
vn 0.9904 0.0975 0.0975
vn 0.2254 -0.9566 0.1850
vt 0.750000 0.812500
vt 0.750000 0.687500
vt 0.750000 0.562500
vt 0.750000 0.500000
vt 0.750000 0.437500
vt 0.750000 0.312500
vt 0.718750 0.937500
vt 0.718750 0.875000
vt 0.718750 0.812500
vt 0.718750 0.750000
vt 0.718750 0.687500
vt 0.718750 0.625000
vt 0.718750 0.562500
vt 0.718750 0.500000
vt 0.718750 0.437500
vt 0.718750 0.375000
vt 0.718750 0.312500
vt 0.718750 0.250000
vt 0.718750 0.187500
vt 0.718750 0.125000
vt 0.718750 0.062500
vt 0.687500 0.937500
vt 0.687500 0.875000
vt 0.687500 0.812500
vt 0.687500 0.750000
vt 0.687500 0.687500
vt 0.687500 0.625000
vt 0.687500 0.562500
vt 0.687500 0.500000
vt 0.687500 0.437500
vt 0.687500 0.375000
vt 0.687500 0.312500
vt 0.687500 0.250000
vt 0.687500 0.187500
vt 0.687500 0.125000
vt 0.687500 0.062500
vt 0.656250 0.937500
vt 0.656250 0.875000
vt 0.656250 0.812500
vt 0.656250 0.750000
vt 0.656250 0.687500
vt 0.656250 0.625000
vt 0.656250 0.562500
vt 0.656250 0.500000
vt 0.656250 0.437500
vt 0.656250 0.375000
vt 0.656250 0.312500
vt 0.656250 0.250000
vt 0.656250 0.187500
vt 0.656250 0.125000
vt 0.656250 0.062500
vt 0.625000 0.937500
vt 0.625000 0.875000
vt 0.625000 0.812500
vt 0.625000 0.750000
vt 0.625000 0.687500
vt 0.625000 0.625000
vt 0.625000 0.562500
vt 0.625000 0.500000
vt 0.625000 0.437500
vt 0.625000 0.375000
vt 0.625000 0.312500
vt 0.625000 0.250000
vt 0.625000 0.187500
vt 0.625000 0.125000
vt 0.625000 0.062500
vt 0.593750 0.937500
vt 0.593750 0.875000
vt 0.593750 0.812500
vt 0.593750 0.750000
vt 0.593750 0.687500
vt 0.593750 0.625000
vt 0.593750 0.562500
vt 0.593750 0.500000
vt 0.593750 0.437500
vt 0.593750 0.375000
vt 0.593750 0.312500
vt 0.593750 0.250000
vt 0.593750 0.187500
vt 0.593750 0.125000
vt 0.593750 0.062500
vt 0.734375 1.000000
vt 0.703125 1.000000
vt 0.671875 1.000000
vt 0.640625 1.000000
vt 0.609375 1.000000
vt 0.578125 1.000000
vt 0.546875 1.000000
vt 0.515625 1.000000
vt 0.484375 1.000000
vt 0.453125 1.000000
vt 0.421875 1.000000
vt 0.390625 1.000000
vt 0.359375 1.000000
vt 0.328125 1.000000
vt 0.296875 1.000000
vt 0.265625 1.000000
vt 0.234375 1.000000
vt 0.203125 1.000000
vt 0.171875 1.000000
vt 0.140625 1.000000
vt 0.109375 1.000000
vt 0.078125 1.000000
vt 0.046875 1.000000
vt 0.015625 1.000000
vt 0.984375 1.000000
vt 0.953125 1.000000
vt 0.921875 1.000000
vt 0.890625 1.000000
vt 0.859375 1.000000
vt 0.828125 1.000000
vt 0.796875 1.000000
vt 0.765625 1.000000
vt 0.562500 0.937500
vt 0.562500 0.875000
vt 0.562500 0.812500
vt 0.562500 0.750000
vt 0.562500 0.687500
vt 0.562500 0.625000
vt 0.562500 0.562500
vt 0.562500 0.500000
vt 0.562500 0.437500
vt 0.562500 0.375000
vt 0.562500 0.312500
vt 0.562500 0.250000
vt 0.562500 0.187500
vt 0.562500 0.125000
vt 0.562500 0.062500
vt 0.531250 0.937500
vt 0.531250 0.875000
vt 0.531250 0.812500
vt 0.531250 0.750000
vt 0.531250 0.687500
vt 0.531250 0.625000
vt 0.531250 0.562500
vt 0.531250 0.500000
vt 0.531250 0.437500
vt 0.531250 0.375000
vt 0.531250 0.312500
vt 0.531250 0.250000
vt 0.531250 0.187500
vt 0.531250 0.125000
vt 0.531250 0.062500
vt 0.500000 0.937500
vt 0.500000 0.875000
vt 0.500000 0.812500
vt 0.500000 0.750000
vt 0.500000 0.687500
vt 0.500000 0.625000
vt 0.500000 0.562500
vt 0.500000 0.500000
vt 0.500000 0.437500
vt 0.500000 0.375000
vt 0.500000 0.312500
vt 0.500000 0.250000
vt 0.500000 0.187500
vt 0.500000 0.125000
vt 0.500000 0.062500
vt 0.468750 0.937500
vt 0.468750 0.875000
vt 0.468750 0.812500
vt 0.468750 0.750000
vt 0.468750 0.687500
vt 0.468750 0.625000
vt 0.468750 0.562500
vt 0.468750 0.500000
vt 0.468750 0.437500
vt 0.468750 0.375000
vt 0.468750 0.312500
vt 0.468750 0.250000
vt 0.468750 0.187500
vt 0.468750 0.125000
vt 0.468750 0.062500
vt 0.437500 0.937500
vt 0.437500 0.875000
vt 0.437500 0.812500
vt 0.437500 0.750000
vt 0.437500 0.687500
vt 0.437500 0.625000
vt 0.437500 0.562500
vt 0.437500 0.500000
vt 0.437500 0.437500
vt 0.437500 0.375000
vt 0.437500 0.312500
vt 0.437500 0.250000
vt 0.437500 0.187500
vt 0.437500 0.125000
vt 0.437500 0.062500
vt 0.406250 0.937500
vt 0.406250 0.875000
vt 0.406250 0.812500
vt 0.406250 0.750000
vt 0.406250 0.687500
vt 0.406250 0.625000
vt 0.406250 0.562500
vt 0.406250 0.500000
vt 0.406250 0.437500
vt 0.406250 0.375000
vt 0.406250 0.312500
vt 0.406250 0.250000
vt 0.406250 0.187500
vt 0.406250 0.125000
vt 0.406250 0.062500
vt 0.375000 0.937500
vt 0.375000 0.875000
vt 0.375000 0.812500
vt 0.375000 0.750000
vt 0.375000 0.687500
vt 0.375000 0.625000
vt 0.375000 0.562500
vt 0.375000 0.500000
vt 0.375000 0.437500
vt 0.375000 0.375000
vt 0.375000 0.312500
vt 0.375000 0.250000
vt 0.375000 0.187500
vt 0.375000 0.125000
vt 0.375000 0.062500
vt 0.343750 0.937500
vt 0.343750 0.875000
vt 0.343750 0.812500
vt 0.343750 0.750000
vt 0.343750 0.687500
vt 0.343750 0.625000
vt 0.343750 0.562500
vt 0.343750 0.500000
vt 0.343750 0.437500
vt 0.343750 0.375000
vt 0.343750 0.312500
vt 0.343750 0.250000
vt 0.343750 0.187500
vt 0.343750 0.125000
vt 0.343750 0.062500
vt 0.312500 0.937500
vt 0.312500 0.875000
vt 0.312500 0.812500
vt 0.312500 0.750000
vt 0.312500 0.687500
vt 0.312500 0.625000
vt 0.312500 0.562500
vt 0.312500 0.500000
vt 0.312500 0.437500
vt 0.312500 0.375000
vt 0.312500 0.312500
vt 0.312500 0.250000
vt 0.312500 0.187500
vt 0.312500 0.125000
vt 0.312500 0.062500
vt 0.281250 0.937500
vt 0.281250 0.875000
vt 0.281250 0.812500
vt 0.281250 0.750000
vt 0.281250 0.687500
vt 0.281250 0.625000
vt 0.281250 0.562500
vt 0.281250 0.500000
vt 0.281250 0.437500
vt 0.281250 0.375000
vt 0.281250 0.312500
vt 0.281250 0.250000
vt 0.281250 0.187500
vt 0.281250 0.125000
vt 0.281250 0.062500
vt 0.250000 0.937500
vt 0.250000 0.875000
vt 0.250000 0.812500
vt 0.250000 0.750000
vt 0.250000 0.687500
vt 0.250000 0.625000
vt 0.250000 0.562500
vt 0.250000 0.500000
vt 0.250000 0.437500
vt 0.250000 0.375000
vt 0.250000 0.312500
vt 0.250000 0.250000
vt 0.250000 0.187500
vt 0.250000 0.125000
vt 0.250000 0.062500
vt 0.218750 0.937500
vt 0.218750 0.875000
vt 0.218750 0.812500
vt 0.218750 0.750000
vt 0.218750 0.687500
vt 0.218750 0.625000
vt 0.218750 0.562500
vt 0.218750 0.500000
vt 0.218750 0.437500
vt 0.218750 0.375000
vt 0.218750 0.312500
vt 0.218750 0.250000
vt 0.218750 0.187500
vt 0.218750 0.125000
vt 0.218750 0.062500
vt 0.187500 0.937500
vt 0.187500 0.875000
vt 0.187500 0.812500
vt 0.187500 0.750000
vt 0.187500 0.687500
vt 0.187500 0.625000
vt 0.187500 0.562500
vt 0.187500 0.500000
vt 0.187500 0.437500
vt 0.187500 0.375000
vt 0.187500 0.312500
vt 0.187500 0.250000
vt 0.187500 0.187500
vt 0.187500 0.125000
vt 0.187500 0.062500
vt 0.156250 0.937500
vt 0.156250 0.875000
vt 0.156250 0.812500
vt 0.156250 0.750000
vt 0.156250 0.687500
vt 0.156250 0.625000
vt 0.156250 0.562500
vt 0.156250 0.500000
vt 0.156250 0.437500
vt 0.156250 0.375000
vt 0.156250 0.312500
vt 0.156250 0.250000
vt 0.156250 0.187500
vt 0.156250 0.125000
vt 0.156250 0.062500
vt 0.125000 0.937500
vt 0.125000 0.875000
vt 0.125000 0.812500
vt 0.125000 0.750000
vt 0.125000 0.687500
vt 0.125000 0.625000
vt 0.125000 0.562500
vt 0.125000 0.500000
vt 0.125000 0.437500
vt 0.125000 0.375000
vt 0.125000 0.312500
vt 0.125000 0.250000
vt 0.125000 0.187500
vt 0.125000 0.125000
vt 0.125000 0.062500
vt 0.734375 0.000000
vt 0.703125 0.000000
vt 0.671875 0.000000
vt 0.640625 0.000000
vt 0.609375 0.000000
vt 0.578125 0.000000
vt 0.546875 0.000000
vt 0.515625 0.000000
vt 0.484375 0.000000
vt 0.453125 0.000000
vt 0.421875 0.000000
vt 0.390625 0.000000
vt 0.359375 0.000000
vt 0.328125 0.000000
vt 0.296875 0.000000
vt 0.265625 0.000000
vt 0.234375 0.000000
vt 0.203125 0.000000
vt 0.171875 0.000000
vt 0.140625 0.000000
vt 0.109375 0.000000
vt 0.078125 0.000000
vt 0.046875 0.000000
vt 0.015625 0.000000
vt 0.984375 0.000000
vt 0.953125 0.000000
vt 0.921875 0.000000
vt 0.890625 0.000000
vt 0.859375 0.000000
vt 0.828125 0.000000
vt 0.796875 0.000000
vt 0.765625 0.000000
vt 0.093750 0.937500
vt 0.093750 0.875000
vt 0.093750 0.812500
vt 0.093750 0.750000
vt 0.093750 0.687500
vt 0.093750 0.625000
vt 0.093750 0.562500
vt 0.093750 0.500000
vt 0.093750 0.437500
vt 0.093750 0.375000
vt 0.093750 0.312500
vt 0.093750 0.250000
vt 0.093750 0.187500
vt 0.093750 0.125000
vt 0.093750 0.062500
vt 0.062500 0.937500
vt 0.062500 0.875000
vt 0.062500 0.812500
vt 0.062500 0.750000
vt 0.062500 0.687500
vt 0.062500 0.625000
vt 0.062500 0.562500
vt 0.062500 0.500000
vt 0.062500 0.437500
vt 0.062500 0.375000
vt 0.062500 0.312500
vt 0.062500 0.250000
vt 0.062500 0.187500
vt 0.062500 0.125000
vt 0.062500 0.062500
vt 0.031250 0.937500
vt 0.031250 0.875000
vt 0.031250 0.812500
vt 0.031250 0.750000
vt 0.031250 0.687500
vt 0.031250 0.625000
vt 0.031250 0.562500
vt 0.031250 0.500000
vt 0.031250 0.437500
vt 0.031250 0.375000
vt 0.031250 0.312500
vt 0.031250 0.250000
vt 0.031250 0.187500
vt 0.031250 0.125000
vt 0.031250 0.062500
vt 1.000000 0.937500
vt 0.000000 0.937500
vt 0.000000 0.875000
vt 1.000000 0.875000
vt 0.000000 0.812500
vt 1.000000 0.812500
vt 1.000000 0.750000
vt 0.000000 0.750000
vt 0.000000 0.687500
vt 1.000000 0.687500
vt 1.000000 0.625000
vt 0.000000 0.625000
vt 0.000000 0.562500
vt 1.000000 0.562500
vt 0.000000 0.500000
vt 1.000000 0.500000
vt 0.000000 0.437500
vt 1.000000 0.437500
vt 1.000000 0.375000
vt 0.000000 0.375000
vt 0.000000 0.312500
vt 1.000000 0.312500
vt 1.000000 0.250000
vt 0.000000 0.250000
vt 0.000000 0.187500
vt 1.000000 0.187500
vt 0.000000 0.125000
vt 1.000000 0.125000
vt 1.000000 0.062500
vt 0.000000 0.062500
vt 0.968750 0.937500
vt 0.968750 0.875000
vt 0.968750 0.812500
vt 0.968750 0.750000
vt 0.968750 0.687500
vt 0.968750 0.625000
vt 0.968750 0.562500
vt 0.968750 0.500000
vt 0.968750 0.437500
vt 0.968750 0.375000
vt 0.968750 0.312500
vt 0.968750 0.250000
vt 0.968750 0.187500
vt 0.968750 0.125000
vt 0.968750 0.062500
vt 0.937500 0.937500
vt 0.937500 0.875000
vt 0.937500 0.812500
vt 0.937500 0.750000
vt 0.937500 0.687500
vt 0.937500 0.625000
vt 0.937500 0.562500
vt 0.937500 0.500000
vt 0.937500 0.437500
vt 0.937500 0.375000
vt 0.937500 0.312500
vt 0.937500 0.250000
vt 0.937500 0.187500
vt 0.937500 0.125000
vt 0.937500 0.062500
vt 0.906250 0.937500
vt 0.906250 0.875000
vt 0.906250 0.812500
vt 0.906250 0.750000
vt 0.906250 0.687500
vt 0.906250 0.625000
vt 0.906250 0.562500
vt 0.906250 0.500000
vt 0.906250 0.437500
vt 0.906250 0.375000
vt 0.906250 0.312500
vt 0.906250 0.250000
vt 0.906250 0.187500
vt 0.906250 0.125000
vt 0.906250 0.062500
vt 0.875000 0.937500
vt 0.875000 0.875000
vt 0.875000 0.812500
vt 0.875000 0.750000
vt 0.875000 0.687500
vt 0.875000 0.625000
vt 0.875000 0.562500
vt 0.875000 0.500000
vt 0.875000 0.437500
vt 0.875000 0.375000
vt 0.875000 0.312500
vt 0.875000 0.250000
vt 0.875000 0.187500
vt 0.875000 0.125000
vt 0.875000 0.062500
vt 0.843750 0.937500
vt 0.843750 0.875000
vt 0.843750 0.812500
vt 0.843750 0.750000
vt 0.843750 0.687500
vt 0.843750 0.625000
vt 0.843750 0.562500
vt 0.843750 0.500000
vt 0.843750 0.437500
vt 0.843750 0.375000
vt 0.843750 0.312500
vt 0.843750 0.250000
vt 0.843750 0.187500
vt 0.843750 0.125000
vt 0.843750 0.062500
vt 0.812500 0.937500
vt 0.812500 0.875000
vt 0.812500 0.812500
vt 0.812500 0.750000
vt 0.812500 0.687500
vt 0.812500 0.625000
vt 0.812500 0.562500
vt 0.812500 0.500000
vt 0.812500 0.437500
vt 0.812500 0.375000
vt 0.812500 0.312500
vt 0.812500 0.250000
vt 0.812500 0.187500
vt 0.812500 0.125000
vt 0.812500 0.062500
vt 0.781250 0.937500
vt 0.781250 0.875000
vt 0.781250 0.812500
vt 0.781250 0.750000
vt 0.781250 0.687500
vt 0.781250 0.625000
vt 0.781250 0.562500
vt 0.781250 0.500000
vt 0.781250 0.437500
vt 0.781250 0.375000
vt 0.781250 0.312500
vt 0.781250 0.250000
vt 0.781250 0.187500
vt 0.781250 0.125000
vt 0.781250 0.062500
vt 0.750000 0.937500
vt 0.750000 0.875000
vt 0.750000 0.750000
vt 0.750000 0.625000
vt 0.750000 0.375000
vt 0.750000 0.250000
vt 0.750000 0.187500
vt 0.750000 0.125000
vt 0.750000 0.062500
s 0
usemtl マテリアル
f 19/19/1 479/556/1 480/557/1
f 477/554/2 11/11/2 2/2/2
f 20/20/3 480/557/3 481/558/3
f 3/3/4 12/12/4 477/554/4
f 21/21/5 481/558/5 482/559/5
f 14/14/6 3/3/6 4/4/6
f 474/551/7 7/7/7 82/82/7
f 308/339/8 21/21/8 482/559/8
f 15/15/9 4/4/9 5/5/9
f 475/552/10 7/7/10 474/551/10
f 16/16/11 5/5/11 478/555/11
f 1/1/12 8/8/12 475/552/12
f 17/17/13 478/555/13 6/6/13
f 476/553/14 9/9/14 1/1/14
f 18/18/15 6/6/15 479/556/15
f 11/11/16 476/553/16 2/2/16
f 25/25/17 9/9/17 10/10/17
f 33/33/18 17/17/18 18/18/18
f 26/26/19 10/10/19 11/11/19
f 19/19/20 33/33/20 18/18/20
f 27/27/21 11/11/21 12/12/21
f 20/20/22 34/34/22 19/19/22
f 13/13/23 27/27/23 12/12/23
f 36/36/24 20/20/24 21/21/24
f 29/29/25 13/13/25 14/14/25
f 7/7/26 22/22/26 82/83/26
f 308/340/27 36/36/27 21/21/27
f 30/30/28 14/14/28 15/15/28
f 23/23/29 7/7/29 8/8/29
f 31/31/30 15/15/30 16/16/30
f 24/24/31 8/8/31 9/9/31
f 32/32/32 16/16/32 17/17/32
f 44/44/33 28/28/33 29/29/33
f 22/22/34 37/37/34 82/84/34
f 308/341/35 51/51/35 36/36/35
f 30/30/36 44/44/36 29/29/36
f 38/38/37 22/22/37 23/23/37
f 46/46/38 30/30/38 31/31/38
f 39/39/39 23/23/39 24/24/39
f 32/32/40 46/46/40 31/31/40
f 40/40/41 24/24/41 25/25/41
f 33/33/42 47/47/42 32/32/42
f 41/41/43 25/25/43 26/26/43
f 34/34/44 48/48/44 33/33/44
f 42/42/45 26/26/45 27/27/45
f 50/50/46 34/34/46 35/35/46
f 28/28/47 42/42/47 27/27/47
f 36/36/48 50/50/48 35/35/48
f 63/63/49 47/47/49 48/48/49
f 56/56/50 40/40/50 41/41/50
f 64/64/51 48/48/51 49/49/51
f 57/57/52 41/41/52 42/42/52
f 50/50/53 64/64/53 49/49/53
f 43/43/54 57/57/54 42/42/54
f 66/66/55 50/50/55 51/51/55
f 59/59/56 43/43/56 44/44/56
f 37/37/57 52/52/57 82/85/57
f 308/342/58 66/66/58 51/51/58
f 60/60/59 44/44/59 45/45/59
f 53/53/60 37/37/60 38/38/60
f 61/61/61 45/45/61 46/46/61
f 54/54/62 38/38/62 39/39/62
f 47/47/63 61/61/63 46/46/63
f 55/55/64 39/39/64 40/40/64
f 308/343/65 81/81/65 66/66/65
f 75/75/66 59/59/66 60/60/66
f 68/68/67 52/52/67 53/53/67
f 76/76/68 60/60/68 61/61/68
f 69/69/69 53/53/69 54/54/69
f 62/62/70 76/76/70 61/61/70
f 70/70/71 54/54/71 55/55/71
f 78/78/72 62/62/72 63/63/72
f 56/56/73 70/70/73 55/55/73
f 64/64/74 78/78/74 63/63/74
f 72/72/75 56/56/75 57/57/75
f 80/80/76 64/64/76 65/65/76
f 58/58/77 72/72/77 57/57/77
f 81/81/78 65/65/78 66/66/78
f 59/59/79 73/73/79 58/58/79
f 52/52/80 67/67/80 82/86/80
f 95/126/81 78/78/81 79/79/81
f 88/119/82 71/71/82 72/72/82
f 96/127/83 79/79/83 80/80/83
f 73/73/84 88/119/84 72/72/84
f 81/81/85 96/127/85 80/80/85
f 74/74/86 89/120/86 73/73/86
f 67/67/87 83/114/87 82/87/87
f 308/344/88 97/128/88 81/81/88
f 91/122/89 74/74/89 75/75/89
f 84/115/90 67/67/90 68/68/90
f 92/123/91 75/75/91 76/76/91
f 85/116/92 68/68/92 69/69/92
f 77/77/93 92/123/93 76/76/93
f 70/70/94 85/116/94 69/69/94
f 94/125/95 77/77/95 78/78/95
f 71/71/96 86/117/96 70/70/96
f 99/130/97 83/114/97 84/115/97
f 107/138/98 91/122/98 92/123/98
f 100/131/99 84/115/99 85/116/99
f 93/124/100 107/138/100 92/123/100
f 101/132/101 85/116/101 86/117/101
f 109/140/102 93/124/102 94/125/102
f 87/118/103 101/132/103 86/117/103
f 95/126/104 109/140/104 94/125/104
f 103/134/105 87/118/105 88/119/105
f 96/127/106 110/141/106 95/126/106
f 89/120/107 103/134/107 88/119/107
f 112/143/108 96/127/108 97/128/108
f 90/121/109 104/135/109 89/120/109
f 83/114/110 98/129/110 82/88/110
f 308/345/111 112/143/111 97/128/111
f 106/137/112 90/121/112 91/122/112
f 118/149/113 102/133/113 103/134/113
f 126/157/114 110/141/114 111/142/114
f 104/135/115 118/149/115 103/134/115
f 112/143/116 126/157/116 111/142/116
f 105/136/117 119/150/117 104/135/117
f 98/129/118 113/144/118 82/89/118
f 308/346/119 127/158/119 112/143/119
f 121/152/120 105/136/120 106/137/120
f 114/145/121 98/129/121 99/130/121
f 122/153/122 106/137/122 107/138/122
f 115/146/123 99/130/123 100/131/123
f 108/139/124 122/153/124 107/138/124
f 116/147/125 100/131/125 101/132/125
f 124/155/126 108/139/126 109/140/126
f 102/133/127 116/147/127 101/132/127
f 110/141/128 124/155/128 109/140/128
f 137/168/129 121/152/129 122/153/129
f 130/161/130 114/145/130 115/146/130
f 123/154/131 137/168/131 122/153/131
f 131/162/132 115/146/132 116/147/132
f 139/170/133 123/154/133 124/155/133
f 117/148/134 131/162/134 116/147/134
f 125/156/135 139/170/135 124/155/135
f 133/164/136 117/148/136 118/149/136
f 141/172/137 125/156/137 126/157/137
f 119/150/138 133/164/138 118/149/138
f 142/173/139 126/157/139 127/158/139
f 120/151/140 134/165/140 119/150/140
f 113/144/141 128/159/141 82/90/141
f 308/347/142 142/173/142 127/158/142
f 136/167/143 120/151/143 121/152/143
f 114/145/144 128/159/144 113/144/144
f 156/187/145 140/171/145 141/172/145
f 134/165/146 148/179/146 133/164/146
f 157/188/147 141/172/147 142/173/147
f 135/166/148 149/180/148 134/165/148
f 128/159/149 143/174/149 82/91/149
f 308/348/150 157/188/150 142/173/150
f 151/182/151 135/166/151 136/167/151
f 144/175/152 128/159/152 129/160/152
f 152/183/153 136/167/153 137/168/153
f 145/176/154 129/160/154 130/161/154
f 138/169/155 152/183/155 137/168/155
f 146/177/156 130/161/156 131/162/156
f 154/185/157 138/169/157 139/170/157
f 132/163/158 146/177/158 131/162/158
f 140/171/159 154/185/159 139/170/159
f 148/179/160 132/163/160 133/164/160
f 145/176/161 159/190/161 144/175/161
f 153/184/162 167/198/162 152/183/162
f 161/192/163 145/176/163 146/177/163
f 169/200/164 153/184/164 154/185/164
f 147/178/165 161/192/165 146/177/165
f 155/186/166 169/200/166 154/185/166
f 163/194/167 147/178/167 148/179/167
f 171/202/168 155/186/168 156/187/168
f 149/180/169 163/194/169 148/179/169
f 157/188/170 171/202/170 156/187/170
f 150/181/171 164/195/171 149/180/171
f 143/174/172 158/189/172 82/92/172
f 308/349/173 172/203/173 157/188/173
f 166/197/174 150/181/174 151/182/174
f 159/190/175 143/174/175 144/175/175
f 167/198/176 151/182/176 152/183/176
f 164/195/177 178/209/177 163/194/177
f 172/203/178 186/217/178 171/202/178
f 165/196/179 179/210/179 164/195/179
f 158/189/180 173/204/180 82/93/180
f 308/350/181 187/218/181 172/203/181
f 181/212/182 165/196/182 166/197/182
f 174/205/183 158/189/183 159/190/183
f 182/213/184 166/197/184 167/198/184
f 175/206/185 159/190/185 160/191/185
f 168/199/186 182/213/186 167/198/186
f 176/207/187 160/191/187 161/192/187
f 184/215/188 168/199/188 169/200/188
f 162/193/189 176/207/189 161/192/189
f 170/201/190 184/215/190 169/200/190
f 178/209/191 162/193/191 163/194/191
f 186/217/192 170/201/192 171/202/192
f 183/214/193 197/228/193 182/213/193
f 191/222/194 175/206/194 176/207/194
f 199/230/195 183/214/195 184/215/195
f 177/208/196 191/222/196 176/207/196
f 185/216/197 199/230/197 184/215/197
f 193/224/198 177/208/198 178/209/198
f 201/232/199 185/216/199 186/217/199
f 179/210/200 193/224/200 178/209/200
f 202/233/201 186/217/201 187/218/201
f 180/211/202 194/225/202 179/210/202
f 173/204/203 188/219/203 82/94/203
f 308/351/204 202/233/204 187/218/204
f 196/227/205 180/211/205 181/212/205
f 174/205/206 188/219/206 173/204/206
f 197/228/207 181/212/207 182/213/207
f 175/206/208 189/220/208 174/205/208
f 217/248/209 201/232/209 202/233/209
f 195/226/210 209/240/210 194/225/210
f 188/219/211 203/234/211 82/95/211
f 308/352/212 217/248/212 202/233/212
f 211/242/213 195/226/213 196/227/213
f 204/235/214 188/219/214 189/220/214
f 212/243/215 196/227/215 197/228/215
f 205/236/216 189/220/216 190/221/216
f 198/229/217 212/243/217 197/228/217
f 206/237/218 190/221/218 191/222/218
f 214/245/219 198/229/219 199/230/219
f 192/223/220 206/237/220 191/222/220
f 200/231/221 214/245/221 199/230/221
f 208/239/222 192/223/222 193/224/222
f 216/247/223 200/231/223 201/232/223
f 194/225/224 208/239/224 193/224/224
f 229/260/225 213/244/225 214/245/225
f 207/238/226 221/252/226 206/237/226
f 215/246/227 229/260/227 214/245/227
f 223/254/228 207/238/228 208/239/228
f 231/262/229 215/246/229 216/247/229
f 209/240/230 223/254/230 208/239/230
f 232/263/231 216/247/231 217/248/231
f 210/241/232 224/255/232 209/240/232
f 203/234/233 218/249/233 82/96/233
f 308/353/234 232/263/234 217/248/234
f 226/257/235 210/241/235 211/242/235
f 219/250/236 203/234/236 204/235/236
f 227/258/237 211/242/237 212/243/237
f 220/251/238 204/235/238 205/236/238
f 213/244/239 227/258/239 212/243/239
f 221/252/240 205/236/240 206/237/240
f 218/249/241 233/264/241 82/97/241
f 308/354/242 247/278/242 232/263/242
f 241/272/243 225/256/243 226/257/243
f 234/265/244 218/249/244 219/250/244
f 242/273/245 226/257/245 227/258/245
f 235/266/246 219/250/246 220/251/246
f 228/259/247 242/273/247 227/258/247
f 236/267/248 220/251/248 221/252/248
f 244/275/249 228/259/249 229/260/249
f 222/253/250 236/267/250 221/252/250
f 230/261/251 244/275/251 229/260/251
f 238/269/252 222/253/252 223/254/252
f 246/277/253 230/261/253 231/262/253
f 224/255/254 238/269/254 223/254/254
f 247/278/255 231/262/255 232/263/255
f 225/256/256 239/270/256 224/255/256
f 237/268/257 251/282/257 236/267/257
f 245/276/258 259/290/258 244/275/258
f 253/284/259 237/268/259 238/269/259
f 261/292/260 245/276/260 246/277/260
f 239/270/261 253/284/261 238/269/261
f 247/278/262 261/292/262 246/277/262
f 240/271/263 254/285/263 239/270/263
f 233/264/264 248/279/264 82/98/264
f 308/355/265 262/293/265 247/278/265
f 256/287/266 240/271/266 241/272/266
f 249/280/267 233/264/267 234/265/267
f 257/288/268 241/272/268 242/273/268
f 250/281/269 234/265/269 235/266/269
f 243/274/270 257/288/270 242/273/270
f 251/282/271 235/266/271 236/267/271
f 259/290/272 243/274/272 244/275/272
f 271/302/273 255/286/273 256/287/273
f 249/280/274 263/294/274 248/279/274
f 272/303/275 256/287/275 257/288/275
f 265/296/276 249/280/276 250/281/276
f 258/289/277 272/303/277 257/288/277
f 266/297/278 250/281/278 251/282/278
f 274/305/279 258/289/279 259/290/279
f 252/283/280 266/297/280 251/282/280
f 260/291/281 274/305/281 259/290/281
f 268/299/282 252/283/282 253/284/282
f 261/292/283 275/306/283 260/291/283
f 254/285/284 268/299/284 253/284/284
f 277/308/285 261/292/285 262/293/285
f 255/286/286 269/300/286 254/285/286
f 248/279/287 263/294/287 82/99/287
f 308/356/288 277/308/288 262/293/288
f 275/306/289 289/320/289 274/305/289
f 283/314/290 267/298/290 268/299/290
f 276/307/291 290/321/291 275/306/291
f 269/300/292 283/314/292 268/299/292
f 292/323/293 276/307/293 277/308/293
f 270/301/294 284/315/294 269/300/294
f 263/294/295 278/309/295 82/100/295
f 308/357/296 292/323/296 277/308/296
f 286/317/297 270/301/297 271/302/297
f 279/310/298 263/294/298 264/295/298
f 287/318/299 271/302/299 272/303/299
f 280/311/300 264/295/300 265/296/300
f 273/304/301 287/318/301 272/303/301
f 281/312/302 265/296/302 266/297/302
f 289/320/303 273/304/303 274/305/303
f 267/298/304 281/312/304 266/297/304
f 294/325/305 278/309/305 279/310/305
f 302/333/306 286/317/306 287/318/306
f 280/311/307 294/325/307 279/310/307
f 288/319/308 302/333/308 287/318/308
f 296/327/309 280/311/309 281/312/309
f 304/335/310 288/319/310 289/320/310
f 282/313/311 296/327/311 281/312/311
f 290/321/312 304/335/312 289/320/312
f 298/329/313 282/313/313 283/314/313
f 306/337/314 290/321/314 291/322/314
f 284/315/315 298/329/315 283/314/315
f 307/338/316 291/322/316 292/323/316
f 285/316/317 299/330/317 284/315/317
f 278/309/318 293/324/318 82/101/318
f 308/358/319 307/338/319 292/323/319
f 301/332/320 285/316/320 286/317/320
f 314/376/321 297/328/321 298/329/321
f 322/384/322 305/336/322 306/337/322
f 299/330/323 314/376/323 298/329/323
f 323/385/324 306/337/324 307/338/324
f 300/331/325 315/377/325 299/330/325
f 293/324/326 309/371/326 82/102/326
f 308/359/327 323/385/327 307/338/327
f 317/379/328 300/331/328 301/332/328
f 294/325/329 309/371/329 293/324/329
f 318/380/330 301/332/330 302/333/330
f 295/326/331 310/372/331 294/325/331
f 303/334/332 318/380/332 302/333/332
f 312/374/333 295/326/333 296/327/333
f 320/382/334 303/334/334 304/335/334
f 297/328/335 312/374/335 296/327/335
f 305/336/336 320/382/336 304/335/336
f 333/395/337 317/379/337 318/380/337
f 311/373/338 325/387/338 310/372/338
f 319/381/339 333/395/339 318/380/339
f 327/389/340 311/373/340 312/374/340
f 335/397/341 319/381/341 320/382/341
f 313/375/342 327/389/342 312/374/342
f 321/383/343 335/397/343 320/382/343
f 329/391/344 313/375/344 314/376/344
f 322/384/345 336/398/345 321/383/345
f 315/377/346 329/391/346 314/376/346
f 338/400/347 322/384/347 323/385/347
f 316/378/348 330/392/348 315/377/348
f 309/371/349 324/386/349 82/103/349
f 308/360/350 338/400/350 323/385/350
f 332/394/351 316/378/351 317/379/351
f 325/387/352 309/371/352 310/372/352
f 352/414/353 336/398/353 337/399/353
f 330/392/354 344/406/354 329/391/354
f 338/400/355 352/414/355 337/399/355
f 331/393/356 345/407/356 330/392/356
f 324/386/357 339/401/357 82/104/357
f 308/361/358 353/415/358 338/400/358
f 347/409/359 331/393/359 332/394/359
f 325/387/360 339/401/360 324/386/360
f 348/410/361 332/394/361 333/395/361
f 341/403/362 325/387/362 326/388/362
f 334/396/363 348/410/363 333/395/363
f 342/404/364 326/388/364 327/389/364
f 350/412/365 334/396/365 335/397/365
f 328/390/366 342/404/366 327/389/366
f 336/398/367 350/412/367 335/397/367
f 344/406/368 328/390/368 329/391/368
f 349/411/369 363/435/369 348/410/369
f 357/423/370 341/403/370 342/404/370
f 365/439/371 349/411/371 350/412/371
f 343/405/372 357/423/372 342/404/372
f 351/413/373 365/439/373 350/412/373
f 359/427/374 343/405/374 344/406/374
f 367/442/375 351/413/375 352/414/375
f 345/407/376 359/427/376 344/406/376
f 368/445/377 352/414/377 353/415/377
f 346/408/378 360/428/378 345/407/378
f 339/401/379 354/417/379 82/105/379
f 308/362/380 368/445/380 353/415/380
f 362/432/381 346/408/381 347/409/381
f 355/418/382 339/401/382 340/402/382
f 363/435/383 347/409/383 348/410/383
f 356/420/384 340/402/384 341/403/384
f 383/460/385 367/443/385 368/444/385
f 361/431/386 375/452/386 360/429/386
f 354/416/387 369/446/387 82/106/387
f 308/363/388 383/460/388 368/444/388
f 377/454/389 361/431/389 362/433/389
f 355/419/390 369/446/390 354/416/390
f 378/455/391 362/433/391 363/434/391
f 356/421/392 370/447/392 355/419/392
f 364/437/393 378/455/393 363/434/393
f 372/449/394 356/421/394 357/422/394
f 380/457/395 364/437/395 365/438/395
f 358/425/396 372/449/396 357/422/396
f 366/441/397 380/457/397 365/438/397
f 374/451/398 358/425/398 359/426/398
f 382/459/399 366/441/399 367/443/399
f 360/429/400 374/451/400 359/426/400
f 387/464/401 371/448/401 372/449/401
f 395/472/402 379/456/402 380/457/402
f 373/450/403 387/464/403 372/449/403
f 381/458/404 395/472/404 380/457/404
f 389/466/405 373/450/405 374/451/405
f 397/474/406 381/458/406 382/459/406
f 375/452/407 389/466/407 374/451/407
f 398/475/408 382/459/408 383/460/408
f 376/453/409 390/467/409 375/452/409
f 369/446/410 384/461/410 82/107/410
f 308/364/411 398/475/411 383/460/411
f 392/469/412 376/453/412 377/454/412
f 385/462/413 369/446/413 370/447/413
f 393/470/414 377/454/414 378/455/414
f 371/448/415 385/462/415 370/447/415
f 379/456/416 393/470/416 378/455/416
f 391/468/417 405/482/417 390/467/417
f 384/461/418 399/476/418 82/108/418
f 308/365/419 413/490/419 398/475/419
f 407/484/420 391/468/420 392/469/420
f 385/462/421 399/476/421 384/461/421
f 408/485/422 392/469/422 393/470/422
f 401/478/423 385/462/423 386/463/423
f 394/471/424 408/485/424 393/470/424
f 402/479/425 386/463/425 387/464/425
f 410/487/426 394/471/426 395/472/426
f 388/465/427 402/479/427 387/464/427
f 396/473/428 410/487/428 395/472/428
f 404/481/429 388/465/429 389/466/429
f 397/474/430 411/488/430 396/473/430
f 390/467/431 404/481/431 389/466/431
f 413/490/432 397/474/432 398/475/432
f 425/502/433 409/486/433 410/487/433
f 403/480/434 417/494/434 402/479/434
f 411/488/435 425/502/435 410/487/435
f 419/496/436 403/480/436 404/481/436
f 427/504/437 411/488/437 412/489/437
f 405/482/438 419/496/438 404/481/438
f 413/490/439 427/504/439 412/489/439
f 406/483/440 420/497/440 405/482/440
f 399/476/441 414/491/441 82/109/441
f 308/366/442 428/505/442 413/490/442
f 422/499/443 406/483/443 407/484/443
f 415/492/444 399/476/444 400/477/444
f 423/500/445 407/484/445 408/485/445
f 401/478/446 415/492/446 400/477/446
f 409/486/447 423/500/447 408/485/447
f 417/494/448 401/478/448 402/479/448
f 414/491/449 429/506/449 82/110/449
f 308/367/450 443/520/450 428/505/450
f 437/514/451 421/498/451 422/499/451
f 430/507/452 414/491/452 415/492/452
f 438/515/453 422/499/453 423/500/453
f 416/493/454 430/507/454 415/492/454
f 424/501/455 438/515/455 423/500/455
f 432/509/456 416/493/456 417/494/456
f 440/517/457 424/501/457 425/502/457
f 418/495/458 432/509/458 417/494/458
f 426/503/459 440/517/459 425/502/459
f 434/511/460 418/495/460 419/496/460
f 442/519/461 426/503/461 427/504/461
f 420/497/462 434/511/462 419/496/462
f 443/520/463 427/504/463 428/505/463
f 421/498/464 435/512/464 420/497/464
f 433/510/465 447/524/465 432/509/465
f 441/518/466 455/532/466 440/517/466
f 449/526/467 433/510/467 434/511/467
f 457/534/468 441/518/468 442/519/468
f 435/512/469 449/526/469 434/511/469
f 458/535/470 442/519/470 443/520/470
f 436/513/471 450/527/471 435/512/471
f 429/506/472 444/521/472 82/111/472
f 308/368/473 458/535/473 443/520/473
f 452/529/474 436/513/474 437/514/474
f 445/522/475 429/506/475 430/507/475
f 453/530/476 437/514/476 438/515/476
f 431/508/477 445/522/477 430/507/477
f 439/516/478 453/530/478 438/515/478
f 447/524/479 431/508/479 432/509/479
f 455/532/480 439/516/480 440/517/480
f 467/544/481 451/528/481 452/529/481
f 460/537/482 444/521/482 445/522/482
f 468/545/483 452/529/483 453/530/483
f 446/523/484 460/537/484 445/522/484
f 454/531/485 468/545/485 453/530/485
f 462/539/486 446/523/486 447/524/486
f 470/547/487 454/531/487 455/532/487
f 448/525/488 462/539/488 447/524/488
f 456/533/489 470/547/489 455/532/489
f 464/541/490 448/525/490 449/526/490
f 472/549/491 456/533/491 457/534/491
f 450/527/492 464/541/492 449/526/492
f 473/550/493 457/534/493 458/535/493
f 451/528/494 465/542/494 450/527/494
f 444/521/495 459/536/495 82/112/495
f 308/369/496 473/550/496 458/535/496
f 471/548/497 479/556/497 470/547/497
f 464/541/498 2/2/498 463/540/498
f 481/558/499 471/548/499 472/549/499
f 465/542/500 477/554/500 464/541/500
f 482/559/501 472/549/501 473/550/501
f 466/543/502 3/3/502 465/542/502
f 459/536/503 474/551/503 82/113/503
f 308/370/504 482/559/504 473/550/504
f 5/5/505 466/543/505 467/544/505
f 460/537/506 474/551/506 459/536/506
f 478/555/507 467/544/507 468/545/507
f 461/538/508 475/552/508 460/537/508
f 6/6/509 468/545/509 469/546/509
f 462/539/510 1/1/510 461/538/510
f 479/556/511 469/546/511 470/547/511
f 463/540/512 476/553/512 462/539/512
f 19/19/1 18/18/1 479/556/1
f 477/554/2 12/12/2 11/11/2
f 20/20/3 19/19/3 480/557/3
f 3/3/4 13/13/4 12/12/4
f 21/21/5 20/20/5 481/558/5
f 14/14/513 13/13/513 3/3/513
f 15/15/514 14/14/514 4/4/514
f 475/552/10 8/8/10 7/7/10
f 16/16/11 15/15/11 5/5/11
f 1/1/12 9/9/12 8/8/12
f 17/17/13 16/16/13 478/555/13
f 476/553/14 10/10/14 9/9/14
f 18/18/15 17/17/15 6/6/15
f 11/11/16 10/10/16 476/553/16
f 25/25/17 24/24/17 9/9/17
f 33/33/18 32/32/18 17/17/18
f 26/26/19 25/25/19 10/10/19
f 19/19/20 34/34/20 33/33/20
f 27/27/21 26/26/21 11/11/21
f 20/20/22 35/35/22 34/34/22
f 13/13/23 28/28/23 27/27/23
f 36/36/24 35/35/24 20/20/24
f 29/29/25 28/28/25 13/13/25
f 30/30/515 29/29/515 14/14/515
f 23/23/29 22/22/29 7/7/29
f 31/31/30 30/30/30 15/15/30
f 24/24/31 23/23/31 8/8/31
f 32/32/32 31/31/32 16/16/32
f 44/44/33 43/43/33 28/28/33
f 30/30/36 45/45/36 44/44/36
f 38/38/37 37/37/37 22/22/37
f 46/46/38 45/45/38 30/30/38
f 39/39/516 38/38/516 23/23/516
f 32/32/40 47/47/40 46/46/40
f 40/40/41 39/39/41 24/24/41
f 33/33/42 48/48/42 47/47/42
f 41/41/43 40/40/43 25/25/43
f 34/34/44 49/49/44 48/48/44
f 42/42/45 41/41/45 26/26/45
f 50/50/517 49/49/517 34/34/517
f 28/28/47 43/43/47 42/42/47
f 36/36/48 51/51/48 50/50/48
f 63/63/49 62/62/49 47/47/49
f 56/56/50 55/55/50 40/40/50
f 64/64/51 63/63/51 48/48/51
f 57/57/52 56/56/52 41/41/52
f 50/50/53 65/65/53 64/64/53
f 43/43/54 58/58/54 57/57/54
f 66/66/55 65/65/55 50/50/55
f 59/59/56 58/58/56 43/43/56
f 60/60/59 59/59/59 44/44/59
f 53/53/60 52/52/60 37/37/60
f 61/61/61 60/60/61 45/45/61
f 54/54/62 53/53/62 38/38/62
f 47/47/63 62/62/63 61/61/63
f 55/55/64 54/54/64 39/39/64
f 75/75/66 74/74/66 59/59/66
f 68/68/67 67/67/67 52/52/67
f 76/76/68 75/75/68 60/60/68
f 69/69/69 68/68/69 53/53/69
f 62/62/70 77/77/70 76/76/70
f 70/70/71 69/69/71 54/54/71
f 78/78/72 77/77/72 62/62/72
f 56/56/73 71/71/73 70/70/73
f 64/64/74 79/79/74 78/78/74
f 72/72/75 71/71/75 56/56/75
f 80/80/76 79/79/76 64/64/76
f 58/58/77 73/73/77 72/72/77
f 81/81/78 80/80/78 65/65/78
f 59/59/79 74/74/79 73/73/79
f 95/126/81 94/125/81 78/78/81
f 88/119/82 87/118/82 71/71/82
f 96/127/83 95/126/83 79/79/83
f 73/73/84 89/120/84 88/119/84
f 81/81/85 97/128/85 96/127/85
f 74/74/86 90/121/86 89/120/86
f 91/122/89 90/121/89 74/74/89
f 84/115/90 83/114/90 67/67/90
f 92/123/91 91/122/91 75/75/91
f 85/116/92 84/115/92 68/68/92
f 77/77/93 93/124/93 92/123/93
f 70/70/94 86/117/94 85/116/94
f 94/125/95 93/124/95 77/77/95
f 71/71/96 87/118/96 86/117/96
f 99/130/97 98/129/97 83/114/97
f 107/138/98 106/137/98 91/122/98
f 100/131/99 99/130/99 84/115/99
f 93/124/100 108/139/100 107/138/100
f 101/132/101 100/131/101 85/116/101
f 109/140/102 108/139/102 93/124/102
f 87/118/103 102/133/103 101/132/103
f 95/126/104 110/141/104 109/140/104
f 103/134/105 102/133/105 87/118/105
f 96/127/106 111/142/106 110/141/106
f 89/120/107 104/135/107 103/134/107
f 112/143/108 111/142/108 96/127/108
f 90/121/109 105/136/109 104/135/109
f 106/137/112 105/136/112 90/121/112
f 118/149/113 117/148/113 102/133/113
f 126/157/114 125/156/114 110/141/114
f 104/135/115 119/150/115 118/149/115
f 112/143/116 127/158/116 126/157/116
f 105/136/117 120/151/117 119/150/117
f 121/152/120 120/151/120 105/136/120
f 114/145/121 113/144/121 98/129/121
f 122/153/122 121/152/122 106/137/122
f 115/146/123 114/145/123 99/130/123
f 108/139/124 123/154/124 122/153/124
f 116/147/125 115/146/125 100/131/125
f 124/155/126 123/154/126 108/139/126
f 102/133/127 117/148/127 116/147/127
f 110/141/128 125/156/128 124/155/128
f 137/168/129 136/167/129 121/152/129
f 130/161/130 129/160/130 114/145/130
f 123/154/131 138/169/131 137/168/131
f 131/162/132 130/161/132 115/146/132
f 139/170/133 138/169/133 123/154/133
f 117/148/134 132/163/134 131/162/134
f 125/156/135 140/171/135 139/170/135
f 133/164/136 132/163/136 117/148/136
f 141/172/137 140/171/137 125/156/137
f 119/150/138 134/165/138 133/164/138
f 142/173/139 141/172/139 126/157/139
f 120/151/140 135/166/140 134/165/140
f 136/167/143 135/166/143 120/151/143
f 114/145/144 129/160/144 128/159/144
f 156/187/145 155/186/145 140/171/145
f 134/165/146 149/180/146 148/179/146
f 157/188/147 156/187/147 141/172/147
f 135/166/148 150/181/148 149/180/148
f 151/182/151 150/181/151 135/166/151
f 144/175/152 143/174/152 128/159/152
f 152/183/153 151/182/153 136/167/153
f 145/176/154 144/175/154 129/160/154
f 138/169/155 153/184/155 152/183/155
f 146/177/156 145/176/156 130/161/156
f 154/185/157 153/184/157 138/169/157
f 132/163/158 147/178/158 146/177/158
f 140/171/159 155/186/159 154/185/159
f 148/179/160 147/178/160 132/163/160
f 145/176/518 160/191/518 159/190/518
f 153/184/162 168/199/162 167/198/162
f 161/192/163 160/191/163 145/176/163
f 169/200/164 168/199/164 153/184/164
f 147/178/165 162/193/165 161/192/165
f 155/186/166 170/201/166 169/200/166
f 163/194/167 162/193/167 147/178/167
f 171/202/519 170/201/519 155/186/519
f 149/180/169 164/195/169 163/194/169
f 157/188/170 172/203/170 171/202/170
f 150/181/171 165/196/171 164/195/171
f 166/197/174 165/196/174 150/181/174
f 159/190/175 158/189/175 143/174/175
f 167/198/176 166/197/176 151/182/176
f 164/195/177 179/210/177 178/209/177
f 172/203/178 187/218/178 186/217/178
f 165/196/179 180/211/179 179/210/179
f 181/212/182 180/211/182 165/196/182
f 174/205/183 173/204/183 158/189/183
f 182/213/184 181/212/184 166/197/184
f 175/206/185 174/205/185 159/190/185
f 168/199/186 183/214/186 182/213/186
f 176/207/187 175/206/187 160/191/187
f 184/215/188 183/214/188 168/199/188
f 162/193/189 177/208/189 176/207/189
f 170/201/190 185/216/190 184/215/190
f 178/209/191 177/208/191 162/193/191
f 186/217/192 185/216/192 170/201/192
f 183/214/193 198/229/193 197/228/193
f 191/222/194 190/221/194 175/206/194
f 199/230/195 198/229/195 183/214/195
f 177/208/196 192/223/196 191/222/196
f 185/216/197 200/231/197 199/230/197
f 193/224/198 192/223/198 177/208/198
f 201/232/199 200/231/199 185/216/199
f 179/210/200 194/225/200 193/224/200
f 202/233/201 201/232/201 186/217/201
f 180/211/202 195/226/202 194/225/202
f 196/227/205 195/226/205 180/211/205
f 174/205/206 189/220/206 188/219/206
f 197/228/207 196/227/207 181/212/207
f 175/206/208 190/221/208 189/220/208
f 217/248/209 216/247/209 201/232/209
f 195/226/210 210/241/210 209/240/210
f 211/242/213 210/241/213 195/226/213
f 204/235/214 203/234/214 188/219/214
f 212/243/215 211/242/215 196/227/215
f 205/236/216 204/235/216 189/220/216
f 198/229/217 213/244/217 212/243/217
f 206/237/218 205/236/218 190/221/218
f 214/245/219 213/244/219 198/229/219
f 192/223/220 207/238/220 206/237/220
f 200/231/221 215/246/221 214/245/221
f 208/239/222 207/238/222 192/223/222
f 216/247/223 215/246/223 200/231/223
f 194/225/224 209/240/224 208/239/224
f 229/260/225 228/259/225 213/244/225
f 207/238/226 222/253/226 221/252/226
f 215/246/227 230/261/227 229/260/227
f 223/254/228 222/253/228 207/238/228
f 231/262/229 230/261/229 215/246/229
f 209/240/230 224/255/230 223/254/230
f 232/263/231 231/262/231 216/247/231
f 210/241/232 225/256/232 224/255/232
f 226/257/235 225/256/235 210/241/235
f 219/250/236 218/249/236 203/234/236
f 227/258/237 226/257/237 211/242/237
f 220/251/238 219/250/238 204/235/238
f 213/244/239 228/259/239 227/258/239
f 221/252/240 220/251/240 205/236/240
f 241/272/243 240/271/243 225/256/243
f 234/265/244 233/264/244 218/249/244
f 242/273/245 241/272/245 226/257/245
f 235/266/246 234/265/246 219/250/246
f 228/259/247 243/274/247 242/273/247
f 236/267/248 235/266/248 220/251/248
f 244/275/249 243/274/249 228/259/249
f 222/253/250 237/268/250 236/267/250
f 230/261/251 245/276/251 244/275/251
f 238/269/252 237/268/252 222/253/252
f 246/277/253 245/276/253 230/261/253
f 224/255/254 239/270/254 238/269/254
f 247/278/255 246/277/255 231/262/255
f 225/256/256 240/271/256 239/270/256
f 237/268/257 252/283/257 251/282/257
f 245/276/258 260/291/258 259/290/258
f 253/284/259 252/283/259 237/268/259
f 261/292/260 260/291/260 245/276/260
f 239/270/261 254/285/261 253/284/261
f 247/278/262 262/293/262 261/292/262
f 240/271/520 255/286/520 254/285/520
f 256/287/521 255/286/521 240/271/521
f 249/280/267 248/279/267 233/264/267
f 257/288/268 256/287/268 241/272/268
f 250/281/269 249/280/269 234/265/269
f 243/274/270 258/289/270 257/288/270
f 251/282/271 250/281/271 235/266/271
f 259/290/272 258/289/272 243/274/272
f 271/302/273 270/301/273 255/286/273
f 249/280/274 264/295/274 263/294/274
f 272/303/275 271/302/275 256/287/275
f 265/296/276 264/295/276 249/280/276
f 258/289/277 273/304/277 272/303/277
f 266/297/278 265/296/278 250/281/278
f 274/305/279 273/304/279 258/289/279
f 252/283/280 267/298/280 266/297/280
f 260/291/281 275/306/281 274/305/281
f 268/299/282 267/298/282 252/283/282
f 261/292/283 276/307/283 275/306/283
f 254/285/284 269/300/284 268/299/284
f 277/308/285 276/307/285 261/292/285
f 255/286/286 270/301/286 269/300/286
f 275/306/289 290/321/289 289/320/289
f 283/314/290 282/313/290 267/298/290
f 276/307/522 291/322/522 290/321/522
f 269/300/292 284/315/292 283/314/292
f 292/323/293 291/322/293 276/307/293
f 270/301/294 285/316/294 284/315/294
f 286/317/297 285/316/297 270/301/297
f 279/310/298 278/309/298 263/294/298
f 287/318/299 286/317/299 271/302/299
f 280/311/523 279/310/523 264/295/523
f 273/304/301 288/319/301 287/318/301
f 281/312/302 280/311/302 265/296/302
f 289/320/303 288/319/303 273/304/303
f 267/298/304 282/313/304 281/312/304
f 294/325/305 293/324/305 278/309/305
f 302/333/306 301/332/306 286/317/306
f 280/311/307 295/326/307 294/325/307
f 288/319/308 303/334/308 302/333/308
f 296/327/309 295/326/309 280/311/309
f 304/335/310 303/334/310 288/319/310
f 282/313/311 297/328/311 296/327/311
f 290/321/312 305/336/312 304/335/312
f 298/329/313 297/328/313 282/313/313
f 306/337/314 305/336/314 290/321/314
f 284/315/315 299/330/315 298/329/315
f 307/338/316 306/337/316 291/322/316
f 285/316/317 300/331/317 299/330/317
f 301/332/320 300/331/320 285/316/320
f 314/376/321 313/375/321 297/328/321
f 322/384/322 321/383/322 305/336/322
f 299/330/323 315/377/323 314/376/323
f 323/385/324 322/384/324 306/337/324
f 300/331/325 316/378/325 315/377/325
f 317/379/328 316/378/328 300/331/328
f 294/325/524 310/372/524 309/371/524
f 318/380/330 317/379/330 301/332/330
f 295/326/331 311/373/331 310/372/331
f 303/334/332 319/381/332 318/380/332
f 312/374/333 311/373/333 295/326/333
f 320/382/334 319/381/334 303/334/334
f 297/328/335 313/375/335 312/374/335
f 305/336/336 321/383/336 320/382/336
f 333/395/337 332/394/337 317/379/337
f 311/373/525 326/388/525 325/387/525
f 319/381/339 334/396/339 333/395/339
f 327/389/340 326/388/340 311/373/340
f 335/397/341 334/396/341 319/381/341
f 313/375/342 328/390/342 327/389/342
f 321/383/343 336/398/343 335/397/343
f 329/391/344 328/390/344 313/375/344
f 322/384/345 337/399/345 336/398/345
f 315/377/346 330/392/346 329/391/346
f 338/400/347 337/399/347 322/384/347
f 316/378/348 331/393/348 330/392/348
f 332/394/351 331/393/351 316/378/351
f 325/387/352 324/386/352 309/371/352
f 352/414/353 351/413/353 336/398/353
f 330/392/354 345/407/354 344/406/354
f 338/400/355 353/415/355 352/414/355
f 331/393/356 346/408/356 345/407/356
f 347/409/359 346/408/359 331/393/359
f 325/387/360 340/402/360 339/401/360
f 348/410/361 347/409/361 332/394/361
f 341/403/362 340/402/362 325/387/362
f 334/396/363 349/411/363 348/410/363
f 342/404/364 341/403/364 326/388/364
f 350/412/365 349/411/365 334/396/365
f 328/390/366 343/405/366 342/404/366
f 336/398/367 351/413/367 350/412/367
f 344/406/368 343/405/368 328/390/368
f 349/411/369 364/436/369 363/435/369
f 357/423/370 356/420/370 341/403/370
f 365/439/371 364/436/371 349/411/371
f 343/405/372 358/424/372 357/423/372
f 351/413/373 366/440/373 365/439/373
f 359/427/374 358/424/374 343/405/374
f 367/442/375 366/440/375 351/413/375
f 345/407/376 360/428/376 359/427/376
f 368/445/377 367/442/377 352/414/377
f 346/408/526 361/430/526 360/428/526
f 362/432/527 361/430/527 346/408/527
f 355/418/382 354/417/382 339/401/382
f 363/435/383 362/432/383 347/409/383
f 356/420/384 355/418/384 340/402/384
f 383/460/385 382/459/385 367/443/385
f 361/431/528 376/453/528 375/452/528
f 377/454/529 376/453/529 361/431/529
f 355/419/390 370/447/390 369/446/390
f 378/455/391 377/454/391 362/433/391
f 356/421/392 371/448/392 370/447/392
f 364/437/393 379/456/393 378/455/393
f 372/449/394 371/448/394 356/421/394
f 380/457/395 379/456/395 364/437/395
f 358/425/396 373/450/396 372/449/396
f 366/441/397 381/458/397 380/457/397
f 374/451/398 373/450/398 358/425/398
f 382/459/399 381/458/399 366/441/399
f 360/429/400 375/452/400 374/451/400
f 387/464/401 386/463/401 371/448/401
f 395/472/402 394/471/402 379/456/402
f 373/450/403 388/465/403 387/464/403
f 381/458/404 396/473/404 395/472/404
f 389/466/405 388/465/405 373/450/405
f 397/474/406 396/473/406 381/458/406
f 375/452/407 390/467/407 389/466/407
f 398/475/408 397/474/408 382/459/408
f 376/453/409 391/468/409 390/467/409
f 392/469/412 391/468/412 376/453/412
f 385/462/413 384/461/413 369/446/413
f 393/470/414 392/469/414 377/454/414
f 371/448/415 386/463/415 385/462/415
f 379/456/416 394/471/416 393/470/416
f 391/468/417 406/483/417 405/482/417
f 407/484/420 406/483/420 391/468/420
f 385/462/421 400/477/421 399/476/421
f 408/485/422 407/484/422 392/469/422
f 401/478/423 400/477/423 385/462/423
f 394/471/424 409/486/424 408/485/424
f 402/479/425 401/478/425 386/463/425
f 410/487/426 409/486/426 394/471/426
f 388/465/427 403/480/427 402/479/427
f 396/473/428 411/488/428 410/487/428
f 404/481/429 403/480/429 388/465/429
f 397/474/430 412/489/430 411/488/430
f 390/467/431 405/482/431 404/481/431
f 413/490/432 412/489/432 397/474/432
f 425/502/433 424/501/433 409/486/433
f 403/480/434 418/495/434 417/494/434
f 411/488/435 426/503/435 425/502/435
f 419/496/436 418/495/436 403/480/436
f 427/504/437 426/503/437 411/488/437
f 405/482/438 420/497/438 419/496/438
f 413/490/439 428/505/439 427/504/439
f 406/483/440 421/498/440 420/497/440
f 422/499/443 421/498/443 406/483/443
f 415/492/530 414/491/530 399/476/530
f 423/500/445 422/499/445 407/484/445
f 401/478/446 416/493/446 415/492/446
f 409/486/447 424/501/447 423/500/447
f 417/494/448 416/493/448 401/478/448
f 437/514/451 436/513/451 421/498/451
f 430/507/452 429/506/452 414/491/452
f 438/515/453 437/514/453 422/499/453
f 416/493/454 431/508/454 430/507/454
f 424/501/455 439/516/455 438/515/455
f 432/509/456 431/508/456 416/493/456
f 440/517/457 439/516/457 424/501/457
f 418/495/458 433/510/458 432/509/458
f 426/503/459 441/518/459 440/517/459
f 434/511/460 433/510/460 418/495/460
f 442/519/461 441/518/461 426/503/461
f 420/497/462 435/512/462 434/511/462
f 443/520/463 442/519/463 427/504/463
f 421/498/464 436/513/464 435/512/464
f 433/510/465 448/525/465 447/524/465
f 441/518/466 456/533/466 455/532/466
f 449/526/467 448/525/467 433/510/467
f 457/534/468 456/533/468 441/518/468
f 435/512/469 450/527/469 449/526/469
f 458/535/470 457/534/470 442/519/470
f 436/513/471 451/528/471 450/527/471
f 452/529/474 451/528/474 436/513/474
f 445/522/475 444/521/475 429/506/475
f 453/530/476 452/529/476 437/514/476
f 431/508/477 446/523/477 445/522/477
f 439/516/478 454/531/478 453/530/478
f 447/524/479 446/523/479 431/508/479
f 455/532/480 454/531/480 439/516/480
f 467/544/481 466/543/481 451/528/481
f 460/537/482 459/536/482 444/521/482
f 468/545/483 467/544/483 452/529/483
f 446/523/484 461/538/484 460/537/484
f 454/531/485 469/546/485 468/545/485
f 462/539/486 461/538/486 446/523/486
f 470/547/487 469/546/487 454/531/487
f 448/525/488 463/540/488 462/539/488
f 456/533/489 471/548/489 470/547/489
f 464/541/490 463/540/490 448/525/490
f 472/549/491 471/548/491 456/533/491
f 450/527/492 465/542/492 464/541/492
f 473/550/493 472/549/493 457/534/493
f 451/528/494 466/543/494 465/542/494
f 471/548/497 480/557/497 479/556/497
f 464/541/498 477/554/498 2/2/498
f 481/558/499 480/557/499 471/548/499
f 465/542/500 3/3/500 477/554/500
f 482/559/501 481/558/501 472/549/501
f 466/543/502 4/4/502 3/3/502
f 5/5/505 4/4/505 466/543/505
f 460/537/506 475/552/506 474/551/506
f 478/555/507 5/5/507 467/544/507
f 461/538/508 1/1/508 475/552/508
f 6/6/509 478/555/509 468/545/509
f 462/539/510 476/553/510 1/1/510
f 479/556/511 6/6/511 469/546/511
f 463/540/512 2/2/512 476/553/512
