# Blender 3.5.0
# www.blender.org
mtllib warp.mtl
o トーラス
v 2.098796 0.000000 0.000000
v 2.042559 -0.000322 0.163478
v 1.888916 -0.000557 0.283152
v 1.679037 -0.000643 0.326956
v 1.469157 -0.000557 0.283152
v 1.315515 -0.000322 0.163478
v 1.259278 -0.000000 0.000000
v 1.315515 0.000322 -0.163478
v 1.469157 0.000557 -0.283152
v 1.679037 0.000643 -0.326956
v 1.888916 0.000557 -0.283152
v 2.042559 0.000322 -0.163478
v 2.080841 0.655478 0.001290
v 2.025085 0.637592 0.164733
v 1.872757 0.589373 0.284313
v 1.664672 0.523739 0.327987
v 1.456588 0.458277 0.284055
v 1.304260 0.410528 0.164286
v 1.248504 0.393286 0.000774
v 1.304260 0.411172 -0.162670
v 1.456588 0.459391 -0.282249
v 1.664672 0.525025 -0.325924
v 1.872757 0.590487 -0.281991
v 2.025085 0.638236 -0.162223
v 2.027281 1.299740 0.002557
v 1.972960 1.264592 0.165967
v 1.824553 1.169209 0.285453
v 1.621825 1.039148 0.329001
v 1.419097 0.909261 0.284942
v 1.270690 0.814349 0.165081
v 1.216369 0.779844 0.001534
v 1.270690 0.814992 -0.161875
v 1.419097 0.910375 -0.281362
v 1.621825 1.040435 -0.324910
v 1.824553 1.170323 -0.280850
v 1.972960 1.265235 -0.160989
v 1.939035 1.921763 0.003781
v 1.887079 1.869948 0.167158
v 1.745131 1.729030 0.286555
v 1.551228 1.536767 0.329981
v 1.357324 1.344677 0.285799
v 1.215377 1.204230 0.165848
v 1.163421 1.153058 0.002269
v 1.215377 1.204873 -0.161108
v 1.357324 1.345791 -0.280505
v 1.551228 1.538054 -0.323931
v 1.745131 1.730144 -0.279749
v 1.887079 1.870591 -0.159798
v 1.817611 2.510905 0.004940
v 1.768908 2.443304 0.168286
v 1.635849 2.259258 0.287598
v 1.454088 2.008081 0.330908
v 1.272327 1.757077 0.286610
v 1.139269 1.573501 0.166574
v 1.090566 1.506543 0.002964
v 1.139269 1.574144 -0.160381
v 1.272327 1.758191 -0.279694
v 1.454088 2.009367 -0.323004
v 1.635849 2.260372 -0.278706
v 1.768908 2.443947 -0.158670
v 1.665087 3.057083 0.006015
v 1.620471 2.974847 0.169331
v 1.498578 2.750818 0.288565
v 1.332070 2.445023 0.331768
v 1.165561 2.139401 0.287362
v 1.043668 1.915843 0.167248
v 0.999052 1.834250 0.003609
v 1.043668 1.916486 -0.159708
v 1.165561 2.140516 -0.278942
v 1.332070 2.446310 -0.322144
v 1.498578 2.751932 -0.277739
v 1.620471 2.975491 -0.157624
v 1.484073 3.550956 0.006986
v 1.444307 3.455486 0.170277
v 1.335665 3.195303 0.289440
v 1.187258 2.840121 0.332545
v 1.038851 2.485112 0.288042
v 0.930209 2.225399 0.167857
v 0.890444 2.130574 0.004192
v 0.930209 2.226043 -0.159099
v 1.038851 2.486226 -0.278261
v 1.187258 2.841408 -0.321367
v 1.335665 3.196417 -0.276864
v 1.444307 3.456130 -0.156679
v 1.277666 3.984068 0.007839
v 1.243431 3.876994 0.171106
v 1.149900 3.585104 0.290207
v 1.022133 3.186612 0.333227
v 0.894366 2.788291 0.288639
v 0.800835 2.496872 0.168391
v 0.766600 2.390441 0.004703
v 0.800835 2.497515 -0.158565
v 0.894366 2.789405 -0.277665
v 1.022133 3.187898 -0.320685
v 1.149900 3.586219 -0.276097
v 1.243431 3.877637 -0.155849
v 1.049398 4.349015 0.008557
v 1.021279 4.232161 0.171805
v 0.944458 3.913556 0.290853
v 0.839518 3.478569 0.333801
v 0.734579 3.043753 0.289142
v 0.657757 2.725619 0.168841
v 0.629639 2.609409 0.005134
v 0.657757 2.726262 -0.158115
v 0.734579 3.044868 -0.277162
v 0.839518 3.479855 -0.320110
v 0.944458 3.914670 -0.275451
v 1.021279 4.232805 -0.155151
v 0.803175 4.639546 0.009128
v 0.781654 4.514908 0.172361
v 0.722857 4.175035 0.291367
v 0.642540 3.710994 0.334258
v 0.562222 3.247125 0.289542
v 0.503426 2.907722 0.169199
v 0.481905 2.783728 0.005477
v 0.503426 2.908366 -0.157756
v 0.562222 3.248240 -0.276762
v 0.642540 3.712280 -0.319653
v 0.722857 4.176148 -0.274937
v 0.781654 4.515552 -0.154594
v 0.543208 4.850695 0.009544
v 0.528653 4.720399 0.172766
v 0.488888 4.365069 0.291741
v 0.434567 3.879913 0.334591
v 0.380246 3.394930 0.289833
v 0.340480 3.040069 0.169460
v 0.325925 2.910417 0.005726
v 0.340480 3.040713 -0.157496
v 0.380246 3.396044 -0.276471
v 0.434567 3.881199 -0.319321
v 0.488888 4.366183 -0.274563
v 0.528653 4.721043 -0.154190
v 0.273947 4.978847 0.009796
v 0.266607 4.845118 0.173011
v 0.246553 4.480406 0.291968
v 0.219158 3.982435 0.334792
v 0.191763 3.484636 0.290009
v 0.171709 3.120394 0.169618
v 0.164368 2.987308 0.005877
v 0.171709 3.121038 -0.157338
v 0.191763 3.485750 -0.276295
v 0.219158 3.983721 -0.319119
v 0.246553 4.481520 -0.274336
v 0.266607 4.845761 -0.153945
v 0.000000 5.021810 0.009880
v 0.000000 4.886929 0.173093
v 0.000000 4.519072 0.292044
v 0.000000 4.016804 0.334860
v 0.000000 3.514709 0.290068
v 0.000000 3.147323 0.169671
v 0.000000 3.013086 0.005928
v 0.000000 3.147966 -0.157285
v 0.000000 3.515824 -0.276236
v 0.000000 4.018091 -0.319052
v 0.000000 4.520185 -0.274260
v 0.000000 4.887572 -0.153862
v -0.273948 4.978847 0.009796
v -0.266608 4.845117 0.173011
v -0.246553 4.480405 0.291968
v -0.219159 3.982434 0.334792
v -0.191764 3.484636 0.290009
v -0.171709 3.120394 0.169618
v -0.164369 2.987308 0.005877
v -0.171709 3.121038 -0.157338
v -0.191764 3.485750 -0.276295
v -0.219159 3.983721 -0.319119
v -0.246553 4.481519 -0.274336
v -0.266608 4.845761 -0.153945
v -0.543208 4.850696 0.009544
v -0.528653 4.720400 0.172766
v -0.488887 4.365069 0.291741
v -0.434567 3.879913 0.334591
v -0.380246 3.394930 0.289833
v -0.340480 3.040070 0.169460
v -0.325925 2.910417 0.005726
v -0.340480 3.040713 -0.157496
v -0.380246 3.396044 -0.276471
v -0.434567 3.881200 -0.319321
v -0.488887 4.366183 -0.274563
v -0.528653 4.721044 -0.154190
v -0.803175 4.639547 0.009128
v -0.781654 4.514909 0.172361
v -0.722857 4.175035 0.291367
v -0.642540 3.710994 0.334258
v -0.562222 3.247125 0.289542
v -0.503426 2.907723 0.169199
v -0.481905 2.783728 0.005477
v -0.503426 2.908366 -0.157756
v -0.562222 3.248240 -0.276762
v -0.642540 3.712281 -0.319653
v -0.722857 4.176149 -0.274937
v -0.781654 4.515553 -0.154594
v -1.049398 4.349015 0.008557
v -1.021279 4.232162 0.171805
v -0.944458 3.913556 0.290853
v -0.839518 3.478569 0.333801
v -0.734578 3.043753 0.289142
v -0.657757 2.725619 0.168841
v -0.629639 2.609409 0.005134
v -0.657757 2.726262 -0.158115
v -0.734578 3.044868 -0.277162
v -0.839518 3.479855 -0.320110
v -0.944458 3.914671 -0.275451
v -1.021279 4.232806 -0.155151
v -1.277666 3.984069 0.007839
v -1.243431 3.876995 0.171106
v -1.149899 3.585105 0.290207
v -1.022133 3.186612 0.333227
v -0.894366 2.788291 0.288639
v -0.800835 2.496873 0.168391
v -0.766600 2.390441 0.004703
v -0.800835 2.497516 -0.158565
v -0.894366 2.789406 -0.277665
v -1.022133 3.187899 -0.320685
v -1.149899 3.586219 -0.276097
v -1.243431 3.877638 -0.155849
v -1.484073 3.550955 0.006986
v -1.444308 3.455485 0.170277
v -1.335666 3.195302 0.289440
v -1.187259 2.840120 0.332545
v -1.038851 2.485111 0.288042
v -0.930210 2.225399 0.167857
v -0.890444 2.130573 0.004192
v -0.930210 2.226042 -0.159099
v -1.038851 2.486225 -0.278261
v -1.187259 2.841407 -0.321367
v -1.335666 3.196416 -0.276864
v -1.444308 3.456129 -0.156679
v -1.665087 3.057084 0.006015
v -1.620471 2.974848 0.169331
v -1.498578 2.750818 0.288565
v -1.332070 2.445024 0.331768
v -1.165561 2.139402 0.287362
v -1.043668 1.915843 0.167248
v -0.999052 1.834250 0.003609
v -1.043668 1.916486 -0.159708
v -1.165561 2.140516 -0.278942
v -1.332070 2.446310 -0.322144
v -1.498578 2.751933 -0.277739
v -1.620471 2.975491 -0.157624
v -1.817610 2.510906 0.004940
v -1.768908 2.443305 0.168286
v -1.635849 2.259258 0.287598
v -1.454088 2.008081 0.330908
v -1.272327 1.757077 0.286610
v -1.139269 1.573501 0.166574
v -1.090566 1.506544 0.002964
v -1.139269 1.574145 -0.160381
v -1.272327 1.758191 -0.279694
v -1.454088 2.009368 -0.323004
v -1.635849 2.260372 -0.278706
v -1.768908 2.443948 -0.158670
v -1.939035 1.921764 0.003781
v -1.887078 1.869948 0.167158
v -1.745131 1.729030 0.286555
v -1.551228 1.536768 0.329981
v -1.357324 1.344677 0.285799
v -1.215377 1.204230 0.165848
v -1.163421 1.153058 0.002269
v -1.215377 1.204873 -0.161108
v -1.357324 1.345791 -0.280505
v -1.551228 1.538054 -0.323931
v -1.745131 1.730144 -0.279749
v -1.887078 1.870592 -0.159798
v -2.027282 1.299739 0.002557
v -1.972961 1.264591 0.165967
v -1.824553 1.169208 0.285453
v -1.621825 1.039148 0.329001
v -1.419097 0.909260 0.284942
v -1.270690 0.814348 0.165081
v -1.216369 0.779844 0.001534
v -1.270690 0.814992 -0.161875
v -1.419097 0.910375 -0.281362
v -1.621825 1.040435 -0.324910
v -1.824553 1.170322 -0.280850
v -1.972961 1.265234 -0.160989
v -2.080840 0.655478 0.001290
v -2.025084 0.637593 0.164733
v -1.872756 0.589373 0.284313
v -1.664672 0.523739 0.327987
v -1.456588 0.458278 0.284055
v -1.304260 0.410529 0.164286
v -1.248504 0.393287 0.000774
v -1.304260 0.411172 -0.162670
v -1.456588 0.459392 -0.282249
v -1.664672 0.525026 -0.325924
v -1.872756 0.590488 -0.281991
v -2.025084 0.638236 -0.162223
v -2.098796 0.000000 0.000000
v -2.042559 -0.000321 0.163478
v -1.888916 -0.000557 0.283152
v -1.679037 -0.000643 0.326956
v -1.469157 -0.000557 0.283152
v -1.315515 -0.000321 0.163478
v -1.259278 0.000000 0.000000
v -1.315515 0.000322 -0.163478
v -1.469157 0.000557 -0.283152
v -1.679037 0.000644 -0.326956
v -1.888916 0.000557 -0.283152
v -2.042559 0.000322 -0.163478
v -2.080840 -0.655478 -0.001290
v -2.025084 -0.638236 0.162223
v -1.872756 -0.590488 0.281991
v -1.664672 -0.525026 0.325924
v -1.456588 -0.459392 0.282249
v -1.304260 -0.411172 0.162670
v -1.248504 -0.393287 -0.000774
v -1.304260 -0.410529 -0.164286
v -1.456588 -0.458278 -0.284055
v -1.664672 -0.523739 -0.327987
v -1.872756 -0.589373 -0.284313
v -2.025084 -0.637593 -0.164733
v -2.027282 -1.299739 -0.002557
v -1.972961 -1.265234 0.160989
v -1.824553 -1.170322 0.280850
v -1.621825 -1.040435 0.324910
v -1.419097 -0.910375 0.281362
v -1.270690 -0.814992 0.161875
v -1.216369 -0.779844 -0.001534
v -1.270690 -0.814348 -0.165081
v -1.419097 -0.909260 -0.284942
v -1.621825 -1.039148 -0.329001
v -1.824553 -1.169208 -0.285453
v -1.972961 -1.264591 -0.165967
v -1.939035 -1.921761 -0.003781
v -1.887079 -1.870590 0.159798
v -1.745132 -1.730142 0.279749
v -1.551228 -1.538052 0.323931
v -1.357325 -1.345790 0.280505
v -1.215377 -1.204872 0.161108
v -1.163421 -1.153057 -0.002269
v -1.215377 -1.204229 -0.165848
v -1.357325 -1.344676 -0.285799
v -1.551228 -1.536766 -0.329981
v -1.745132 -1.729028 -0.286555
v -1.887079 -1.869946 -0.167158
v -1.817611 -2.510904 -0.004940
v -1.768908 -2.443946 0.158670
v -1.635850 -2.260371 0.278706
v -1.454089 -2.009366 0.323004
v -1.272328 -1.758190 0.279694
v -1.139269 -1.574143 0.160381
v -1.090567 -1.506542 -0.002964
v -1.139269 -1.573500 -0.166574
v -1.272328 -1.757076 -0.286610
v -1.454089 -2.008080 -0.330908
v -1.635850 -2.259256 -0.287598
v -1.768908 -2.443303 -0.168286
v -1.665087 -3.057084 -0.006015
v -1.620471 -2.975491 0.157624
v -1.498578 -2.751933 0.277739
v -1.332070 -2.446310 0.322144
v -1.165561 -2.140516 0.278942
v -1.043668 -1.916486 0.159708
v -0.999052 -1.834250 -0.003609
v -1.043668 -1.915843 -0.167248
v -1.165561 -2.139402 -0.287362
v -1.332070 -2.445024 -0.331768
v -1.498578 -2.750818 -0.288565
v -1.620471 -2.974848 -0.169331
v -1.484073 -3.550955 -0.006986
v -1.444308 -3.456129 0.156679
v -1.335666 -3.196416 0.276864
v -1.187259 -2.841407 0.321367
v -1.038851 -2.486225 0.278261
v -0.930210 -2.226042 0.159099
v -0.890444 -2.130573 -0.004192
v -0.930210 -2.225399 -0.167857
v -1.038851 -2.485111 -0.288042
v -1.187259 -2.840120 -0.332545
v -1.335666 -3.195302 -0.289440
v -1.444308 -3.455485 -0.170277
v -1.277667 -3.984068 -0.007839
v -1.243432 -3.877636 0.155849
v -1.149900 -3.586218 0.276097
v -1.022134 -3.187897 0.320685
v -0.894367 -2.789404 0.277665
v -0.800835 -2.497515 0.158565
v -0.766600 -2.390440 -0.004703
v -0.800835 -2.496872 -0.168391
v -0.894367 -2.788290 -0.288639
v -1.022134 -3.186611 -0.333227
v -1.149900 -3.585104 -0.290207
v -1.243432 -3.876993 -0.171106
v -1.049398 -4.349015 -0.008557
v -1.021279 -4.232806 0.155151
v -0.944458 -3.914671 0.275451
v -0.839518 -3.479855 0.320110
v -0.734578 -3.044868 0.277162
v -0.657757 -2.726262 0.158115
v -0.629639 -2.609409 -0.005134
v -0.657757 -2.725619 -0.168841
v -0.734578 -3.043753 -0.289142
v -0.839518 -3.478569 -0.333801
v -0.944458 -3.913556 -0.290853
v -1.021279 -4.232162 -0.171805
v -0.803175 -4.639547 -0.009128
v -0.781654 -4.515553 0.154594
v -0.722857 -4.176149 0.274937
v -0.642540 -3.712281 0.319653
v -0.562222 -3.248240 0.276762
v -0.503426 -2.908366 0.157756
v -0.481905 -2.783728 -0.005477
v -0.503426 -2.907723 -0.169199
v -0.562222 -3.247125 -0.289542
v -0.642540 -3.710994 -0.334258
v -0.722857 -4.175035 -0.291367
v -0.781654 -4.514909 -0.172361
v -0.543209 -4.850695 -0.009544
v -0.528654 -4.721043 0.154190
v -0.488888 -4.366182 0.274563
v -0.434567 -3.881199 0.319321
v -0.380246 -3.396044 0.276471
v -0.340481 -3.040712 0.157496
v -0.325925 -2.910417 -0.005726
v -0.340481 -3.040069 -0.169460
v -0.380246 -3.394929 -0.289833
v -0.434567 -3.879913 -0.334591
v -0.488888 -4.365068 -0.291741
v -0.528654 -4.720399 -0.172766
v -0.273949 -4.978847 -0.009796
v -0.266609 -4.845761 0.153945
v -0.246554 -4.481519 0.274336
v -0.219159 -3.983721 0.319119
v -0.191764 -3.485750 0.276295
v -0.171710 -3.121037 0.157338
v -0.164369 -2.987308 -0.005877
v -0.171710 -3.120394 -0.169618
v -0.191764 -3.484636 -0.290009
v -0.219159 -3.982434 -0.334792
v -0.246554 -4.480405 -0.291968
v -0.266609 -4.845117 -0.173011
v 0.000000 -5.021810 -0.009880
v 0.000000 -4.887572 0.153862
v 0.000000 -4.520185 0.274260
v 0.000000 -4.018091 0.319052
v 0.000000 -3.515824 0.276236
v 0.000000 -3.147966 0.157285
v 0.000000 -3.013086 -0.005928
v 0.000000 -3.147323 -0.169671
v 0.000000 -3.514709 -0.290068
v 0.000000 -4.016804 -0.334860
v 0.000000 -4.519072 -0.292044
v 0.000000 -4.886929 -0.173093
v 0.273947 -4.978847 -0.009796
v 0.266607 -4.845761 0.153945
v 0.246553 -4.481520 0.274336
v 0.219158 -3.983721 0.319119
v 0.191763 -3.485750 0.276295
v 0.171709 -3.121038 0.157338
v 0.164368 -2.987308 -0.005877
v 0.171709 -3.120394 -0.169618
v 0.191763 -3.484636 -0.290009
v 0.219158 -3.982435 -0.334792
v 0.246553 -4.480406 -0.291968
v 0.266607 -4.845118 -0.173011
v 0.543207 -4.850696 -0.009544
v 0.528652 -4.721044 0.154190
v 0.488887 -4.366183 0.274563
v 0.434566 -3.881200 0.319321
v 0.380245 -3.396044 0.276471
v 0.340480 -3.040713 0.157496
v 0.325924 -2.910418 -0.005726
v 0.340480 -3.040070 -0.169460
v 0.380245 -3.394930 -0.289833
v 0.434566 -3.879913 -0.334591
v 0.488887 -4.365069 -0.291741
v 0.528652 -4.720400 -0.172766
v 0.803175 -4.639546 -0.009128
v 0.781654 -4.515552 0.154594
v 0.722857 -4.176148 0.274937
v 0.642540 -3.712280 0.319653
v 0.562222 -3.248240 0.276762
v 0.503426 -2.908366 0.157756
v 0.481905 -2.783728 -0.005477
v 0.503426 -2.907722 -0.169199
v 0.562222 -3.247125 -0.289542
v 0.642540 -3.710994 -0.334258
v 0.722857 -4.175035 -0.291367
v 0.781654 -4.514908 -0.172361
v 1.049398 -4.349015 -0.008557
v 1.021279 -4.232805 0.155151
v 0.944458 -3.914670 0.275451
v 0.839518 -3.479855 0.320110
v 0.734579 -3.044868 0.277162
v 0.657757 -2.726262 0.158115
v 0.629639 -2.609409 -0.005134
v 0.657757 -2.725619 -0.168841
v 0.734579 -3.043753 -0.289142
v 0.839518 -3.478569 -0.333801
v 0.944458 -3.913556 -0.290853
v 1.021279 -4.232161 -0.171805
v 1.277666 -3.984070 -0.007839
v 1.243431 -3.877639 0.155849
v 1.149899 -3.586220 0.276097
v 1.022133 -3.187899 0.320685
v 0.894366 -2.789406 0.277665
v 0.800834 -2.497516 0.158565
v 0.766599 -2.390442 -0.004703
v 0.800834 -2.496873 -0.168391
v 0.894366 -2.788292 -0.288639
v 1.022133 -3.186613 -0.333227
v 1.149899 -3.585106 -0.290207
v 1.243431 -3.876996 -0.171106
v 1.484072 -3.550957 -0.006986
v 1.444307 -3.456131 0.156679
v 1.335665 -3.196419 0.276864
v 1.187258 -2.841409 0.321367
v 1.038850 -2.486228 0.278261
v 0.930209 -2.226044 0.159099
v 0.890443 -2.130575 -0.004192
v 0.930209 -2.225400 -0.167857
v 1.038850 -2.485113 -0.288042
v 1.187258 -2.840123 -0.332545
v 1.335665 -3.195304 -0.289440
v 1.444307 -3.455488 -0.170277
v 1.665087 -3.057083 -0.006015
v 1.620471 -2.975491 0.157624
v 1.498578 -2.751932 0.277739
v 1.332070 -2.446310 0.322144
v 1.165561 -2.140516 0.278942
v 1.043668 -1.916486 0.159708
v 0.999052 -1.834250 -0.003609
v 1.043668 -1.915843 -0.167248
v 1.165561 -2.139401 -0.287362
v 1.332070 -2.445023 -0.331768
v 1.498578 -2.750818 -0.288565
v 1.620471 -2.974847 -0.169331
v 1.817611 -2.510905 -0.004940
v 1.768908 -2.443947 0.158670
v 1.635849 -2.260372 0.278706
v 1.454088 -2.009367 0.323004
v 1.272327 -1.758191 0.279694
v 1.139269 -1.574144 0.160381
v 1.090566 -1.506543 -0.002964
v 1.139269 -1.573501 -0.166574
v 1.272327 -1.757077 -0.286610
v 1.454088 -2.008081 -0.330908
v 1.635849 -2.259258 -0.287598
v 1.768908 -2.443304 -0.168286
v 1.939035 -1.921765 -0.003781
v 1.887078 -1.870593 0.159798
v 1.745131 -1.730146 0.279749
v 1.551228 -1.538055 0.323931
v 1.357324 -1.345793 0.280505
v 1.215377 -1.204874 0.161108
v 1.163421 -1.153059 -0.002269
v 1.215377 -1.204231 -0.165848
v 1.357324 -1.344679 -0.285799
v 1.551228 -1.536769 -0.329981
v 1.745131 -1.729032 -0.286555
v 1.887078 -1.869950 -0.167158
v 2.027282 -1.299739 -0.002557
v 1.972961 -1.265234 0.160989
v 1.824553 -1.170322 0.280850
v 1.621825 -1.040434 0.324910
v 1.419097 -0.910374 0.281362
v 1.270690 -0.814991 0.161875
v 1.216369 -0.779843 -0.001534
v 1.270690 -0.814348 -0.165081
v 1.419097 -0.909260 -0.284942
v 1.621825 -1.039148 -0.329001
v 1.824553 -1.169208 -0.285453
v 1.972961 -1.264591 -0.165967
v 2.080841 -0.655478 -0.001290
v 2.025085 -0.638236 0.162223
v 1.872757 -0.590487 0.281991
v 1.664672 -0.525025 0.325924
v 1.456588 -0.459391 0.282249
v 1.304260 -0.411172 0.162670
v 1.248504 -0.393286 -0.000774
v 1.304260 -0.410528 -0.164286
v 1.456588 -0.458277 -0.284055
v 1.664672 -0.523739 -0.327987
v 1.872757 -0.589373 -0.284313
v 2.025085 -0.637592 -0.164733
v -1.425484 -3.299797 -0.000000
v 1.425484 -3.299797 -0.000000
v -1.425484 3.299797 0.000000
v 1.425484 3.299797 0.000000
vn 0.9453 0.0253 0.3252
vn 0.6144 0.0153 0.7888
vn 0.2043 0.0037 0.9789
vn -0.2043 -0.0075 0.9789
vn -0.6144 -0.0184 0.7888
vn -0.9453 -0.0265 0.3251
vn -0.9453 -0.0253 -0.3252
vn -0.6144 -0.0153 -0.7888
vn -0.2043 -0.0037 -0.9789
vn 0.2043 0.0075 -0.9789
vn 0.6144 0.0184 -0.7888
vn 0.9453 0.0265 -0.3251
vn 0.9410 0.0776 0.3295
vn 0.6071 0.0489 0.7931
vn 0.2009 0.0148 0.9795
vn -0.2009 -0.0186 0.9794
vn -0.6071 -0.0520 0.7929
vn -0.9410 -0.0789 0.3292
vn -0.9410 -0.0776 -0.3295
vn -0.6071 -0.0489 -0.7931
vn -0.2009 -0.0148 -0.9795
vn 0.2009 0.0186 -0.9794
vn 0.6071 0.0520 -0.7929
vn 0.9410 0.0789 -0.3292
vn 0.9319 0.1315 0.3381
vn 0.5923 0.0825 0.8015
vn 0.1942 0.0256 0.9806
vn -0.1942 -0.0295 0.9805
vn -0.5923 -0.0856 0.8012
vn -0.9319 -0.1329 0.3376
vn -0.9319 -0.1315 -0.3381
vn -0.5923 -0.0825 -0.8015
vn -0.1942 -0.0256 -0.9806
vn 0.1942 0.0295 -0.9805
vn 0.5923 0.0856 -0.8012
vn 0.9319 0.1329 -0.3376
vn 0.9171 0.1883 0.3514
vn 0.5695 0.1158 0.8138
vn 0.1842 0.0360 0.9822
vn -0.1842 -0.0399 0.9821
vn -0.5695 -0.1190 0.8133
vn -0.9171 -0.1897 0.3506
vn -0.9171 -0.1883 -0.3514
vn -0.5695 -0.1158 -0.8138
vn -0.1842 -0.0360 -0.9822
vn 0.1842 0.0399 -0.9821
vn 0.5695 0.1190 -0.8133
vn 0.9171 0.1897 -0.3506
vn 0.8950 0.2492 0.3700
vn 0.5382 0.1487 0.8296
vn 0.1711 0.0459 0.9842
vn -0.1711 -0.0497 0.9840
vn -0.5382 -0.1519 0.8290
vn -0.8950 -0.2507 0.3690
vn -0.8950 -0.2492 -0.3700
vn -0.5382 -0.1487 -0.8296
vn -0.1711 -0.0459 -0.9842
vn 0.1711 0.0497 -0.9840
vn 0.5382 0.1519 -0.8290
vn 0.8950 0.2507 -0.3690
vn 0.8630 0.3155 0.3946
vn 0.4977 0.1807 0.8483
vn 0.1551 0.0549 0.9864
vn -0.1551 -0.0588 0.9861
vn -0.4977 -0.1841 0.8476
vn -0.8630 -0.3171 0.3934
vn -0.8630 -0.3155 -0.3946
vn -0.4977 -0.1807 -0.8483
vn -0.1551 -0.0549 -0.9864
vn 0.1551 0.0588 -0.9861
vn 0.4977 0.1841 -0.8476
vn 0.8630 0.3171 -0.3934
vn 0.8170 0.3885 0.4261
vn 0.4471 0.2114 0.8691
vn 0.1363 0.0630 0.9887
vn -0.1363 -0.0669 0.9884
vn -0.4471 -0.2148 0.8683
vn -0.8170 -0.3902 0.4246
vn -0.8170 -0.3885 -0.4261
vn -0.4471 -0.2114 -0.8691
vn -0.1363 -0.0630 -0.9887
vn 0.1363 0.0669 -0.9884
vn 0.4471 0.2148 -0.8683
vn 0.8170 0.3902 -0.4246
vn 0.7510 0.4688 0.4649
vn 0.3861 0.2397 0.8908
vn 0.1151 0.0701 0.9909
vn -0.1151 -0.0740 0.9906
vn -0.3861 -0.2432 0.8898
vn -0.7510 -0.4707 0.4631
vn -0.7510 -0.4688 -0.4649
vn -0.3861 -0.2397 -0.8908
vn -0.1151 -0.0701 -0.9909
vn 0.1151 0.0740 -0.9906
vn 0.3861 0.2432 -0.8898
vn 0.7510 0.4707 -0.4631
vn 0.6564 0.5553 0.5106
vn 0.3145 0.2648 0.9116
vn 0.0918 0.0759 0.9929
vn -0.0918 -0.0798 0.9926
vn -0.3145 -0.2684 0.9105
vn -0.6564 -0.5573 0.5084
vn -0.6564 -0.5553 -0.5106
vn -0.3145 -0.2648 -0.9116
vn -0.0918 -0.0759 -0.9929
vn 0.0918 0.0798 -0.9926
vn 0.3145 0.2684 -0.9105
vn 0.6564 0.5573 -0.5084
vn 0.5230 0.6428 0.5598
vn 0.2331 0.2852 0.9297
vn 0.0669 0.0804 0.9945
vn -0.0669 -0.0843 0.9942
vn -0.2331 -0.2889 0.9286
vn -0.5230 -0.6450 0.5572
vn -0.5230 -0.6428 -0.5598
vn -0.2331 -0.2852 -0.9297
vn -0.0669 -0.0804 -0.9945
vn 0.0669 0.0843 -0.9942
vn 0.2331 0.2889 -0.9286
vn 0.5230 0.6450 -0.5572
vn 0.3428 0.7190 0.6046
vn 0.1435 0.2997 0.9432
vn 0.0406 0.0834 0.9957
vn -0.0406 -0.0873 0.9954
vn -0.1435 -0.3034 0.9420
vn -0.3428 -0.7214 0.6017
vn -0.3428 -0.7190 -0.6046
vn -0.1435 -0.2997 -0.9432
vn -0.0406 -0.0834 -0.9957
vn 0.0406 0.0873 -0.9954
vn 0.1435 0.3034 -0.9420
vn 0.3428 0.7214 -0.6017
vn 0.1202 0.7653 0.6324
vn 0.0485 0.3073 0.9504
vn 0.0136 0.0849 0.9963
vn -0.0136 -0.0888 0.9960
vn -0.0485 -0.3111 0.9492
vn -0.1202 -0.7677 0.6294
vn -0.1202 -0.7653 -0.6324
vn -0.0485 -0.3073 -0.9504
vn -0.0136 -0.0849 -0.9963
vn 0.0136 0.0888 -0.9960
vn 0.0485 0.3111 -0.9492
vn 0.1202 0.7677 -0.6294
vn -0.1202 0.7653 0.6324
vn -0.0485 0.3073 0.9504
vn -0.0136 0.0849 0.9963
vn 0.0136 -0.0888 0.9960
vn 0.0485 -0.3111 0.9492
vn 0.1202 -0.7677 0.6294
vn 0.1202 -0.7653 -0.6324
vn 0.0485 -0.3073 -0.9504
vn 0.0136 -0.0849 -0.9963
vn -0.0136 0.0888 -0.9960
vn -0.0485 0.3111 -0.9492
vn -0.1202 0.7677 -0.6294
vn -0.3428 0.7190 0.6046
vn -0.1435 0.2997 0.9432
vn -0.0406 0.0834 0.9957
vn 0.0406 -0.0873 0.9954
vn 0.1435 -0.3034 0.9420
vn 0.3428 -0.7214 0.6017
vn 0.3428 -0.7190 -0.6046
vn 0.1435 -0.2997 -0.9432
vn 0.0406 -0.0834 -0.9957
vn -0.0406 0.0873 -0.9954
vn -0.1435 0.3034 -0.9420
vn -0.3428 0.7214 -0.6017
vn -0.5230 0.6428 0.5597
vn -0.2331 0.2852 0.9297
vn -0.0669 0.0804 0.9945
vn 0.0669 -0.0843 0.9942
vn 0.2331 -0.2889 0.9286
vn 0.5230 -0.6450 0.5572
vn 0.5230 -0.6428 -0.5598
vn 0.2331 -0.2852 -0.9297
vn 0.0669 -0.0804 -0.9945
vn -0.0669 0.0843 -0.9942
vn -0.2331 0.2889 -0.9286
vn -0.5230 0.6450 -0.5572
vn -0.6564 0.5553 0.5106
vn -0.3145 0.2648 0.9116
vn -0.0918 0.0759 0.9929
vn 0.0918 -0.0798 0.9926
vn 0.3145 -0.2684 0.9105
vn 0.6564 -0.5573 0.5084
vn 0.6564 -0.5553 -0.5106
vn 0.3145 -0.2648 -0.9116
vn 0.0918 -0.0759 -0.9929
vn -0.0918 0.0798 -0.9926
vn -0.3145 0.2684 -0.9105
vn -0.6564 0.5573 -0.5084
vn -0.7510 0.4688 0.4649
vn -0.3861 0.2397 0.8908
vn -0.1151 0.0701 0.9909
vn 0.1151 -0.0740 0.9906
vn 0.3861 -0.2432 0.8898
vn 0.7510 -0.4707 0.4631
vn 0.7510 -0.4688 -0.4649
vn 0.3861 -0.2397 -0.8908
vn 0.1151 -0.0701 -0.9909
vn -0.1151 0.0740 -0.9906
vn -0.3861 0.2432 -0.8898
vn -0.7510 0.4707 -0.4631
vn -0.8170 0.3885 0.4261
vn -0.4471 0.2114 0.8691
vn -0.1363 0.0630 0.9887
vn 0.1363 -0.0669 0.9884
vn 0.4471 -0.2148 0.8683
vn 0.8170 -0.3902 0.4246
vn 0.8170 -0.3885 -0.4261
vn 0.4471 -0.2114 -0.8691
vn 0.1363 -0.0630 -0.9887
vn -0.1363 0.0669 -0.9884
vn -0.4471 0.2148 -0.8683
vn -0.8170 0.3902 -0.4246
vn -0.8630 0.3155 0.3946
vn -0.4977 0.1807 0.8483
vn -0.1551 0.0549 0.9864
vn 0.1551 -0.0588 0.9861
vn 0.4977 -0.1841 0.8476
vn 0.8630 -0.3171 0.3934
vn 0.8630 -0.3155 -0.3946
vn 0.4977 -0.1807 -0.8483
vn 0.1551 -0.0549 -0.9864
vn -0.1551 0.0588 -0.9861
vn -0.4977 0.1841 -0.8476
vn -0.8630 0.3171 -0.3934
vn -0.8950 0.2492 0.3700
vn -0.5382 0.1487 0.8296
vn -0.1711 0.0459 0.9842
vn 0.1711 -0.0497 0.9840
vn 0.5382 -0.1519 0.8290
vn 0.8950 -0.2507 0.3690
vn 0.8950 -0.2492 -0.3700
vn 0.5382 -0.1487 -0.8296
vn 0.1711 -0.0459 -0.9842
vn -0.1711 0.0497 -0.9840
vn -0.5382 0.1519 -0.8290
vn -0.8950 0.2507 -0.3690
vn -0.9171 0.1883 0.3514
vn -0.5695 0.1158 0.8138
vn -0.1842 0.0360 0.9822
vn 0.1842 -0.0399 0.9821
vn 0.5695 -0.1190 0.8133
vn 0.9171 -0.1897 0.3506
vn 0.9171 -0.1883 -0.3514
vn 0.5695 -0.1158 -0.8138
vn 0.1842 -0.0360 -0.9822
vn -0.1842 0.0399 -0.9821
vn -0.5695 0.1190 -0.8133
vn -0.9171 0.1897 -0.3506
vn -0.9319 0.1315 0.3381
vn -0.5923 0.0825 0.8015
vn -0.1942 0.0256 0.9806
vn 0.1942 -0.0295 0.9805
vn 0.5923 -0.0856 0.8012
vn 0.9319 -0.1329 0.3376
vn 0.9319 -0.1315 -0.3381
vn 0.5923 -0.0825 -0.8015
vn 0.1942 -0.0256 -0.9806
vn -0.1942 0.0295 -0.9805
vn -0.5923 0.0856 -0.8012
vn -0.9319 0.1329 -0.3376
vn -0.9410 0.0776 0.3295
vn -0.6071 0.0489 0.7931
vn -0.2009 0.0148 0.9795
vn 0.2009 -0.0186 0.9794
vn 0.6071 -0.0520 0.7929
vn 0.9410 -0.0789 0.3292
vn 0.9410 -0.0776 -0.3295
vn 0.6071 -0.0489 -0.7931
vn 0.2009 -0.0148 -0.9795
vn -0.2009 0.0186 -0.9794
vn -0.6071 0.0520 -0.7929
vn -0.9410 0.0789 -0.3292
vn -0.9453 0.0253 0.3252
vn -0.6144 0.0153 0.7888
vn -0.2043 0.0037 0.9789
vn 0.2043 -0.0075 0.9789
vn 0.6144 -0.0184 0.7888
vn 0.9453 -0.0265 0.3251
vn 0.9453 -0.0253 -0.3252
vn 0.6144 -0.0153 -0.7888
vn 0.2043 -0.0037 -0.9789
vn -0.2043 0.0075 -0.9789
vn -0.6144 0.0184 -0.7888
vn -0.9453 0.0265 -0.3251
vn -0.5230 0.6428 0.5598
vn -0.0000 -0.0000 1.0000
vn 0.5230 0.6428 0.5597
vn 0.0485 0.3110 -0.9492
vn -0.1202 0.7652 0.6324
vn 0.1202 0.7652 0.6324
vt 0.022116 0.699616
vt 0.000000 0.700069
vt 0.248434 0.000000
vt 0.247198 0.018870
vt 0.245508 0.044647
vt 0.243819 0.070424
vt 0.242582 0.089294
vt 0.434809 0.652539
vt 0.412654 0.651188
vt 0.386028 0.652539
vt 0.362063 0.656228
vt 0.895284 0.218747
vt 0.921061 0.216284
vt 0.946838 0.215390
vt 0.072852 0.701305
vt 0.048781 0.700069
vt 0.022116 0.733406
vt 0.281038 0.004292
vt 0.000000 0.732953
vt 0.277349 0.022839
vt 0.272309 0.048175
vt 0.267269 0.073511
vt 0.263580 0.092058
vt 0.436615 0.672996
vt 0.414383 0.670772
vt 0.387833 0.672996
vt 0.364080 0.679075
vt 0.892197 0.195447
vt 0.917533 0.189656
vt 0.942869 0.185433
vt 0.072852 0.731717
vt 0.048781 0.732953
vt 0.023568 0.766907
vt 0.001414 0.765557
vt 0.312802 0.012804
vt 0.306723 0.030710
vt 0.298420 0.055172
vt 0.290116 0.079633
vt 0.284038 0.097540
vt 0.439284 0.692564
vt 0.416938 0.689502
vt 0.390503 0.692564
vt 0.367061 0.700928
vt 0.886075 0.172747
vt 0.910536 0.163713
vt 0.934998 0.156247
vt 0.074159 0.761868
vt 0.050195 0.765557
vt 0.026449 0.799546
vt 0.004217 0.797321
vt 0.343183 0.025388
vt 0.334820 0.042348
vt 0.323394 0.065516
vt 0.311969 0.088685
vt 0.303605 0.105645
vt 0.442772 0.710906
vt 0.420277 0.707060
vt 0.393991 0.710906
vt 0.370957 0.721412
vt 0.877024 0.151036
vt 0.900192 0.138899
vt 0.076752 0.791242
vt 0.923360 0.128332
vt 0.052999 0.797321
vt 0.030708 0.830764
vt 0.008362 0.827703
vt 0.371663 0.041830
vt 0.361156 0.057554
vt 0.346805 0.079033
vt 0.332453 0.100511
vt 0.322732 0.770979
vt 0.321947 0.116235
vt 0.447019 0.727709
vt 0.424342 0.723145
vt 0.348390 0.765224
vt 0.849473 0.143265
vt 0.398238 0.727709
vt 0.375699 0.740177
vt 0.865197 0.130683
vt 0.886676 0.115640
vt 0.080585 0.819339
vt 0.908154 0.102165
vt 0.057144 0.827703
vt 0.036273 0.860027
vt 0.397752 0.061849
vt 0.013778 0.856182
vt 0.385283 0.076067
vt 0.368251 0.095489
vt 0.351218 0.114910
vt 0.317198 0.758086
vt 0.338750 0.129128
vt 0.343092 0.752881
vt 0.429064 0.737481
vt 0.403170 0.742685
vt 0.836580 0.126570
vt 0.850798 0.112039
vt 0.870220 0.094332
vt 0.889641 0.078194
vt 0.085594 0.845675
vt 0.062559 0.856182
vt 0.043048 0.886835
vt 0.226431 0.501724
vt 0.020372 0.882271
vt 0.203754 0.506288
vt 0.421005 0.085102
vt 0.406787 0.097571
vt 0.387365 0.114603
vt 0.367944 0.131636
vt 0.289727 0.755578
vt 0.353726 0.144104
vt 0.312265 0.743109
vt 0.434362 0.749823
vt 0.338370 0.738546
vt 0.408705 0.755578
vt 0.821604 0.111691
vt 0.361047 0.743109
vt 0.834073 0.095422
vt 0.851105 0.075341
vt 0.275074 0.518756
vt 0.868137 0.056828
vt 0.091691 0.869802
vt 0.069153 0.882271
vt 0.252536 0.506288
vt 0.219656 0.528532
vt 0.197161 0.532377
vt 0.441024 0.111191
vt 0.425300 0.121698
vt 0.403822 0.136049
vt 0.382343 0.150401
vt 0.284984 0.736813
vt 0.308018 0.726307
vt 0.334305 0.722461
vt 0.804801 0.098881
vt 0.356800 0.726307
vt 0.815307 0.081115
vt 0.829659 0.058990
vt 0.268976 0.542883
vt 0.844011 0.038435
vt 0.245942 0.532377
vt 0.214091 0.557795
vt 0.191745 0.560856
vt 0.457466 0.139671
vt 0.440506 0.148034
vt 0.417338 0.159460
vt 0.281089 0.716328
vt 0.394169 0.170885
vt 0.304530 0.707965
vt 0.330966 0.704903
vt 0.786459 0.088359
vt 0.353312 0.707965
vt 0.794823 0.069365
vt 0.806248 0.045561
vt 0.817674 0.023327
vt 0.263968 0.569220
vt 0.240526 0.560856
vt 0.209832 0.589013
vt 0.470051 0.170052
vt 0.187600 0.591238
vt 0.452144 0.176131
vt 0.427682 0.184434
vt 0.403221 0.192738
vt 0.278107 0.694476
vt 0.301861 0.688397
vt 0.328410 0.686172
vt 0.766892 0.080306
vt 0.350642 0.688397
vt 0.772971 0.060372
vt 0.781274 0.035283
vt 0.260135 0.597316
vt 0.789578 0.011764
vt 0.236381 0.591238
vt 0.206951 0.621651
vt 0.478562 0.201816
vt 0.184797 0.623002
vt 0.460015 0.205505
vt 0.434679 0.210545
vt 0.276091 0.671629
vt 0.409343 0.215585
vt 0.300055 0.667939
vt 0.326682 0.666589
vt 0.348837 0.667939
vt 0.746434 0.074860
vt 0.750123 0.054289
vt 0.755163 0.028332
vt 0.257542 0.626691
vt 0.760203 0.003944
vt 0.233578 0.623002
vt 0.205499 0.655153
vt 0.482854 0.234420
vt 0.183383 0.655605
vt 0.463984 0.235656
vt 0.438207 0.237346
vt 0.412430 0.239036
vt 0.275074 0.648178
vt 0.299145 0.646941
vt 0.325810 0.646488
vt 0.725436 0.072113
vt 0.347926 0.646941
vt 0.726673 0.051222
vt 0.728362 0.024826
vt 0.256235 0.656842
vt 0.730052 0.000000
vt 0.232164 0.655605
vt 0.205499 0.688943
vt 0.482854 0.267304
vt 0.183383 0.688490
vt 0.463984 0.266068
vt 0.438207 0.264378
vt 0.275074 0.624525
vt 0.412430 0.262689
vt 0.299145 0.625762
vt 0.325810 0.626214
vt 0.347926 0.625762
vt 0.704256 0.072113
vt 0.703020 0.051222
vt 0.701330 0.024826
vt 0.699641 0.000000
vt 0.256235 0.687253
vt 0.232164 0.688490
vt 0.206951 0.722444
vt 0.184797 0.721093
vt 0.478562 0.299908
vt 0.460015 0.296219
vt 0.434679 0.291179
vt 0.276091 0.601074
vt 0.409343 0.286139
vt 0.300055 0.604763
vt 0.326682 0.606114
vt 0.683258 0.074860
vt 0.348837 0.604763
vt 0.679569 0.054289
vt 0.674529 0.028332
vt 0.257542 0.717404
vt 0.669490 0.003944
vt 0.233578 0.721093
vt 0.209832 0.755082
vt 0.470051 0.331672
vt 0.187600 0.752858
vt 0.452144 0.325593
vt 0.427682 0.317290
vt 0.403221 0.308986
vt 0.278107 0.578227
vt 0.301861 0.584306
vt 0.328410 0.586531
vt 0.662800 0.080306
vt 0.350642 0.584306
vt 0.656722 0.060372
vt 0.648418 0.035283
vt 0.640115 0.011764
vt 0.260135 0.746779
vt 0.236381 0.752858
vt 0.214091 0.786301
vt 0.191745 0.783239
vt 0.457466 0.362054
vt 0.440506 0.353690
vt 0.417338 0.342264
vt 0.281089 0.556374
vt 0.394169 0.330839
vt 0.304530 0.564738
vt 0.330966 0.567800
vt 0.643233 0.088359
vt 0.353312 0.564738
vt 0.634869 0.069365
vt 0.623444 0.045561
vt 0.263968 0.774875
vt 0.612018 0.023327
vt 0.240526 0.783239
vt 0.219656 0.815564
vt 0.441024 0.390532
vt 0.197161 0.811718
vt 0.425300 0.380026
vt 0.403822 0.365675
vt 0.284984 0.535890
vt 0.382343 0.351323
vt 0.308018 0.546396
vt 0.334305 0.550242
vt 0.356800 0.546396
vt 0.624891 0.098881
vt 0.614385 0.081115
vt 0.600033 0.058990
vt 0.585682 0.038435
vt 0.268976 0.801212
vt 0.245942 0.811718
vt 0.226431 0.842371
vt 0.134740 0.501724
vt 0.203754 0.837807
vt 0.421005 0.416622
vt 0.112063 0.506288
vt 0.406787 0.404153
vt 0.387365 0.387121
vt 0.289727 0.517125
vt 0.367944 0.370089
vt 0.312265 0.529593
vt 0.353726 0.357620
vt 0.987343 0.487642
vt 0.338370 0.534157
vt 0.361047 0.529593
vt 0.961686 0.481886
vt 0.608088 0.111691
vt 0.595620 0.095422
vt 0.578587 0.075341
vt 0.183383 0.518756
vt 0.275074 0.825339
vt 0.561555 0.056828
vt 0.252536 0.837807
vt 0.160845 0.506288
vt 0.127964 0.528532
vt 0.397752 0.439875
vt 0.105469 0.532377
vt 0.385283 0.425657
vt 0.368251 0.406235
vt 0.351219 0.386814
vt 0.317198 0.514617
vt 0.338750 0.372596
vt 0.982045 0.499984
vt 0.343092 0.519821
vt 0.956151 0.494780
vt 0.593112 0.126570
vt 0.578894 0.112039
vt 0.559473 0.094332
vt 0.540051 0.078194
vt 0.177285 0.542883
vt 0.154251 0.532377
vt 0.122400 0.557795
vt 0.100054 0.560856
vt 0.371663 0.459894
vt 0.361156 0.444170
vt 0.346805 0.422692
vt 0.332453 0.401213
vt 1.000000 0.509756
vt 0.322732 0.501724
vt 0.321947 0.385489
vt 0.348390 0.507479
vt 0.977323 0.514319
vt 0.580219 0.143265
vt 0.951218 0.509756
vt 0.928680 0.497287
vt 0.564495 0.130683
vt 0.543017 0.115640
vt 0.172277 0.569220
vt 0.521538 0.102165
vt 0.148835 0.560856
vt 0.118140 0.589013
vt 0.343184 0.476336
vt 0.095909 0.591238
vt 0.334820 0.459376
vt 0.323394 0.436208
vt 0.311969 0.413039
vt 0.995753 0.526558
vt 0.303605 0.396079
vt 0.973258 0.530404
vt 0.946972 0.526559
vt 0.552669 0.151036
vt 0.923938 0.516052
vt 0.529501 0.138899
vt 0.506332 0.128332
vt 0.168443 0.597316
vt 0.144690 0.591238
vt 0.115260 0.621652
vt 0.093105 0.623002
vt 0.312802 0.488921
vt 0.306724 0.471014
vt 0.298420 0.446552
vt 0.290116 0.422091
vt 0.992265 0.544900
vt 0.284038 0.404184
vt 0.969919 0.547962
vt 0.943484 0.544900
vt 0.543617 0.172747
vt 0.920042 0.536537
vt 0.519156 0.163713
vt 0.494695 0.156247
vt 0.165851 0.626691
vt 0.141887 0.623002
vt 0.113807 0.655153
vt 0.281038 0.497432
vt 0.091691 0.655605
vt 0.277349 0.478885
vt 0.272309 0.453549
vt 0.267269 0.428213
vt 0.989596 0.564468
vt 0.263580 0.409666
vt 0.967364 0.566693
vt 0.940814 0.564468
vt 0.917061 0.558389
vt 0.537495 0.195447
vt 0.512159 0.189656
vt 0.486824 0.185433
vt 0.164543 0.656842
vt 0.140473 0.655605
vt 0.113807 0.688943
vt 0.091691 0.688490
vt 0.248434 0.501724
vt 0.247198 0.482854
vt 0.245508 0.457077
vt 0.243819 0.431300
vt 0.987790 0.584926
vt 0.242582 0.412430
vt 0.965635 0.586276
vt 0.939009 0.584926
vt 0.915044 0.581236
vt 0.534408 0.218747
vt 0.508631 0.216284
vt 0.164543 0.687253
vt 0.482854 0.215390
vt 0.140473 0.688490
vt 0.115260 0.722444
vt 0.215550 0.501724
vt 0.093105 0.721093
vt 0.216787 0.482854
vt 0.218476 0.457077
vt 0.220166 0.431300
vt 0.986880 0.605924
vt 0.221402 0.412430
vt 0.964764 0.606377
vt 0.938098 0.605924
vt 0.914027 0.604687
vt 0.534408 0.242248
vt 0.508631 0.243142
vt 0.482854 0.245605
vt 0.165851 0.717404
vt 0.141887 0.721093
vt 0.118140 0.755083
vt 0.095909 0.752858
vt 0.182946 0.497432
vt 0.186636 0.478885
vt 0.191675 0.453549
vt 0.196715 0.428213
vt 0.200404 0.409666
vt 0.986880 0.627103
vt 0.964764 0.626651
vt 0.938098 0.627103
vt 0.537495 0.265547
vt 0.914027 0.628340
vt 0.512159 0.269770
vt 0.168443 0.746779
vt 0.486824 0.275562
vt 0.144690 0.752858
vt 0.122400 0.786301
vt 0.151182 0.488921
vt 0.100054 0.783239
vt 0.157261 0.471014
vt 0.165564 0.446552
vt 0.173868 0.422091
vt 0.987790 0.648102
vt 0.179946 0.404184
vt 0.965635 0.646751
vt 0.939009 0.648102
vt 0.915044 0.651791
vt 0.543617 0.288247
vt 0.519156 0.295713
vt 0.494695 0.304747
vt 0.172277 0.774875
vt 0.148835 0.783239
vt 0.127964 0.815564
vt 0.120801 0.476336
vt 0.105469 0.811718
vt 0.129165 0.459376
vt 0.140590 0.436208
vt 0.152015 0.413039
vt 0.160379 0.396079
vt 0.989596 0.668559
vt 0.967364 0.666335
vt 0.940814 0.668559
vt 0.552669 0.309959
vt 0.917061 0.674638
vt 0.529500 0.320526
vt 0.506332 0.332662
vt 0.177285 0.801212
vt 0.154251 0.811718
vt 0.882084 0.911460
vt 0.134740 0.842371
vt 0.112063 0.837807
vt 0.092322 0.459894
vt 0.907741 0.905705
vt 0.102828 0.444170
vt 0.117179 0.422692
vt 0.131531 0.401213
vt 0.992265 0.688127
vt 0.142037 0.385489
vt 0.969919 0.685065
vt 0.943484 0.688127
vt 0.920042 0.696491
vt 0.564495 0.330311
vt 0.543017 0.343786
vt 0.183383 0.825339
vt 0.521538 0.358830
vt 0.505814 0.371411
vt 0.160845 0.837807
vt 0.873254 0.890890
vt 0.142610 0.866264
vt 0.899148 0.885686
vt 0.066232 0.439875
vt 0.078701 0.425657
vt 0.095733 0.406235
vt 0.112766 0.386814
vt 0.995753 0.706469
vt 0.125234 0.372596
vt 0.973258 0.702623
vt 0.946972 0.706469
vt 0.923938 0.716975
vt 0.578894 0.348956
vt 0.559473 0.365094
vt 0.540051 0.382801
vt 0.168504 0.861060
vt 0.525833 0.397332
vt 0.151439 0.886835
vt 0.865384 0.866997
vt 0.042979 0.416622
vt 0.891489 0.862433
vt 0.914027 0.849964
vt 0.057197 0.404153
vt 0.076619 0.387121
vt 0.096040 0.370089
vt 0.447019 0.768046
vt 1.000000 0.723272
vt 0.110258 0.357620
vt 0.977323 0.718708
vt 0.424342 0.772610
vt 0.951218 0.723272
vt 0.398238 0.768046
vt 0.928680 0.735740
vt 0.595620 0.365573
vt 0.375699 0.755578
vt 0.578587 0.384085
vt 0.561555 0.404166
vt 0.842708 0.862433
vt 0.177097 0.881079
vt 0.549086 0.420435
vt 0.858609 0.840189
vt 0.884896 0.836344
vt 0.038684 0.380027
vt 0.907930 0.825838
vt 0.060163 0.365675
vt 0.081641 0.351323
vt 0.097365 0.340817
vt 0.442772 0.784849
vt 0.420277 0.788695
vt 0.393991 0.784849
vt 0.614385 0.379879
vt 0.370957 0.774343
vt 0.600033 0.400435
vt 0.585682 0.422560
vt 0.575175 0.440325
vt 0.836114 0.836344
vt 0.853044 0.810926
vt 0.879480 0.807865
vt 0.023478 0.353690
vt 0.902921 0.799501
vt 0.046646 0.342264
vt 0.069815 0.330839
vt 0.439284 0.803191
vt 0.086775 0.322475
vt 0.416938 0.806253
vt 0.390503 0.803191
vt 0.367061 0.794827
vt 0.634869 0.391630
vt 0.623444 0.413864
vt 0.612019 0.437668
vt 0.603655 0.456662
vt 0.830698 0.807865
vt 0.848785 0.779708
vt 0.875335 0.777483
vt 0.011840 0.325594
vt 0.899088 0.771405
vt 0.036302 0.317290
vt 0.060763 0.308987
vt 0.078670 0.302908
vt 0.436615 0.822759
vt 0.414383 0.824983
vt 0.387833 0.822759
vt 0.656722 0.400623
vt 0.364080 0.816680
vt 0.648418 0.424142
vt 0.640115 0.449231
vt 0.634036 0.469165
vt 0.826553 0.777483
vt 0.845905 0.747069
vt 0.872531 0.745719
vt 0.896496 0.742030
vt 0.003969 0.296219
vt 0.029305 0.291179
vt 0.054641 0.286139
vt 0.073188 0.282450
vt 0.434809 0.843216
vt 0.412654 0.844567
vt 0.386028 0.843216
vt 0.362063 0.839527
vt 0.679569 0.406706
vt 0.674529 0.431094
vt 0.669490 0.457051
vt 0.823750 0.745719
vt 0.665800 0.477622
vt 0.844452 0.713568
vt 0.871118 0.713116
vt 0.895188 0.711879
vt 0.000000 0.266068
vt 0.025777 0.264378
vt 0.051554 0.262689
vt 0.070424 0.261452
vt 0.433899 0.864215
vt 0.411783 0.864667
vt 0.385117 0.864215
vt 0.703019 0.409773
vt 0.361047 0.862978
vt 0.701330 0.434599
vt 0.699640 0.460995
vt 0.822336 0.713116
vt 0.698404 0.481886
vt 0.844452 0.679778
vt 0.871118 0.680231
vt 0.000000 0.235656
vt 0.895188 0.681468
vt 0.025777 0.237346
vt 0.051554 0.239036
vt 0.433899 0.885394
vt 0.070424 0.240272
vt 0.411783 0.884942
vt 0.385117 0.885394
vt 0.361047 0.886631
vt 0.726673 0.409773
vt 0.728362 0.434599
vt 0.730052 0.460995
vt 0.822336 0.680231
vt 0.731288 0.481886
vt 0.845905 0.646277
vt 0.872531 0.647627
vt 0.003969 0.205506
vt 0.896496 0.651317
vt 0.029305 0.210545
vt 0.054641 0.215585
vt 0.073188 0.219274
vt 0.434809 0.906392
vt 0.412654 0.905042
vt 0.386028 0.906392
vt 0.362063 0.910082
vt 0.750123 0.406706
vt 0.755163 0.431094
vt 0.760203 0.457051
vt 0.823750 0.647627
vt 0.763892 0.477622
vt 0.848785 0.613638
vt 0.875335 0.615863
vt 0.011840 0.176131
vt 0.899088 0.621942
vt 0.036302 0.184434
vt 0.060763 0.192738
vt 0.436615 0.926850
vt 0.078670 0.198816
vt 0.414383 0.924625
vt 0.387833 0.926850
vt 0.772970 0.400623
vt 0.364080 0.932929
vt 0.781274 0.424142
vt 0.789577 0.449231
vt 0.795656 0.469165
vt 0.826553 0.615863
vt 0.853044 0.582420
vt 0.879480 0.585482
vt 0.902921 0.593846
vt 0.023478 0.148034
vt 0.046646 0.159460
vt 0.069815 0.170885
vt 0.439284 0.946418
vt 0.086775 0.179249
vt 0.416938 0.943356
vt 0.390503 0.946418
vt 0.794823 0.391630
vt 0.367061 0.954782
vt 0.806248 0.413864
vt 0.817674 0.437668
vt 0.826038 0.456662
vt 0.830698 0.585482
vt 0.858609 0.553157
vt 0.884896 0.557003
vt 0.038684 0.121698
vt 0.907930 0.567509
vt 0.060162 0.136049
vt 0.081641 0.150401
vt 0.442772 0.964760
vt 0.097365 0.160907
vt 0.420277 0.960914
vt 0.393991 0.964760
vt 0.815307 0.379880
vt 0.370957 0.975266
vt 0.829659 0.400435
vt 0.844011 0.422560
vt 0.854517 0.440325
vt 0.836114 0.557003
vt 0.865384 0.526350
vt 0.059748 0.501724
vt 0.042979 0.085102
vt 0.891489 0.530914
vt 0.914027 0.543382
vt 0.057197 0.097571
vt 0.076619 0.114603
vt 0.096040 0.131636
vt 0.447019 0.514193
vt 0.110258 0.144104
vt 0.447019 0.981562
vt 0.424342 0.976999
vt 0.424342 0.518756
vt 0.398238 0.981562
vt 0.398238 0.514193
vt 0.375699 0.994031
vt 0.834073 0.365573
vt 0.375699 0.501724
vt 0.851105 0.384085
vt 0.868137 0.404166
vt 0.085405 0.507479
vt 0.880606 0.420436
vt 0.842708 0.530914
vt 0.873254 0.502457
vt 0.050918 0.522294
vt 0.899148 0.507661
vt 0.066232 0.061849
vt 0.078701 0.076067
vt 0.095733 0.095489
vt 0.112765 0.114910
vt 0.442772 0.530995
vt 0.125234 0.129128
vt 0.420277 0.534841
vt 0.393991 0.530995
vt 0.370957 0.520489
vt 0.850798 0.348956
vt 0.870219 0.365094
vt 0.889641 0.382801
vt 0.076812 0.527498
vt 0.903859 0.397332
vt 0.882084 0.481886
vt 0.043048 0.546188
vt 0.907741 0.487641
vt 0.092322 0.041830
vt 0.020372 0.550751
vt 0.102828 0.057554
vt 0.117179 0.079033
vt 0.131531 0.100511
vt 0.439284 0.549338
vt 0.142037 0.116235
vt 0.416938 0.552399
vt 0.390503 0.549337
vt 0.367061 0.540974
vt 0.865197 0.330311
vt 0.886676 0.343786
vt 0.908154 0.358830
vt 0.091691 0.563220
vt 0.923878 0.371411
vt 0.069153 0.550751
vt 0.036273 0.572995
vt 0.120800 0.025388
vt 0.013778 0.576840
vt 0.129164 0.042348
vt 0.140590 0.065516
vt 0.152015 0.088685
vt 0.436615 0.568905
vt 0.160379 0.105645
vt 0.414383 0.571130
vt 0.387833 0.568905
vt 0.877023 0.309959
vt 0.364080 0.562826
vt 0.900192 0.320526
vt 0.085594 0.587347
vt 0.923360 0.332662
vt 0.062559 0.576840
vt 0.030708 0.602258
vt 0.151182 0.012804
vt 0.008362 0.605319
vt 0.157261 0.030710
vt 0.165564 0.055172
vt 0.173868 0.079633
vt 0.434809 0.589363
vt 0.179946 0.097540
vt 0.412654 0.590713
vt 0.386028 0.589363
vt 0.362063 0.585673
vt 0.886075 0.288247
vt 0.910536 0.295713
vt 0.080585 0.613683
vt 0.934998 0.304747
vt 0.057144 0.605319
vt 0.026449 0.633476
vt 0.004217 0.635701
vt 0.182946 0.004292
vt 0.186636 0.022839
vt 0.191675 0.048175
vt 0.196715 0.073511
vt 0.200404 0.092058
vt 0.433899 0.610361
vt 0.411783 0.610814
vt 0.385117 0.610361
vt 0.361047 0.609124
vt 0.892197 0.265547
vt 0.917533 0.269770
vt 0.076752 0.641780
vt 0.942869 0.275562
vt 0.052999 0.635701
vt 0.023568 0.666115
vt 0.215550 0.000000
vt 0.001414 0.667465
vt 0.216786 0.018870
vt 0.218476 0.044647
vt 0.220165 0.070424
vt 0.433899 0.631540
vt 0.221402 0.089294
vt 0.411783 0.631088
vt 0.385117 0.631540
vt 0.895284 0.242248
vt 0.361047 0.632777
vt 0.921061 0.243142
vt 0.946838 0.245605
vt 0.074159 0.671154
vt 0.050195 0.667465
vt 0.482854 0.832786
vt 0.482854 0.481886
vt 0.822336 0.832786
vt 0.822336 0.481886
s 0
usemtl マテリアル
f 13/17/1 2/2/1 1/1/1
f 2/3/2 15/20/2 3/4/2
f 15/20/3 4/5/3 3/4/3
f 16/21/4 5/6/4 4/5/4
f 17/22/5 6/7/5 5/6/5
f 6/8/6 19/25/6 7/9/6
f 19/25/7 8/10/7 7/9/7
f 20/26/8 9/11/8 8/10/8
f 21/28/9 10/13/9 9/12/9
f 22/29/10 11/14/10 10/13/10
f 23/31/11 12/16/11 11/15/11
f 24/32/12 1/1/12 12/16/12
f 25/33/13 14/19/13 13/17/13
f 26/35/14 15/20/14 14/18/14
f 27/36/15 16/21/15 15/20/15
f 28/37/16 17/22/16 16/21/16
f 17/22/17 30/39/17 18/23/17
f 30/40/18 19/25/18 18/24/18
f 31/41/19 20/26/19 19/25/19
f 32/42/20 21/27/20 20/26/20
f 21/28/21 34/45/21 22/29/21
f 22/29/22 35/46/22 23/30/22
f 23/31/23 36/48/23 24/32/23
f 36/48/24 13/17/24 24/32/24
f 25/33/25 38/50/25 26/34/25
f 38/51/26 27/36/26 26/35/26
f 39/52/27 28/37/27 27/36/27
f 28/37/28 41/54/28 29/38/28
f 29/38/29 42/55/29 30/39/29
f 30/40/30 43/57/30 31/41/30
f 43/57/31 32/42/31 31/41/31
f 44/58/32 33/43/32 32/42/32
f 33/44/33 46/61/33 34/45/33
f 34/45/34 47/63/34 35/46/34
f 35/47/35 48/64/35 36/48/35
f 48/64/36 25/33/36 36/48/36
f 37/49/37 50/66/37 38/50/37
f 38/51/38 51/68/38 39/52/38
f 39/52/39 52/69/39 40/53/39
f 52/69/40 41/54/40 40/53/40
f 41/54/41 54/72/41 42/55/41
f 54/73/42 43/57/42 42/56/42
f 55/74/43 44/58/43 43/57/43
f 56/77/44 45/59/44 44/58/44
f 45/60/45 58/80/45 46/61/45
f 58/80/46 47/63/46 46/61/46
f 59/81/47 48/64/47 47/62/47
f 60/83/48 37/49/48 48/64/48
f 61/84/49 50/66/49 49/65/49
f 50/67/50 63/87/50 51/68/50
f 63/87/51 52/69/51 51/68/51
f 64/88/52 53/70/52 52/69/52
f 53/70/53 66/91/53 54/72/53
f 66/90/54 55/75/54 54/71/54
f 67/93/55 56/77/55 55/74/55
f 68/95/56 57/79/56 56/76/56
f 69/96/57 58/80/57 57/79/57
f 70/97/58 59/82/58 58/80/58
f 71/99/59 60/83/59 59/81/59
f 60/83/60 61/84/60 49/65/60
f 73/101/61 62/86/61 61/84/61
f 74/105/62 63/87/62 62/85/62
f 75/106/63 64/88/63 63/87/63
f 76/107/64 65/89/64 64/88/64
f 77/108/65 66/91/65 65/89/65
f 78/111/66 67/92/66 66/90/66
f 67/93/67 80/114/67 68/94/67
f 80/115/68 69/96/68 68/95/68
f 81/117/69 70/97/69 69/96/69
f 82/118/70 71/98/70 70/97/70
f 71/99/71 84/122/71 72/100/71
f 84/122/72 61/84/72 72/100/72
f 85/124/73 74/104/73 73/102/73
f 74/105/74 87/127/74 75/106/74
f 87/127/75 76/107/75 75/106/75
f 88/128/76 77/108/76 76/107/76
f 77/109/77 90/131/77 78/111/77
f 90/131/78 79/113/78 78/111/78
f 91/132/79 80/116/79 79/113/79
f 92/133/80 81/117/80 80/115/80
f 81/117/81 94/136/81 82/118/81
f 82/118/82 95/138/82 83/120/82
f 95/137/83 84/123/83 83/119/83
f 96/139/84 73/102/84 84/123/84
f 97/140/85 86/125/85 85/124/85
f 86/126/86 99/143/86 87/127/86
f 87/127/87 100/144/87 88/128/87
f 100/144/88 89/129/88 88/128/88
f 89/130/89 102/147/89 90/131/89
f 102/147/90 91/132/90 90/131/90
f 103/148/91 92/134/91 91/132/91
f 104/149/92 93/135/92 92/133/92
f 105/151/93 94/136/93 93/135/93
f 106/152/94 95/138/94 94/136/94
f 107/154/95 96/139/95 95/137/95
f 108/155/96 85/124/96 96/139/96
f 97/140/97 110/158/97 98/141/97
f 110/157/98 99/143/98 98/142/98
f 111/159/99 100/144/99 99/143/99
f 112/160/100 101/146/100 100/144/100
f 113/162/101 102/147/101 101/145/101
f 114/163/102 103/148/102 102/147/102
f 115/164/103 104/150/103 103/148/103
f 116/165/104 105/151/104 104/149/104
f 105/151/105 118/168/105 106/152/105
f 106/152/106 119/170/106 107/153/106
f 119/169/107 108/155/107 107/154/107
f 120/171/108 97/140/108 108/155/108
f 121/172/109 110/158/109 109/156/109
f 122/173/110 111/159/110 110/157/110
f 123/175/111 112/160/111 111/159/111
f 124/176/112 113/161/112 112/160/112
f 113/162/113 126/179/113 114/163/113
f 126/179/114 115/164/114 114/163/114
f 127/180/115 116/166/115 115/164/115
f 128/182/116 117/167/116 116/165/116
f 129/183/117 118/168/117 117/167/117
f 130/184/118 119/170/118 118/168/118
f 131/185/119 120/171/119 119/169/119
f 132/187/120 109/156/120 120/171/120
f 133/188/121 122/174/121 121/172/121
f 134/189/122 123/175/122 122/173/122
f 123/175/123 136/192/123 124/176/123
f 136/192/124 125/178/124 124/176/124
f 137/194/125 126/179/125 125/177/125
f 138/195/126 127/180/126 126/179/126
f 127/180/127 140/198/127 128/181/127
f 140/197/128 129/183/128 128/182/128
f 129/183/129 142/200/129 130/184/129
f 142/200/130 131/186/130 130/184/130
f 143/201/131 132/187/131 131/185/131
f 144/203/132 121/172/132 132/187/132
f 145/204/133 134/190/133 133/188/133
f 146/205/134 135/191/134 134/189/134
f 147/207/135 136/192/135 135/191/135
f 136/192/136 149/210/136 137/193/136
f 137/194/137 150/211/137 138/195/137
f 150/211/138 139/196/138 138/195/138
f 151/212/139 140/198/139 139/196/139
f 152/214/140 141/199/140 140/197/140
f 153/215/141 142/200/141 141/199/141
f 154/216/142 143/202/142 142/200/142
f 155/218/143 144/203/143 143/201/143
f 144/203/144 145/204/144 133/188/144
f 157/220/145 146/206/145 145/204/145
f 158/222/146 147/207/146 146/205/146
f 159/223/147 148/208/147 147/207/147
f 160/224/148 149/210/148 148/208/148
f 161/225/149 150/211/149 149/209/149
f 162/227/150 151/212/150 150/211/150
f 151/212/151 164/230/151 152/213/151
f 164/229/152 153/215/152 152/214/152
f 153/215/153 166/232/153 154/216/153
f 154/216/154 167/234/154 155/217/154
f 155/218/155 168/235/155 156/219/155
f 156/219/156 157/220/156 145/204/156
f 169/236/157 158/221/157 157/220/157
f 158/222/158 171/239/158 159/223/158
f 159/223/159 172/240/159 160/224/159
f 172/240/160 161/226/160 160/224/160
f 173/242/161 162/227/161 161/225/161
f 174/243/162 163/228/162 162/227/162
f 175/244/163 164/230/163 163/228/163
f 176/245/164 165/231/164 164/229/164
f 177/247/165 166/232/165 165/231/165
f 178/248/166 167/234/166 166/232/166
f 179/250/167 168/235/167 167/233/167
f 180/251/168 157/220/168 168/235/168
f 181/252/169 170/238/169 169/236/169
f 182/254/170 171/239/170 170/237/170
f 183/255/171 172/240/171 171/239/171
f 172/240/172 185/258/172 173/241/172
f 185/257/173 174/243/173 173/242/173
f 186/259/174 175/244/174 174/243/174
f 187/260/175 176/246/175 175/244/175
f 188/261/176 177/247/176 176/245/176
f 177/247/177 190/264/177 178/248/177
f 190/264/178 179/249/178 178/248/178
f 179/250/179 192/267/179 180/251/179
f 192/267/180 169/236/180 180/251/180
f 193/268/181 182/253/181 181/252/181
f 182/254/182 195/271/182 183/255/182
f 195/271/183 184/256/183 183/255/183
f 196/272/184 185/258/184 184/256/184
f 197/273/185 186/259/185 185/257/185
f 198/275/186 187/260/186 186/259/186
f 199/276/187 188/262/187 187/260/187
f 200/278/188 189/263/188 188/261/188
f 201/279/189 190/264/189 189/263/189
f 202/280/190 191/266/190 190/264/190
f 203/282/191 192/267/191 191/265/191
f 204/283/192 181/252/192 192/267/192
f 205/284/193 194/270/193 193/268/193
f 206/287/194 195/271/194 194/269/194
f 207/289/195 196/272/195 195/271/195
f 208/290/196 197/274/196 196/272/196
f 209/291/197 198/275/197 197/273/197
f 198/275/198 211/296/198 199/276/198
f 211/296/199 200/277/199 199/276/199
f 200/278/200 213/300/200 201/279/200
f 201/279/201 214/301/201 202/280/201
f 202/280/202 215/304/202 203/281/202
f 203/282/203 216/305/203 204/283/203
f 216/305/204 193/268/204 204/283/204
f 217/307/205 206/288/205 205/285/205
f 218/308/206 207/289/206 206/287/206
f 207/289/207 220/311/207 208/290/207
f 220/311/208 209/292/208 208/290/208
f 221/312/209 210/294/209 209/292/209
f 222/313/210 211/296/210 210/293/210
f 223/315/211 212/298/211 211/295/211
f 212/299/212 225/319/212 213/300/212
f 225/319/213 214/301/213 213/300/213
f 226/320/214 215/304/214 214/301/214
f 227/322/215 216/306/215 215/302/215
f 228/323/216 205/285/216 216/306/216
f 229/324/217 218/309/217 217/307/217
f 230/326/218 219/310/218 218/308/218
f 231/327/219 220/311/219 219/310/219
f 220/311/220 233/329/220 221/312/220
f 233/329/221 222/314/221 221/312/221
f 234/331/222 223/316/222 222/313/222
f 235/334/223 224/317/223 223/315/223
f 224/318/224 237/338/224 225/319/224
f 237/338/225 226/320/225 225/319/225
f 238/339/226 227/321/226 226/320/226
f 227/322/227 240/342/227 228/323/227
f 240/342/228 217/307/228 228/323/228
f 229/324/229 242/345/229 230/325/229
f 242/344/230 231/327/230 230/326/230
f 231/327/231 244/347/231 232/328/231
f 244/347/232 233/329/232 232/328/232
f 245/348/233 234/332/233 233/329/233
f 246/349/234 235/334/234 234/330/234
f 247/351/235 236/336/235 235/334/235
f 248/352/236 237/337/236 236/336/236
f 237/338/237 250/355/237 238/339/237
f 250/355/238 239/341/238 238/339/238
f 251/357/239 240/342/239 239/340/239
f 252/358/240 229/324/240 240/342/240
f 253/359/241 242/345/241 241/343/241
f 254/361/242 243/346/242 242/344/242
f 255/362/243 244/347/243 243/346/243
f 244/347/244 257/364/244 245/348/244
f 257/364/245 246/350/245 245/348/245
f 258/365/246 247/351/246 246/349/246
f 247/351/247 260/368/247 248/352/247
f 260/368/248 249/354/248 248/352/248
f 261/369/249 250/355/249 249/353/249
f 262/371/250 251/356/250 250/355/250
f 251/357/251 264/374/251 252/358/251
f 264/374/252 241/343/252 252/358/252
f 253/359/253 266/377/253 254/360/253
f 266/376/254 255/362/254 254/361/254
f 267/378/255 256/363/255 255/362/255
f 256/363/256 269/380/256 257/364/256
f 269/380/257 258/366/257 257/364/257
f 270/381/258 259/367/258 258/365/258
f 271/383/259 260/368/259 259/367/259
f 272/384/260 261/370/260 260/368/260
f 273/386/261 262/371/261 261/369/261
f 262/371/262 275/388/262 263/372/262
f 275/389/263 264/374/263 263/373/263
f 276/390/264 253/359/264 264/374/264
f 277/391/265 266/377/265 265/375/265
f 278/393/266 267/378/266 266/376/266
f 279/394/267 268/379/267 267/378/267
f 280/395/268 269/380/268 268/379/268
f 281/396/269 270/382/269 269/380/269
f 282/397/270 271/383/270 270/381/270
f 283/399/271 272/384/271 271/383/271
f 272/384/272 285/401/272 273/385/272
f 273/386/273 286/403/273 274/387/273
f 274/387/274 287/405/274 275/388/274
f 275/389/275 288/406/275 276/390/275
f 276/390/276 277/391/276 265/375/276
f 277/391/277 290/409/277 278/392/277
f 290/408/278 279/394/278 278/393/278
f 291/410/279 280/395/279 279/394/279
f 292/411/280 281/396/280 280/395/280
f 293/412/281 282/398/281 281/396/281
f 294/413/282 283/399/282 282/397/282
f 295/415/283 284/400/283 283/399/283
f 284/400/284 297/417/284 285/401/284
f 297/418/285 286/403/285 285/402/285
f 298/419/286 287/405/286 286/403/286
f 299/421/287 288/406/287 287/404/287
f 300/422/288 277/391/288 288/406/288
f 301/423/6 290/409/6 289/407/6
f 302/425/5 291/410/5 290/408/5
f 303/426/4 292/411/4 291/410/4
f 304/427/3 293/412/3 292/411/3
f 305/428/2 294/414/2 293/412/2
f 306/430/1 295/415/1 294/413/1
f 295/415/12 308/432/12 296/416/12
f 308/432/11 297/417/11 296/416/11
f 297/418/10 310/435/10 298/419/10
f 298/419/9 311/437/9 299/420/9
f 299/421/8 312/438/8 300/422/8
f 300/422/7 301/423/7 289/407/7
f 301/423/18 314/441/18 302/424/18
f 302/425/17 315/442/17 303/426/17
f 303/426/16 316/443/16 304/427/16
f 304/427/15 317/444/15 305/428/15
f 305/428/14 318/446/14 306/429/14
f 318/445/13 307/431/13 306/430/13
f 319/447/24 308/432/24 307/431/24
f 320/448/23 309/434/23 308/432/23
f 321/450/22 310/435/22 309/433/22
f 322/451/21 311/437/21 310/435/21
f 323/453/20 312/438/20 311/436/20
f 312/438/19 313/439/19 301/423/19
f 325/455/30 314/441/30 313/439/30
f 326/456/29 315/442/29 314/440/29
f 315/442/28 328/459/28 316/443/28
f 328/459/27 317/444/27 316/443/27
f 329/460/26 318/446/26 317/444/26
f 330/462/25 319/447/25 318/445/25
f 331/463/36 320/448/36 319/447/36
f 320/448/35 333/466/35 321/449/35
f 333/465/34 322/451/34 321/450/34
f 334/467/33 323/452/33 322/451/33
f 323/453/32 336/470/32 324/454/32
f 324/454/31 325/455/31 313/439/31
f 337/472/42 326/457/42 325/455/42
f 338/474/41 327/458/41 326/456/41
f 339/476/40 328/459/40 327/458/40
f 340/477/39 329/460/39 328/459/39
f 341/478/38 330/461/38 329/460/38
f 330/462/37 343/481/37 331/463/37
f 343/481/48 332/464/48 331/463/48
f 344/482/47 333/466/47 332/464/47
f 345/484/46 334/467/46 333/465/46
f 334/467/45 347/487/45 335/468/45
f 335/469/44 348/489/44 336/470/44
f 348/489/43 325/455/43 336/470/43
f 349/490/54 338/475/54 337/471/54
f 350/493/53 339/476/53 338/474/53
f 351/494/52 340/477/52 339/476/52
f 340/477/51 353/496/51 341/478/51
f 353/496/50 342/480/50 341/478/50
f 354/497/49 343/481/49 342/479/49
f 355/499/60 344/482/60 343/481/60
f 344/482/59 357/501/59 345/483/59
f 357/502/58 346/485/58 345/484/58
f 358/503/57 347/487/57 346/485/57
f 347/487/56 360/506/56 348/488/56
f 360/505/55 337/472/55 348/489/55
f 361/508/66 350/492/66 349/490/66
f 350/493/65 363/512/65 351/494/65
f 363/512/64 352/495/64 351/494/64
f 364/513/63 353/496/63 352/495/63
f 365/514/62 354/498/62 353/496/62
f 366/516/61 355/499/61 354/497/61
f 367/518/72 356/500/72 355/499/72
f 368/520/71 357/501/71 356/500/71
f 357/502/70 370/525/70 358/503/70
f 370/525/69 359/504/69 358/503/69
f 371/526/68 360/506/68 359/504/68
f 372/528/67 349/491/67 360/505/67
f 361/508/78 374/531/78 362/510/78
f 362/510/77 375/533/77 363/511/77
f 375/532/76 364/513/76 363/512/76
f 364/513/75 377/535/75 365/514/75
f 377/535/74 366/517/74 365/514/74
f 378/537/73 367/519/73 366/515/73
f 379/538/84 368/521/84 367/519/84
f 380/539/83 369/524/83 368/521/83
f 381/540/82 370/525/82 369/523/82
f 382/542/81 371/526/81 370/525/81
f 383/543/80 372/529/80 371/526/80
f 384/545/79 361/508/79 372/527/79
f 373/530/90 386/547/90 374/531/90
f 386/547/89 375/533/89 374/531/89
f 387/548/88 376/534/88 375/532/88
f 388/550/87 377/535/87 376/534/87
f 377/535/86 390/553/86 378/536/86
f 390/552/85 379/538/85 378/537/85
f 391/554/96 380/539/96 379/538/96
f 392/555/95 381/541/95 380/539/95
f 393/557/94 382/542/94 381/540/94
f 382/542/93 395/559/93 383/543/93
f 383/543/92 396/560/92 384/544/92
f 396/561/91 373/530/91 384/545/91
f 397/562/102 386/547/102 385/546/102
f 398/563/101 387/549/101 386/547/101
f 399/564/100 388/550/100 387/548/100
f 400/566/99 389/551/99 388/550/99
f 401/567/98 390/553/98 389/551/98
f 402/569/97 391/554/97 390/552/97
f 403/570/108 392/555/108 391/554/108
f 404/571/107 393/556/107 392/555/107
f 393/557/106 406/574/106 394/558/106
f 406/574/105 395/559/105 394/558/105
f 395/559/104 408/576/104 396/560/104
f 408/577/103 385/546/103 396/561/103
f 409/578/114 398/563/114 397/562/114
f 410/579/113 399/565/113 398/563/113
f 411/581/112 400/566/112 399/564/112
f 412/582/111 401/567/111 400/566/111
f 401/567/110 414/584/110 402/568/110
f 414/585/109 403/570/109 402/569/109
f 415/586/120 404/571/120 403/570/120
f 416/587/119 405/573/119 404/571/119
f 417/589/118 406/574/118 405/572/118
f 418/590/117 407/575/117 406/574/117
f 407/575/116 420/593/116 408/576/116
f 420/592/115 397/562/115 408/577/115
f 421/594/126 410/579/126 409/578/126
f 410/579/125 423/596/125 411/580/125
f 423/597/124 412/582/124 411/581/124
f 424/598/123 413/583/123 412/582/123
f 413/583/122 426/600/122 414/584/122
f 426/601/121 415/586/121 414/585/121
f 427/602/132 416/587/132 415/586/132
f 428/603/131 417/588/131 416/587/131
f 417/589/130 430/606/130 418/590/130
f 430/606/129 419/591/129 418/590/129
f 431/607/128 420/593/128 419/591/128
f 432/608/127 409/578/127 420/592/127
f 433/610/138 422/595/138 421/594/138
f 434/611/137 423/596/137 422/595/137
f 423/597/136 436/614/136 424/598/136
f 424/598/135 437/615/135 425/599/135
f 437/615/134 426/600/134 425/599/134
f 426/601/133 439/618/133 427/602/133
f 439/618/144 428/603/144 427/602/144
f 440/619/143 429/605/143 428/603/143
f 441/621/142 430/606/142 429/604/142
f 442/622/141 431/607/141 430/606/141
f 443/623/140 432/609/140 431/607/140
f 444/624/139 421/594/139 432/608/139
f 433/610/150 446/627/150 434/611/150
f 446/627/149 435/613/149 434/611/149
f 447/628/148 436/614/148 435/612/148
f 448/630/147 437/615/147 436/614/147
f 449/631/146 438/617/146 437/615/146
f 450/633/145 439/618/145 438/616/145
f 451/634/156 440/619/156 439/618/156
f 440/619/155 453/636/155 441/620/155
f 441/621/154 454/638/154 442/622/154
f 454/638/153 443/623/153 442/622/153
f 455/639/152 444/625/152 443/623/152
f 456/640/151 433/610/151 444/624/151
f 457/642/162 446/627/162 445/626/162
f 458/643/161 447/629/161 446/627/161
f 459/644/160 448/630/160 447/628/160
f 460/646/159 449/631/159 448/630/159
f 461/647/158 450/632/158 449/631/158
f 450/633/157 463/650/157 451/634/157
f 463/650/168 452/635/168 451/634/168
f 464/651/167 453/636/167 452/635/167
f 453/637/166 466/654/166 454/638/166
f 454/638/165 467/655/165 455/639/165
f 467/655/164 456/641/164 455/639/164
f 468/657/163 445/626/163 456/640/163
f 469/658/174 458/643/174 457/642/174
f 470/659/173 459/645/173 458/643/173
f 471/661/172 460/646/172 459/644/172
f 472/662/171 461/647/171 460/646/171
f 473/663/170 462/649/170 461/647/170
f 474/664/289 463/650/289 462/648/289
f 475/666/180 464/651/180 463/650/180
f 476/667/179 465/653/179 464/651/179
f 477/668/178 466/654/178 465/652/178
f 466/654/177 479/671/177 467/655/177
f 467/655/176 480/672/176 468/656/176
f 480/673/175 457/642/175 468/657/175
f 481/674/186 470/659/186 469/658/186
f 482/675/185 471/660/185 470/659/185
f 471/661/184 484/678/184 472/662/184
f 472/662/183 485/679/183 473/663/183
f 485/679/182 474/665/182 473/663/182
f 486/680/181 475/666/181 474/664/181
f 487/682/192 476/667/192 475/666/192
f 488/683/191 477/669/191 476/667/191
f 489/684/190 478/670/190 477/668/190
f 490/686/189 479/671/189 478/670/189
f 491/687/188 480/672/188 479/671/188
f 480/673/187 481/674/187 469/658/187
f 481/674/198 494/693/198 482/675/198
f 494/693/197 483/677/197 482/675/197
f 495/695/196 484/678/196 483/676/196
f 496/696/195 485/679/195 484/678/195
f 497/697/194 486/681/194 485/679/194
f 498/700/193 487/682/193 486/680/193
f 499/701/204 488/683/204 487/682/204
f 500/703/203 489/685/203 488/683/203
f 501/706/202 490/686/202 489/684/202
f 502/708/201 491/687/201 490/686/201
f 491/687/200 504/711/200 492/688/200
f 504/712/199 481/674/199 492/689/199
f 493/690/210 506/715/210 494/693/210
f 506/716/209 495/695/209 494/692/209
f 495/695/208 508/718/208 496/696/208
f 496/696/207 509/719/207 497/697/207
f 497/697/206 510/721/206 498/699/206
f 510/720/205 499/702/205 498/698/205
f 511/722/216 500/704/216 499/702/216
f 512/723/215 501/707/215 500/704/215
f 513/725/214 502/708/214 501/706/214
f 514/726/213 503/709/213 502/708/213
f 503/709/212 516/729/212 504/711/212
f 516/728/211 493/691/211 504/710/211
f 505/713/222 518/732/222 506/715/222
f 518/733/221 507/717/221 506/716/221
f 507/717/220 520/736/220 508/718/220
f 520/736/219 509/719/219 508/718/219
f 521/737/218 510/721/218 509/719/218
f 522/738/217 511/722/217 510/720/217
f 523/740/228 512/723/228 511/722/228
f 512/723/227 525/742/227 513/724/227
f 513/725/226 526/744/226 514/726/226
f 526/744/225 515/727/225 514/726/225
f 527/745/224 516/729/224 515/727/224
f 528/748/223 505/714/223 516/728/223
f 529/749/234 518/734/234 517/731/234
f 530/750/233 519/735/233 518/733/233
f 531/752/232 520/736/232 519/735/232
f 532/753/231 521/737/231 520/736/231
f 533/754/230 522/739/230 521/737/230
f 534/755/229 523/740/229 522/738/229
f 535/757/240 524/741/240 523/740/240
f 524/741/239 537/760/239 525/742/239
f 537/759/238 526/744/238 525/743/238
f 538/761/237 527/745/237 526/744/237
f 527/746/236 540/764/236 528/748/236
f 540/764/235 517/731/235 528/748/235
f 541/765/246 530/751/246 529/749/246
f 542/766/245 531/752/245 530/750/245
f 531/752/244 544/769/244 532/753/244
f 544/769/243 533/754/243 532/753/243
f 545/770/242 534/756/242 533/754/242
f 546/771/241 535/757/241 534/755/241
f 547/773/252 536/758/252 535/757/252
f 548/774/251 537/760/251 536/758/251
f 549/776/250 538/761/250 537/759/250
f 550/777/249 539/763/249 538/761/249
f 551/778/248 540/764/248 539/762/248
f 552/780/247 529/749/247 540/764/247
f 553/781/258 542/767/258 541/765/258
f 554/783/257 543/768/257 542/766/257
f 555/784/256 544/769/256 543/768/256
f 556/785/255 545/770/255 544/769/255
f 557/786/254 546/772/254 545/770/254
f 558/788/253 547/773/253 546/771/253
f 559/789/264 548/774/264 547/773/264
f 548/774/263 561/791/263 549/775/263
f 561/792/262 550/777/262 549/776/262
f 562/793/261 551/779/261 550/777/261
f 563/794/260 552/780/260 551/778/260
f 564/796/259 541/765/259 552/780/259
f 553/781/270 566/799/270 554/782/270
f 554/783/269 567/800/269 555/784/269
f 555/784/268 568/801/268 556/785/268
f 568/801/267 557/786/267 556/785/267
f 569/802/266 558/787/266 557/786/266
f 558/788/265 571/805/265 559/789/265
f 571/805/276 560/790/276 559/789/276
f 572/806/275 561/791/275 560/790/275
f 561/792/274 574/809/274 562/793/274
f 574/809/273 563/795/273 562/793/273
f 575/811/272 564/796/272 563/794/272
f 576/812/271 553/781/271 564/796/271
f 1/1/282 566/799/282 565/797/282
f 2/3/281 567/800/281 566/798/281
f 3/4/280 568/801/280 567/800/280
f 4/5/279 569/802/279 568/801/279
f 5/6/278 570/804/278 569/802/278
f 6/8/277 571/805/277 570/803/277
f 571/805/288 8/10/288 572/806/288
f 8/10/287 573/808/287 572/806/287
f 9/12/286 574/809/286 573/807/286
f 10/13/285 575/810/285 574/809/285
f 575/811/284 12/16/284 576/812/284
f 576/812/283 1/1/283 565/797/283
f 578/814/290 579/815/290 577/813/290
f 13/17/1 14/19/1 2/2/1
f 2/3/2 14/18/2 15/20/2
f 15/20/3 16/21/3 4/5/3
f 16/21/4 17/22/4 5/6/4
f 17/22/5 18/23/5 6/7/5
f 6/8/6 18/24/6 19/25/6
f 19/25/7 20/26/7 8/10/7
f 20/26/8 21/27/8 9/11/8
f 21/28/9 22/29/9 10/13/9
f 22/29/10 23/30/10 11/14/10
f 23/31/11 24/32/11 12/16/11
f 24/32/12 13/17/12 1/1/12
f 25/33/13 26/34/13 14/19/13
f 26/35/14 27/36/14 15/20/14
f 27/36/15 28/37/15 16/21/15
f 28/37/16 29/38/16 17/22/16
f 17/22/17 29/38/17 30/39/17
f 30/40/18 31/41/18 19/25/18
f 31/41/19 32/42/19 20/26/19
f 32/42/20 33/43/20 21/27/20
f 21/28/21 33/44/21 34/45/21
f 22/29/22 34/45/22 35/46/22
f 23/31/23 35/47/23 36/48/23
f 36/48/24 25/33/24 13/17/24
f 25/33/25 37/49/25 38/50/25
f 38/51/26 39/52/26 27/36/26
f 39/52/27 40/53/27 28/37/27
f 28/37/28 40/53/28 41/54/28
f 29/38/29 41/54/29 42/55/29
f 30/40/30 42/56/30 43/57/30
f 43/57/31 44/58/31 32/42/31
f 44/58/32 45/59/32 33/43/32
f 33/44/33 45/60/33 46/61/33
f 34/45/34 46/61/34 47/63/34
f 35/47/35 47/62/35 48/64/35
f 48/64/36 37/49/36 25/33/36
f 37/49/37 49/65/37 50/66/37
f 38/51/38 50/67/38 51/68/38
f 39/52/39 51/68/39 52/69/39
f 52/69/40 53/70/40 41/54/40
f 41/54/41 53/70/41 54/72/41
f 54/73/42 55/74/42 43/57/42
f 55/74/43 56/77/43 44/58/43
f 56/77/44 57/78/44 45/59/44
f 45/60/45 57/79/45 58/80/45
f 58/80/46 59/82/46 47/63/46
f 59/81/47 60/83/47 48/64/47
f 60/83/48 49/65/48 37/49/48
f 61/84/49 62/86/49 50/66/49
f 50/67/50 62/85/50 63/87/50
f 63/87/51 64/88/51 52/69/51
f 64/88/52 65/89/52 53/70/52
f 53/70/53 65/89/53 66/91/53
f 66/90/54 67/92/54 55/75/54
f 67/93/55 68/94/55 56/77/55
f 68/95/56 69/96/56 57/79/56
f 69/96/57 70/97/57 58/80/57
f 70/97/58 71/98/58 59/82/58
f 71/99/59 72/100/59 60/83/59
f 60/83/60 72/100/60 61/84/60
f 73/101/61 74/103/61 62/86/61
f 74/105/62 75/106/62 63/87/62
f 75/106/63 76/107/63 64/88/63
f 76/107/64 77/108/64 65/89/64
f 77/108/65 78/110/65 66/91/65
f 78/111/66 79/113/66 67/92/66
f 67/93/67 79/112/67 80/114/67
f 80/115/68 81/117/68 69/96/68
f 81/117/69 82/118/69 70/97/69
f 82/118/70 83/120/70 71/98/70
f 71/99/71 83/121/71 84/122/71
f 84/122/72 73/101/72 61/84/72
f 85/124/73 86/125/73 74/104/73
f 74/105/74 86/126/74 87/127/74
f 87/127/75 88/128/75 76/107/75
f 88/128/76 89/129/76 77/108/76
f 77/109/77 89/130/77 90/131/77
f 90/131/78 91/132/78 79/113/78
f 91/132/79 92/134/79 80/116/79
f 92/133/80 93/135/80 81/117/80
f 81/117/81 93/135/81 94/136/81
f 82/118/82 94/136/82 95/138/82
f 95/137/83 96/139/83 84/123/83
f 96/139/84 85/124/84 73/102/84
f 97/140/85 98/141/85 86/125/85
f 86/126/86 98/142/86 99/143/86
f 87/127/87 99/143/87 100/144/87
f 100/144/88 101/146/88 89/129/88
f 89/130/89 101/145/89 102/147/89
f 102/147/90 103/148/90 91/132/90
f 103/148/91 104/150/91 92/134/91
f 104/149/92 105/151/92 93/135/92
f 105/151/93 106/152/93 94/136/93
f 106/152/94 107/153/94 95/138/94
f 107/154/95 108/155/95 96/139/95
f 108/155/96 97/140/96 85/124/96
f 97/140/97 109/156/97 110/158/97
f 110/157/98 111/159/98 99/143/98
f 111/159/99 112/160/99 100/144/99
f 112/160/100 113/161/100 101/146/100
f 113/162/101 114/163/101 102/147/101
f 114/163/102 115/164/102 103/148/102
f 115/164/103 116/166/103 104/150/103
f 116/165/104 117/167/104 105/151/104
f 105/151/105 117/167/105 118/168/105
f 106/152/106 118/168/106 119/170/106
f 119/169/107 120/171/107 108/155/107
f 120/171/108 109/156/108 97/140/108
f 121/172/291 122/174/291 110/158/291
f 122/173/110 123/175/110 111/159/110
f 123/175/111 124/176/111 112/160/111
f 124/176/112 125/178/112 113/161/112
f 113/162/113 125/177/113 126/179/113
f 126/179/114 127/180/114 115/164/114
f 127/180/115 128/181/115 116/166/115
f 128/182/116 129/183/116 117/167/116
f 129/183/117 130/184/117 118/168/117
f 130/184/118 131/186/118 119/170/118
f 131/185/119 132/187/119 120/171/119
f 132/187/120 121/172/120 109/156/120
f 133/188/121 134/190/121 122/174/121
f 134/189/122 135/191/122 123/175/122
f 123/175/123 135/191/123 136/192/123
f 136/192/124 137/193/124 125/178/124
f 137/194/125 138/195/125 126/179/125
f 138/195/126 139/196/126 127/180/126
f 127/180/127 139/196/127 140/198/127
f 140/197/128 141/199/128 129/183/128
f 129/183/129 141/199/129 142/200/129
f 142/200/130 143/202/130 131/186/130
f 143/201/131 144/203/131 132/187/131
f 144/203/132 133/188/132 121/172/132
f 145/204/133 146/206/133 134/190/133
f 146/205/134 147/207/134 135/191/134
f 147/207/135 148/208/135 136/192/135
f 136/192/136 148/208/136 149/210/136
f 137/194/137 149/209/137 150/211/137
f 150/211/138 151/212/138 139/196/138
f 151/212/139 152/213/139 140/198/139
f 152/214/140 153/215/140 141/199/140
f 153/215/141 154/216/141 142/200/141
f 154/216/142 155/217/142 143/202/142
f 155/218/292 156/219/292 144/203/292
f 144/203/144 156/219/144 145/204/144
f 157/220/293 158/221/293 146/206/293
f 158/222/146 159/223/146 147/207/146
f 159/223/147 160/224/147 148/208/147
f 160/224/148 161/226/148 149/210/148
f 161/225/149 162/227/149 150/211/149
f 162/227/150 163/228/150 151/212/150
f 151/212/151 163/228/151 164/230/151
f 164/229/152 165/231/152 153/215/152
f 153/215/153 165/231/153 166/232/153
f 154/216/154 166/232/154 167/234/154
f 155/218/155 167/233/155 168/235/155
f 156/219/156 168/235/156 157/220/156
f 169/236/157 170/238/157 158/221/157
f 158/222/158 170/237/158 171/239/158
f 159/223/159 171/239/159 172/240/159
f 172/240/160 173/241/160 161/226/160
f 173/242/161 174/243/161 162/227/161
f 174/243/162 175/244/162 163/228/162
f 175/244/163 176/246/163 164/230/163
f 176/245/164 177/247/164 165/231/164
f 177/247/165 178/248/165 166/232/165
f 178/248/166 179/249/166 167/234/166
f 179/250/167 180/251/167 168/235/167
f 180/251/168 169/236/168 157/220/168
f 181/252/289 182/253/289 170/238/289
f 182/254/170 183/255/170 171/239/170
f 183/255/171 184/256/171 172/240/171
f 172/240/172 184/256/172 185/258/172
f 185/257/173 186/259/173 174/243/173
f 186/259/174 187/260/174 175/244/174
f 187/260/175 188/262/175 176/246/175
f 188/261/176 189/263/176 177/247/176
f 177/247/177 189/263/177 190/264/177
f 190/264/178 191/266/178 179/249/178
f 179/250/179 191/265/179 192/267/179
f 192/267/180 181/252/180 169/236/180
f 193/268/181 194/270/181 182/253/181
f 182/254/182 194/269/182 195/271/182
f 195/271/183 196/272/183 184/256/183
f 196/272/184 197/274/184 185/258/184
f 197/273/185 198/275/185 186/259/185
f 198/275/186 199/276/186 187/260/186
f 199/276/187 200/277/187 188/262/187
f 200/278/188 201/279/188 189/263/188
f 201/279/189 202/280/189 190/264/189
f 202/280/190 203/281/190 191/266/190
f 203/282/191 204/283/191 192/267/191
f 204/283/192 193/268/192 181/252/192
f 205/284/193 206/286/193 194/270/193
f 206/287/194 207/289/194 195/271/194
f 207/289/195 208/290/195 196/272/195
f 208/290/196 209/292/196 197/274/196
f 209/291/197 210/293/197 198/275/197
f 198/275/198 210/293/198 211/296/198
f 211/296/199 212/297/199 200/277/199
f 200/278/200 212/299/200 213/300/200
f 201/279/201 213/300/201 214/301/201
f 202/280/202 214/301/202 215/304/202
f 203/282/203 215/303/203 216/305/203
f 216/305/204 205/284/204 193/268/204
f 217/307/205 218/309/205 206/288/205
f 218/308/206 219/310/206 207/289/206
f 207/289/207 219/310/207 220/311/207
f 220/311/208 221/312/208 209/292/208
f 221/312/209 222/314/209 210/294/209
f 222/313/210 223/316/210 211/296/210
f 223/315/211 224/317/211 212/298/211
f 212/299/212 224/318/212 225/319/212
f 225/319/213 226/320/213 214/301/213
f 226/320/214 227/321/214 215/304/214
f 227/322/215 228/323/215 216/306/215
f 228/323/216 217/307/216 205/285/216
f 229/324/217 230/325/217 218/309/217
f 230/326/218 231/327/218 219/310/218
f 231/327/219 232/328/219 220/311/219
f 220/311/220 232/328/220 233/329/220
f 233/329/221 234/332/221 222/314/221
f 234/331/222 235/333/222 223/316/222
f 235/334/223 236/336/223 224/317/223
f 224/318/224 236/335/224 237/338/224
f 237/338/225 238/339/225 226/320/225
f 238/339/226 239/341/226 227/321/226
f 227/322/227 239/340/227 240/342/227
f 240/342/228 229/324/228 217/307/228
f 229/324/229 241/343/229 242/345/229
f 242/344/230 243/346/230 231/327/230
f 231/327/231 243/346/231 244/347/231
f 244/347/232 245/348/232 233/329/232
f 245/348/233 246/350/233 234/332/233
f 246/349/234 247/351/234 235/334/234
f 247/351/235 248/352/235 236/336/235
f 248/352/236 249/354/236 237/337/236
f 237/338/237 249/353/237 250/355/237
f 250/355/238 251/356/238 239/341/238
f 251/357/239 252/358/239 240/342/239
f 252/358/240 241/343/240 229/324/240
f 253/359/241 254/360/241 242/345/241
f 254/361/242 255/362/242 243/346/242
f 255/362/243 256/363/243 244/347/243
f 244/347/244 256/363/244 257/364/244
f 257/364/245 258/366/245 246/350/245
f 258/365/246 259/367/246 247/351/246
f 247/351/247 259/367/247 260/368/247
f 260/368/248 261/370/248 249/354/248
f 261/369/249 262/371/249 250/355/249
f 262/371/250 263/372/250 251/356/250
f 251/357/251 263/373/251 264/374/251
f 264/374/252 253/359/252 241/343/252
f 253/359/253 265/375/253 266/377/253
f 266/376/254 267/378/254 255/362/254
f 267/378/255 268/379/255 256/363/255
f 256/363/256 268/379/256 269/380/256
f 269/380/257 270/382/257 258/366/257
f 270/381/258 271/383/258 259/367/258
f 271/383/259 272/384/259 260/368/259
f 272/384/260 273/385/260 261/370/260
f 273/386/261 274/387/261 262/371/261
f 262/371/262 274/387/262 275/388/262
f 275/389/263 276/390/263 264/374/263
f 276/390/264 265/375/264 253/359/264
f 277/391/265 278/392/265 266/377/265
f 278/393/266 279/394/266 267/378/266
f 279/394/267 280/395/267 268/379/267
f 280/395/268 281/396/268 269/380/268
f 281/396/269 282/398/269 270/382/269
f 282/397/270 283/399/270 271/383/270
f 283/399/271 284/400/271 272/384/271
f 272/384/272 284/400/272 285/401/272
f 273/386/273 285/402/273 286/403/273
f 274/387/274 286/403/274 287/405/274
f 275/389/275 287/404/275 288/406/275
f 276/390/276 288/406/276 277/391/276
f 277/391/277 289/407/277 290/409/277
f 290/408/278 291/410/278 279/394/278
f 291/410/279 292/411/279 280/395/279
f 292/411/280 293/412/280 281/396/280
f 293/412/281 294/414/281 282/398/281
f 294/413/282 295/415/282 283/399/282
f 295/415/283 296/416/283 284/400/283
f 284/400/284 296/416/284 297/417/284
f 297/418/285 298/419/285 286/403/285
f 298/419/286 299/420/286 287/405/286
f 299/421/287 300/422/287 288/406/287
f 300/422/288 289/407/288 277/391/288
f 301/423/6 302/424/6 290/409/6
f 302/425/5 303/426/5 291/410/5
f 303/426/4 304/427/4 292/411/4
f 304/427/3 305/428/3 293/412/3
f 305/428/2 306/429/2 294/414/2
f 306/430/1 307/431/1 295/415/1
f 295/415/12 307/431/12 308/432/12
f 308/432/11 309/434/11 297/417/11
f 297/418/10 309/433/10 310/435/10
f 298/419/9 310/435/9 311/437/9
f 299/421/8 311/436/8 312/438/8
f 300/422/7 312/438/7 301/423/7
f 301/423/18 313/439/18 314/441/18
f 302/425/17 314/440/17 315/442/17
f 303/426/16 315/442/16 316/443/16
f 304/427/15 316/443/15 317/444/15
f 305/428/14 317/444/14 318/446/14
f 318/445/13 319/447/13 307/431/13
f 319/447/24 320/448/24 308/432/24
f 320/448/23 321/449/23 309/434/23
f 321/450/22 322/451/22 310/435/22
f 322/451/21 323/452/21 311/437/21
f 323/453/20 324/454/20 312/438/20
f 312/438/19 324/454/19 313/439/19
f 325/455/30 326/457/30 314/441/30
f 326/456/29 327/458/29 315/442/29
f 315/442/28 327/458/28 328/459/28
f 328/459/27 329/460/27 317/444/27
f 329/460/26 330/461/26 318/446/26
f 330/462/25 331/463/25 319/447/25
f 331/463/36 332/464/36 320/448/36
f 320/448/35 332/464/35 333/466/35
f 333/465/34 334/467/34 322/451/34
f 334/467/33 335/468/33 323/452/33
f 323/453/32 335/469/32 336/470/32
f 324/454/31 336/470/31 325/455/31
f 337/472/42 338/473/42 326/457/42
f 338/474/41 339/476/41 327/458/41
f 339/476/40 340/477/40 328/459/40
f 340/477/39 341/478/39 329/460/39
f 341/478/38 342/480/38 330/461/38
f 330/462/37 342/479/37 343/481/37
f 343/481/48 344/482/48 332/464/48
f 344/482/47 345/483/47 333/466/47
f 345/484/46 346/485/46 334/467/46
f 334/467/45 346/485/45 347/487/45
f 335/469/44 347/486/44 348/489/44
f 348/489/43 337/472/43 325/455/43
f 349/490/54 350/492/54 338/475/54
f 350/493/53 351/494/53 339/476/53
f 351/494/52 352/495/52 340/477/52
f 340/477/51 352/495/51 353/496/51
f 353/496/50 354/498/50 342/480/50
f 354/497/49 355/499/49 343/481/49
f 355/499/60 356/500/60 344/482/60
f 344/482/59 356/500/59 357/501/59
f 357/502/58 358/503/58 346/485/58
f 358/503/57 359/504/57 347/487/57
f 347/487/56 359/504/56 360/506/56
f 360/505/55 349/491/55 337/472/55
f 361/508/66 362/510/66 350/492/66
f 350/493/65 362/509/65 363/512/65
f 363/512/64 364/513/64 352/495/64
f 364/513/63 365/514/63 353/496/63
f 365/514/62 366/517/62 354/498/62
f 366/516/61 367/518/61 355/499/61
f 367/518/72 368/520/72 356/500/72
f 368/520/71 369/522/71 357/501/71
f 357/502/70 369/523/70 370/525/70
f 370/525/69 371/526/69 359/504/69
f 371/526/68 372/529/68 360/506/68
f 372/528/67 361/507/67 349/491/67
f 361/508/78 373/530/78 374/531/78
f 362/510/77 374/531/77 375/533/77
f 375/532/76 376/534/76 364/513/76
f 364/513/75 376/534/75 377/535/75
f 377/535/74 378/536/74 366/517/74
f 378/537/73 379/538/73 367/519/73
f 379/538/84 380/539/84 368/521/84
f 380/539/83 381/541/83 369/524/83
f 381/540/82 382/542/82 370/525/82
f 382/542/81 383/543/81 371/526/81
f 383/543/80 384/544/80 372/529/80
f 384/545/79 373/530/79 361/508/79
f 373/530/90 385/546/90 386/547/90
f 386/547/89 387/549/89 375/533/89
f 387/548/88 388/550/88 376/534/88
f 388/550/87 389/551/87 377/535/87
f 377/535/86 389/551/86 390/553/86
f 390/552/85 391/554/85 379/538/85
f 391/554/96 392/555/96 380/539/96
f 392/555/95 393/556/95 381/541/95
f 393/557/94 394/558/94 382/542/94
f 382/542/93 394/558/93 395/559/93
f 383/543/92 395/559/92 396/560/92
f 396/561/91 385/546/91 373/530/91
f 397/562/102 398/563/102 386/547/102
f 398/563/101 399/565/101 387/549/101
f 399/564/100 400/566/100 388/550/100
f 400/566/99 401/567/99 389/551/99
f 401/567/98 402/568/98 390/553/98
f 402/569/97 403/570/97 391/554/97
f 403/570/108 404/571/108 392/555/108
f 404/571/107 405/573/107 393/556/107
f 393/557/106 405/572/106 406/574/106
f 406/574/105 407/575/105 395/559/105
f 395/559/104 407/575/104 408/576/104
f 408/577/103 397/562/103 385/546/103
f 409/578/114 410/579/114 398/563/114
f 410/579/113 411/580/113 399/565/113
f 411/581/112 412/582/112 400/566/112
f 412/582/111 413/583/111 401/567/111
f 401/567/110 413/583/110 414/584/110
f 414/585/109 415/586/109 403/570/109
f 415/586/120 416/587/120 404/571/120
f 416/587/119 417/588/119 405/573/119
f 417/589/118 418/590/118 406/574/118
f 418/590/117 419/591/117 407/575/117
f 407/575/116 419/591/116 420/593/116
f 420/592/115 409/578/115 397/562/115
f 421/594/126 422/595/126 410/579/126
f 410/579/125 422/595/125 423/596/125
f 423/597/124 424/598/124 412/582/124
f 424/598/123 425/599/123 413/583/123
f 413/583/122 425/599/122 426/600/122
f 426/601/121 427/602/121 415/586/121
f 427/602/132 428/603/132 416/587/132
f 428/603/131 429/605/131 417/588/131
f 417/589/130 429/604/130 430/606/130
f 430/606/129 431/607/129 419/591/129
f 431/607/128 432/609/128 420/593/128
f 432/608/127 421/594/127 409/578/127
f 433/610/138 434/611/138 422/595/138
f 434/611/137 435/613/137 423/596/137
f 423/597/136 435/612/136 436/614/136
f 424/598/135 436/614/135 437/615/135
f 437/615/134 438/617/134 426/600/134
f 426/601/294 438/616/294 439/618/294
f 439/618/144 440/619/144 428/603/144
f 440/619/143 441/620/143 429/605/143
f 441/621/142 442/622/142 430/606/142
f 442/622/141 443/623/141 431/607/141
f 443/623/140 444/625/140 432/609/140
f 444/624/139 433/610/139 421/594/139
f 433/610/150 445/626/150 446/627/150
f 446/627/149 447/629/149 435/613/149
f 447/628/148 448/630/148 436/614/148
f 448/630/147 449/631/147 437/615/147
f 449/631/146 450/632/146 438/617/146
f 450/633/145 451/634/145 439/618/145
f 451/634/156 452/635/156 440/619/156
f 440/619/155 452/635/155 453/636/155
f 441/621/154 453/637/154 454/638/154
f 454/638/153 455/639/153 443/623/153
f 455/639/152 456/641/152 444/625/152
f 456/640/151 445/626/151 433/610/151
f 457/642/162 458/643/162 446/627/162
f 458/643/161 459/645/161 447/629/161
f 459/644/160 460/646/160 448/630/160
f 460/646/159 461/647/159 449/631/159
f 461/647/158 462/649/158 450/632/158
f 450/633/157 462/648/157 463/650/157
f 463/650/168 464/651/168 452/635/168
f 464/651/167 465/653/167 453/636/167
f 453/637/166 465/652/166 466/654/166
f 454/638/165 466/654/165 467/655/165
f 467/655/164 468/656/164 456/641/164
f 468/657/163 457/642/163 445/626/163
f 469/658/174 470/659/174 458/643/174
f 470/659/173 471/660/173 459/645/173
f 471/661/172 472/662/172 460/646/172
f 472/662/171 473/663/171 461/647/171
f 473/663/170 474/665/170 462/649/170
f 474/664/289 475/666/289 463/650/289
f 475/666/180 476/667/180 464/651/180
f 476/667/179 477/669/179 465/653/179
f 477/668/178 478/670/178 466/654/178
f 466/654/177 478/670/177 479/671/177
f 467/655/176 479/671/176 480/672/176
f 480/673/175 469/658/175 457/642/175
f 481/674/186 482/675/186 470/659/186
f 482/675/185 483/677/185 471/660/185
f 471/661/184 483/676/184 484/678/184
f 472/662/183 484/678/183 485/679/183
f 485/679/182 486/681/182 474/665/182
f 486/680/181 487/682/181 475/666/181
f 487/682/192 488/683/192 476/667/192
f 488/683/191 489/685/191 477/669/191
f 489/684/190 490/686/190 478/670/190
f 490/686/189 491/687/189 479/671/189
f 491/687/188 492/688/188 480/672/188
f 480/673/187 492/689/187 481/674/187
f 481/674/198 493/690/198 494/693/198
f 494/693/197 495/694/197 483/677/197
f 495/695/196 496/696/196 484/678/196
f 496/696/195 497/697/195 485/679/195
f 497/697/194 498/699/194 486/681/194
f 498/700/193 499/701/193 487/682/193
f 499/701/204 500/703/204 488/683/204
f 500/703/203 501/705/203 489/685/203
f 501/706/202 502/708/202 490/686/202
f 502/708/201 503/709/201 491/687/201
f 491/687/200 503/709/200 504/711/200
f 504/712/199 493/690/199 481/674/199
f 493/690/210 505/713/210 506/715/210
f 506/716/209 507/717/209 495/695/209
f 495/695/208 507/717/208 508/718/208
f 496/696/207 508/718/207 509/719/207
f 497/697/206 509/719/206 510/721/206
f 510/720/205 511/722/205 499/702/205
f 511/722/216 512/723/216 500/704/216
f 512/723/215 513/724/215 501/707/215
f 513/725/214 514/726/214 502/708/214
f 514/726/213 515/727/213 503/709/213
f 503/709/212 515/727/212 516/729/212
f 516/728/211 505/714/211 493/691/211
f 505/713/222 517/730/222 518/732/222
f 518/733/221 519/735/221 507/717/221
f 507/717/220 519/735/220 520/736/220
f 520/736/219 521/737/219 509/719/219
f 521/737/218 522/739/218 510/721/218
f 522/738/217 523/740/217 511/722/217
f 523/740/228 524/741/228 512/723/228
f 512/723/227 524/741/227 525/742/227
f 513/725/226 525/743/226 526/744/226
f 526/744/225 527/745/225 515/727/225
f 527/745/224 528/747/224 516/729/224
f 528/748/223 517/731/223 505/714/223
f 529/749/234 530/751/234 518/734/234
f 530/750/233 531/752/233 519/735/233
f 531/752/232 532/753/232 520/736/232
f 532/753/231 533/754/231 521/737/231
f 533/754/230 534/756/230 522/739/230
f 534/755/229 535/757/229 523/740/229
f 535/757/240 536/758/240 524/741/240
f 524/741/239 536/758/239 537/760/239
f 537/759/238 538/761/238 526/744/238
f 538/761/237 539/763/237 527/745/237
f 527/746/236 539/762/236 540/764/236
f 540/764/235 529/749/235 517/731/235
f 541/765/246 542/767/246 530/751/246
f 542/766/245 543/768/245 531/752/245
f 531/752/244 543/768/244 544/769/244
f 544/769/243 545/770/243 533/754/243
f 545/770/242 546/772/242 534/756/242
f 546/771/241 547/773/241 535/757/241
f 547/773/252 548/774/252 536/758/252
f 548/774/251 549/775/251 537/760/251
f 549/776/250 550/777/250 538/761/250
f 550/777/249 551/779/249 539/763/249
f 551/778/248 552/780/248 540/764/248
f 552/780/247 541/765/247 529/749/247
f 553/781/258 554/782/258 542/767/258
f 554/783/257 555/784/257 543/768/257
f 555/784/256 556/785/256 544/769/256
f 556/785/255 557/786/255 545/770/255
f 557/786/254 558/787/254 546/772/254
f 558/788/253 559/789/253 547/773/253
f 559/789/264 560/790/264 548/774/264
f 548/774/263 560/790/263 561/791/263
f 561/792/262 562/793/262 550/777/262
f 562/793/261 563/795/261 551/779/261
f 563/794/260 564/796/260 552/780/260
f 564/796/259 553/781/259 541/765/259
f 553/781/270 565/797/270 566/799/270
f 554/783/269 566/798/269 567/800/269
f 555/784/268 567/800/268 568/801/268
f 568/801/267 569/802/267 557/786/267
f 569/802/266 570/804/266 558/787/266
f 558/788/265 570/803/265 571/805/265
f 571/805/276 572/806/276 560/790/276
f 572/806/275 573/808/275 561/791/275
f 561/792/274 573/807/274 574/809/274
f 574/809/273 575/810/273 563/795/273
f 575/811/272 576/812/272 564/796/272
f 576/812/271 565/797/271 553/781/271
f 1/1/282 2/2/282 566/799/282
f 2/3/281 3/4/281 567/800/281
f 3/4/280 4/5/280 568/801/280
f 4/5/279 5/6/279 569/802/279
f 5/6/278 6/7/278 570/804/278
f 6/8/277 7/9/277 571/805/277
f 571/805/288 7/9/288 8/10/288
f 8/10/287 9/11/287 573/808/287
f 9/12/286 10/13/286 574/809/286
f 10/13/285 11/14/285 575/810/285
f 575/811/284 11/15/284 12/16/284
f 576/812/283 12/16/283 1/1/283
f 578/814/290 580/816/290 579/815/290
