# Blender 3.5.0
# www.blender.org
mtllib Cannon2.mtl
o 立方体
v -2.293783 -0.098496 1.445838
v -2.293783 1.376411 1.445838
v -2.293783 -0.098496 0.743132
v -2.293783 1.376411 0.743132
v 2.293783 -0.098496 1.445838
v 2.293783 1.376411 1.445838
v 2.293783 -0.098496 0.743132
v 2.293783 1.376411 0.743132
v 3.112233 0.374031 -1.782491
v 3.112233 -0.374031 -1.782491
v 3.112233 0.374031 1.782491
v 3.112233 -0.374031 1.782491
v -3.112233 0.374031 -1.782491
v -3.112233 -0.374031 -1.782491
v -3.112233 0.374031 1.782491
v -3.112233 -0.374031 1.782491
v -2.293783 -0.098496 -0.713252
v -2.293783 1.376411 -0.713252
v -2.293783 -0.098496 -1.415958
v -2.293783 1.376411 -1.415958
v 2.293783 -0.098496 -0.713252
v 2.293783 1.376411 -0.713252
v 2.293783 -0.098496 -1.415958
v 2.293783 1.376411 -1.415958
vn -1.0000 -0.0000 -0.0000
vn -0.0000 -0.0000 -1.0000
vn 1.0000 -0.0000 -0.0000
vn -0.0000 -0.0000 1.0000
vn -0.0000 -1.0000 -0.0000
vn -0.0000 1.0000 -0.0000
vt 0.918657 0.000000
vt 0.597897 0.641519
vt 0.918657 0.160380
vt 0.597897 0.801899
vt 0.758277 0.160380
vt 0.758277 0.320759
vt 0.597897 0.481139
vt 0.758277 0.000000
vt 0.758277 0.160380
vt 0.758277 0.481139
vt 0.758277 0.000000
vt 0.597897 0.160380
vt 0.758277 0.641519
vt 0.597897 0.320759
vt 0.758277 0.801899
vt 0.597897 0.160380
vt 0.758277 0.160380
vt 0.597897 0.320759
vt 0.758277 0.481139
vt 0.597897 0.000000
vt 0.597897 0.481139
vt 0.758277 0.320759
vt 0.000000 0.000000
vt 0.435210 0.813641
vt 0.918657 0.000000
vt 0.516554 0.813641
vt 0.435210 0.000000
vt 1.000000 0.000000
vt 0.000000 0.813641
vt 0.918657 0.435210
vt 0.435210 0.000000
vt 1.000000 0.435210
vt 0.435210 0.813641
vt 0.516554 0.000000
vt 0.217605 0.000000
vt 0.516554 0.000000
vt 0.918657 0.217605
vt 0.217605 0.000000
vt 1.000000 0.217605
vt 0.597897 0.000000
vt 0.217605 0.813641
vt 0.918657 0.217605
vt 0.516554 0.813641
vt 0.597897 0.813641
vt 1.000000 0.217605
vt 0.217605 0.813641
vt 0.918657 0.320759
vt 0.597897 0.801899
vt 0.758277 0.320759
vt 0.918657 0.481139
vt 0.597897 0.962278
vt 0.918657 0.962278
vt 0.918657 0.481139
vt 0.758277 0.160380
vt 0.758277 0.320759
vt 0.758277 0.481139
vt 0.918657 0.641519
vt 0.918657 0.801899
vt 0.758277 0.801899
vt 0.758277 0.641519
vt 0.918657 0.320759
vt 0.758277 0.801898
vt 0.758277 0.962278
vt 0.918657 0.641519
vt 0.758277 0.481139
vt 0.918657 0.160380
vt 0.758277 0.801899
vt 0.758277 0.641519
vt 0.918657 0.801899
s 0
usemtl Material
f 2/3/1 3/8/1 1/1/1
f 4/10/2 7/18/2 3/6/2
f 8/22/3 5/12/3 7/17/3
f 6/15/4 1/2/4 5/13/4
f 7/19/5 1/2/5 3/7/5
f 4/11/6 6/16/6 8/20/6
f 13/35/6 11/29/6 9/23/6
f 11/30/4 16/45/4 12/32/4
f 15/43/1 14/40/1 16/44/1
f 10/27/5 16/46/5 14/38/5
f 9/24/3 12/34/3 10/26/3
f 13/37/2 10/28/2 14/39/2
f 18/50/1 19/55/1 17/47/1
f 20/57/2 23/65/2 19/53/2
f 24/69/3 21/60/3 23/64/3
f 22/63/4 17/48/4 21/59/4
f 23/66/5 17/49/5 19/54/5
f 20/58/6 22/63/6 24/67/6
f 2/3/1 4/9/1 3/8/1
f 4/10/2 8/21/2 7/18/2
f 8/22/3 6/14/3 5/12/3
f 6/15/4 2/4/4 1/2/4
f 7/19/5 5/13/5 1/2/5
f 4/11/6 2/5/6 6/16/6
f 13/35/6 15/41/6 11/29/6
f 11/30/4 15/42/4 16/45/4
f 15/43/1 13/36/1 14/40/1
f 10/27/5 12/33/5 16/46/5
f 9/24/3 11/31/3 12/34/3
f 13/37/2 9/25/2 10/28/2
f 18/50/1 20/56/1 19/55/1
f 20/57/2 24/68/2 23/65/2
f 24/69/3 22/62/3 21/60/3
f 22/63/4 18/51/4 17/48/4
f 23/66/5 21/61/5 17/49/5
f 20/58/6 18/52/6 22/63/6
