# Blender 3.5.0
# www.blender.org
mtllib barrier.mtl
o Cube
v 1.543861 1.998188 -0.067542
v 0.651798 -2.220529 0.023345
v 1.543861 1.998188 0.554603
v 0.651798 -2.220529 0.554603
v -1.543861 1.998188 -0.067542
v -0.828534 -2.196531 0.019818
v -1.543861 1.998188 0.554603
v -0.837825 -2.196531 0.551076
v 1.543861 0.000000 -0.175806
v -1.543861 0.000000 0.554603
v 1.543861 0.000000 0.554603
v -1.543861 0.000000 -0.175806
v 0.000000 -2.496409 0.023345
v 0.000000 1.998188 0.120484
v 0.000000 -2.496409 0.554603
v 0.000000 1.998188 -0.554603
v 0.000000 0.000000 -0.554603
v 0.000000 0.000000 0.120484
v 1.181994 -1.248205 -0.035505
v 1.181994 -1.248205 0.554603
v -1.279714 -1.248205 -0.035505
v -1.279714 -1.248205 0.554603
v 0.000000 -1.248205 0.120484
v 0.000000 -1.248205 -0.340042
v -1.543861 0.716769 0.554603
v 1.543861 0.716769 -0.175806
v 1.543861 0.716769 0.554603
v -1.543861 0.716769 -0.175806
v 0.000000 0.716769 -0.554603
v 0.000000 0.716769 0.120484
vn -0.0000 1.0000 -0.0000
vn 0.2707 -0.0000 0.9627
vn -1.0000 -0.0000 -0.0000
vn 0.3898 -0.9209 -0.0000
vn 1.0000 -0.0000 -0.0000
vn 0.2383 -0.0000 -0.9712
vn 0.2455 -0.1783 -0.9529
vn 0.9605 -0.2784 -0.0000
vn -0.9783 -0.2070 -0.0000
vn 0.3212 -0.0000 0.9470
vn -0.3448 -0.0000 0.9387
vn -0.2287 -0.1564 -0.9609
vn -0.2383 -0.0000 -0.9712
vn -0.3403 -0.9403 -0.0060
vn -0.2707 -0.0000 0.9627
vn -0.0966 -0.2782 -0.9556
vn -0.1377 0.3254 0.9355
vn 0.1129 0.3264 0.9385
vn -0.9063 -0.4223 -0.0159
vn 0.8780 -0.4787 -0.0000
vn 0.1175 -0.2776 -0.9535
vn 0.2999 0.0803 -0.9506
vn 0.2350 -0.1647 -0.9579
vn 0.2702 0.0572 0.9611
vn -0.2699 0.0782 0.9597
vn -0.2350 -0.1647 -0.9579
vn -0.2999 0.0803 -0.9506
vn -0.3370 -0.9415 -0.0000
vn -0.2283 -0.1646 -0.9596
vn -0.3388 0.1848 0.9225
vn 0.3179 0.1446 0.9370
vn -0.9030 -0.4296 -0.0000
vn 0.2449 -0.1911 -0.9505
vt 0.747348 0.570698
vt 0.000000 0.174757
vt 0.397982 0.603308
vt 0.234287 0.553877
vt 0.000000 0.397982
vt 0.747348 0.793923
vt 1.000000 0.760199
vt 0.397982 0.793923
vt 0.312660 0.727634
vt 0.910914 0.420631
vt 0.397982 0.174757
vt 0.906101 0.911598
vt 0.456315 0.094800
vt 0.628322 0.395741
vt 0.059899 0.631145
vt 0.397982 0.397982
vt 0.756960 0.251133
vt 0.906101 0.770195
vt 0.137181 0.805394
vt 0.552478 0.850879
vt 0.312660 0.440072
vt 0.589744 0.531853
vt 0.747348 0.760199
vt 0.397982 0.310610
vt 0.756960 0.093529
vt 1.000000 0.601132
vt 0.589744 0.793923
vt 0.530783 0.231041
vt 0.747348 0.926209
vt 0.720322 0.395941
vt 0.157350 0.588587
vt 0.912722 0.279898
vt 0.747348 0.759936
vt 0.198991 0.242220
vt 0.845821 0.395941
vt 0.553743 0.958867
vt 0.235724 0.762345
vt 0.718583 0.395941
vt 0.702177 0.000000
vt 0.198991 0.000000
vt 0.560979 0.395941
vt 0.075416 0.397982
vt 0.756960 0.148035
vt 0.912722 0.122294
vt 0.747348 0.600869
vt 0.484551 0.582193
vt 0.289185 0.505922
vt 0.963862 0.500253
vt 0.484551 0.793923
vt 0.566410 0.331656
vt 0.000000 0.636357
vt 0.459118 0.395941
vt 0.756961 0.000000
vt 0.553743 0.793923
vt 0.087055 0.829362
vt 0.912722 0.023844
vt 0.747348 0.501505
vt 0.397982 0.958867
vt 0.752171 0.263882
vt 0.105405 0.468946
vt 0.804294 0.763785
vt 0.756960 0.150063
vt 0.646278 0.531853
vt 1.000000 0.658191
vt 0.646278 0.793923
vt 0.511132 0.177939
vt 0.804294 0.929794
vt 0.737309 0.094934
vt 0.617513 0.395941
vt 0.747348 0.657928
vt 0.912722 0.178828
s 0
usemtl Material
f 5/11/1 14/34/1 16/40/1
f 14/32/2 25/62/2 30/71/2
f 25/61/3 5/12/3 28/67/3
f 2/4/4 15/37/4 13/31/4
f 1/1/5 27/65/5 26/63/5
f 16/38/6 26/63/6 29/69/6
f 24/60/7 9/21/7 19/47/7
f 19/46/8 11/27/8 20/49/8
f 10/24/9 21/50/9 22/52/9
f 18/44/10 22/53/10 23/56/10
f 20/48/11 18/45/11 23/57/11
f 12/28/12 24/59/12 21/50/12
f 28/66/13 16/39/13 29/68/13
f 13/31/14 8/19/14 6/15/14
f 3/7/15 30/70/15 27/64/15
f 1/2/1 14/34/1 3/5/1
f 6/14/16 24/59/16 13/30/16
f 4/10/17 23/57/17 15/35/17
f 23/58/18 8/20/18 15/36/18
f 22/55/19 6/15/19 8/19/19
f 2/3/20 20/49/20 4/8/20
f 24/60/21 2/4/21 13/31/21
f 27/64/15 18/45/15 11/26/15
f 28/66/13 17/43/13 12/28/13
f 29/69/6 9/22/6 17/41/6
f 26/63/5 11/27/5 9/22/5
f 25/61/3 12/29/3 10/23/3
f 30/71/2 10/25/2 18/44/2
f 5/11/1 7/16/1 14/34/1
f 14/32/2 7/17/2 25/62/2
f 25/61/3 7/18/3 5/12/3
f 2/4/4 4/9/4 15/37/4
f 1/1/5 3/6/5 27/65/5
f 16/38/22 1/1/22 26/63/22
f 24/60/23 17/42/23 9/21/23
f 19/46/8 9/22/8 11/27/8
f 10/24/9 12/28/9 21/50/9
f 18/44/24 10/25/24 22/53/24
f 20/48/25 11/26/25 18/45/25
f 12/28/26 17/43/26 24/59/26
f 28/66/27 5/13/27 16/39/27
f 13/31/28 15/37/28 8/19/28
f 3/7/15 14/33/15 30/70/15
f 1/2/1 16/40/1 14/34/1
f 6/14/29 21/50/29 24/59/29
f 4/10/30 20/48/30 23/57/30
f 23/58/31 22/54/31 8/20/31
f 22/55/32 21/51/32 6/15/32
f 2/3/20 19/46/20 20/49/20
f 24/60/33 19/47/33 2/4/33
f 27/64/15 30/70/15 18/45/15
f 28/66/13 29/68/13 17/43/13
f 29/69/6 26/63/6 9/22/6
f 26/63/5 27/65/5 11/27/5
f 25/61/3 28/67/3 12/29/3
f 30/71/2 25/62/2 10/25/2
