# Blender 3.5.0
# www.blender.org
mtllib switch_big.mtl
o 円柱
v 0.149949 0.000837 -0.758294
v 1.666536 -0.000837 -0.758294
v 0.149786 -0.147099 -0.743724
v 1.666373 -0.148773 -0.743724
v 0.149629 -0.289350 -0.700572
v 1.666216 -0.291023 -0.700572
v 0.149484 -0.420448 -0.630498
v 1.666071 -0.422122 -0.630498
v 0.149357 -0.535358 -0.536195
v 1.665944 -0.537031 -0.536195
v 0.149253 -0.629661 -0.421286
v 1.665840 -0.631335 -0.421286
v 0.149176 -0.699735 -0.290187
v 1.665763 -0.701409 -0.290187
v 0.149128 -0.742886 -0.147936
v 1.665715 -0.744560 -0.147936
v 0.149112 -0.757457 0.000000
v 1.665699 -0.759130 0.000000
v 0.149128 -0.742886 0.147936
v 1.665715 -0.744560 0.147936
v 0.149176 -0.699735 0.290187
v 1.665763 -0.701409 0.290187
v 0.149253 -0.629661 0.421286
v 1.665840 -0.631335 0.421286
v 0.149357 -0.535358 0.536195
v 1.665944 -0.537031 0.536195
v 0.149484 -0.420448 0.630498
v 1.666071 -0.422122 0.630498
v 0.149629 -0.289350 0.700572
v 1.666216 -0.291023 0.700572
v 0.149786 -0.147099 0.743724
v 1.666373 -0.148773 0.743724
v 0.149949 0.000837 0.758294
v 1.666536 -0.000837 0.758294
v 0.150112 0.148773 0.743724
v 1.666699 0.147099 0.743724
v 0.150269 0.291023 0.700572
v 1.666856 0.289350 0.700572
v 0.150414 0.422122 0.630498
v 1.667001 0.420448 0.630498
v 0.150541 0.537031 0.536195
v 1.667128 0.535358 0.536195
v 0.150645 0.631335 0.421286
v 1.667232 0.629661 0.421286
v 0.150722 0.701409 0.290187
v 1.667309 0.699735 0.290187
v 0.150770 0.744560 0.147936
v 1.667357 0.742886 0.147936
v 0.150786 0.759130 0.000000
v 1.667373 0.757457 0.000000
v 0.150770 0.744560 -0.147936
v 1.667357 0.742886 -0.147936
v 0.150722 0.701409 -0.290187
v 1.667309 0.699735 -0.290187
v 0.150645 0.631335 -0.421286
v 1.667232 0.629661 -0.421286
v 0.150541 0.537031 -0.536195
v 1.667128 0.535358 -0.536195
v 0.150414 0.422122 -0.630498
v 1.667001 0.420448 -0.630498
v 0.150269 0.291023 -0.700572
v 1.666856 0.289350 -0.700572
v 0.150112 0.148773 -0.743724
v 1.666699 0.147099 -0.743724
v 1.249908 1.000000 -1.000000
v 1.249908 -1.000000 -1.000000
v 1.249908 1.000000 1.000000
v 1.249908 -1.000000 1.000000
v -0.750092 1.000000 -1.000000
v -0.750092 -1.000000 -1.000000
v -0.750092 1.000000 1.000000
v -0.750092 -1.000000 1.000000
vn -0.0001 -0.0980 -0.9952
vn -0.0003 -0.2903 -0.9569
vn -0.0005 -0.4714 -0.8819
vn -0.0007 -0.6344 -0.7730
vn -0.0009 -0.7730 -0.6344
vn -0.0010 -0.8819 -0.4714
vn -0.0011 -0.9569 -0.2903
vn -0.0011 -0.9952 -0.0980
vn -0.0011 -0.9952 0.0980
vn -0.0011 -0.9569 0.2903
vn -0.0010 -0.8819 0.4714
vn -0.0009 -0.7730 0.6344
vn -0.0007 -0.6344 0.7730
vn -0.0005 -0.4714 0.8819
vn -0.0003 -0.2903 0.9569
vn -0.0001 -0.0980 0.9952
vn 0.0001 0.0980 0.9952
vn 0.0003 0.2903 0.9569
vn 0.0005 0.4714 0.8819
vn 0.0007 0.6344 0.7730
vn 0.0009 0.7730 0.6344
vn 0.0010 0.8819 0.4714
vn 0.0011 0.9569 0.2903
vn 0.0011 0.9952 0.0980
vn 0.0011 0.9952 -0.0980
vn 0.0011 0.9569 -0.2903
vn 0.0010 0.8819 -0.4714
vn 0.0009 0.7730 -0.6344
vn 0.0007 0.6344 -0.7730
vn 0.0005 0.4714 -0.8819
vn 1.0000 -0.0011 -0.0000
vn 0.0003 0.2903 -0.9569
vn 0.0001 0.0980 -0.9952
vn -1.0000 0.0011 -0.0000
vn -0.0000 1.0000 -0.0000
vn -0.0000 -0.0000 1.0000
vn -1.0000 -0.0000 -0.0000
vn -0.0000 -1.0000 -0.0000
vn 1.0000 -0.0000 -0.0000
vn -0.0000 -0.0000 -1.0000
vt 0.693343 0.768194
vt 0.693087 0.310126
vt 0.475675 0.828949
vt 0.693343 1.000000
vt 0.670731 0.768194
vt 0.715372 0.305694
vt 0.670731 1.000000
vt 0.494566 0.816326
vt 0.648989 0.768194
vt 0.738092 0.305694
vt 0.648989 1.000000
vt 0.510632 0.800260
vt 0.628951 0.768194
vt 0.760377 0.310126
vt 0.628951 1.000000
vt 0.523255 0.781368
vt 0.775299 0.536389
vt 0.611387 0.768194
vt 0.781368 0.318821
vt 0.611387 1.000000
vt 0.775299 0.768194
vt 0.531950 0.760377
vt 0.757735 0.536386
vt 0.800260 0.331444
vt 0.757735 0.768192
vt 0.536383 0.738092
vt 0.737697 0.536385
vt 0.816326 0.347510
vt 0.737697 0.768190
vt 0.536383 0.715372
vt 0.715954 0.536383
vt 0.828949 0.366402
vt 0.715954 0.768189
vt 0.531950 0.693087
vt 0.693343 0.536383
vt 0.837644 0.387394
vt 0.693343 0.768189
vt 0.523255 0.672096
vt 0.670731 0.536383
vt 0.842077 0.409678
vt 0.670731 0.768189
vt 0.510632 0.653204
vt 0.648989 0.536385
vt 0.842077 0.432399
vt 0.648989 0.768190
vt 0.494566 0.637138
vt 0.628951 0.536386
vt 0.837644 0.454683
vt 0.628951 0.768192
vt 0.475675 0.624515
vt 0.939210 0.768194
vt 0.611387 0.536389
vt 0.828949 0.475675
vt 0.611387 0.768194
vt 0.939210 1.000000
vt 0.454683 0.615820
vt 0.921646 0.768194
vt 0.816326 0.494566
vt 0.921646 1.000000
vt 0.432399 0.611387
vt 0.901608 0.768194
vt 0.800260 0.510632
vt 0.901608 1.000000
vt 0.409678 0.611387
vt 0.879866 0.768194
vt 0.781368 0.523256
vt 0.879866 1.000000
vt 0.387394 0.615820
vt 0.857254 0.768194
vt 0.760377 0.531950
vt 0.857254 1.000000
vt 0.366402 0.624515
vt 0.834643 0.768194
vt 0.738092 0.536383
vt 0.834643 1.000000
vt 0.347510 0.637138
vt 0.812900 0.768194
vt 0.715372 0.536383
vt 0.812900 1.000000
vt 0.331444 0.653204
vt 0.792862 0.768194
vt 0.693087 0.531950
vt 0.792862 1.000000
vt 0.318821 0.672096
vt 0.775299 0.768194
vt 0.672096 0.523256
vt 0.775299 1.000000
vt 0.775299 0.536389
vt 0.310126 0.693087
vt 0.792862 0.768192
vt 0.653204 0.510632
vt 0.792862 0.536386
vt 0.305694 0.715371
vt 0.812900 0.768190
vt 0.637138 0.494566
vt 0.812900 0.536385
vt 0.305694 0.738092
vt 0.834643 0.768189
vt 0.624515 0.475675
vt 0.834643 0.536383
vt 0.310126 0.760377
vt 0.857254 0.768189
vt 0.615820 0.454683
vt 0.857254 0.536383
vt 0.318821 0.781368
vt 0.879866 0.768189
vt 0.611387 0.432399
vt 0.879866 0.536383
vt 0.331444 0.800260
vt 0.901608 0.768190
vt 0.611387 0.409678
vt 0.901608 0.536385
vt 0.347510 0.816326
vt 0.921646 0.768192
vt 0.615820 0.387394
vt 0.921646 0.536386
vt 0.366402 0.828949
vt 0.775299 0.768194
vt 0.939210 0.768194
vt 0.624515 0.366402
vt 0.939210 0.536389
vt 0.775299 1.000000
vt 0.387394 0.837644
vt 0.757735 0.768194
vt 0.637138 0.347510
vt 0.757735 1.000000
vt 0.409678 0.842077
vt 0.737697 0.768194
vt 0.653204 0.331444
vt 0.432399 0.842077
vt 0.737697 1.000000
vt 0.715954 0.768194
vt 0.672096 0.318821
vt 0.454683 0.837644
vt 0.715954 1.000000
vt 0.000000 0.611387
vt 0.611387 0.305694
vt 0.305694 0.305694
vt 0.305694 0.305694
vt 0.611387 0.305694
vt 0.000000 0.305694
vt 0.000000 0.917081
vt 0.000000 0.611387
vt 0.611387 0.611387
vt 0.611387 0.000000
vt 0.305694 0.611387
vt 0.305693 0.611387
vt 0.611387 0.305694
vt 0.305694 0.000000
vt 0.917081 0.305694
vt 0.000000 0.000000
vt 0.305694 0.305694
vt 0.305693 0.917081
vt 0.000000 0.305694
vt 0.611387 0.000000
vt 0.305694 0.000000
vt 0.305694 0.305694
vt 0.917081 0.000000
s 0
usemtl Material
f 2/4/1 3/5/1 1/1/1
f 4/7/2 5/9/2 3/5/2
f 6/11/3 7/13/3 5/9/3
f 8/15/4 9/18/4 7/13/4
f 10/21/5 11/23/5 9/17/5
f 12/25/6 13/27/6 11/23/6
f 14/29/7 15/31/7 13/27/7
f 16/33/8 17/35/8 15/31/8
f 18/37/9 19/39/9 17/35/9
f 20/41/10 21/43/10 19/39/10
f 22/45/11 23/47/11 21/43/11
f 24/49/12 25/52/12 23/47/12
f 26/55/13 27/57/13 25/51/13
f 28/59/14 29/61/14 27/57/14
f 30/63/15 31/65/15 29/61/15
f 32/67/16 33/69/16 31/65/16
f 34/71/17 35/73/17 33/69/17
f 36/75/18 37/77/18 35/73/18
f 38/79/19 39/81/19 37/77/19
f 40/83/20 41/85/20 39/81/20
f 42/88/21 43/90/21 41/85/21
f 44/92/22 45/94/22 43/90/22
f 46/96/23 47/98/23 45/94/23
f 48/100/24 49/102/24 47/98/24
f 50/104/25 51/106/25 49/102/25
f 52/108/26 53/110/26 51/106/26
f 54/112/27 55/114/27 53/110/27
f 56/116/28 57/119/28 55/114/28
f 58/122/29 59/124/29 57/118/29
f 60/126/30 61/128/30 59/124/30
f 38/80/31 22/46/31 6/12/31
f 62/131/32 63/132/32 61/128/32
f 64/135/33 1/1/33 63/132/33
f 31/66/34 47/99/34 63/133/34
f 69/147/35 67/142/35 65/136/35
f 67/143/36 72/157/36 68/146/36
f 71/155/37 70/152/37 72/156/37
f 66/140/38 72/158/38 70/150/38
f 65/137/39 68/146/39 66/139/39
f 69/149/40 66/141/40 70/151/40
f 2/4/1 4/7/1 3/5/1
f 4/7/2 6/11/2 5/9/2
f 6/11/3 8/15/3 7/13/3
f 8/15/4 10/20/4 9/18/4
f 10/21/5 12/25/5 11/23/5
f 12/25/6 14/29/6 13/27/6
f 14/29/7 16/33/7 15/31/7
f 16/33/8 18/37/8 17/35/8
f 18/37/9 20/41/9 19/39/9
f 20/41/10 22/45/10 21/43/10
f 22/45/11 24/49/11 23/47/11
f 24/49/12 26/54/12 25/52/12
f 26/55/13 28/59/13 27/57/13
f 28/59/14 30/63/14 29/61/14
f 30/63/15 32/67/15 31/65/15
f 32/67/16 34/71/16 33/69/16
f 34/71/17 36/75/17 35/73/17
f 36/75/18 38/79/18 37/77/18
f 38/79/19 40/83/19 39/81/19
f 40/83/20 42/87/20 41/85/20
f 42/88/21 44/92/21 43/90/21
f 44/92/22 46/96/22 45/94/22
f 46/96/23 48/100/23 47/98/23
f 48/100/24 50/104/24 49/102/24
f 50/104/25 52/108/25 51/106/25
f 52/108/26 54/112/26 53/110/26
f 54/112/27 56/116/27 55/114/27
f 56/116/28 58/121/28 57/119/28
f 58/122/29 60/126/29 59/124/29
f 60/126/30 62/131/30 61/128/30
f 6/12/31 4/8/31 2/3/31
f 2/3/31 64/134/31 62/130/31
f 62/130/31 60/127/31 58/123/31
f 58/123/31 56/117/31 54/113/31
f 54/113/31 52/109/31 50/105/31
f 50/105/31 48/101/31 46/97/31
f 46/97/31 44/93/31 42/89/31
f 42/89/31 40/84/31 38/80/31
f 38/80/31 36/76/31 34/72/31
f 34/72/31 32/68/31 30/64/31
f 30/64/31 28/60/31 26/56/31
f 26/56/31 24/50/31 22/46/31
f 22/46/31 20/42/31 18/38/31
f 18/38/31 16/34/31 14/30/31
f 14/30/31 12/26/31 10/22/31
f 10/22/31 8/16/31 6/12/31
f 6/12/31 2/3/31 62/130/31
f 62/130/31 58/123/31 54/113/31
f 54/113/31 50/105/31 46/97/31
f 46/97/31 42/89/31 38/80/31
f 38/80/31 34/72/31 30/64/31
f 30/64/31 26/56/31 22/46/31
f 22/46/31 18/38/31 14/30/31
f 14/30/31 10/22/31 6/12/31
f 6/12/31 62/130/31 54/113/31
f 54/113/31 46/97/31 38/80/31
f 38/80/31 30/64/31 22/46/31
f 22/46/31 14/30/31 6/12/31
f 6/12/31 54/113/31 38/80/31
f 62/131/32 64/135/32 63/132/32
f 64/135/33 2/4/33 1/1/33
f 63/133/34 1/2/34 3/6/34
f 3/6/34 5/10/34 7/14/34
f 7/14/34 9/19/34 11/24/34
f 11/24/34 13/28/34 15/32/34
f 15/32/34 17/36/34 19/40/34
f 19/40/34 21/44/34 23/48/34
f 23/48/34 25/53/34 27/58/34
f 27/58/34 29/62/34 31/66/34
f 31/66/34 33/70/34 35/74/34
f 35/74/34 37/78/34 39/82/34
f 39/82/34 41/86/34 43/91/34
f 43/91/34 45/95/34 47/99/34
f 47/99/34 49/103/34 51/107/34
f 51/107/34 53/111/34 55/115/34
f 55/115/34 57/120/34 59/125/34
f 59/125/34 61/129/34 63/133/34
f 63/133/34 3/6/34 7/14/34
f 7/14/34 11/24/34 15/32/34
f 15/32/34 19/40/34 23/48/34
f 23/48/34 27/58/34 31/66/34
f 31/66/34 35/74/34 39/82/34
f 39/82/34 43/91/34 47/99/34
f 47/99/34 51/107/34 55/115/34
f 55/115/34 59/125/34 63/133/34
f 63/133/34 7/14/34 15/32/34
f 15/32/34 23/48/34 31/66/34
f 31/66/34 39/82/34 47/99/34
f 47/99/34 55/115/34 63/133/34
f 63/133/34 15/32/34 31/66/34
f 69/147/35 71/153/35 67/142/35
f 67/143/36 71/154/36 72/157/36
f 71/155/37 69/148/37 70/152/37
f 66/140/38 68/145/38 72/158/38
f 65/137/39 67/144/39 68/146/39
f 69/149/40 65/138/40 66/141/40
