# Blender 3.5.0
# www.blender.org
mtllib life.mtl
o 円柱.001
v -1.000000 -0.578624 -1.000000
v -1.000000 0.578624 -1.000000
v -0.804910 -0.578624 -0.980785
v -0.804910 0.578624 -0.980785
v -0.617317 -0.578624 -0.923880
v -0.617317 0.578624 -0.923880
v -0.444430 -0.578624 -0.831470
v -0.444430 0.578624 -0.831470
v -0.292893 -0.578624 -0.707107
v -0.292893 0.578624 -0.707107
v -0.168530 -0.578624 -0.555570
v -0.168530 0.578624 -0.555570
v -0.076120 -0.578624 -0.382683
v -0.076120 0.578624 -0.382683
v -0.019215 -0.578624 -0.195090
v -0.019215 0.578624 -0.195090
v 0.000000 -0.578624 0.000000
v 0.000000 0.578624 0.000000
v -0.019215 -0.578624 0.195090
v -0.019215 0.578624 0.195090
v -0.076120 -0.578624 0.382683
v -0.076120 0.578624 0.382683
v -0.168530 -0.578624 0.555570
v -0.168530 0.578624 0.555570
v -0.292893 -0.578624 0.707107
v -0.292893 0.578624 0.707107
v -0.444430 -0.578624 0.831470
v -0.444430 0.578624 0.831470
v -0.617317 -0.578624 0.923880
v -0.617317 0.578624 0.923880
v -0.804910 -0.578624 0.980785
v -0.804910 0.578624 0.980785
v -1.000000 -0.578624 1.000000
v -1.000000 0.578624 1.000000
v -1.195090 -0.578624 0.980785
v -1.195090 0.578624 0.980785
v -1.382684 -0.578624 0.923880
v -1.382684 0.578624 0.923880
v -1.555570 -0.578624 0.831470
v -1.555570 0.578624 0.831470
v -1.707107 -0.578624 0.707107
v -1.707107 0.578624 0.707107
v -1.831470 -0.578624 0.555570
v -1.831470 0.578624 0.555570
v -1.923880 -0.578624 0.382683
v -1.923880 0.578624 0.382683
v -1.980785 -0.578624 0.195090
v -1.980785 0.578624 0.195090
v -2.000000 -0.578624 0.000000
v -2.000000 0.578624 0.000000
v -1.980785 -0.578624 -0.195090
v -1.980785 0.578624 -0.195090
v -1.923880 -0.578624 -0.382683
v -1.923880 0.578624 -0.382683
v -1.831470 -0.578624 -0.555570
v -1.831470 0.578624 -0.555570
v -1.707107 -0.578624 -0.707107
v -1.707107 0.578624 -0.707107
v -1.555570 -0.578624 -0.831470
v -1.555570 0.578624 -0.831470
v -1.382684 -0.578624 -0.923880
v -1.382684 0.578624 -0.923880
v -1.195090 -0.578624 -0.980785
v -1.195090 0.578624 -0.980785
v 0.000000 -0.578624 -2.000000
v 0.000000 0.578624 -2.000000
v 0.195090 -0.578624 -1.980785
v 0.195090 0.578624 -1.980785
v 0.382684 -0.578624 -1.923880
v 0.382684 0.578624 -1.923880
v 0.555570 -0.578624 -1.831470
v 0.555570 0.578624 -1.831470
v 0.707107 -0.578624 -1.707107
v 0.707107 0.578624 -1.707107
v 0.831470 -0.578624 -1.555570
v 0.831470 0.578624 -1.555570
v 0.923880 -0.578624 -1.382684
v 0.923880 0.578624 -1.382684
v 0.980785 -0.578624 -1.195090
v 0.980785 0.578624 -1.195090
v 1.000000 -0.578624 -1.000000
v 1.000000 0.578624 -1.000000
v 0.980785 -0.578624 -0.804910
v 0.980785 0.578624 -0.804910
v 0.923880 -0.578624 -0.617317
v 0.923880 0.578624 -0.617317
v 0.831470 -0.578624 -0.444430
v 0.831470 0.578624 -0.444430
v 0.707107 -0.578624 -0.292893
v 0.707107 0.578624 -0.292893
v 0.555570 -0.578624 -0.168530
v 0.555570 0.578624 -0.168530
v 0.382684 -0.578624 -0.076120
v 0.382684 0.578624 -0.076120
v 0.195090 -0.578624 -0.019215
v 0.195090 0.578624 -0.019215
v 0.000000 -0.578624 0.000000
v 0.000000 0.578624 0.000000
v -0.195090 -0.578624 -0.019215
v -0.195090 0.578624 -0.019215
v -0.382683 -0.578624 -0.076120
v -0.382683 0.578624 -0.076120
v -0.555570 -0.578624 -0.168530
v -0.555570 0.578624 -0.168530
v -0.707107 -0.578624 -0.292893
v -0.707107 0.578624 -0.292893
v -0.831470 -0.578624 -0.444430
v -0.831470 0.578624 -0.444430
v -0.923880 -0.578624 -0.617317
v -0.923880 0.578624 -0.617317
v -0.980785 -0.578624 -0.804910
v -0.980785 0.578624 -0.804910
v -1.000000 -0.578624 -1.000000
v -1.000000 0.578624 -1.000000
v -0.980785 -0.578624 -1.195090
v -0.980785 0.578624 -1.195090
v -0.923880 -0.578624 -1.382684
v -0.923880 0.578624 -1.382684
v -0.831470 -0.578624 -1.555570
v -0.831470 0.578624 -1.555570
v -0.707107 -0.578624 -1.707107
v -0.707107 0.578624 -1.707107
v -0.555570 -0.578624 -1.831470
v -0.555570 0.578624 -1.831470
v -0.382683 -0.578624 -1.923880
v -0.382683 0.578624 -1.923880
v -0.195090 -0.578624 -1.980785
v -0.195090 0.578624 -1.980785
v 1.000000 0.578624 -1.000000
v 1.000000 -0.578624 -1.000000
v 1.000000 0.578624 1.000000
v 1.000000 -0.578624 1.000000
v -1.000000 0.578624 -1.000000
v -1.000000 -0.578624 -1.000000
v -1.000000 0.578624 1.000000
v -1.000000 -0.578624 1.000000
vn 0.0980 -0.0000 -0.9952
vn 0.2903 -0.0000 -0.9569
vn 0.4714 -0.0000 -0.8819
vn 0.6344 -0.0000 -0.7730
vn 0.7730 -0.0000 -0.6344
vn 0.8819 -0.0000 -0.4714
vn 0.9569 -0.0000 -0.2903
vn 0.9952 -0.0000 -0.0980
vn 0.9952 -0.0000 0.0980
vn 0.9569 -0.0000 0.2903
vn 0.8819 -0.0000 0.4714
vn 0.7730 -0.0000 0.6344
vn 0.6344 -0.0000 0.7730
vn 0.4714 -0.0000 0.8819
vn 0.2903 -0.0000 0.9569
vn 0.0980 -0.0000 0.9952
vn -0.0980 -0.0000 0.9952
vn -0.2903 -0.0000 0.9569
vn -0.4714 -0.0000 0.8819
vn -0.6344 -0.0000 0.7730
vn -0.7730 -0.0000 0.6344
vn -0.8819 -0.0000 0.4714
vn -0.9569 -0.0000 0.2903
vn -0.9952 -0.0000 0.0980
vn -0.9952 -0.0000 -0.0980
vn -0.9569 -0.0000 -0.2903
vn -0.8819 -0.0000 -0.4714
vn -0.7730 -0.0000 -0.6344
vn -0.6344 -0.0000 -0.7730
vn -0.4714 -0.0000 -0.8819
vn -0.0000 1.0000 -0.0000
vn -0.2903 -0.0000 -0.9569
vn -0.0980 -0.0000 -0.9952
vn -0.0000 -1.0000 -0.0000
vn -0.0000 -0.0000 1.0000
vn -1.0000 -0.0000 -0.0000
vn 1.0000 -0.0000 -0.0000
vn -0.0000 -0.0000 -1.0000
vt 0.646150 0.817635
vt 0.441060 0.348597
vt 0.441060 0.644054
vt 0.748817 0.817635
vt 0.646150 0.846524
vt 0.443028 0.319915
vt 0.748817 0.846524
vt 0.441060 0.673013
vt 0.646150 0.874303
vt 0.446889 0.292610
vt 0.748817 0.874303
vt 0.443028 0.701134
vt 0.646150 0.899904
vt 0.452493 0.267734
vt 0.748817 0.899904
vt 0.446889 0.727338
vt 0.543483 0.712925
vt 0.646150 0.922344
vt 0.459626 0.246240
vt 0.748817 0.922344
vt 0.646150 0.712925
vt 0.452493 0.750617
vt 0.543483 0.735365
vt 0.468014 0.228956
vt 0.646150 0.735365
vt 0.459626 0.770077
vt 0.543483 0.760966
vt 0.477334 0.216546
vt 0.646150 0.760966
vt 0.468014 0.784970
vt 0.543483 0.788745
vt 0.487228 0.209487
vt 0.646150 0.788745
vt 0.477334 0.794724
vt 0.543483 0.817635
vt 0.497315 0.208049
vt 0.646150 0.817635
vt 0.487227 0.798963
vt 0.543483 0.846524
vt 0.507209 0.212288
vt 0.646150 0.846524
vt 0.497315 0.797525
vt 0.543483 0.874303
vt 0.516529 0.222042
vt 0.646150 0.874303
vt 0.507209 0.790466
vt 0.543483 0.899904
vt 0.524917 0.236935
vt 0.646150 0.899904
vt 0.516529 0.778055
vt 0.294910 0.711555
vt 0.543483 0.922344
vt 0.532050 0.256395
vt 0.646150 0.922344
vt 0.397578 0.711555
vt 0.524917 0.760771
vt 0.294910 0.733994
vt 0.537654 0.279674
vt 0.397578 0.733994
vt 0.532050 0.739278
vt 0.294910 0.759596
vt 0.541515 0.305878
vt 0.397578 0.759596
vt 0.537654 0.714401
vt 0.294910 0.787375
vt 0.543483 0.333999
vt 0.397578 0.787375
vt 0.541515 0.687097
vt 0.294910 0.816264
vt 0.543483 0.362957
vt 0.397578 0.816264
vt 0.543483 0.658415
vt 0.294910 0.845154
vt 0.541515 0.391640
vt 0.397578 0.845154
vt 0.543483 0.629456
vt 0.294910 0.872933
vt 0.537654 0.418944
vt 0.397578 0.872933
vt 0.541515 0.601335
vt 0.294910 0.898534
vt 0.532050 0.443821
vt 0.397578 0.898534
vt 0.537654 0.575131
vt 0.748572 0.208049
vt 0.294910 0.920974
vt 0.524917 0.465314
vt 0.397578 0.920974
vt 0.851240 0.208049
vt 0.532050 0.551852
vt 0.748572 0.230489
vt 0.516529 0.482598
vt 0.851240 0.230489
vt 0.524917 0.532392
vt 0.748572 0.256090
vt 0.507209 0.495008
vt 0.851240 0.256090
vt 0.516529 0.517499
vt 0.748572 0.283869
vt 0.497315 0.502068
vt 0.851240 0.283869
vt 0.507209 0.507745
vt 0.748572 0.312758
vt 0.487227 0.503506
vt 0.851240 0.312758
vt 0.497315 0.503506
vt 0.748572 0.341648
vt 0.477334 0.499267
vt 0.851240 0.341648
vt 0.487228 0.504944
vt 0.748572 0.369427
vt 0.468014 0.489513
vt 0.851240 0.369427
vt 0.477334 0.512003
vt 0.748572 0.395028
vt 0.459626 0.474620
vt 0.851240 0.395028
vt 0.468014 0.524414
vt 0.646150 0.712925
vt 0.748572 0.417468
vt 0.452493 0.455160
vt 0.851240 0.417468
vt 0.748817 0.712925
vt 0.459626 0.541698
vt 0.646150 0.735365
vt 0.446889 0.431881
vt 0.748817 0.735365
vt 0.452493 0.563191
vt 0.646150 0.760966
vt 0.443028 0.405677
vt 0.446889 0.588068
vt 0.748817 0.760966
vt 0.646150 0.788745
vt 0.441060 0.377556
vt 0.443028 0.615372
vt 0.748817 0.788745
vt 0.646150 0.608215
vt 0.543483 0.348597
vt 0.294910 0.556646
vt 0.748817 0.608215
vt 0.646150 0.637105
vt 0.545451 0.319915
vt 0.748817 0.637105
vt 0.294910 0.585604
vt 0.646150 0.664884
vt 0.549311 0.292610
vt 0.748817 0.664884
vt 0.296878 0.613726
vt 0.646150 0.690485
vt 0.554916 0.267734
vt 0.748817 0.690485
vt 0.300739 0.639930
vt 0.645905 0.208049
vt 0.646150 0.712925
vt 0.562049 0.246240
vt 0.748817 0.712925
vt 0.748572 0.208049
vt 0.306343 0.663209
vt 0.645905 0.230489
vt 0.570436 0.228956
vt 0.748572 0.230489
vt 0.313476 0.682669
vt 0.645905 0.256090
vt 0.579756 0.216546
vt 0.748572 0.256090
vt 0.321864 0.697562
vt 0.645905 0.283869
vt 0.589650 0.209487
vt 0.748572 0.283869
vt 0.331184 0.707315
vt 0.645905 0.312758
vt 0.599738 0.208049
vt 0.748572 0.312758
vt 0.341078 0.711555
vt 0.645905 0.341648
vt 0.609632 0.212288
vt 0.748572 0.341648
vt 0.351165 0.710117
vt 0.645905 0.369427
vt 0.618951 0.222042
vt 0.748572 0.369427
vt 0.361059 0.703057
vt 0.645905 0.395028
vt 0.627339 0.236935
vt 0.748572 0.395028
vt 0.370379 0.690647
vt 0.148760 0.624146
vt 0.645905 0.417468
vt 0.634472 0.256395
vt 0.748572 0.417468
vt 0.251428 0.624146
vt 0.378767 0.673363
vt 0.148760 0.646586
vt 0.640077 0.279674
vt 0.251428 0.646586
vt 0.385900 0.651870
vt 0.148760 0.672187
vt 0.643937 0.305878
vt 0.251428 0.672187
vt 0.391504 0.626993
vt 0.148760 0.699967
vt 0.645905 0.333999
vt 0.251428 0.699967
vt 0.395365 0.599689
vt 0.148760 0.728856
vt 0.645905 0.362957
vt 0.251428 0.728856
vt 0.397333 0.571006
vt 0.148760 0.757745
vt 0.643937 0.391640
vt 0.251428 0.757745
vt 0.397333 0.542048
vt 0.148760 0.785524
vt 0.640077 0.418944
vt 0.251428 0.785524
vt 0.395365 0.513926
vt 0.148760 0.811126
vt 0.634472 0.443821
vt 0.251428 0.811126
vt 0.391504 0.487722
vt 0.543483 0.503506
vt 0.148760 0.833565
vt 0.627339 0.465314
vt 0.251428 0.833565
vt 0.646150 0.503506
vt 0.385900 0.464443
vt 0.543483 0.525946
vt 0.618951 0.482598
vt 0.646150 0.525946
vt 0.378767 0.444983
vt 0.543483 0.551547
vt 0.609632 0.495008
vt 0.646150 0.551547
vt 0.370379 0.430090
vt 0.543483 0.579326
vt 0.599738 0.502068
vt 0.646150 0.579326
vt 0.361059 0.420337
vt 0.543483 0.608215
vt 0.589650 0.503506
vt 0.646150 0.608215
vt 0.351165 0.416097
vt 0.543483 0.637105
vt 0.579756 0.499267
vt 0.646150 0.637105
vt 0.341078 0.417535
vt 0.543483 0.664884
vt 0.570436 0.489513
vt 0.646150 0.664884
vt 0.331184 0.424595
vt 0.543483 0.690485
vt 0.562049 0.474620
vt 0.646150 0.690485
vt 0.321864 0.437005
vt 0.646150 0.503506
vt 0.543483 0.712925
vt 0.554915 0.455160
vt 0.646150 0.712925
vt 0.748817 0.503506
vt 0.313476 0.454289
vt 0.646150 0.525946
vt 0.549311 0.431881
vt 0.748817 0.525946
vt 0.306343 0.475782
vt 0.646150 0.551547
vt 0.545451 0.405677
vt 0.300739 0.500659
vt 0.748817 0.551547
vt 0.646150 0.579326
vt 0.543483 0.377556
vt 0.296878 0.527963
vt 0.748817 0.579326
vt 0.441060 0.000000
vt 0.294910 0.208049
vt 0.294910 0.416097
vt 0.294910 0.000000
vt 0.441060 0.000000
vt 0.294910 0.208049
vt 0.441060 0.208049
vt 0.294910 0.624146
vt 0.148760 0.208049
vt 0.294910 0.416097
vt 0.441060 0.208049
vt 0.148760 0.000000
vt 0.587210 0.000000
vt 0.148760 0.416097
vt 0.441060 0.416097
vt 0.294910 0.000000
vt 0.441060 0.208049
vt 0.148760 0.208049
vt 0.587210 0.208049
vt 0.148760 0.624146
vt 0.294910 0.416097
vt 0.148760 0.416097
vt 0.294910 0.208049
s 0
usemtl Material
f 2/4/1 3/5/1 1/1/1
f 4/7/2 5/9/2 3/5/2
f 6/11/3 7/13/3 5/9/3
f 8/15/4 9/18/4 7/13/4
f 10/21/5 11/23/5 9/17/5
f 12/25/6 13/27/6 11/23/6
f 14/29/7 15/31/7 13/27/7
f 16/33/8 17/35/8 15/31/8
f 18/37/9 19/39/9 17/35/9
f 20/41/10 21/43/10 19/39/10
f 22/45/11 23/47/11 21/43/11
f 24/49/12 25/52/12 23/47/12
f 26/55/13 27/57/13 25/51/13
f 28/59/14 29/61/14 27/57/14
f 30/63/15 31/65/15 29/61/15
f 32/67/16 33/69/16 31/65/16
f 34/71/17 35/73/17 33/69/17
f 36/75/18 37/77/18 35/73/18
f 38/79/19 39/81/19 37/77/19
f 40/83/20 41/86/20 39/81/20
f 42/89/21 43/91/21 41/85/21
f 44/93/22 45/95/22 43/91/22
f 46/97/23 47/99/23 45/95/23
f 48/101/24 49/103/24 47/99/24
f 50/105/25 51/107/25 49/103/25
f 52/109/26 53/111/26 51/107/26
f 54/113/27 55/115/27 53/111/27
f 56/117/28 57/120/28 55/115/28
f 58/123/29 59/125/29 57/119/29
f 60/127/30 61/129/30 59/125/30
f 38/80/31 22/46/31 6/12/31
f 62/132/32 63/133/32 61/129/32
f 64/136/33 1/1/33 63/133/33
f 31/66/34 47/100/34 63/134/34
f 66/140/1 67/141/1 65/137/1
f 68/143/2 69/145/2 67/141/2
f 70/147/3 71/149/3 69/145/3
f 72/151/4 73/154/4 71/149/4
f 74/157/5 75/159/5 73/153/5
f 76/161/6 77/163/6 75/159/6
f 78/165/7 79/167/7 77/163/7
f 80/169/8 81/171/8 79/167/8
f 82/173/9 83/175/9 81/171/9
f 84/177/10 85/179/10 83/175/10
f 86/181/11 87/183/11 85/179/11
f 88/185/12 89/188/12 87/183/12
f 90/191/13 91/193/13 89/187/13
f 92/195/14 93/197/14 91/193/14
f 94/199/15 95/201/15 93/197/15
f 96/203/16 97/205/16 95/201/16
f 98/207/17 99/209/17 97/205/17
f 100/211/18 101/213/18 99/209/18
f 102/215/19 103/217/19 101/213/19
f 104/219/20 105/222/20 103/217/20
f 106/225/21 107/227/21 105/221/21
f 108/229/22 109/231/22 107/227/22
f 110/233/23 111/235/23 109/231/23
f 112/237/24 113/239/24 111/235/24
f 114/241/25 115/243/25 113/239/25
f 116/245/26 117/247/26 115/243/26
f 118/249/27 119/251/27 117/247/27
f 120/253/28 121/256/28 119/251/28
f 122/259/29 123/261/29 121/255/29
f 124/263/30 125/265/30 123/261/30
f 102/216/31 86/182/31 70/148/31
f 126/268/32 127/269/32 125/265/32
f 128/272/33 65/137/33 127/269/33
f 95/202/34 111/236/34 127/270/34
f 133/285/31 131/279/31 129/273/31
f 131/280/35 136/294/35 132/282/35
f 135/293/36 134/290/36 136/295/36
f 130/277/34 136/295/34 134/288/34
f 129/274/37 132/284/37 130/276/37
f 133/287/38 130/278/38 134/289/38
f 2/4/1 4/7/1 3/5/1
f 4/7/2 6/11/2 5/9/2
f 6/11/3 8/15/3 7/13/3
f 8/15/4 10/20/4 9/18/4
f 10/21/5 12/25/5 11/23/5
f 12/25/6 14/29/6 13/27/6
f 14/29/7 16/33/7 15/31/7
f 16/33/8 18/37/8 17/35/8
f 18/37/9 20/41/9 19/39/9
f 20/41/10 22/45/10 21/43/10
f 22/45/11 24/49/11 23/47/11
f 24/49/12 26/54/12 25/52/12
f 26/55/13 28/59/13 27/57/13
f 28/59/14 30/63/14 29/61/14
f 30/63/15 32/67/15 31/65/15
f 32/67/16 34/71/16 33/69/16
f 34/71/17 36/75/17 35/73/17
f 36/75/18 38/79/18 37/77/18
f 38/79/19 40/83/19 39/81/19
f 40/83/20 42/88/20 41/86/20
f 42/89/21 44/93/21 43/91/21
f 44/93/22 46/97/22 45/95/22
f 46/97/23 48/101/23 47/99/23
f 48/101/24 50/105/24 49/103/24
f 50/105/25 52/109/25 51/107/25
f 52/109/26 54/113/26 53/111/26
f 54/113/27 56/117/27 55/115/27
f 56/117/28 58/122/28 57/120/28
f 58/123/29 60/127/29 59/125/29
f 60/127/30 62/132/30 61/129/30
f 6/12/31 4/8/31 2/3/31
f 2/3/31 64/135/31 62/131/31
f 62/131/31 60/128/31 58/124/31
f 58/124/31 56/118/31 54/114/31
f 54/114/31 52/110/31 50/106/31
f 50/106/31 48/102/31 46/98/31
f 46/98/31 44/94/31 42/90/31
f 42/90/31 40/84/31 38/80/31
f 38/80/31 36/76/31 34/72/31
f 34/72/31 32/68/31 30/64/31
f 30/64/31 28/60/31 26/56/31
f 26/56/31 24/50/31 22/46/31
f 22/46/31 20/42/31 18/38/31
f 18/38/31 16/34/31 14/30/31
f 14/30/31 12/26/31 10/22/31
f 10/22/31 8/16/31 6/12/31
f 6/12/31 2/3/31 62/131/31
f 62/131/31 58/124/31 54/114/31
f 54/114/31 50/106/31 46/98/31
f 46/98/31 42/90/31 38/80/31
f 38/80/31 34/72/31 30/64/31
f 30/64/31 26/56/31 22/46/31
f 22/46/31 18/38/31 14/30/31
f 14/30/31 10/22/31 6/12/31
f 6/12/31 62/131/31 54/114/31
f 54/114/31 46/98/31 38/80/31
f 38/80/31 30/64/31 22/46/31
f 22/46/31 14/30/31 6/12/31
f 6/12/31 54/114/31 38/80/31
f 62/132/32 64/136/32 63/133/32
f 64/136/33 2/4/33 1/1/33
f 63/134/34 1/2/34 3/6/34
f 3/6/34 5/10/34 7/14/34
f 7/14/34 9/19/34 11/24/34
f 11/24/34 13/28/34 15/32/34
f 15/32/34 17/36/34 19/40/34
f 19/40/34 21/44/34 23/48/34
f 23/48/34 25/53/34 27/58/34
f 27/58/34 29/62/34 31/66/34
f 31/66/34 33/70/34 35/74/34
f 35/74/34 37/78/34 39/82/34
f 39/82/34 41/87/34 43/92/34
f 43/92/34 45/96/34 47/100/34
f 47/100/34 49/104/34 51/108/34
f 51/108/34 53/112/34 55/116/34
f 55/116/34 57/121/34 59/126/34
f 59/126/34 61/130/34 63/134/34
f 63/134/34 3/6/34 7/14/34
f 7/14/34 11/24/34 15/32/34
f 15/32/34 19/40/34 23/48/34
f 23/48/34 27/58/34 31/66/34
f 31/66/34 35/74/34 39/82/34
f 39/82/34 43/92/34 47/100/34
f 47/100/34 51/108/34 55/116/34
f 55/116/34 59/126/34 63/134/34
f 63/134/34 7/14/34 15/32/34
f 15/32/34 23/48/34 31/66/34
f 31/66/34 39/82/34 47/100/34
f 47/100/34 55/116/34 63/134/34
f 63/134/34 15/32/34 31/66/34
f 66/140/1 68/143/1 67/141/1
f 68/143/2 70/147/2 69/145/2
f 70/147/3 72/151/3 71/149/3
f 72/151/4 74/156/4 73/154/4
f 74/157/5 76/161/5 75/159/5
f 76/161/6 78/165/6 77/163/6
f 78/165/7 80/169/7 79/167/7
f 80/169/8 82/173/8 81/171/8
f 82/173/9 84/177/9 83/175/9
f 84/177/10 86/181/10 85/179/10
f 86/181/11 88/185/11 87/183/11
f 88/185/12 90/190/12 89/188/12
f 90/191/13 92/195/13 91/193/13
f 92/195/14 94/199/14 93/197/14
f 94/199/15 96/203/15 95/201/15
f 96/203/16 98/207/16 97/205/16
f 98/207/17 100/211/17 99/209/17
f 100/211/18 102/215/18 101/213/18
f 102/215/19 104/219/19 103/217/19
f 104/219/20 106/224/20 105/222/20
f 106/225/21 108/229/21 107/227/21
f 108/229/22 110/233/22 109/231/22
f 110/233/23 112/237/23 111/235/23
f 112/237/24 114/241/24 113/239/24
f 114/241/25 116/245/25 115/243/25
f 116/245/26 118/249/26 117/247/26
f 118/249/27 120/253/27 119/251/27
f 120/253/28 122/258/28 121/256/28
f 122/259/29 124/263/29 123/261/29
f 124/263/30 126/268/30 125/265/30
f 70/148/31 68/144/31 66/139/31
f 66/139/31 128/271/31 126/267/31
f 126/267/31 124/264/31 122/260/31
f 122/260/31 120/254/31 118/250/31
f 118/250/31 116/246/31 114/242/31
f 114/242/31 112/238/31 110/234/31
f 110/234/31 108/230/31 106/226/31
f 106/226/31 104/220/31 102/216/31
f 102/216/31 100/212/31 98/208/31
f 98/208/31 96/204/31 94/200/31
f 94/200/31 92/196/31 90/192/31
f 90/192/31 88/186/31 86/182/31
f 86/182/31 84/178/31 82/174/31
f 82/174/31 80/170/31 78/166/31
f 78/166/31 76/162/31 74/158/31
f 74/158/31 72/152/31 70/148/31
f 70/148/31 66/139/31 126/267/31
f 126/267/31 122/260/31 118/250/31
f 118/250/31 114/242/31 110/234/31
f 110/234/31 106/226/31 102/216/31
f 102/216/31 98/208/31 94/200/31
f 94/200/31 90/192/31 86/182/31
f 86/182/31 82/174/31 78/166/31
f 78/166/31 74/158/31 70/148/31
f 70/148/31 126/267/31 118/250/31
f 118/250/31 110/234/31 102/216/31
f 102/216/31 94/200/31 86/182/31
f 86/182/31 78/166/31 70/148/31
f 70/148/31 118/250/31 102/216/31
f 126/268/32 128/272/32 127/269/32
f 128/272/33 66/140/33 65/137/33
f 127/270/34 65/138/34 67/142/34
f 67/142/34 69/146/34 71/150/34
f 71/150/34 73/155/34 75/160/34
f 75/160/34 77/164/34 79/168/34
f 79/168/34 81/172/34 83/176/34
f 83/176/34 85/180/34 87/184/34
f 87/184/34 89/189/34 91/194/34
f 91/194/34 93/198/34 95/202/34
f 95/202/34 97/206/34 99/210/34
f 99/210/34 101/214/34 103/218/34
f 103/218/34 105/223/34 107/228/34
f 107/228/34 109/232/34 111/236/34
f 111/236/34 113/240/34 115/244/34
f 115/244/34 117/248/34 119/252/34
f 119/252/34 121/257/34 123/262/34
f 123/262/34 125/266/34 127/270/34
f 127/270/34 67/142/34 71/150/34
f 71/150/34 75/160/34 79/168/34
f 79/168/34 83/176/34 87/184/34
f 87/184/34 91/194/34 95/202/34
f 95/202/34 99/210/34 103/218/34
f 103/218/34 107/228/34 111/236/34
f 111/236/34 115/244/34 119/252/34
f 119/252/34 123/262/34 127/270/34
f 127/270/34 71/150/34 79/168/34
f 79/168/34 87/184/34 95/202/34
f 95/202/34 103/218/34 111/236/34
f 111/236/34 119/252/34 127/270/34
f 127/270/34 79/168/34 95/202/34
f 133/285/31 135/291/31 131/279/31
f 131/280/35 135/292/35 136/294/35
f 135/293/36 133/286/36 134/290/36
f 130/277/34 132/283/34 136/295/34
f 129/274/37 131/281/37 132/284/37
f 133/287/38 129/275/38 130/278/38
