# Blender 3.5.0
# www.blender.org
mtllib Arrow.mtl
o Cube
v 0.935772 -0.088181 0.000776
v 0.935772 -0.135433 0.000776
v 0.224966 -0.057599 1.000000
v 0.224966 -0.225940 1.000000
v -1.000000 -0.117461 0.000983
v -0.993558 -0.157115 0.000983
v -0.240888 -0.049011 1.000000
v -0.240888 -0.228598 1.000000
v -0.236916 -0.228598 0.000000
v 0.224966 -0.057599 0.000000
v -0.236916 -0.049011 0.000000
v 0.224966 -0.225940 0.000000
v 0.000000 -0.282216 -1.211403
v 0.000000 0.025137 1.000000
v 0.000000 -0.282216 1.000000
v 0.000000 -0.108987 -1.211403
v 0.000000 -0.282216 0.000000
v 0.000000 0.025137 0.000000
v -0.236916 -0.049011 -0.500000
v 0.224966 -0.225940 -0.500000
v -0.236916 -0.228598 -0.500000
v 0.224966 -0.057599 -0.500000
v 0.000000 0.025137 -0.500000
v 0.000000 -0.282216 -0.500000
v 0.223886 -0.225940 1.000000
v 0.107825 -0.108987 -1.095907
v 0.223886 -0.057599 0.000000
v 0.107825 -0.282216 -1.095907
v 0.223886 -0.057599 1.000000
v 0.223886 -0.225940 0.000000
v 0.223886 -0.057599 -0.500000
v 0.223886 -0.225940 -0.500000
v -0.090419 -0.282216 -1.094611
v -0.243205 -0.049011 1.000000
v -0.243205 -0.228598 0.000000
v -0.243205 -0.228598 1.000000
v -0.105923 -0.115080 -1.094611
v -0.243205 -0.049011 0.000000
v -0.243205 -0.228598 -0.500000
v -0.243205 -0.049011 -0.500000
vn -0.0000 -1.0000 -0.0000
vn -0.0000 -0.0000 -1.0000
vn 0.5521 -0.0000 0.8338
vn 1.0000 -0.0000 -0.0000
vn 0.7981 -0.0000 -0.6025
vn -1.0000 -0.0000 -0.0040
vn 0.3466 0.9380 -0.0000
vn -0.2153 -0.9765 -0.0000
vn -0.7907 -0.0000 -0.6122
vn -0.0000 -0.0000 1.0000
vn -0.2152 -0.9760 0.0327
vn 0.3429 0.9278 -0.1468
vn -0.1879 0.9705 -0.1512
vn -0.0000 -0.9956 0.0940
vn -0.5759 -0.0000 0.8175
vn -1.0000 -0.0000 -0.0000
vn 0.1189 0.9870 -0.1085
vn -0.0000 1.0000 -0.0000
vn 0.2438 -0.9698 -0.0000
vn 0.7310 -0.0000 -0.6824
vn -0.2524 0.9509 -0.1793
vn -0.0000 -0.9900 0.1413
vn -0.7736 -0.0718 -0.6295
vn -0.2916 0.9565 -0.0000
vn 0.5412 0.0879 0.8363
vn -0.7372 -0.0684 -0.6722
vn 0.1947 0.9639 -0.1817
vn -0.0000 0.9908 0.1354
vn 0.0702 -0.9943 0.0801
vn 0.2435 -0.9689 0.0441
vn -0.0000 0.9963 -0.0859
vn -0.2873 0.9424 -0.1711
vn -0.0421 -0.9960 0.0790
vn -0.7686 -0.1248 -0.6275
vt 0.000664 0.450318
vt 0.908229 0.462165
vt 0.271132 0.814025
vt 0.998614 0.462165
vt 0.908229 0.450311
vt 0.361518 0.814025
vt 0.090356 0.558326
vt 0.344723 0.558326
vt 0.361518 0.673271
vt 0.451901 0.673615
vt 0.564348 0.558884
vt 0.180742 0.558326
vt 0.180742 0.558326
vt 0.454467 0.106621
vt 0.908277 0.462165
vt 0.271132 0.559907
vt 0.455373 0.108501
vt 0.998672 0.460963
vt 0.452582 0.999442
vt 0.453751 0.648711
vt 0.090356 0.560075
vt 0.000012 0.558326
vt 0.453751 0.558326
vt 0.455635 1.000000
vt 0.000000 0.785364
vt 0.454467 0.705922
vt 0.090356 0.783464
vt 0.167147 0.323915
vt 0.453751 0.705364
vt 0.090344 0.787114
vt 0.180742 0.783464
vt 0.741538 0.324181
vt 0.998641 0.000008
vt 0.998614 0.912116
vt 0.903387 0.000000
vt 0.361518 0.618037
vt 0.397457 0.518377
vt 0.511548 0.519022
vt 0.451901 0.618381
vt 0.908280 0.000000
vt 0.004766 0.000000
vt 0.908229 0.912116
vt 0.688738 0.284319
vt 0.219882 0.283966
vt 0.180745 0.826772
vt 0.453751 0.558326
vt 0.186630 0.124690
vt 0.090356 0.900260
vt 0.180742 0.896033
vt 0.361518 0.558326
vt 0.830133 0.206830
vt 0.271129 0.826772
vt 0.721728 0.124989
vt 0.454467 0.558884
vt 0.000012 0.898511
vt 0.090356 0.896033
vt 0.271132 0.558326
vt 0.078359 0.206709
vt 0.131094 0.166761
vt 0.777333 0.166968
vt 0.451901 0.673349
vt 0.564095 0.558692
vt 0.000000 0.046221
vt 0.908229 0.865713
vt 0.167400 0.323723
vt 0.908229 0.046213
vt 0.998614 0.865713
vt 0.344976 0.558134
vt 0.361518 0.673006
vt 0.741285 0.323990
vt 0.078612 0.206517
vt 0.829880 0.206638
vt 0.998672 0.043418
vt 0.861471 0.011390
vt 0.451901 0.999442
vt 0.454189 0.648711
vt 0.361518 0.558326
vt 0.454467 0.475190
vt 0.631657 0.241226
vt 0.456317 0.705922
vt 0.454189 0.558326
vt 0.451901 0.558669
vt 0.454467 0.475928
vt 0.456317 1.000000
vt 0.050335 0.008568
vt 0.908229 0.046323
vt 0.451901 0.705364
vt 0.276891 0.240779
vt 0.720252 0.123875
vt 0.456317 0.558884
vt 0.451901 0.558326
vt 0.188104 0.123573
s 0
usemtl Material
f 38/87/1 7/19/1 34/75/1
f 34/76/2 8/23/2 36/81/2
f 19/45/3 6/16/3 21/52/3
f 12/32/1 25/62/1 30/70/1
f 10/27/4 4/12/4 12/31/4
f 26/64/5 2/4/5 28/67/5
f 22/56/4 12/31/4 20/49/4
f 20/51/1 30/70/1 32/72/1
f 7/21/6 9/25/6 8/22/6
f 19/46/1 38/87/1 40/91/1
f 23/59/7 27/65/7 31/71/7
f 24/60/8 35/79/8 39/89/8
f 33/73/9 16/40/9 13/33/9
f 17/43/8 36/83/8 35/79/8
f 29/69/10 15/39/10 25/61/10
f 18/44/7 29/68/7 27/65/7
f 33/74/11 24/60/11 39/89/11
f 26/63/12 23/59/12 31/71/12
f 5/14/13 40/92/13 37/85/13
f 28/66/14 20/51/14 32/72/14
f 2/6/15 22/57/15 20/50/15
f 11/30/16 21/55/16 9/25/16
f 28/66/1 24/60/1 13/35/1
f 26/63/17 22/58/17 1/1/17
f 27/65/18 3/8/18 10/28/18
f 3/9/10 25/61/10 4/10/10
f 31/71/18 10/28/18 22/58/18
f 32/72/19 17/43/19 24/60/19
f 16/42/20 28/67/20 13/34/20
f 30/70/19 15/38/19 17/43/19
f 37/85/21 23/59/21 16/41/21
f 6/17/22 39/89/22 21/53/22
f 35/80/18 8/24/18 9/26/18
f 6/18/23 37/86/23 33/73/23
f 39/90/18 9/26/18 21/54/18
f 40/92/24 18/44/24 23/59/24
f 15/39/10 34/77/10 36/82/10
f 38/88/24 14/37/24 18/44/24
f 38/87/1 11/29/1 7/19/1
f 34/76/2 7/20/2 8/23/2
f 19/45/25 5/13/25 6/16/25
f 12/32/1 4/11/1 25/62/1
f 10/27/4 3/7/4 4/12/4
f 26/64/5 1/2/5 2/4/5
f 22/56/4 10/27/4 12/31/4
f 20/51/1 12/32/1 30/70/1
f 7/21/6 11/30/6 9/25/6
f 19/46/1 11/29/1 38/87/1
f 23/59/7 18/44/7 27/65/7
f 24/60/8 17/43/8 35/79/8
f 33/73/26 37/86/26 16/40/26
f 17/43/8 15/38/8 36/83/8
f 29/69/10 14/36/10 15/39/10
f 18/44/7 14/37/7 29/68/7
f 33/74/1 13/35/1 24/60/1
f 26/63/27 16/41/27 23/59/27
f 5/14/28 19/47/28 40/92/28
f 28/66/29 2/5/29 20/51/29
f 2/6/15 1/3/15 22/57/15
f 11/30/16 19/48/16 21/55/16
f 28/66/30 32/72/30 24/60/30
f 26/63/31 31/71/31 22/58/31
f 27/65/18 29/68/18 3/8/18
f 3/9/10 29/69/10 25/61/10
f 31/71/18 27/65/18 10/28/18
f 32/72/19 30/70/19 17/43/19
f 16/42/20 26/64/20 28/67/20
f 30/70/19 25/62/19 15/38/19
f 37/85/32 40/92/32 23/59/32
f 6/17/33 33/74/33 39/89/33
f 35/80/18 36/84/18 8/24/18
f 6/18/34 5/15/34 37/86/34
f 39/90/18 35/80/18 9/26/18
f 40/92/24 38/88/24 18/44/24
f 15/39/10 14/36/10 34/77/10
f 38/88/24 34/78/24 14/37/24
