# Blender 3.5.0
# www.blender.org
mtllib Ground.mtl
o 立方体.002
v -3.474277 -0.352760 -1.499939
v -3.474277 0.760531 -1.499939
v -2.740242 -0.352760 -2.851605
v -2.414664 2.523665 -1.841461
v -3.206886 -0.352760 -0.959943
v -3.206886 0.760531 -0.959943
v -2.073142 -0.352760 -0.781848
v -2.073142 0.760531 -0.781848
v -1.430930 -0.352760 -2.131223
v -2.243903 1.642098 -1.311655
v -3.340581 -0.352760 -1.229941
v -3.340581 0.760531 -1.229941
v -3.474277 0.203885 -1.499939
v -2.561728 1.085453 -2.351602
v -2.073142 0.203885 -0.781848
v -3.206886 0.203885 -0.959943
v -3.340581 0.203885 -1.229941
v -1.955152 0.644669 -2.086726
v -3.155206 0.000000 3.155206
v 3.155206 0.000000 3.155206
v -3.155206 0.000000 -3.155206
v 3.155206 0.000000 -3.155206
v 1.731125 -0.651264 -0.857857
v 2.917000 2.512556 -0.857857
v 1.731125 -0.651264 -2.160386
v 1.731125 0.253080 -1.866081
v 3.033653 -0.651264 -0.857857
v 2.490323 0.651264 -1.213292
v 3.033653 -0.651264 -2.160386
v 1.598612 -0.352760 3.542134
v 1.598612 0.760531 3.542134
v 0.537296 -0.352760 2.428843
v 1.598612 2.523665 2.428843
v 2.194598 -0.352760 3.453288
v 2.194598 0.760531 3.453288
v 2.711903 -0.352760 2.428843
v 2.711903 0.760531 2.428843
v 1.624599 -0.352760 1.403650
v 2.155257 1.642098 2.428843
v 1.896605 -0.352760 3.497711
v 1.896605 0.760531 3.497711
v 1.598612 0.203885 3.542134
v 1.067954 1.085453 2.412320
v 2.711903 0.203885 2.428843
v 2.194598 0.203885 3.453288
v 1.896605 0.203885 3.497711
v 1.506136 0.644669 1.916246
v -3.526810 -0.475621 2.782926
v -3.526810 0.895757 2.782926
v -3.526810 -0.475621 -0.744135
v -3.526810 0.895757 0.332870
v -2.155432 -0.475621 2.782926
v -2.155432 0.895757 2.782926
v -2.155432 -0.475621 1.411548
v -2.155432 0.895757 0.089214
v -3.526810 -0.475621 2.097237
v -3.526810 1.801996 1.557898
v -2.155432 -0.475621 2.097237
v -2.598637 1.801996 1.436070
vn -0.6823 -0.0000 -0.7311
vn 0.9959 -0.0000 0.0901
vn -0.1552 -0.0000 0.9879
vn -0.8962 -0.0000 0.4438
vn -0.0000 -1.0000 -0.0000
vn -0.5863 0.7563 0.2903
vn -0.1352 0.4910 0.8606
vn 0.6407 0.5781 -0.5053
vn 0.4627 0.2807 -0.8409
vn 0.9030 -0.0000 0.4297
vn -0.8788 -0.0000 -0.4772
vn -0.0000 1.0000 -0.0000
vn -1.0000 -0.0000 -0.0000
vn -0.0000 0.5881 -0.8088
vn -0.0000 0.2633 0.9647
vn -0.9051 -0.0000 0.4251
vn 0.3912 -0.0000 -0.9203
vn 0.8926 -0.0000 0.4508
vn 0.1474 -0.0000 0.9891
vn 0.0965 0.7563 0.6471
vn 0.7776 0.4910 0.3927
vn -0.2843 0.5781 -0.7648
vn -0.6584 0.2807 -0.6983
vn 0.6860 -0.0000 -0.7276
vn -0.7238 -0.0000 0.6900
vn 0.7493 -0.4596 -0.4767
vn 1.0000 -0.0000 -0.0000
vn -0.0000 -0.0000 1.0000
vn -0.0000 0.8297 0.5582
vn -0.1028 0.8093 -0.5783
vn 0.9816 0.1910 -0.0000
vn -0.7058 0.2998 -0.6418
vn 0.9712 0.2287 0.0675
vn -0.4165 0.4077 0.8126
vn 0.9552 0.0073 -0.2958
vn 0.5211 0.2218 -0.8242
vn 0.8659 0.4449 0.2286
vn -0.7871 0.2874 -0.5458
vn -0.8932 0.3348 0.3003
vn 0.2138 0.3023 -0.9289
vn 0.9229 0.3850 -0.0000
vn 0.8317 -0.0859 -0.5486
vn 0.7621 -0.2857 0.5810
vn -0.8274 0.2998 0.4749
vn 0.3622 0.2287 -0.9036
vn 0.6457 0.4077 0.6457
vn 0.0115 0.0073 -0.9999
vn -0.6246 0.2218 -0.7488
vn 0.4832 0.4449 -0.7540
vn -0.7609 0.2874 0.5817
vn -0.1384 0.6117 -0.7789
vn 0.9641 0.1187 -0.2374
vn 0.0778 0.8015 0.5929
vn -0.0778 0.8015 -0.5929
vn 0.9636 0.1854 0.1923
vt 0.125000 0.750000
vt 0.375000 0.000000
vt 0.375000 1.000000
vt 0.625000 0.000000
vt 0.625000 1.000000
vt 0.875000 0.750000
vt 0.125000 0.500000
vt 0.375000 0.250000
vt 0.875000 0.500000
vt 0.625000 0.250000
vt 0.375000 0.750000
vt 0.625000 0.750000
vt 0.375000 0.500000
vt 0.625000 0.500000
vt 0.250000 0.500000
vt 0.375000 0.375000
vt 0.750000 0.500000
vt 0.625000 0.375000
vt 0.250000 0.750000
vt 0.375000 0.875000
vt 0.750000 0.750000
vt 0.625000 0.875000
vt 0.500000 1.000000
vt 0.500000 0.000000
vt 0.500000 0.250000
vt 0.500000 0.500000
vt 0.500000 0.750000
vt 0.500000 0.875000
vt 0.500000 0.375000
vt 0.000000 0.000000
vt 1.000000 0.000000
vt 0.000000 1.000000
vt 1.000000 1.000000
vt 0.375000 0.000000
vt 0.375000 1.000000
vt 0.125000 0.750000
vt 0.625000 0.000000
vt 0.875000 0.750000
vt 0.625000 1.000000
vt 0.125000 0.500000
vt 0.375000 0.250000
vt 0.625000 0.250000
vt 0.875000 0.500000
vt 0.375000 0.750000
vt 0.625000 0.750000
vt 0.375000 0.500000
vt 0.125000 0.750000
vt 0.375000 0.000000
vt 0.375000 1.000000
vt 0.625000 0.000000
vt 0.625000 1.000000
vt 0.875000 0.750000
vt 0.125000 0.500000
vt 0.375000 0.250000
vt 0.875000 0.500000
vt 0.625000 0.250000
vt 0.375000 0.750000
vt 0.625000 0.750000
vt 0.375000 0.500000
vt 0.625000 0.500000
vt 0.250000 0.500000
vt 0.375000 0.375000
vt 0.750000 0.500000
vt 0.625000 0.375000
vt 0.250000 0.750000
vt 0.375000 0.875000
vt 0.750000 0.750000
vt 0.625000 0.875000
vt 0.500000 1.000000
vt 0.500000 0.000000
vt 0.500000 0.250000
vt 0.500000 0.500000
vt 0.500000 0.750000
vt 0.500000 0.875000
vt 0.500000 0.375000
vt 0.375000 0.000000
vt 0.375000 1.000000
vt 0.125000 0.750000
vt 0.625000 1.000000
vt 0.875000 0.750000
vt 0.625000 0.000000
vt 0.125000 0.500000
vt 0.375000 0.250000
vt 0.625000 0.250000
vt 0.875000 0.500000
vt 0.375000 0.750000
vt 0.625000 0.750000
vt 0.375000 0.500000
vt 0.625000 0.500000
vt 0.125000 0.625000
vt 0.375000 0.125000
vt 0.875000 0.625000
vt 0.625000 0.125000
vt 0.375000 0.625000
vt 0.625000 0.625000
s 0
usemtl マテリアル.001
f 2/4/1 14/25/1 13/24/1
f 18/29/2 8/14/2 15/26/2
f 8/14/3 16/27/3 15/26/3
f 12/22/4 13/23/4 17/28/4
f 7/13/5 11/19/5 9/15/5
f 10/17/6 2/6/6 12/21/6
f 10/17/7 6/12/7 8/14/7
f 3/7/5 11/19/5 1/1/5
f 6/12/4 17/28/4 16/27/4
f 14/25/8 10/18/8 18/29/8
f 3/8/9 18/29/9 9/16/9
f 16/27/4 11/20/4 5/11/4
f 17/28/4 1/3/4 11/20/4
f 15/26/3 5/11/3 7/13/3
f 9/16/10 15/26/10 7/13/10
f 13/24/11 3/8/11 1/2/11
f 2/4/32 4/10/32 14/25/32
f 18/29/33 10/18/33 8/14/33
f 8/14/3 6/12/3 16/27/3
f 12/22/4 2/5/4 13/23/4
f 7/13/5 5/11/5 11/19/5
f 10/17/34 4/9/34 2/6/34
f 10/17/6 12/21/6 6/12/6
f 3/7/5 9/15/5 11/19/5
f 6/12/4 12/22/4 17/28/4
f 14/25/35 4/10/35 10/18/35
f 3/8/36 14/25/36 18/29/36
f 16/27/4 17/28/4 11/20/4
f 17/28/4 13/23/4 1/3/4
f 15/26/3 16/27/3 5/11/3
f 9/16/37 18/29/37 15/26/37
f 13/24/38 14/25/38 3/8/38
usemtl マテリアル
f 20/31/12 21/32/12 19/30/12
f 20/31/12 22/33/12 21/32/12
usemtl マテリアル.004
f 23/34/13 26/42/13 25/41/13
f 28/45/14 29/46/14 25/41/14
f 28/45/15 23/35/15 27/44/15
f 29/46/5 23/36/5 25/40/5
f 23/34/39 24/37/39 26/42/39
f 25/41/40 26/43/40 24/38/40
f 28/45/41 27/44/41 29/46/41
f 25/41/42 24/38/42 28/45/42
f 28/45/43 24/39/43 23/35/43
f 29/46/5 27/44/5 23/36/5
usemtl マテリアル.003
f 31/50/16 43/71/16 42/70/16
f 47/75/17 37/60/17 44/72/17
f 37/60/18 45/73/18 44/72/18
f 41/68/19 42/69/19 46/74/19
f 36/59/5 40/65/5 38/61/5
f 39/63/20 31/52/20 41/67/20
f 39/63/21 35/58/21 37/60/21
f 32/53/5 40/65/5 30/47/5
f 35/58/19 46/74/19 45/73/19
f 43/71/22 39/64/22 47/75/22
f 32/54/23 47/75/23 38/62/23
f 45/73/19 40/66/19 34/57/19
f 46/74/19 30/49/19 40/66/19
f 44/72/18 34/57/18 36/59/18
f 38/62/24 44/72/24 36/59/24
f 42/70/25 32/54/25 30/48/25
f 31/50/44 33/56/44 43/71/44
f 47/75/45 39/64/45 37/60/45
f 37/60/18 35/58/18 45/73/18
f 41/68/19 31/51/19 42/69/19
f 36/59/5 34/57/5 40/65/5
f 39/63/46 33/55/46 31/52/46
f 39/63/20 41/67/20 35/58/20
f 32/53/5 38/61/5 40/65/5
f 35/58/19 41/68/19 46/74/19
f 43/71/47 33/56/47 39/64/47
f 32/54/48 43/71/48 47/75/48
f 45/73/19 46/74/19 40/66/19
f 46/74/19 42/69/19 30/49/19
f 44/72/18 45/73/18 34/57/18
f 38/62/49 47/75/49 44/72/49
f 42/70/50 43/71/50 32/54/50
usemtl マテリアル.002
f 56/91/13 51/84/13 50/83/13
f 50/83/26 55/89/26 54/88/26
f 58/94/27 53/87/27 52/86/27
f 53/87/28 48/77/28 52/86/28
f 58/94/5 48/78/5 56/90/5
f 59/95/29 49/80/29 53/87/29
f 51/85/30 59/95/30 55/89/30
f 54/88/5 56/90/5 50/82/5
f 54/88/31 59/95/31 58/94/31
f 49/81/13 56/91/13 48/76/13
f 56/91/13 57/93/13 51/84/13
f 50/83/51 51/84/51 55/89/51
f 58/94/52 59/95/52 53/87/52
f 53/87/28 49/79/28 48/77/28
f 58/94/5 52/86/5 48/78/5
f 59/95/53 57/92/53 49/80/53
f 51/85/54 57/92/54 59/95/54
f 54/88/5 58/94/5 56/90/5
f 54/88/55 55/89/55 59/95/55
f 49/81/13 57/93/13 56/91/13
