# Blender 3.5.0
# www.blender.org
mtllib Block.mtl
o Cube
v 1.000000 1.000000 -1.000000
v 1.000000 -1.000000 -1.000000
v 1.000000 1.000000 1.000000
v 1.000000 -1.000000 1.000000
v -1.000000 1.000000 -1.000000
v -1.000000 -1.000000 -1.000000
v -1.000000 1.000000 1.000000
v -1.000000 -1.000000 1.000000
vn -0.0000 1.0000 -0.0000
vn -0.0000 -0.0000 1.0000
vn -1.0000 -0.0000 -0.0000
vn -0.0000 -1.0000 -0.0000
vn 1.0000 -0.0000 -0.0000
vn -0.0000 -0.0000 -1.0000
vt 0.625000 0.000000
vt 0.625000 0.628869
vt 0.125000 1.000000
vt 0.625000 0.320734
vt 0.625000 0.000000
vt 0.125000 0.628869
vt 0.625000 0.320734
vt 0.375000 0.320734
vt 0.375000 0.628869
vt 0.375000 0.000000
vt 0.625000 0.320734
vt 0.375000 0.320734
vt 0.875000 0.000000
vt 0.125000 0.628869
vt 0.375000 1.000000
vt 0.375000 0.000000
vt 0.375000 0.628869
vt 0.125000 0.320734
vt 0.875000 0.320734
vt 0.125000 0.320734
vt 0.375000 0.628869
vt 0.125000 0.000000
vt 0.375000 0.320734
s 0
usemtl Material
f 5/13/1 3/7/1 1/1/1
f 3/8/2 8/22/2 4/10/2
f 7/21/3 6/18/3 8/23/3
f 2/5/4 8/23/4 6/16/4
f 1/2/5 4/12/5 2/4/5
f 5/15/6 2/6/6 6/17/6
f 5/13/1 7/19/1 3/7/1
f 3/8/2 7/20/2 8/22/2
f 7/21/3 5/14/3 6/18/3
f 2/5/4 4/11/4 8/23/4
f 1/2/5 3/9/5 4/12/5
f 5/15/6 1/3/6 2/6/6
