# Blender 3.5.0
# www.blender.org
mtllib Pitfall.mtl
o トーラス
v 1.756380 0.000000 0.446401
v 1.722886 0.125000 0.446401
v 1.125000 0.216506 0.000000
v 1.000000 0.250000 0.000000
v 0.875000 0.216506 0.000000
v 0.783494 0.125000 0.000000
v 0.750000 0.000000 0.000000
v 0.783494 -0.125000 0.000000
v 0.875000 -0.216506 0.000000
v 1.000000 -0.250000 0.000000
v 1.125000 -0.216506 0.000000
v 1.722886 -0.125000 0.446401
v 1.745686 0.000000 0.283243
v 1.712479 0.125000 0.287615
v 1.115376 0.216506 -0.146842
v 0.991445 0.250000 -0.130526
v 0.867514 0.216506 -0.114210
v 0.776791 0.125000 -0.102266
v 0.743584 0.000000 -0.097895
v 0.776791 -0.125000 -0.102266
v 0.867514 -0.216506 -0.114210
v 0.991445 -0.250000 -0.130526
v 1.115376 -0.216506 -0.146842
v 1.712479 -0.125000 0.287615
v 1.207407 0.000000 -0.323524
v 1.175055 0.125000 -0.314855
v 1.086667 0.216506 -0.291171
v 0.965926 0.250000 -0.258819
v 0.845185 0.216506 -0.226467
v 0.756797 0.125000 -0.202783
v 0.724444 0.000000 -0.194114
v 0.756797 -0.125000 -0.202783
v 0.845185 -0.216506 -0.226467
v 0.965926 -0.250000 -0.258819
v 1.086667 -0.216506 -0.291171
v 1.175055 -0.125000 -0.314855
v 1.154849 0.000000 -0.478354
v 1.123905 0.125000 -0.465537
v 1.039364 0.216506 -0.430519
v 0.923880 0.250000 -0.382683
v 0.808395 0.216506 -0.334848
v 0.723854 0.125000 -0.299830
v 0.692910 0.000000 -0.287013
v 0.723854 -0.125000 -0.299830
v 0.808395 -0.216506 -0.334848
v 0.923880 -0.250000 -0.382683
v 1.039364 -0.216506 -0.430519
v 1.123905 -0.125000 -0.465537
v 1.082532 0.000000 -0.625000
v 1.053525 0.125000 -0.608253
v 0.974279 0.216506 -0.562500
v 0.866025 0.250000 -0.500000
v 0.757772 0.216506 -0.437500
v 0.678525 0.125000 -0.391747
v 0.649519 0.000000 -0.375000
v 0.678525 -0.125000 -0.391747
v 0.757772 -0.216506 -0.437500
v 0.866025 -0.250000 -0.500000
v 0.974279 -0.216506 -0.562500
v 1.053525 -0.125000 -0.608253
v 0.991692 0.000000 -0.760952
v 0.965119 0.125000 -0.740562
v 0.892523 0.216506 -0.684856
v 0.793353 0.250000 -0.608761
v 0.694184 0.216506 -0.532666
v 0.621587 0.125000 -0.476961
v 0.595015 0.000000 -0.456571
v 0.621587 -0.125000 -0.476961
v 0.694184 -0.216506 -0.532666
v 0.793353 -0.250000 -0.608761
v 0.892523 -0.216506 -0.684856
v 0.965119 -0.125000 -0.740562
v 1.455637 0.000000 -0.883884
v 1.431954 0.125000 -0.860200
v 0.795495 0.216506 -0.795495
v 0.707107 0.250000 -0.707107
v 0.618718 0.216506 -0.618719
v 0.554014 0.125000 -0.554014
v 0.530330 0.000000 -0.530330
v 0.554014 -0.125000 -0.554014
v 0.618718 -0.216506 -0.618719
v 0.707107 -0.250000 -0.707107
v 0.795495 -0.216506 -0.795495
v 1.431954 -0.125000 -0.860200
v 1.332706 0.000000 -0.991691
v 1.312316 0.125000 -0.965119
v 0.684857 0.216506 -0.892522
v 0.608762 0.250000 -0.793353
v 0.532666 0.216506 -0.694184
v 0.476961 0.125000 -0.621587
v 0.456571 0.000000 -0.595015
v 0.476961 -0.125000 -0.621587
v 0.532666 -0.216506 -0.694184
v 0.608762 -0.250000 -0.793353
v 0.684857 -0.216506 -0.892522
v 1.312316 -0.125000 -0.965119
v 0.625000 0.000000 -1.082532
v 0.608253 0.125000 -1.053525
v 0.562500 0.216506 -0.974279
v 0.500000 0.250000 -0.866025
v 0.437500 0.216506 -0.757772
v 0.391747 0.125000 -0.678525
v 0.375000 0.000000 -0.649519
v 0.391747 -0.125000 -0.678525
v 0.437500 -0.216506 -0.757772
v 0.500000 -0.250000 -0.866025
v 0.562500 -0.216506 -0.974279
v 0.608253 -0.125000 -1.053525
v 0.478355 0.000000 -1.154849
v 0.465537 0.125000 -1.123905
v 0.430519 0.216506 -1.039364
v 0.382684 0.250000 -0.923879
v 0.334848 0.216506 -0.808394
v 0.299830 0.125000 -0.723854
v 0.287013 0.000000 -0.692910
v 0.299830 -0.125000 -0.723854
v 0.334848 -0.216506 -0.808394
v 0.382684 -0.250000 -0.923879
v 0.430519 -0.216506 -1.039364
v 0.465537 -0.125000 -1.123905
v 0.323524 0.000000 -1.207407
v 0.314855 0.125000 -1.175055
v 0.291171 0.216506 -1.086667
v 0.258819 0.250000 -0.965926
v 0.226467 0.216506 -0.845185
v 0.202783 0.125000 -0.756797
v 0.194114 0.000000 -0.724444
v 0.202783 -0.125000 -0.756797
v 0.226467 -0.216506 -0.845185
v 0.258819 -0.250000 -0.965926
v 0.291171 -0.216506 -1.086667
v 0.314855 -0.125000 -1.175055
v 0.163158 0.000000 -1.239306
v 0.158786 0.125000 -1.206099
v 0.146842 0.216506 -1.115376
v 0.130526 0.250000 -0.991445
v 0.114210 0.216506 -0.867514
v 0.102266 0.125000 -0.776791
v 0.097895 0.000000 -0.743584
v 0.102266 -0.125000 -0.776791
v 0.114210 -0.216506 -0.867514
v 0.130526 -0.250000 -0.991445
v 0.146842 -0.216506 -1.115376
v 0.158786 -0.125000 -1.206099
v 0.000000 0.000000 -1.250000
v 0.000000 0.125000 -1.216506
v 0.000000 0.216506 -1.125000
v 0.000000 0.250000 -1.000000
v 0.000000 0.216506 -0.875000
v 0.000000 0.125000 -0.783494
v 0.000000 0.000000 -0.750000
v 0.000000 -0.125000 -0.783494
v 0.000000 -0.216506 -0.875000
v 0.000000 -0.250000 -1.000000
v 0.000000 -0.216506 -1.125000
v 0.000000 -0.125000 -1.216506
v 0.307012 0.000000 -1.617320
v 0.311384 0.125000 -1.584113
v -0.146842 0.216506 -1.115375
v -0.130526 0.250000 -0.991445
v -0.114211 0.216506 -0.867514
v -0.102267 0.125000 -0.776791
v -0.097895 0.000000 -0.743584
v -0.102267 -0.125000 -0.776791
v -0.114211 -0.216506 -0.867514
v -0.130526 -0.250000 -0.991445
v -0.146842 -0.216506 -1.115375
v 0.311384 -0.125000 -1.584113
v 0.146647 0.000000 -1.585422
v 0.155316 0.125000 -1.553069
v -0.291171 0.216506 -1.086667
v -0.258819 0.250000 -0.965926
v -0.226467 0.216506 -0.845185
v -0.202783 0.125000 -0.756797
v -0.194114 0.000000 -0.724444
v -0.202783 -0.125000 -0.756797
v -0.226467 -0.216506 -0.845185
v -0.258819 -0.250000 -0.965926
v -0.291171 -0.216506 -1.086667
v 0.155316 -0.125000 -1.553069
v -0.478354 0.000000 -1.154849
v -0.465537 0.125000 -1.123905
v -0.430519 0.216506 -1.039364
v -0.382684 0.250000 -0.923880
v -0.334848 0.216506 -0.808395
v -0.299830 0.125000 -0.723854
v -0.287013 0.000000 -0.692910
v -0.299830 -0.125000 -0.723854
v -0.334848 -0.216506 -0.808395
v -0.382684 -0.250000 -0.923880
v -0.430519 -0.216506 -1.039364
v -0.465537 -0.125000 -1.123905
v -0.625000 0.000000 -1.082532
v -0.608253 0.125000 -1.053526
v -0.562500 0.216506 -0.974279
v -0.500000 0.250000 -0.866026
v -0.437500 0.216506 -0.757772
v -0.391747 0.125000 -0.678525
v -0.375000 0.000000 -0.649519
v -0.391747 -0.125000 -0.678525
v -0.437500 -0.216506 -0.757772
v -0.500000 -0.250000 -0.866026
v -0.562500 -0.216506 -0.974279
v -0.608253 -0.125000 -1.053526
v -0.760952 0.000000 -0.991692
v -0.740562 0.125000 -0.965119
v -0.684857 0.216506 -0.892522
v -0.608761 0.250000 -0.793353
v -0.532666 0.216506 -0.694184
v -0.476961 0.125000 -0.621587
v -0.456571 0.000000 -0.595015
v -0.476961 -0.125000 -0.621587
v -0.532666 -0.216506 -0.694184
v -0.608761 -0.250000 -0.793353
v -0.684857 -0.216506 -0.892522
v -0.740562 -0.125000 -0.965119
v -0.883884 0.000000 -0.883883
v -0.860200 0.125000 -0.860200
v -0.795495 0.216506 -0.795495
v -0.707107 0.250000 -0.707107
v -0.618719 0.216506 -0.618718
v -0.554014 0.125000 -0.554013
v -0.530330 0.000000 -0.530330
v -0.554014 -0.125000 -0.554013
v -0.618719 -0.216506 -0.618718
v -0.707107 -0.250000 -0.707107
v -0.795495 -0.216506 -0.795495
v -0.860200 -0.125000 -0.860200
v -0.991692 0.000000 -1.381552
v -0.965119 0.125000 -1.361162
v -0.892522 0.216506 -0.684857
v -0.793353 0.250000 -0.608761
v -0.694184 0.216506 -0.532666
v -0.621587 0.125000 -0.476961
v -0.595015 0.000000 -0.456571
v -0.621587 -0.125000 -0.476961
v -0.694184 -0.216506 -0.532666
v -0.793353 -0.250000 -0.608761
v -0.892522 -0.216506 -0.684857
v -0.965119 -0.125000 -1.361162
v -1.082532 0.000000 -1.245600
v -1.053525 0.125000 -1.228853
v -0.974278 0.216506 -0.562500
v -0.866025 0.250000 -0.500000
v -0.757772 0.216506 -0.437500
v -0.678525 0.125000 -0.391747
v -0.649519 0.000000 -0.375000
v -0.678525 -0.125000 -0.391747
v -0.757772 -0.216506 -0.437500
v -0.866025 -0.250000 -0.500000
v -0.974278 -0.216506 -0.562500
v -1.053525 -0.125000 -1.228853
v -1.154849 0.000000 -0.478354
v -1.123905 0.125000 -0.465537
v -1.039364 0.216506 -0.430519
v -0.923880 0.250000 -0.382683
v -0.808395 0.216506 -0.334848
v -0.723854 0.125000 -0.299830
v -0.692910 0.000000 -0.287013
v -0.723854 -0.125000 -0.299830
v -0.808395 -0.216506 -0.334848
v -0.923880 -0.250000 -0.382683
v -1.039364 -0.216506 -0.430519
v -1.123905 -0.125000 -0.465537
v -1.207407 0.000000 -0.323524
v -1.175055 0.125000 -0.314855
v -1.086667 0.216506 -0.291171
v -0.965926 0.250000 -0.258819
v -0.845185 0.216506 -0.226467
v -0.756797 0.125000 -0.202783
v -0.724444 0.000000 -0.194114
v -0.756797 -0.125000 -0.202783
v -0.845185 -0.216506 -0.226467
v -0.965926 -0.250000 -0.258819
v -1.086667 -0.216506 -0.291171
v -1.175055 -0.125000 -0.314855
v -1.239306 0.000000 -0.163158
v -1.206099 0.125000 -0.158786
v -1.115375 0.216506 -0.146842
v -0.991445 0.250000 -0.130526
v -0.867514 0.216506 -0.114211
v -0.776791 0.125000 -0.102267
v -0.743584 0.000000 -0.097895
v -0.776791 -0.125000 -0.102267
v -0.867514 -0.216506 -0.114211
v -0.991445 -0.250000 -0.130526
v -1.115375 -0.216506 -0.146842
v -1.206099 -0.125000 -0.158786
v -1.250000 0.000000 -0.000000
v -1.216506 0.125000 -0.000000
v -1.125000 0.216506 -0.000000
v -1.000000 0.250000 -0.000000
v -0.875000 0.216506 -0.000000
v -0.783494 0.125000 -0.000000
v -0.750000 0.000000 -0.000000
v -0.783494 -0.125000 -0.000000
v -0.875000 -0.216506 -0.000000
v -1.000000 -0.250000 -0.000000
v -1.125000 -0.216506 -0.000000
v -1.216506 -0.125000 -0.000000
v -1.624345 0.000000 -0.239038
v -1.591138 0.125000 -0.243410
v -1.115375 0.216506 0.146842
v -0.991445 0.250000 0.130526
v -0.867514 0.216506 0.114211
v -0.776791 0.125000 0.102267
v -0.743584 0.000000 0.097895
v -0.776791 -0.125000 0.102267
v -0.867514 -0.216506 0.114211
v -0.991445 -0.250000 0.130526
v -1.115375 -0.216506 0.146842
v -1.591138 -0.125000 -0.243410
v -1.592446 0.000000 -0.078673
v -1.560094 0.125000 -0.087341
v -1.086667 0.216506 0.291171
v -0.965926 0.250000 0.258819
v -0.845185 0.216506 0.226467
v -0.756797 0.125000 0.202783
v -0.724444 0.000000 0.194114
v -0.756797 -0.125000 0.202783
v -0.845185 -0.216506 0.226467
v -0.965926 -0.250000 0.258819
v -1.086667 -0.216506 0.291171
v -1.560094 -0.125000 -0.087341
v -1.154850 0.000000 0.478354
v -1.123906 0.125000 0.465536
v -1.039365 0.216506 0.430518
v -0.923880 0.250000 0.382683
v -0.808395 0.216506 0.334848
v -0.723854 0.125000 0.299830
v -0.692910 0.000000 0.287012
v -0.723854 -0.125000 0.299830
v -0.808395 -0.216506 0.334848
v -0.923880 -0.250000 0.382683
v -1.039365 -0.216506 0.430518
v -1.123906 -0.125000 0.465536
v -1.082532 0.000000 0.625000
v -1.053526 0.125000 0.608253
v -0.974279 0.216506 0.562500
v -0.866026 0.250000 0.500000
v -0.757772 0.216506 0.437500
v -0.678525 0.125000 0.391747
v -0.649519 0.000000 0.375000
v -0.678525 -0.125000 0.391747
v -0.757772 -0.216506 0.437500
v -0.866026 -0.250000 0.500000
v -0.974279 -0.216506 0.562500
v -1.053526 -0.125000 0.608253
v -0.991692 0.000000 0.760952
v -0.965119 0.125000 0.740562
v -0.892522 0.216506 0.684857
v -0.793353 0.250000 0.608761
v -0.694184 0.216506 0.532666
v -0.621587 0.125000 0.476961
v -0.595015 0.000000 0.456571
v -0.621587 -0.125000 0.476961
v -0.694184 -0.216506 0.532666
v -0.793353 -0.250000 0.608761
v -0.892522 -0.216506 0.684857
v -0.965119 -0.125000 0.740562
v -0.883884 0.000000 0.883883
v -0.860200 0.125000 0.860200
v -0.795495 0.216506 0.795495
v -0.707107 0.250000 0.707107
v -0.618719 0.216506 0.618718
v -0.554014 0.125000 0.554013
v -0.530330 0.000000 0.530330
v -0.554014 -0.125000 0.554013
v -0.618719 -0.216506 0.618718
v -0.707107 -0.250000 0.707107
v -0.795495 -0.216506 0.795495
v -0.860200 -0.125000 0.860200
v -1.320599 0.000000 0.991691
v -1.300209 0.125000 0.965119
v -0.684857 0.216506 0.892522
v -0.608762 0.250000 0.793353
v -0.532667 0.216506 0.694184
v -0.476961 0.125000 0.621587
v -0.456571 0.000000 0.595015
v -0.476961 -0.125000 0.621587
v -0.532667 -0.216506 0.694184
v -0.608762 -0.250000 0.793353
v -0.684857 -0.216506 0.892522
v -1.300209 -0.125000 0.965119
v -1.184646 0.000000 1.082532
v -1.167900 0.125000 1.053526
v -0.562500 0.216506 0.974279
v -0.500000 0.250000 0.866026
v -0.437500 0.216506 0.757772
v -0.391747 0.125000 0.678525
v -0.375000 0.000000 0.649519
v -0.391747 -0.125000 0.678525
v -0.437500 -0.216506 0.757772
v -0.500000 -0.250000 0.866026
v -0.562500 -0.216506 0.974279
v -1.167900 -0.125000 1.053526
v -0.478354 0.000000 1.154849
v -0.465537 0.125000 1.123905
v -0.430519 0.216506 1.039364
v -0.382684 0.250000 0.923880
v -0.334848 0.216506 0.808395
v -0.299830 0.125000 0.723854
v -0.287013 0.000000 0.692910
v -0.299830 -0.125000 0.723854
v -0.334848 -0.216506 0.808395
v -0.382684 -0.250000 0.923880
v -0.430519 -0.216506 1.039364
v -0.465537 -0.125000 1.123905
v -0.323524 0.000000 1.207407
v -0.314855 0.125000 1.175055
v -0.291172 0.216506 1.086666
v -0.258819 0.250000 0.965926
v -0.226467 0.216506 0.845185
v -0.202783 0.125000 0.756797
v -0.194115 0.000000 0.724444
v -0.202783 -0.125000 0.756797
v -0.226467 -0.216506 0.845185
v -0.258819 -0.250000 0.965926
v -0.291172 -0.216506 1.086666
v -0.314855 -0.125000 1.175055
v -0.163158 0.000000 1.239306
v -0.158787 0.125000 1.206099
v -0.146843 0.216506 1.115375
v -0.130527 0.250000 0.991445
v -0.114211 0.216506 0.867514
v -0.102267 0.125000 0.776791
v -0.097895 0.000000 0.743584
v -0.102267 -0.125000 0.776791
v -0.114211 -0.216506 0.867514
v -0.130527 -0.250000 0.991445
v -0.146843 -0.216506 1.115375
v -0.158787 -0.125000 1.206099
v 0.000000 0.000000 1.250000
v 0.000000 0.125000 1.216506
v 0.000000 0.216506 1.125000
v 0.000000 0.250000 1.000000
v 0.000000 0.216506 0.875000
v 0.000000 0.125000 0.783494
v 0.000000 0.000000 0.750000
v 0.000000 -0.125000 0.783494
v 0.000000 -0.216506 0.875000
v 0.000000 -0.250000 1.000000
v 0.000000 -0.216506 1.125000
v 0.000000 -0.125000 1.216506
v -0.344831 0.000000 1.643745
v -0.349203 0.125000 1.610538
v 0.146842 0.216506 1.115376
v 0.130526 0.250000 0.991445
v 0.114210 0.216506 0.867514
v 0.102266 0.125000 0.776791
v 0.097895 0.000000 0.743584
v 0.102266 -0.125000 0.776791
v 0.114210 -0.216506 0.867514
v 0.130526 -0.250000 0.991445
v 0.146842 -0.216506 1.115376
v -0.349203 -0.125000 1.610538
v -0.184466 0.000000 1.611846
v -0.193134 0.125000 1.579494
v 0.291171 0.216506 1.086667
v 0.258819 0.250000 0.965926
v 0.226466 0.216506 0.845185
v 0.202783 0.125000 0.756797
v 0.194114 0.000000 0.724444
v 0.202783 -0.125000 0.756797
v 0.226466 -0.216506 0.845185
v 0.258819 -0.250000 0.965926
v 0.291171 -0.216506 1.086667
v -0.193134 -0.125000 1.579494
v 0.478355 0.000000 1.154849
v 0.465537 0.125000 1.123905
v 0.430519 0.216506 1.039364
v 0.382684 0.250000 0.923879
v 0.334848 0.216506 0.808394
v 0.299830 0.125000 0.723854
v 0.287013 0.000000 0.692910
v 0.299830 -0.125000 0.723854
v 0.334848 -0.216506 0.808394
v 0.382684 -0.250000 0.923879
v 0.430519 -0.216506 1.039364
v 0.465537 -0.125000 1.123905
v 0.625000 0.000000 1.082532
v 0.608253 0.125000 1.053525
v 0.562500 0.216506 0.974279
v 0.500000 0.250000 0.866025
v 0.437500 0.216506 0.757772
v 0.391747 0.125000 0.678525
v 0.375000 0.000000 0.649519
v 0.391747 -0.125000 0.678525
v 0.437500 -0.216506 0.757772
v 0.500000 -0.250000 0.866025
v 0.562500 -0.216506 0.974279
v 0.608253 -0.125000 1.053525
v 0.760952 0.000000 0.991692
v 0.740562 0.125000 0.965120
v 0.684856 0.216506 0.892523
v 0.608761 0.250000 0.793353
v 0.532666 0.216506 0.694184
v 0.476961 0.125000 0.621587
v 0.456571 0.000000 0.595015
v 0.476961 -0.125000 0.621587
v 0.532666 -0.216506 0.694184
v 0.608761 -0.250000 0.793353
v 0.684856 -0.216506 0.892523
v 0.740562 -0.125000 0.965120
v 0.883883 0.000000 0.883884
v 0.860199 0.125000 0.860200
v 0.795495 0.216506 0.795496
v 0.707106 0.250000 0.707107
v 0.618718 0.216506 0.618719
v 0.554013 0.125000 0.554014
v 0.530330 0.000000 0.530330
v 0.554013 -0.125000 0.554014
v 0.618718 -0.216506 0.618719
v 0.707106 -0.250000 0.707107
v 0.795495 -0.216506 0.795496
v 0.860199 -0.125000 0.860200
v 1.021287 0.000000 1.364819
v 0.994715 0.125000 1.344429
v 0.892523 0.216506 0.684856
v 0.793353 0.250000 0.608761
v 0.694184 0.216506 0.532666
v 0.621587 0.125000 0.476961
v 0.595015 0.000000 0.456571
v 0.621587 -0.125000 0.476961
v 0.694184 -0.216506 0.532666
v 0.793353 -0.250000 0.608761
v 0.892523 -0.216506 0.684856
v 0.994715 -0.125000 1.344429
v 1.112127 0.000000 1.228867
v 1.083121 0.125000 1.212121
v 0.974279 0.216506 0.562500
v 0.866025 0.250000 0.500000
v 0.757772 0.216506 0.437500
v 0.678525 0.125000 0.391747
v 0.649519 0.000000 0.375000
v 0.678525 -0.125000 0.391747
v 0.757772 -0.216506 0.437500
v 0.866025 -0.250000 0.500000
v 0.974279 -0.216506 0.562500
v 1.083121 -0.125000 1.212121
v 1.154849 0.000000 0.478355
v 1.123905 0.125000 0.465537
v 1.039364 0.216506 0.430519
v 0.923879 0.250000 0.382684
v 0.808394 0.216506 0.334848
v 0.723854 0.125000 0.299830
v 0.692910 0.000000 0.287013
v 0.723854 -0.125000 0.299830
v 0.808394 -0.216506 0.334848
v 0.923879 -0.250000 0.382684
v 1.039364 -0.216506 0.430519
v 1.123905 -0.125000 0.465537
v 1.207407 0.000000 0.323523
v 1.175055 0.125000 0.314855
v 1.086667 0.216506 0.291171
v 0.965926 0.250000 0.258819
v 0.845185 0.216506 0.226466
v 0.756797 0.125000 0.202783
v 0.724444 0.000000 0.194114
v 0.756797 -0.125000 0.202783
v 0.845185 -0.216506 0.226466
v 0.965926 -0.250000 0.258819
v 1.086667 -0.216506 0.291171
v 1.175055 -0.125000 0.314855
v 1.239306 0.000000 0.163158
v 1.206099 0.125000 0.158786
v 1.115376 0.216506 0.146842
v 0.991445 0.250000 0.130526
v 0.867514 0.216506 0.114210
v 0.776791 0.125000 0.102266
v 0.743584 0.000000 0.097895
v 0.776791 -0.125000 0.102266
v 0.867514 -0.216506 0.114210
v 0.991445 -0.250000 0.130526
v 1.115376 -0.216506 0.146842
v 1.206099 -0.125000 0.158786
v -0.804882 0.000000 0.804882
v 0.804882 0.000000 0.804882
v -0.804882 0.000000 -0.804882
v 0.804882 0.000000 -0.804882
v -0.201387 0.000000 -0.201387
v -0.201387 0.000000 0.201387
v 0.201387 0.000000 0.201387
v 0.201387 0.000000 -0.201387
vn 0.9640 0.2583 -0.0632
vn 0.1589 0.9872 -0.0104
vn 0.2588 0.9658 -0.0170
vn -0.2588 0.9658 0.0170
vn -0.7063 0.7063 0.0463
vn -0.9640 0.2583 0.0632
vn -0.9640 -0.2583 0.0632
vn -0.7063 -0.7063 0.0463
vn -0.2588 -0.9658 0.0170
vn 0.2588 -0.9658 -0.0170
vn 0.1589 -0.9872 -0.0104
vn 0.9640 -0.2583 -0.0632
vn 0.7303 0.2167 -0.6479
vn 0.3769 0.8631 -0.3362
vn 0.2544 0.9658 -0.0506
vn -0.2544 0.9658 0.0506
vn -0.6943 0.7063 0.1381
vn -0.9475 0.2583 0.1885
vn -0.9475 -0.2583 0.1885
vn -0.6943 -0.7063 0.1381
vn -0.2544 -0.9658 0.0506
vn 0.2544 -0.9658 -0.0506
vn 0.3769 -0.8631 -0.3362
vn 0.7303 -0.2167 -0.6479
vn 0.9148 0.2583 -0.3105
vn 0.6703 0.7063 -0.2275
vn 0.2456 0.9658 -0.0834
vn -0.2456 0.9658 0.0834
vn -0.6703 0.7063 0.2275
vn -0.9148 0.2583 0.3105
vn -0.9148 -0.2583 0.3105
vn -0.6703 -0.7063 0.2275
vn -0.2456 -0.9658 0.0834
vn 0.2456 -0.9658 -0.0834
vn 0.6703 -0.7063 -0.2275
vn 0.9148 -0.2583 -0.3105
vn 0.8664 0.2583 -0.4273
vn 0.6349 0.7063 -0.3131
vn 0.2326 0.9658 -0.1147
vn -0.2326 0.9658 0.1147
vn -0.6349 0.7063 0.3131
vn -0.8664 0.2583 0.4273
vn -0.8664 -0.2583 0.4273
vn -0.6349 -0.7063 0.3131
vn -0.2326 -0.9658 0.1147
vn 0.2326 -0.9658 -0.1147
vn 0.6349 -0.7063 -0.3131
vn 0.8664 -0.2583 -0.4273
vn 0.8033 0.2583 -0.5367
vn 0.5886 0.7063 -0.3933
vn 0.2156 0.9658 -0.1441
vn -0.2156 0.9658 0.1441
vn -0.5886 0.7063 0.3933
vn -0.8033 0.2583 0.5367
vn -0.8033 -0.2583 0.5367
vn -0.5886 -0.7063 0.3933
vn -0.2156 -0.9658 0.1441
vn 0.2156 -0.9658 -0.1441
vn 0.5886 -0.7063 -0.3933
vn 0.8033 -0.2583 -0.5367
vn 0.2469 -0.1047 0.9634
vn 0.5322 0.7063 -0.4667
vn 0.1950 0.9658 -0.1710
vn -0.1950 0.9658 0.1710
vn -0.5322 0.7063 0.4667
vn -0.7263 0.2583 0.6370
vn -0.7263 -0.2583 0.6370
vn -0.5322 -0.7063 0.4667
vn -0.1950 -0.9658 0.1710
vn 0.1950 -0.9658 -0.1710
vn 0.5322 -0.7063 -0.4667
vn 0.2469 0.1047 0.9634
vn 0.6370 0.2583 -0.7263
vn 0.1264 0.9814 -0.1442
vn 0.1710 0.9658 -0.1950
vn -0.1710 0.9658 0.1950
vn -0.4667 0.7063 0.5322
vn -0.6370 0.2583 0.7263
vn -0.6370 -0.2583 0.7263
vn -0.4667 -0.7063 0.5322
vn -0.1710 -0.9658 0.1950
vn 0.1710 -0.9658 -0.1950
vn 0.1264 -0.9814 -0.1442
vn 0.6370 -0.2583 -0.7263
vn 0.1240 0.2256 -0.9663
vn 0.0648 0.8540 -0.5162
vn 0.1441 0.9658 -0.2156
vn -0.1441 0.9658 0.2156
vn -0.3933 0.7063 0.5886
vn -0.5367 0.2583 0.8033
vn -0.5367 -0.2583 0.8033
vn -0.3933 -0.7063 0.5886
vn -0.1441 -0.9658 0.2156
vn 0.1441 -0.9658 -0.2156
vn 0.0648 -0.8540 -0.5162
vn 0.1240 -0.2256 -0.9663
vn 0.4273 0.2583 -0.8664
vn 0.3131 0.7063 -0.6349
vn 0.1147 0.9658 -0.2326
vn -0.1147 0.9658 0.2326
vn -0.3131 0.7063 0.6349
vn -0.4273 0.2583 0.8664
vn -0.4273 -0.2583 0.8664
vn -0.3131 -0.7063 0.6349
vn -0.1147 -0.9658 0.2326
vn 0.1147 -0.9658 -0.2326
vn 0.3131 -0.7063 -0.6349
vn 0.4273 -0.2583 -0.8664
vn 0.3105 0.2583 -0.9148
vn 0.2275 0.7063 -0.6703
vn 0.0834 0.9658 -0.2456
vn -0.0834 0.9658 0.2456
vn -0.2275 0.7063 0.6703
vn -0.3105 0.2583 0.9148
vn -0.3105 -0.2583 0.9148
vn -0.2275 -0.7063 0.6703
vn -0.0834 -0.9658 0.2456
vn 0.0834 -0.9658 -0.2456
vn 0.2275 -0.7063 -0.6703
vn 0.3105 -0.2583 -0.9148
vn 0.1885 0.2583 -0.9475
vn 0.1381 0.7063 -0.6943
vn 0.0506 0.9658 -0.2544
vn -0.0506 0.9658 0.2544
vn -0.1381 0.7063 0.6943
vn -0.1885 0.2583 0.9475
vn -0.1885 -0.2583 0.9475
vn -0.1381 -0.7063 0.6943
vn -0.0506 -0.9658 0.2544
vn 0.0506 -0.9658 -0.2544
vn 0.1381 -0.7063 -0.6943
vn 0.1885 -0.2583 -0.9475
vn 0.0632 0.2583 -0.9640
vn 0.0463 0.7063 -0.7063
vn 0.0170 0.9658 -0.2588
vn -0.0170 0.9658 0.2588
vn -0.0463 0.7063 0.7063
vn -0.0632 0.2583 0.9640
vn -0.0632 -0.2583 0.9640
vn -0.0463 -0.7063 0.7063
vn -0.0170 -0.9658 0.2588
vn 0.0170 -0.9658 -0.2588
vn 0.0463 -0.7063 -0.7063
vn 0.0632 -0.2583 -0.9640
vn 0.7519 -0.1706 0.6369
vn -0.0463 0.7063 -0.7063
vn -0.0170 0.9658 -0.2588
vn 0.0170 0.9658 0.2588
vn 0.0463 0.7063 0.7063
vn 0.0632 0.2583 0.9640
vn 0.0632 -0.2583 0.9640
vn 0.0463 -0.7063 0.7063
vn 0.0170 -0.9658 0.2588
vn -0.0170 -0.9658 -0.2588
vn 0.6408 0.5428 0.5428
vn 0.7519 0.1706 0.6369
vn -0.1885 0.2583 -0.9475
vn -0.0468 0.9708 -0.2353
vn -0.0506 0.9658 -0.2544
vn 0.0506 0.9658 0.2544
vn 0.1381 0.7063 0.6943
vn 0.1885 0.2583 0.9475
vn 0.1885 -0.2583 0.9475
vn 0.1381 -0.7063 0.6943
vn 0.0506 -0.9658 0.2544
vn -0.0506 -0.9658 -0.2544
vn -0.0468 -0.9708 -0.2353
vn -0.1885 -0.2583 -0.9475
vn -0.5501 0.2448 -0.7984
vn -0.3277 0.8173 -0.4740
vn -0.0834 0.9658 -0.2456
vn 0.0834 0.9658 0.2456
vn 0.2275 0.7063 0.6703
vn 0.3105 0.2583 0.9148
vn 0.3105 -0.2583 0.9148
vn 0.2275 -0.7063 0.6703
vn 0.0834 -0.9658 0.2456
vn -0.0834 -0.9658 -0.2456
vn -0.3277 -0.8173 -0.4740
vn -0.5501 -0.2448 -0.7984
vn -0.4273 0.2583 -0.8664
vn -0.3131 0.7063 -0.6349
vn -0.1147 0.9658 -0.2326
vn 0.1147 0.9658 0.2326
vn 0.3131 0.7063 0.6349
vn 0.4273 0.2583 0.8664
vn 0.4273 -0.2583 0.8664
vn 0.3131 -0.7063 0.6349
vn 0.1147 -0.9658 0.2326
vn -0.1147 -0.9658 -0.2326
vn -0.3131 -0.7063 -0.6349
vn -0.4273 -0.2583 -0.8664
vn -0.5367 0.2583 -0.8033
vn -0.3933 0.7063 -0.5886
vn -0.1441 0.9658 -0.2156
vn 0.1441 0.9658 0.2156
vn 0.3933 0.7063 0.5886
vn 0.5367 0.2583 0.8033
vn 0.5367 -0.2583 0.8033
vn 0.3933 -0.7063 0.5886
vn 0.1441 -0.9658 0.2156
vn -0.1441 -0.9658 -0.2156
vn -0.3933 -0.7063 -0.5886
vn -0.5367 -0.2583 -0.8033
vn -0.6370 0.2583 -0.7263
vn -0.4667 0.7063 -0.5322
vn -0.1710 0.9658 -0.1950
vn 0.1710 0.9658 0.1950
vn 0.4667 0.7063 0.5322
vn 0.6370 0.2583 0.7263
vn 0.6370 -0.2583 0.7263
vn 0.4667 -0.7063 0.5322
vn 0.1710 -0.9658 0.1950
vn -0.1710 -0.9658 -0.1950
vn -0.4667 -0.7063 -0.5322
vn -0.6370 -0.2583 -0.7263
vn 0.9684 -0.1451 -0.2028
vn -0.5322 0.7063 -0.4667
vn -0.1950 0.9658 -0.1710
vn 0.1950 0.9658 0.1710
vn 0.5322 0.7063 0.4667
vn 0.7263 0.2583 0.6370
vn 0.7263 -0.2583 0.6370
vn 0.5322 -0.7063 0.4667
vn 0.1950 -0.9658 0.1710
vn -0.1950 -0.9658 -0.1710
vn -0.5322 -0.7063 -0.4667
vn 0.9684 0.1451 -0.2028
vn -0.8033 0.2583 -0.5367
vn -0.1707 0.9787 -0.1141
vn -0.2156 0.9658 -0.1441
vn 0.2156 0.9658 0.1441
vn 0.5886 0.7063 0.3933
vn 0.8033 0.2583 0.5367
vn 0.8033 -0.2583 0.5367
vn 0.5886 -0.7063 0.3933
vn 0.2156 -0.9658 0.1441
vn -0.2156 -0.9658 -0.1441
vn -0.1707 -0.9787 -0.1141
vn -0.8033 -0.2583 -0.5367
vn -0.9673 0.2367 -0.0912
vn -0.5446 0.8372 -0.0502
vn -0.2326 0.9658 -0.1147
vn 0.2326 0.9658 0.1147
vn 0.6349 0.7063 0.3131
vn 0.8664 0.2583 0.4273
vn 0.8664 -0.2583 0.4273
vn 0.6349 -0.7063 0.3131
vn 0.2326 -0.9658 0.1147
vn -0.2326 -0.9658 -0.1147
vn -0.5446 -0.8372 -0.0502
vn -0.9673 -0.2367 -0.0912
vn -0.9148 0.2583 -0.3105
vn -0.6703 0.7063 -0.2275
vn -0.2456 0.9658 -0.0834
vn 0.2456 0.9658 0.0834
vn 0.6703 0.7063 0.2275
vn 0.9148 0.2583 0.3105
vn 0.9148 -0.2583 0.3105
vn 0.6703 -0.7063 0.2275
vn 0.2456 -0.9658 0.0834
vn -0.2456 -0.9658 -0.0834
vn -0.6703 -0.7063 -0.2275
vn -0.9148 -0.2583 -0.3105
vn -0.9475 0.2583 -0.1885
vn -0.6943 0.7063 -0.1381
vn -0.2544 0.9658 -0.0506
vn 0.2544 0.9658 0.0506
vn 0.6943 0.7063 0.1381
vn 0.9475 0.2583 0.1885
vn 0.9475 -0.2583 0.1885
vn 0.6943 -0.7063 0.1381
vn 0.2544 -0.9658 0.0506
vn -0.2544 -0.9658 -0.0506
vn -0.6943 -0.7063 -0.1381
vn -0.9475 -0.2583 -0.1885
vn -0.9640 0.2583 -0.0632
vn -0.7063 0.7063 -0.0463
vn -0.2588 0.9658 -0.0170
vn 0.2588 0.9658 0.0170
vn 0.7063 0.7063 0.0463
vn 0.9640 0.2583 0.0632
vn 0.9640 -0.2583 0.0632
vn 0.7063 -0.7063 0.0463
vn 0.2588 -0.9658 0.0170
vn -0.2588 -0.9658 -0.0170
vn -0.7063 -0.7063 -0.0463
vn -0.9640 -0.2583 -0.0632
vn 0.5391 -0.1445 -0.8298
vn 0.7063 0.7063 -0.0463
vn 0.7063 -0.7063 -0.0463
vn 0.5391 0.1445 -0.8298
vn -0.2238 0.9736 0.0445
vn 0.6943 0.7063 -0.1381
vn 0.9475 0.2583 -0.1885
vn 0.9475 -0.2583 -0.1885
vn 0.6943 -0.7063 -0.1381
vn -0.2238 -0.9736 0.0445
vn -0.7635 0.2392 0.5998
vn -0.4355 0.8320 0.3436
vn -0.4355 -0.8320 0.3436
vn -0.7635 -0.2392 0.5998
vn 0.7263 0.2583 -0.6370
vn 0.7263 -0.2583 -0.6370
vn -0.2297 -0.1390 -0.9633
vn 0.4667 0.7063 -0.5322
vn 0.4667 -0.7063 -0.5322
vn -0.2297 0.1390 -0.9633
vn -0.1232 0.9751 0.1844
vn 0.3933 0.7063 -0.5886
vn 0.5367 0.2583 -0.8033
vn 0.5367 -0.2583 -0.8033
vn 0.3933 -0.7063 -0.5886
vn -0.1232 -0.9751 0.1844
vn -0.0989 0.2375 0.9663
vn -0.0548 0.8356 0.5465
vn -0.0548 -0.8356 0.5465
vn -0.0989 -0.2375 0.9663
vn -0.7368 -0.1750 -0.6530
vn -0.0632 0.2583 -0.9640
vn -0.0632 -0.2583 -0.9640
vn -0.0463 -0.7063 -0.7063
vn -0.6237 0.5527 -0.5527
vn -0.7368 0.1750 -0.6530
vn 0.0447 0.9734 0.2247
vn -0.1381 0.7063 -0.6943
vn -0.1381 -0.7063 -0.6943
vn 0.0447 -0.9734 0.2247
vn 0.5504 0.2448 0.7982
vn 0.3277 0.8173 0.4738
vn -0.2275 0.7063 -0.6703
vn -0.3105 0.2583 -0.9148
vn -0.3105 -0.2583 -0.9148
vn -0.2275 -0.7063 -0.6703
vn 0.3277 -0.8173 0.4738
vn 0.5504 -0.2448 0.7982
vn -0.9552 -0.1307 0.2654
vn -0.7263 0.2583 -0.6370
vn -0.7263 -0.2583 -0.6370
vn -0.9552 0.1307 0.2654
vn 0.1652 0.9801 0.1104
vn -0.5886 0.7063 -0.3933
vn -0.5886 -0.7063 -0.3933
vn 0.1652 -0.9801 0.1104
vn 0.9710 0.2327 0.0553
vn 0.5352 0.8442 0.0292
vn -0.6349 0.7063 -0.3131
vn -0.8664 0.2583 -0.4273
vn -0.8664 -0.2583 -0.4273
vn -0.6349 -0.7063 -0.3131
vn 0.5352 -0.8442 0.0292
vn 0.9710 -0.2327 0.0553
vn -0.4840 -0.0982 0.8696
vn -0.4840 0.0982 0.8696
vn -0.0000 1.0000 -0.0000
vn 0.7258 0.2327 -0.6474
vn 0.7258 -0.2327 -0.6474
vn 0.2538 -0.1334 0.9580
vn 0.1719 0.7214 0.6708
vn 0.1719 -0.7214 0.6708
vn 0.2538 0.1334 0.9580
vn 0.1210 0.2397 -0.9633
vn 0.1210 -0.2397 -0.9633
vn 0.7528 -0.1935 0.6292
vn 0.6797 0.4544 0.5758
vn -0.0134 -0.9788 -0.2042
vn 0.7528 0.1935 0.6292
vn -0.5501 0.2534 -0.7958
vn -0.5501 -0.2534 -0.7958
vn 0.9630 -0.1707 -0.2086
vn 0.7873 0.5941 -0.1649
vn 0.7873 -0.5941 -0.1649
vn 0.9630 0.1707 -0.2086
vn -0.9647 0.2479 -0.0889
vn -0.9647 -0.2479 -0.0889
vn 0.5304 -0.1699 -0.8306
vn 0.4372 0.5967 -0.6729
vn 0.4372 -0.5967 -0.6729
vn 0.5304 0.1699 -0.8306
vn -0.7602 0.2497 0.5998
vn -0.7602 -0.2497 0.5998
vn -0.2364 -0.1650 -0.9575
vn -0.1822 0.6190 -0.7640
vn -0.1822 -0.6190 -0.7640
vn -0.2364 0.1650 -0.9575
vn -0.0966 0.2485 0.9638
vn -0.0966 -0.2485 0.9638
vn -0.7375 -0.1974 -0.6459
vn -0.6778 0.4238 -0.6007
vn 0.0127 -0.9809 0.1940
vn -0.7375 0.1974 -0.6459
vn 0.5503 0.2534 0.7956
vn 0.5503 -0.2534 0.7956
vn -0.9495 -0.1576 0.2713
vn -0.7330 0.6491 0.2036
vn -0.7330 -0.6491 0.2036
vn -0.9495 0.1576 0.2713
vn 0.9681 0.2451 0.0529
vn 0.9681 -0.2451 0.0529
vn -0.4765 -0.1277 0.8699
vn -0.3295 0.7354 0.5921
vn -0.3295 -0.7354 0.5921
vn -0.4765 0.1277 0.8699
vt 0.096262 0.516945
vt 0.431219 0.717023
vt 0.075438 0.518661
vt 0.451858 0.721903
vt 0.378160 0.513547
vt 0.286975 0.431114
vt 0.283010 0.410881
vt 0.278975 0.390709
vt 0.348668 0.601719
vt 0.366834 0.603208
vt 0.388138 0.603907
vt 0.406872 0.603628
vt 0.775951 0.140906
vt 0.778824 0.126428
vt 0.782804 0.106342
vt 0.786825 0.086031
vt 0.116556 0.517704
vt 0.878162 0.003401
vt 0.410674 0.721921
vt 0.097114 0.543531
vt 0.352164 0.516945
vt 0.076268 0.544534
vt 0.262935 0.434257
vt 0.261641 0.413674
vt 0.260277 0.393153
vt 0.349532 0.583086
vt 0.367607 0.586524
vt 0.388878 0.587936
vt 0.759208 0.138716
vt 0.407645 0.586944
vt 0.760126 0.123982
vt 0.761435 0.103547
vt 0.762784 0.082886
vt 0.852166 0.000000
vt 0.117386 0.543577
vt 0.096346 0.660811
vt 0.075482 0.661093
vt 0.237594 0.449363
vt 0.238690 0.434235
vt 0.059597 0.660906
vt 0.240089 0.413655
vt 0.241419 0.393136
vt 0.350956 0.564990
vt 0.368882 0.570320
vt 0.390099 0.572425
vt 0.742322 0.138729
vt 0.408920 0.570740
vt 0.741268 0.123997
vt 0.739883 0.103564
vt 0.738538 0.082905
vt 0.737594 0.067557
vt 0.116600 0.660136
vt 0.096820 0.687606
vt 0.075943 0.687170
vt 0.060024 0.685022
vt 0.214654 0.431049
vt 0.218725 0.410823
vt 0.222725 0.390658
vt 0.352915 0.547741
vt 0.370636 0.554875
vt 0.447710 0.520589
vt 0.391778 0.557640
vt 0.410674 0.555295
vt 0.725583 0.140946
vt 0.427062 0.516945
vt 0.722574 0.126472
vt 0.718518 0.106393
vt 0.714503 0.086088
vt 0.117061 0.686213
vt 0.711604 0.070999
vt 0.097091 0.713817
vt 0.076206 0.712679
vt 0.186286 0.439109
vt 0.060267 0.708612
vt 0.191241 0.424753
vt 0.197913 0.405226
vt 0.204515 0.385761
vt 0.355376 0.531634
vt 0.468002 0.530797
vt 0.372840 0.540453
vt 0.393887 0.543835
vt 0.447476 0.533646
vt 0.709277 0.145328
vt 0.426818 0.530586
vt 0.704363 0.131367
vt 0.697706 0.111986
vt 0.691089 0.092381
vt 0.686285 0.077803
vt 0.117324 0.711721
vt 0.097154 0.738995
vt 0.255273 0.787779
vt 0.275914 0.790424
vt 0.076268 0.737182
vt 0.162073 0.429054
vt 0.168849 0.415454
vt 0.178009 0.396960
vt 0.358296 0.516945
vt 0.187099 0.378529
vt 0.375455 0.527300
vt 0.467784 0.545620
vt 0.193683 0.365097
vt 0.447268 0.547835
vt 0.426601 0.545408
vt 0.693682 0.151801
vt 0.686947 0.138595
vt 0.677802 0.120248
vt 0.668697 0.101675
vt 0.234735 0.789776
vt 0.117386 0.736225
vt 0.662072 0.087853
vt 0.255258 0.729448
vt 0.521828 0.803709
vt 0.275914 0.731420
vt 0.157677 0.508333
vt 0.524762 0.782890
vt 0.147863 0.403312
vt 0.159354 0.386168
vt 0.170776 0.369085
vt 0.179067 0.356642
vt 0.467597 0.561371
vt 0.447089 0.562913
vt 0.679066 0.160254
vt 0.426414 0.561160
vt 0.411111 0.556582
vt 0.670624 0.148035
vt 0.659147 0.131037
vt 0.647710 0.113812
vt 0.524762 0.824019
vt 0.657676 0.008590
vt 0.234735 0.730772
vt 0.326574 0.725245
vt 0.499997 0.802849
vt 0.503515 0.782052
vt 0.136891 0.492354
vt 0.346886 0.720653
vt 0.128640 0.388535
vt 0.142268 0.373033
vt 0.155825 0.357592
vt 0.165680 0.346350
vt 0.467443 0.577782
vt 0.446942 0.578622
vt 0.426260 0.577570
vt 0.655673 0.159525
vt 0.410939 0.574909
vt 0.642060 0.144167
vt 0.628488 0.128584
vt 0.636890 0.024563
vt 0.503515 0.823181
vt 0.305758 0.721309
vt 0.326975 0.615078
vt 0.347268 0.610981
vt 0.100072 0.381390
vt 0.111511 0.371376
vt 0.127042 0.357780
vt 0.142503 0.344246
vt 0.467326 0.594571
vt 0.153750 0.334400
vt 0.446829 0.594694
vt 0.426142 0.594360
vt 0.410808 0.593659
vt 0.642350 0.172867
vt 0.626834 0.159416
vt 0.611358 0.145739
vt 0.306139 0.611636
vt 0.600070 0.135501
vt 0.327541 0.594247
vt 0.084130 0.360576
vt 0.347818 0.590708
vt 0.096768 0.352127
vt 0.113937 0.340670
vt 0.131036 0.329274
vt 0.143483 0.320994
vt 0.467246 0.611452
vt 0.446753 0.610852
vt 0.426063 0.611240
vt 0.630883 0.187834
vt 0.410719 0.612512
vt 0.613729 0.176521
vt 0.596615 0.164982
vt 0.306690 0.591363
vt 0.584127 0.156309
vt 0.327923 0.571365
vt 0.071041 0.337860
vt 0.348190 0.568439
vt 0.084664 0.331119
vt 0.103178 0.321996
vt 0.121621 0.312935
vt 0.467206 0.628135
vt 0.135053 0.306363
vt 0.446714 0.626822
vt 0.635051 0.210517
vt 0.426022 0.627923
vt 0.410674 0.631143
vt 0.621469 0.204169
vt 0.602970 0.195190
vt 0.584511 0.185985
vt 0.307062 0.569094
vt 0.571038 0.179020
vt 0.328116 0.546823
vt 0.061029 0.313629
vt 0.348378 0.544555
vt 0.075405 0.308711
vt 0.094948 0.302078
vt 0.114420 0.295506
vt 0.128605 0.290757
vt 0.467206 0.644335
vt 0.446714 0.642330
vt 0.628603 0.226120
vt 0.426022 0.644123
vt 0.614267 0.221594
vt 0.594739 0.215103
vt 0.291370 0.540148
vt 0.575252 0.208387
vt 0.561026 0.203246
vt 0.307250 0.545210
vt 0.328116 0.521043
vt 0.080431 0.786835
vt 0.100618 0.793697
vt 0.348378 0.519465
vt 0.054265 0.288298
vt 0.069150 0.285286
vt 0.089388 0.281256
vt 0.109555 0.277287
vt 0.467246 0.659775
vt 0.124249 0.274443
vt 0.446753 0.657109
vt 0.426063 0.659563
vt 0.624247 0.242430
vt 0.609402 0.239809
vt 0.589179 0.235921
vt 0.291370 0.516945
vt 0.568997 0.231807
vt 0.554263 0.228570
vt 0.059597 0.790713
vt 0.307250 0.520121
vt 0.080478 0.738995
vt 0.213902 0.735528
vt 0.234187 0.735374
vt 0.100618 0.745969
vt 0.004818 0.350387
vt 0.066007 0.261245
vt 0.086594 0.259886
vt 0.107110 0.258588
vt 0.467326 0.674190
vt 0.122059 0.257700
vt 0.446829 0.670909
vt 0.622058 0.259170
vt 0.426142 0.673978
vt 0.606957 0.258504
vt 0.586385 0.257286
vt 0.565853 0.255843
vt 0.193061 0.734586
vt 0.504814 0.166488
vt 0.059597 0.742985
vt 0.214465 0.708609
vt 0.004840 0.324170
vt 0.234735 0.709177
vt 0.066028 0.237000
vt 0.086612 0.238334
vt 0.107127 0.239731
vt 0.467443 0.687334
vt 0.122074 0.240815
vt 0.446942 0.683491
vt 0.622072 0.276052
vt 0.426260 0.687123
vt 0.606974 0.277358
vt 0.586404 0.278833
vt 0.565874 0.280084
vt 0.504837 0.192700
vt 0.193609 0.708388
vt 0.214298 0.592176
vt 0.234558 0.593462
vt 0.054333 0.210095
vt 0.069213 0.212965
vt 0.089444 0.216970
vt 0.109604 0.221037
vt 0.467597 0.698983
vt 0.124292 0.224076
vt 0.447089 0.694641
vt 0.624291 0.292788
vt 0.426414 0.698771
vt 0.609451 0.296048
vt 0.589235 0.300194
vt 0.177551 0.594821
vt 0.569060 0.304114
vt 0.554331 0.306759
vt 0.193432 0.592674
vt 0.214480 0.565937
vt 0.061141 0.184777
vt 0.234735 0.567926
vt 0.075509 0.189551
vt 0.095040 0.196158
vt 0.114501 0.202826
vt 0.128677 0.207770
vt 0.467784 0.708936
vt 0.447268 0.704169
vt 0.426601 0.708724
vt 0.628675 0.309091
vt 0.614348 0.314256
vt 0.594831 0.321003
vt 0.575355 0.327524
vt 0.177714 0.571206
vt 0.193609 0.567138
vt 0.214465 0.540716
vt 0.071195 0.160564
vt 0.234720 0.543381
vt 0.084806 0.167160
vt 0.103304 0.176254
vt 0.121732 0.185411
vt 0.136423 0.728899
vt 0.468002 0.717023
vt 0.135152 0.192176
vt 0.447476 0.711911
vt 0.157156 0.724064
vt 0.426818 0.716812
vt 0.177551 0.729260
vt 0.635151 0.324683
vt 0.621579 0.331669
vt 0.603096 0.340903
vt 0.177701 0.548508
vt 0.584653 0.349912
vt 0.193595 0.542593
vt 0.571192 0.356282
vt 0.214254 0.516945
vt 0.472258 0.721718
vt 0.451858 0.717023
vt 0.234515 0.520247
vt 0.084323 0.137871
vt 0.096947 0.146174
vt 0.114096 0.157600
vt 0.131175 0.169088
vt 0.135683 0.720870
vt 0.143608 0.177560
vt 0.156448 0.716378
vt 0.176811 0.721230
vt 0.643606 0.339297
vt 0.631023 0.347989
vt 0.613888 0.359555
vt 0.596794 0.370896
vt 0.492987 0.717065
vt 0.193389 0.519459
vt 0.584321 0.378972
vt 0.472227 0.805611
vt 0.038043 0.516945
vt 0.016895 0.519640
vt 0.451858 0.801339
vt 0.000000 0.136943
vt 0.111724 0.126952
vt 0.127231 0.140514
vt 0.142668 0.154138
vt 0.135024 0.710971
vt 0.153898 0.164173
vt 0.155817 0.706902
vt 0.653897 0.352682
vt 0.176151 0.711331
vt 0.642515 0.362938
vt 0.627023 0.376639
vt 0.611571 0.390115
vt 0.056932 0.520161
vt 0.499997 0.379891
vt 0.492987 0.801380
vt 0.040782 0.540589
vt 0.018555 0.118421
vt 0.019561 0.542650
vt 0.128882 0.109823
vt 0.142483 0.125289
vt 0.156014 0.140816
vt 0.134456 0.699371
vt 0.165848 0.152244
vt 0.155273 0.695798
vt 0.175584 0.699731
vt 0.665847 0.364610
vt 0.655861 0.376259
vt 0.642275 0.391863
vt 0.628730 0.407243
vt 0.518551 0.398411
vt 0.059597 0.543171
vt 0.039361 0.667550
vt 0.018086 0.668938
vt 0.139669 0.082622
vt 0.148130 0.095081
vt 0.000000 0.673251
vt 0.159592 0.112184
vt 0.170984 0.129350
vt 0.133990 0.686268
vt 0.179253 0.141977
vt 0.154827 0.683255
vt 0.679253 0.374877
vt 0.175118 0.686629
vt 0.670832 0.387725
vt 0.659385 0.404967
vt 0.647978 0.421984
vt 0.058123 0.669459
vt 0.639668 0.434216
vt 0.040529 0.693729
vt 0.019224 0.694415
vt 0.169138 0.082977
vt 0.001052 0.696812
vt 0.178266 0.101426
vt 0.187323 0.119936
vt 0.133633 0.671888
vt 0.193884 0.133548
vt 0.154486 0.669490
vt 0.174761 0.672249
vt 0.693883 0.383306
vt 0.687172 0.397139
vt 0.678059 0.415726
vt 0.668986 0.434088
vt 0.662385 0.447304
vt 0.059260 0.694936
vt 0.040876 0.720512
vt 0.019561 0.720481
vt 0.191546 0.073719
vt 0.001363 0.720917
vt 0.198184 0.093196
vt 0.117522 0.661588
vt 0.204752 0.112735
vt 0.209490 0.127100
vt 0.133392 0.656476
vt 0.154254 0.654736
vt 0.174519 0.656836
vt 0.709489 0.389754
vt 0.704600 0.404340
vt 0.697977 0.423956
vt 0.691394 0.443347
vt 0.059597 0.721002
vt 0.686615 0.457316
vt 0.040394 0.747442
vt 0.198314 0.788301
vt 0.218622 0.788460
vt 0.019092 0.746689
vt 0.211946 0.052760
vt 0.000930 0.745154
vt 0.214970 0.067465
vt 0.219006 0.087637
vt 0.117386 0.643518
vt 0.222971 0.107871
vt 0.133270 0.640295
vt 0.154138 0.639247
vt 0.174398 0.640656
vt 0.725803 0.394111
vt 0.722819 0.409205
vt 0.718799 0.429516
vt 0.714819 0.449602
vt 0.177551 0.790631
vt 0.059128 0.747210
vt 0.711945 0.464080
vt 0.198358 0.736080
vt 0.493873 0.684610
vt 0.495062 0.663326
vt 0.218622 0.735528
vt 0.160617 0.000000
vt 0.239011 0.064322
vt 0.240375 0.084843
vt 0.241669 0.105426
vt 0.117386 0.624898
vt 0.133270 0.623623
vt 0.154138 0.623288
vt 0.742546 0.396301
vt 0.174398 0.623983
vt 0.741518 0.411651
vt 0.740169 0.432312
vt 0.738860 0.452747
vt 0.495062 0.703366
vt 0.660616 0.516825
vt 0.177551 0.737699
vt 0.786015 0.865996
vt 0.468002 0.682847
vt 0.469884 0.661610
vt 0.186834 0.000024
vt 0.806505 0.861757
vt 0.263256 0.064344
vt 0.261926 0.084863
vt 0.117522 0.606049
vt 0.260526 0.105443
vt 0.133392 0.606744
vt 0.154254 0.607131
vt 0.174519 0.607105
vt 0.759432 0.396288
vt 0.760376 0.411636
vt 0.761720 0.432295
vt 0.763105 0.452728
vt 0.686833 0.516804
vt 0.469884 0.701650
vt 0.765323 0.862118
vt 0.000498 0.791821
vt 0.785917 0.759548
vt 0.806403 0.755831
vt 0.290149 0.052831
vt 0.021800 0.790906
vt 0.287291 0.067531
vt 0.040485 0.794883
vt 0.283291 0.087695
vt 0.117791 0.587291
vt 0.279220 0.107922
vt 0.133633 0.589949
vt 0.154486 0.591053
vt 0.776171 0.394071
vt 0.174761 0.590309
vt 0.779070 0.409160
vt 0.783085 0.429465
vt 0.787141 0.449545
vt 0.790150 0.464018
vt 0.765221 0.756192
vt 0.000000 0.768550
vt 0.786004 0.737783
vt 0.021315 0.768258
vt 0.806487 0.734649
vt 0.310705 0.073827
vt 0.040037 0.773939
vt 0.304103 0.093292
vt 0.297431 0.112819
vt 0.118190 0.568947
vt 0.133990 0.573523
vt 0.292477 0.127175
vt 0.154827 0.575329
vt 0.175118 0.573883
vt 0.792477 0.389689
vt 0.797281 0.404266
vt 0.803898 0.423872
vt 0.810555 0.443252
vt 0.815468 0.457214
vt 0.765305 0.735010
vt 0.786022 0.714132
vt 0.021800 0.747442
vt 0.806505 0.711632
vt 0.339680 0.069694
vt 0.040485 0.754688
vt 0.333097 0.083126
vt 0.324007 0.101557
vt 0.314847 0.120051
vt 0.134456 0.557748
vt 0.308071 0.133651
vt 0.155273 0.560229
vt 0.808072 0.383216
vt 0.175584 0.558108
vt 0.814697 0.397037
vt 0.823802 0.415610
vt 0.832947 0.433958
vt 0.765323 0.711993
vt 0.839682 0.447163
vt 0.785971 0.689000
vt 0.137801 0.803367
vt 0.158519 0.808060
vt 0.806455 0.687173
vt 0.362374 0.082824
vt 0.354083 0.095267
vt 0.342661 0.112350
vt 0.331170 0.129494
vt 0.135024 0.542894
vt 0.322687 0.142107
vt 0.155817 0.546010
vt 0.822688 0.374763
vt 0.176151 0.543255
vt 0.831020 0.387597
vt 0.842456 0.404822
vt 0.853933 0.421821
vt 0.117386 0.808050
vt 0.765273 0.687535
vt 0.862376 0.434039
vt 0.137770 0.729260
vt 0.270662 0.729448
vt 0.158519 0.733532
vt 0.365250 0.008351
vt 0.291164 0.728626
vt 0.373305 0.110044
vt 0.359748 0.125485
vt 0.346120 0.140988
vt 0.336074 0.152398
vt 0.135683 0.529215
vt 0.156448 0.532916
vt 0.836075 0.364475
vt 0.176811 0.529576
vt 0.845971 0.376108
vt 0.859543 0.391691
vt 0.873156 0.407049
vt 0.249981 0.728378
vt 0.865251 0.508497
vt 0.117386 0.733521
vt 0.270874 0.702662
vt 0.383772 0.026907
vt 0.291370 0.702558
vt 0.390434 0.127204
vt 0.374974 0.140738
vt 0.359443 0.154334
vt 0.823612 0.516825
vt 0.136423 0.516945
vt 0.348003 0.164349
vt 0.157156 0.521171
vt 0.803277 0.520704
vt 0.177551 0.517306
vt 0.848005 0.352528
vt 0.782479 0.517038
vt 0.859293 0.362766
vt 0.874769 0.376443
vt 0.890285 0.389894
vt 0.883774 0.489947
vt 0.250187 0.702310
vt 0.270770 0.594040
vt 0.417624 0.138172
vt 0.291263 0.594658
vt 0.405177 0.146452
vt 0.388079 0.157848
vt 0.370910 0.169305
vt 0.358271 0.177754
vt 0.823117 0.529877
vt 0.802803 0.533198
vt 0.858272 0.339126
vt 0.781985 0.530090
vt 0.870760 0.347799
vt 0.887874 0.359338
vt 0.905028 0.370651
vt 0.234735 0.595667
vt 0.917627 0.378707
vt 0.250079 0.594410
vt 0.270858 0.567424
vt 0.291348 0.568755
vt 0.430713 0.160889
vt 0.417282 0.167460
vt 0.398838 0.176522
vt 0.380324 0.185645
vt 0.366701 0.192385
vt 0.822723 0.544216
vt 0.802426 0.546924
vt 0.866702 0.324499
vt 0.781590 0.544429
vt 0.880175 0.331463
vt 0.898634 0.340669
vt 0.234814 0.571713
vt 0.917133 0.349648
vt 0.250165 0.568507
vt 0.930716 0.355996
vt 0.270881 0.541578
vt 0.440725 0.185120
vt 0.291370 0.543602
vt 0.426540 0.189869
vt 0.407068 0.196440
vt 0.387525 0.203073
vt 0.373149 0.207991
vt 0.822437 0.559596
vt 0.802152 0.561647
vt 0.873151 0.308897
vt 0.781304 0.559810
vt 0.887376 0.314039
vt 0.765480 0.554577
vt 0.906864 0.320755
vt 0.926392 0.327246
vt 0.250187 0.543354
vt 0.940728 0.331771
vt 0.270839 0.516945
vt 0.468034 0.659581
vt 0.468148 0.518905
vt 0.488822 0.661610
vt 0.291329 0.519629
vt 0.447489 0.210450
vt 0.389839 0.776587
vt 0.398193 0.795608
vt 0.432795 0.213294
vt 0.412628 0.217262
vt 0.392390 0.221293
vt 0.822263 0.575755
vt 0.377505 0.224305
vt 0.801985 0.577114
vt 0.781130 0.575968
vt 0.765286 0.572622
vt 0.892241 0.295824
vt 0.912424 0.299937
vt 0.932647 0.303826
vt 0.488925 0.516945
vt 0.947491 0.306447
vt 0.250146 0.519381
vt 0.369086 0.710754
vt 0.468002 0.589455
vt 0.499997 0.141404
vt 0.488822 0.590772
vt 0.402227 0.706995
vt 0.348672 0.706995
vt 0.402227 0.800973
vt 0.435939 0.237334
vt 0.415422 0.238632
vt 0.394835 0.239991
vt 0.379695 0.241048
vt 0.822205 0.592414
vt 0.801930 0.593062
vt 0.781072 0.592628
vt 0.765221 0.591228
vt 0.894686 0.277129
vt 0.915218 0.278572
vt 0.935790 0.279790
vt 1.000000 0.375486
vt 0.488925 0.587632
vt 0.389839 0.708168
vt 0.368784 0.731723
vt 0.499974 0.167621
vt 0.348378 0.727402
vt 0.435918 0.261580
vt 0.415404 0.260183
vt 0.394819 0.258849
vt 0.822263 0.609291
vt 0.379680 0.257933
vt 0.801985 0.609217
vt 0.781130 0.609504
vt 0.894670 0.258275
vt 0.765286 0.610075
vt 0.915200 0.257025
vt 0.935769 0.255549
vt 0.999977 0.349273
vt 0.389545 0.728575
vt 0.369073 0.793576
vt 0.447421 0.288654
vt 0.348672 0.788757
vt 0.432732 0.285615
vt 0.412572 0.281548
vt 0.392341 0.277543
vt 0.822437 0.626095
vt 0.377461 0.274672
vt 0.802152 0.625303
vt 0.781304 0.626308
vt 0.892192 0.239585
vt 0.765480 0.628842
vt 0.912368 0.235664
vt 0.932584 0.231518
vt 0.947423 0.228258
vt 0.389839 0.789930
vt 0.369001 0.809458
vt 0.348602 0.804213
vt 0.440613 0.313972
vt 0.426437 0.309028
vt 0.406976 0.302360
vt 0.387445 0.295753
vt 0.822723 0.642539
vt 0.373077 0.290979
vt 0.802426 0.641044
vt 0.781590 0.642753
vt 0.887296 0.221377
vt 0.765800 0.647207
vt 0.906772 0.214856
vt 0.926288 0.208109
vt 0.940616 0.202944
vt 0.389769 0.805386
vt 0.369046 0.822365
vt 0.158519 0.750957
vt 0.163536 0.771647
vt 0.348646 0.816775
vt 0.430559 0.338185
vt 0.417139 0.331420
vt 0.398711 0.322263
vt 0.380213 0.313169
vt 0.366602 0.306573
vt 0.823117 0.658343
vt 0.802803 0.656172
vt 0.866603 0.210334
vt 0.781985 0.658556
vt 0.766240 0.664856
vt 0.880064 0.203964
vt 0.898507 0.194955
vt 0.916990 0.185721
vt 0.163536 0.730518
vt 0.930562 0.178735
vt 0.389813 0.817948
vt 0.171318 0.749664
vt 0.311992 0.802547
vt 0.331258 0.804424
vt 0.175992 0.770389
vt 0.417431 0.360878
vt 0.404998 0.352406
vt 0.387920 0.340918
vt 0.355376 0.706995
vt 0.370770 0.329491
vt 0.358146 0.321188
vt 0.823612 0.673235
vt 0.372840 0.697475
vt 0.803277 0.670427
vt 0.393887 0.694144
vt 0.782479 0.673448
vt 0.858148 0.195720
vt 0.870621 0.187644
vt 0.887715 0.176303
vt 0.904849 0.164737
vt 0.291370 0.807918
vt 0.175992 0.729260
vt 0.917433 0.156045
vt 0.312142 0.725245
vt 0.844548 0.704219
vt 0.865390 0.700408
vt 0.331258 0.726551
vt 0.499997 0.367125
vt 0.390222 0.371628
vt 0.374785 0.358004
vt 0.352915 0.691771
vt 0.359278 0.344442
vt 0.370636 0.683843
vt 0.803839 0.683566
vt 0.391778 0.681095
vt 0.783067 0.687173
vt 0.410674 0.684263
vt 0.847857 0.182335
vt 0.859128 0.172695
vt 0.874580 0.159219
vt 0.890073 0.145517
vt 0.824270 0.699537
vt 1.000000 0.149808
vt 0.291370 0.730045
vt 0.843872 0.685702
vt 0.481442 0.385646
vt 0.864732 0.682388
vt 0.373063 0.388756
vt 0.359533 0.373229
vt 0.350956 0.675226
vt 0.345932 0.357764
vt 0.368882 0.669028
vt 0.390099 0.666913
vt 0.835907 0.170407
vt 0.408920 0.669448
vt 0.845782 0.159374
vt 0.859328 0.143995
vt 0.872914 0.128390
vt 0.981445 0.131288
vt 0.823612 0.681516
vt 0.844517 0.566716
vt 0.362085 0.416126
vt 0.865390 0.563963
vt 0.353815 0.403499
vt 0.342423 0.386333
vt 0.349532 0.657641
vt 0.330961 0.369230
vt 0.367607 0.653283
vt 0.388878 0.651841
vt 0.407645 0.653702
vt 0.822501 0.160140
vt 0.830812 0.147908
vt 0.842218 0.130891
vt 0.853666 0.113649
vt 0.824270 0.563091
vt 0.862086 0.100801
vt 0.844233 0.543768
vt 0.865113 0.541629
vt 0.339368 0.429214
vt 0.332808 0.415602
vt 0.323750 0.397092
vt 0.348668 0.639318
vt 0.314622 0.378644
vt 0.366834 0.636876
vt 0.388138 0.636135
vt 0.807871 0.151711
vt 0.406872 0.637295
vt 0.814472 0.138494
vt 0.823545 0.120132
vt 0.832658 0.101545
vt 0.823993 0.540758
vt 0.839369 0.087713
vt 0.844153 0.519176
vt 0.431231 0.814144
vt 0.451858 0.819316
vt 0.865036 0.517696
vt 0.315138 0.439226
vt 0.310400 0.424860
vt 0.303832 0.405322
vt 0.348378 0.620571
vt 0.297194 0.385845
vt 0.366574 0.620089
vt 0.387889 0.620066
vt 0.406612 0.620508
vt 0.792265 0.145262
vt 0.797044 0.131293
vt 0.803626 0.111902
vt 0.810250 0.092286
vt 0.410674 0.819335
vt 0.823916 0.516825
vt 0.815139 0.077701
vt 0.765221 0.782044
vt 0.499997 0.782052
vt 0.765221 0.516825
vt 0.499997 0.516833
vt 0.665789 0.616258
vt 0.665789 0.682617
vt 0.599428 0.682619
vt 0.599428 0.616260
s 0
usemtl マテリアル
f 13/20/1 2/3/1 1/1/1
f 14/21/2 3/6/2 2/5/2
f 15/23/3 4/7/3 3/6/3
f 16/24/4 5/8/4 4/7/4
f 17/26/5 6/10/5 5/9/5
f 6/10/6 19/28/6 7/11/6
f 19/28/7 8/12/7 7/11/7
f 20/29/8 9/14/8 8/13/8
f 21/31/9 10/15/9 9/14/9
f 22/32/10 11/16/10 10/15/10
f 11/16/11 24/34/11 12/18/11
f 12/17/12 13/20/12 1/1/12
f 25/36/13 14/22/13 13/20/13
f 26/38/14 15/23/14 14/21/14
f 27/39/15 16/24/15 15/23/15
f 28/41/16 17/25/16 16/24/16
f 17/26/17 30/44/17 18/27/17
f 30/44/18 19/28/18 18/27/18
f 31/45/19 20/30/19 19/28/19
f 32/46/20 21/31/20 20/29/20
f 21/31/21 34/49/21 22/32/21
f 22/32/22 35/50/22 23/33/22
f 23/33/23 36/51/23 24/34/23
f 24/35/24 25/36/24 13/20/24
f 25/36/25 38/54/25 26/37/25
f 38/54/26 27/40/26 26/37/26
f 39/56/27 28/41/27 27/39/27
f 28/41/28 41/58/28 29/42/28
f 29/43/29 42/60/29 30/44/29
f 30/44/30 43/62/30 31/45/30
f 43/62/31 32/47/31 31/45/31
f 44/64/32 33/48/32 32/46/32
f 33/48/33 46/67/33 34/49/33
f 34/49/34 47/68/34 35/50/34
f 35/50/35 48/70/35 36/51/35
f 48/69/36 25/36/36 36/52/36
f 37/53/37 50/72/37 38/54/37
f 38/54/38 51/74/38 39/55/38
f 39/56/39 52/76/39 40/57/39
f 52/76/40 41/58/40 40/57/40
f 41/59/41 54/80/41 42/60/41
f 54/80/42 43/62/42 42/60/42
f 55/82/43 44/65/43 43/61/43
f 56/83/44 45/66/44 44/64/44
f 45/66/45 58/86/45 46/67/45
f 58/86/46 47/68/46 46/67/46
f 59/87/47 48/70/47 47/68/47
f 60/89/48 37/53/48 48/69/48
f 61/90/49 50/72/49 49/71/49
f 50/73/50 63/95/50 51/75/50
f 63/95/51 52/76/51 51/75/51
f 64/96/52 53/77/52 52/76/52
f 53/78/53 66/99/53 54/80/53
f 66/100/54 55/82/54 54/79/54
f 67/102/55 56/84/55 55/82/55
f 68/104/56 57/85/56 56/83/56
f 69/105/57 58/86/57 57/85/57
f 70/106/58 59/87/58 58/86/58
f 71/107/59 60/88/59 59/87/59
f 60/89/60 61/90/60 49/71/60
f 61/91/61 74/113/61 62/92/61
f 62/94/62 75/116/62 63/95/62
f 75/116/63 64/96/63 63/95/63
f 76/117/64 65/98/64 64/96/64
f 77/118/65 66/101/65 65/98/65
f 78/120/66 67/102/66 66/100/66
f 67/102/67 80/123/67 68/103/67
f 80/122/68 69/105/68 68/104/68
f 81/125/69 70/106/69 69/105/69
f 82/126/70 71/107/70 70/106/70
f 83/127/71 72/110/71 71/107/71
f 84/130/72 61/91/72 72/108/72
f 85/132/73 74/115/73 73/112/73
f 86/134/74 75/116/74 74/114/74
f 87/136/75 76/117/75 75/116/75
f 88/137/76 77/118/76 76/117/76
f 77/118/77 90/139/77 78/119/77
f 90/140/78 79/121/78 78/120/78
f 91/141/79 80/123/79 79/121/79
f 92/142/80 81/124/80 80/123/80
f 81/125/81 94/145/81 82/126/81
f 82/126/82 95/146/82 83/127/82
f 83/127/83 96/147/83 84/129/83
f 96/148/84 73/112/84 84/128/84
f 97/150/85 86/135/85 85/131/85
f 98/152/86 87/136/86 86/134/86
f 87/136/87 100/154/87 88/137/87
f 100/154/88 89/138/88 88/137/88
f 89/138/89 102/157/89 90/139/89
f 102/156/90 91/141/90 90/140/90
f 103/158/91 92/142/91 91/141/91
f 104/159/92 93/144/92 92/142/92
f 105/161/93 94/145/93 93/143/93
f 106/162/94 95/146/94 94/145/94
f 95/146/95 108/165/95 96/147/95
f 96/149/96 97/150/96 85/131/96
f 97/150/97 110/168/97 98/151/97
f 110/167/98 99/153/98 98/152/98
f 111/169/99 100/154/99 99/153/99
f 112/170/100 101/155/100 100/154/100
f 113/171/101 102/157/101 101/155/101
f 114/173/102 103/158/102 102/156/102
f 115/174/103 104/159/103 103/158/103
f 116/175/104 105/160/104 104/159/104
f 105/161/105 118/178/105 106/162/105
f 106/162/106 119/179/106 107/163/106
f 119/179/107 108/165/107 107/163/107
f 120/180/108 97/150/108 108/164/108
f 121/182/109 110/168/109 109/166/109
f 122/183/110 111/169/110 110/167/110
f 123/185/111 112/170/111 111/169/111
f 124/186/112 113/171/112 112/170/112
f 113/171/113 126/189/113 114/172/113
f 126/188/114 115/174/114 114/173/114
f 127/190/115 116/175/115 115/174/115
f 128/192/116 117/177/116 116/175/116
f 129/194/117 118/178/117 117/176/117
f 130/195/118 119/179/118 118/178/118
f 131/196/119 120/181/119 119/179/119
f 132/197/120 109/166/120 120/180/120
f 133/199/121 122/184/121 121/182/121
f 134/200/122 123/185/122 122/183/122
f 123/185/123 136/203/123 124/186/123
f 136/203/124 125/187/124 124/186/124
f 137/204/125 126/189/125 125/187/125
f 138/206/126 127/190/126 126/188/126
f 127/190/127 140/209/127 128/192/127
f 140/208/128 129/194/128 128/191/128
f 129/194/129 142/211/129 130/195/129
f 142/211/130 131/196/130 130/195/130
f 143/213/131 132/198/131 131/196/131
f 144/215/132 121/182/132 132/197/132
f 145/216/133 134/201/133 133/199/133
f 146/220/134 135/202/134 134/200/134
f 147/221/135 136/203/135 135/202/135
f 136/203/136 149/223/136 137/204/136
f 137/204/137 150/225/137 138/205/137
f 150/224/138 139/207/138 138/206/138
f 151/226/139 140/209/139 139/207/139
f 152/228/140 141/210/140 140/208/140
f 153/229/141 142/211/141 141/210/141
f 154/230/142 143/213/142 142/211/142
f 155/231/143 144/215/143 143/212/143
f 144/215/144 145/216/144 133/199/144
f 145/217/145 158/239/145 146/218/145
f 146/220/146 159/241/146 147/221/146
f 159/241/147 148/222/147 147/221/147
f 160/242/148 149/223/148 148/222/148
f 161/243/149 150/225/149 149/223/149
f 162/244/150 151/226/150 150/224/150
f 151/226/151 164/248/151 152/227/151
f 164/247/152 153/229/152 152/228/152
f 153/229/153 166/250/153 154/230/153
f 154/230/154 167/251/154 155/232/154
f 155/232/155 168/253/155 156/233/155
f 168/254/156 145/217/156 156/234/156
f 157/237/157 170/257/157 158/238/157
f 170/256/158 159/241/158 158/240/158
f 159/241/159 172/259/159 160/242/159
f 172/259/160 161/243/160 160/242/160
f 173/260/161 162/245/161 161/243/161
f 174/261/162 163/246/162 162/244/162
f 175/263/163 164/248/163 163/246/163
f 176/264/164 165/249/164 164/247/164
f 177/266/165 166/250/165 165/249/165
f 178/267/166 167/251/166 166/250/166
f 167/251/167 180/269/167 168/253/167
f 180/270/168 157/237/168 168/252/168
f 181/271/169 170/257/169 169/255/169
f 182/273/170 171/258/170 170/256/170
f 183/274/171 172/259/171 171/258/171
f 172/259/172 185/276/172 173/260/172
f 185/276/173 174/262/173 173/260/173
f 186/277/174 175/263/174 174/261/174
f 187/279/175 176/265/175 175/263/175
f 188/280/176 177/266/176 176/264/176
f 177/266/177 190/283/177 178/267/177
f 190/283/178 179/268/178 178/267/178
f 179/268/179 192/286/179 180/269/179
f 180/270/180 181/271/180 169/255/180
f 193/288/181 182/272/181 181/271/181
f 182/273/182 195/291/182 183/274/182
f 195/291/183 184/275/183 183/274/183
f 196/292/184 185/276/184 184/275/184
f 197/293/185 186/278/185 185/276/185
f 198/295/186 187/279/186 186/277/186
f 199/296/187 188/281/187 187/279/187
f 200/298/188 189/282/188 188/280/188
f 201/299/189 190/283/189 189/282/189
f 202/300/190 191/285/190 190/283/190
f 203/302/191 192/287/191 191/284/191
f 204/303/192 181/271/192 192/287/192
f 205/304/193 194/290/193 193/288/193
f 206/305/194 195/291/194 194/289/194
f 207/307/195 196/292/195 195/291/195
f 208/308/196 197/293/196 196/292/196
f 209/309/197 198/294/197 197/293/197
f 198/295/198 211/313/198 199/296/198
f 211/313/199 200/297/199 199/296/199
f 200/298/200 213/318/200 201/299/200
f 201/299/201 214/319/201 202/300/201
f 202/300/202 215/321/202 203/301/202
f 203/302/203 216/322/203 204/303/203
f 216/322/204 193/288/204 204/303/204
f 217/324/205 206/306/205 205/304/205
f 218/328/206 207/307/206 206/305/206
f 207/307/207 220/330/207 208/308/207
f 220/330/208 209/309/208 208/308/208
f 221/331/209 210/312/209 209/309/209
f 222/332/210 211/314/210 210/310/210
f 223/334/211 212/316/211 211/314/211
f 212/317/212 225/337/212 213/318/212
f 225/337/213 214/319/213 213/318/213
f 226/338/214 215/321/214 214/319/214
f 227/339/215 216/323/215 215/321/215
f 228/341/216 205/304/216 216/322/216
f 217/325/217 230/346/217 218/326/217
f 218/328/218 231/348/218 219/329/218
f 231/348/219 220/330/219 219/329/219
f 220/330/220 233/350/220 221/331/220
f 233/350/221 222/333/221 221/331/221
f 234/351/222 223/334/222 222/332/222
f 235/353/223 224/335/223 223/334/223
f 224/336/224 237/356/224 225/337/224
f 237/356/225 226/338/225 225/337/225
f 238/357/226 227/339/226 226/338/226
f 239/358/227 228/342/227 227/339/227
f 240/361/228 217/325/228 228/340/228
f 229/344/229 242/364/229 230/345/229
f 242/363/230 231/348/230 230/347/230
f 231/348/231 244/366/231 232/349/231
f 244/366/232 233/350/232 232/349/232
f 245/367/233 234/352/233 233/350/233
f 246/368/234 235/353/234 234/351/234
f 247/370/235 236/355/235 235/353/235
f 248/372/236 237/356/236 236/354/236
f 237/356/237 250/374/237 238/357/237
f 250/374/238 239/358/238 238/357/238
f 239/358/239 252/376/239 240/360/239
f 252/377/240 229/344/240 240/359/240
f 253/378/241 242/364/241 241/362/241
f 254/380/242 243/365/242 242/363/242
f 255/381/243 244/366/243 243/365/243
f 244/366/244 257/384/244 245/367/244
f 257/384/245 246/369/245 245/367/245
f 258/385/246 247/370/246 246/368/246
f 247/370/247 260/389/247 248/371/247
f 260/388/248 249/373/248 248/372/248
f 261/390/249 250/374/249 249/373/249
f 262/391/250 251/375/250 250/374/250
f 251/375/251 264/394/251 252/376/251
f 252/377/252 253/378/252 241/362/252
f 253/378/253 266/396/253 254/379/253
f 266/396/254 255/382/254 254/379/254
f 267/397/255 256/383/255 255/381/255
f 256/383/256 269/400/256 257/384/256
f 269/400/257 258/386/257 257/384/257
f 270/401/258 259/387/258 258/385/258
f 271/403/259 260/389/259 259/387/259
f 272/405/260 261/390/260 260/388/260
f 273/406/261 262/391/261 261/390/261
f 262/391/262 275/408/262 263/392/262
f 275/408/263 264/394/263 263/392/263
f 276/410/264 253/378/264 264/393/264
f 277/411/265 266/396/265 265/395/265
f 278/412/266 267/398/266 266/396/266
f 279/413/267 268/399/267 267/397/267
f 280/415/268 269/400/268 268/399/268
f 281/417/269 270/402/269 269/400/269
f 282/419/270 271/403/270 270/401/270
f 283/420/271 272/404/271 271/403/271
f 272/405/272 285/423/272 273/406/272
f 273/406/273 286/424/273 274/407/273
f 274/407/274 287/425/274 275/408/274
f 275/408/275 288/427/275 276/409/275
f 276/410/276 277/411/276 265/395/276
f 277/411/277 290/431/277 278/412/277
f 290/431/278 279/414/278 278/412/278
f 291/434/279 280/415/279 279/413/279
f 292/435/280 281/417/280 280/415/280
f 293/436/281 282/419/281 281/416/281
f 294/438/282 283/420/282 282/419/282
f 295/439/283 284/421/283 283/420/283
f 284/422/284 297/442/284 285/423/284
f 297/442/285 286/424/285 285/423/285
f 298/443/286 287/425/286 286/424/286
f 299/444/287 288/427/287 287/425/287
f 300/446/288 277/411/288 288/426/288
f 289/429/289 302/451/289 290/430/289
f 290/432/5 303/453/5 291/434/5
f 303/453/4 292/435/4 291/434/4
f 304/454/3 293/437/3 292/435/3
f 305/456/290 294/438/290 293/436/290
f 306/457/1 295/439/1 294/438/1
f 295/439/12 308/460/12 296/440/12
f 308/459/291 297/442/291 296/441/291
f 297/442/10 310/462/10 298/443/10
f 298/443/9 311/463/9 299/444/9
f 311/463/8 300/447/8 299/444/8
f 312/466/292 289/429/292 300/445/292
f 301/449/18 314/469/18 302/450/18
f 314/470/293 303/453/293 302/452/293
f 303/453/16 316/473/16 304/454/16
f 304/454/15 317/475/15 305/455/15
f 305/456/294 318/476/294 306/457/294
f 318/476/295 307/458/295 306/457/295
f 319/477/296 308/460/296 307/458/296
f 320/479/297 309/461/297 308/459/297
f 321/480/22 310/462/22 309/461/22
f 322/481/21 311/463/21 310/462/21
f 311/463/298 324/483/298 312/465/298
f 324/484/19 301/449/19 312/464/19
f 325/487/299 314/471/299 313/467/299
f 326/489/300 315/472/300 314/470/300
f 315/472/28 328/493/28 316/473/28
f 328/493/27 317/475/27 316/473/27
f 329/494/26 318/476/26 317/474/26
f 330/496/25 319/477/25 318/476/25
f 331/497/36 320/478/36 319/477/36
f 320/479/35 333/500/35 321/480/35
f 333/500/34 322/481/34 321/480/34
f 334/501/33 323/482/33 322/481/33
f 323/482/301 336/503/301 324/483/301
f 324/485/302 325/487/302 313/467/302
f 337/505/42 326/490/42 325/486/42
f 338/507/41 327/492/41 326/490/41
f 339/509/40 328/493/40 327/491/40
f 340/511/39 329/495/39 328/493/39
f 341/513/38 330/496/38 329/494/38
f 330/496/37 343/516/37 331/497/37
f 343/516/48 332/499/48 331/497/48
f 344/518/47 333/500/47 332/498/47
f 345/519/46 334/501/46 333/500/46
f 334/501/45 347/521/45 335/502/45
f 335/502/44 348/522/44 336/503/44
f 348/523/43 325/487/43 336/504/43
f 349/524/54 338/508/54 337/506/54
f 350/525/53 339/510/53 338/507/53
f 351/529/52 340/511/52 339/509/52
f 340/511/51 353/531/51 341/512/51
f 353/531/50 342/515/50 341/512/50
f 354/532/49 343/516/49 342/514/49
f 355/534/60 344/517/60 343/516/60
f 344/518/59 357/537/59 345/519/59
f 357/537/58 346/520/58 345/519/58
f 358/538/57 347/521/57 346/520/57
f 347/521/56 360/541/56 348/522/56
f 360/540/55 337/506/55 348/523/55
f 361/542/66 350/526/66 349/524/66
f 350/527/65 363/547/65 351/529/65
f 363/547/64 352/530/64 351/529/64
f 364/548/63 353/531/63 352/530/63
f 365/549/62 354/533/62 353/531/62
f 366/550/303 355/534/303 354/532/303
f 367/552/304 356/536/304 355/534/304
f 368/553/71 357/537/71 356/535/71
f 357/537/70 370/556/70 358/538/70
f 370/556/69 359/539/69 358/538/69
f 371/557/68 360/541/68 359/539/68
f 372/559/67 349/524/67 360/540/67
f 361/543/305 374/563/305 362/544/305
f 362/546/77 375/566/77 363/547/77
f 375/566/76 364/548/76 363/547/76
f 364/548/75 377/568/75 365/549/75
f 377/568/306 366/551/306 365/549/306
f 378/570/73 367/552/73 366/550/73
f 379/571/84 368/554/84 367/552/84
f 380/572/307 369/555/307 368/553/307
f 381/574/82 370/556/82 369/555/82
f 382/575/81 371/557/81 370/556/81
f 383/576/80 372/560/80 371/557/80
f 384/579/308 361/543/308 372/558/308
f 385/580/90 374/565/90 373/562/90
f 386/581/309 375/566/309 374/564/309
f 387/583/88 376/567/88 375/566/88
f 388/584/87 377/568/87 376/567/87
f 377/568/310 390/588/310 378/569/310
f 390/587/311 379/571/311 378/570/311
f 391/589/312 380/573/312 379/571/312
f 392/592/313 381/574/313 380/572/313
f 393/594/94 382/575/94 381/574/94
f 382/575/93 395/596/93 383/576/93
f 383/576/314 396/597/314 384/578/314
f 396/598/91 373/562/91 384/577/91
f 397/599/315 386/582/315 385/580/315
f 398/600/316 387/583/316 386/581/316
f 399/602/100 388/584/100 387/583/100
f 400/603/99 389/585/99 388/584/99
f 401/604/98 390/588/98 389/585/98
f 402/606/97 391/590/97 390/586/97
f 403/607/108 392/593/108 391/590/108
f 404/608/107 393/594/107 392/592/107
f 393/594/106 406/611/106 394/595/106
f 406/611/105 395/596/105 394/595/105
f 395/596/317 408/614/317 396/597/317
f 396/598/318 397/599/318 385/580/318
f 409/616/114 398/601/114 397/599/114
f 410/618/113 399/602/113 398/600/113
f 411/619/112 400/603/112 399/602/112
f 412/620/111 401/604/111 400/603/111
f 401/604/110 414/622/110 402/605/110
f 414/623/109 403/607/109 402/606/109
f 415/624/120 404/609/120 403/607/120
f 416/625/119 405/610/119 404/608/119
f 417/627/118 406/611/118 405/610/118
f 418/628/117 407/612/117 406/611/117
f 407/613/116 420/631/116 408/615/116
f 420/631/115 397/599/115 408/615/115
f 421/633/126 410/617/126 409/616/126
f 410/618/125 423/636/125 411/619/125
f 423/636/124 412/620/124 411/619/124
f 424/637/123 413/621/123 412/620/123
f 413/621/122 426/639/122 414/622/122
f 426/640/121 415/624/121 414/623/121
f 427/641/132 416/626/132 415/624/132
f 428/642/131 417/627/131 416/625/131
f 417/627/130 430/646/130 418/628/130
f 430/646/129 419/630/129 418/628/129
f 431/647/128 420/632/128 419/630/128
f 432/648/127 409/616/127 420/631/127
f 433/650/138 422/635/138 421/633/138
f 434/655/137 423/636/137 422/634/137
f 423/636/136 436/659/136 424/637/136
f 424/637/135 437/660/135 425/638/135
f 437/660/134 426/639/134 425/638/134
f 426/640/133 439/663/133 427/641/133
f 439/663/144 428/643/144 427/641/144
f 440/664/143 429/645/143 428/643/143
f 441/666/142 430/646/142 429/644/142
f 442/667/141 431/647/141 430/646/141
f 443/668/140 432/649/140 431/647/140
f 444/671/139 421/633/139 432/648/139
f 433/651/319 446/675/319 434/653/319
f 434/656/149 447/678/149 435/657/149
f 447/679/148 436/659/148 435/658/148
f 448/680/147 437/660/147 436/659/147
f 449/681/146 438/662/146 437/660/146
f 450/683/320 439/663/320 438/661/320
f 451/684/321 440/664/321 439/663/321
f 440/664/322 453/686/322 441/665/322
f 441/666/154 454/688/154 442/667/154
f 454/688/153 443/668/153 442/667/153
f 443/668/323 456/690/323 444/670/323
f 456/691/324 433/652/324 444/669/324
f 457/693/162 446/677/162 445/672/162
f 458/694/325 447/679/325 446/674/325
f 459/696/160 448/680/160 447/679/160
f 460/697/159 449/681/159 448/680/159
f 461/698/326 450/682/326 449/681/326
f 450/683/157 463/701/157 451/684/157
f 463/701/168 452/685/168 451/684/168
f 464/702/327 453/686/327 452/685/327
f 453/687/166 466/705/166 454/688/166
f 454/688/165 467/706/165 455/689/165
f 455/689/328 468/707/328 456/690/328
f 456/692/163 457/693/163 445/672/163
f 469/709/329 458/695/329 457/693/329
f 470/710/330 459/696/330 458/694/330
f 471/712/172 460/697/172 459/696/172
f 472/713/171 461/698/171 460/697/171
f 473/714/331 462/700/331 461/698/331
f 474/715/332 463/701/332 462/699/332
f 475/717/333 464/702/333 463/701/333
f 476/718/334 465/704/334 464/702/334
f 477/719/178 466/705/178 465/703/178
f 466/705/177 479/722/177 467/706/177
f 467/706/335 480/723/335 468/707/335
f 468/708/336 469/709/336 457/693/336
f 481/725/186 470/711/186 469/709/186
f 482/727/185 471/712/185 470/710/185
f 471/712/184 484/729/184 472/713/184
f 472/713/183 485/730/183 473/714/183
f 485/730/182 474/716/182 473/714/182
f 486/731/181 475/717/181 474/715/181
f 487/733/192 476/718/192 475/717/192
f 488/734/191 477/720/191 476/718/191
f 489/735/190 478/721/190 477/719/190
f 490/737/189 479/722/189 478/721/189
f 491/738/188 480/723/188 479/722/188
f 480/724/187 481/725/187 469/709/187
f 481/725/198 494/744/198 482/726/198
f 494/745/197 483/728/197 482/727/197
f 495/746/196 484/729/196 483/728/196
f 496/747/195 485/730/195 484/729/195
f 497/748/194 486/732/194 485/730/194
f 498/750/193 487/733/193 486/731/193
f 499/751/204 488/734/204 487/733/204
f 500/753/203 489/736/203 488/734/203
f 501/755/202 490/737/202 489/735/202
f 502/756/201 491/738/201 490/737/201
f 491/738/200 504/759/200 492/739/200
f 504/760/199 481/725/199 492/740/199
f 493/742/210 506/764/210 494/743/210
f 506/765/209 495/746/209 494/745/209
f 495/746/208 508/767/208 496/747/208
f 496/747/207 509/769/207 497/748/207
f 497/748/206 510/770/206 498/749/206
f 510/771/205 499/751/205 498/750/205
f 511/773/216 500/753/216 499/751/216
f 512/776/215 501/755/215 500/752/215
f 513/777/214 502/756/214 501/755/214
f 514/778/213 503/757/213 502/756/213
f 503/757/212 516/782/212 504/759/212
f 516/781/211 493/742/211 504/758/211
f 505/762/337 518/786/337 506/763/337
f 506/765/221 519/788/221 507/766/221
f 507/766/220 520/789/220 508/767/220
f 520/789/219 509/769/219 508/767/219
f 521/790/218 510/772/218 509/768/218
f 522/792/338 511/774/338 510/772/338
f 523/793/339 512/775/339 511/773/339
f 512/776/227 525/798/227 513/777/227
f 513/777/226 526/799/226 514/778/226
f 526/799/225 515/779/225 514/778/225
f 527/800/224 516/782/224 515/779/224
f 528/803/340 505/762/340 516/780/340
f 517/784/234 530/806/234 518/785/234
f 530/805/341 519/788/341 518/787/341
f 531/807/232 520/789/232 519/788/232
f 532/808/231 521/791/231 520/789/231
f 533/809/342 522/792/342 521/790/342
f 534/811/229 523/794/229 522/792/229
f 535/812/240 524/796/240 523/794/240
f 524/797/343 537/815/343 525/798/343
f 537/815/238 526/799/238 525/798/238
f 538/816/237 527/800/237 526/799/237
f 527/800/344 540/818/344 528/802/344
f 540/819/235 517/784/235 528/801/235
f 541/820/345 530/806/345 529/804/345
f 542/821/346 531/807/346 530/805/346
f 531/807/244 544/824/244 532/808/244
f 544/824/243 533/810/243 532/808/243
f 545/825/347 534/811/347 533/809/347
f 546/827/348 535/812/348 534/811/348
f 547/828/349 536/814/349 535/812/349
f 548/830/350 537/815/350 536/813/350
f 549/831/250 538/816/250 537/815/250
f 550/832/249 539/817/249 538/816/249
f 539/817/351 552/835/351 540/818/351
f 540/819/352 541/820/352 529/804/352
f 553/836/258 542/822/258 541/820/258
f 554/838/257 543/823/257 542/821/257
f 555/839/256 544/824/256 543/823/256
f 556/840/255 545/826/255 544/824/255
f 557/841/254 546/827/254 545/825/254
f 558/843/253 547/828/253 546/827/253
f 559/844/264 548/829/264 547/828/264
f 548/830/263 561/847/263 549/831/263
f 561/847/262 550/832/262 549/831/262
f 562/848/261 551/833/261 550/832/261
f 563/849/260 552/835/260 551/833/260
f 564/850/259 541/820/259 552/834/259
f 553/836/270 566/855/270 554/837/270
f 554/838/269 567/857/269 555/839/269
f 555/839/268 568/858/268 556/840/268
f 568/858/267 557/842/267 556/840/267
f 569/859/266 558/843/266 557/841/266
f 558/843/265 571/862/265 559/844/265
f 571/862/276 560/846/276 559/844/276
f 572/864/275 561/847/275 560/845/275
f 561/847/274 574/866/274 562/848/274
f 574/866/273 563/849/273 562/848/273
f 575/867/272 564/851/272 563/849/272
f 576/869/271 553/836/271 564/850/271
f 565/853/353 2/4/353 566/854/353
f 566/856/281 3/6/281 567/857/281
f 3/6/280 568/858/280 567/857/280
f 4/7/279 569/860/279 568/858/279
f 5/9/278 570/861/278 569/859/278
f 6/10/277 571/862/277 570/861/277
f 571/862/288 8/12/288 572/863/288
f 8/13/287 573/865/287 572/864/287
f 9/14/286 574/866/286 573/865/286
f 10/15/285 575/867/285 574/866/285
f 11/16/284 576/870/284 575/867/284
f 12/19/354 565/853/354 576/868/354
f 583/877/355 581/875/355 582/876/355
f 581/875/355 577/871/355 582/876/355
f 582/876/355 578/872/355 583/877/355
f 583/877/355 580/874/355 584/878/355
f 584/878/355 579/873/355 581/875/355
f 13/20/1 14/22/1 2/3/1
f 14/21/2 15/23/2 3/6/2
f 15/23/3 16/24/3 4/7/3
f 16/24/4 17/25/4 5/8/4
f 17/26/5 18/27/5 6/10/5
f 6/10/6 18/27/6 19/28/6
f 19/28/7 20/30/7 8/12/7
f 20/29/8 21/31/8 9/14/8
f 21/31/9 22/32/9 10/15/9
f 22/32/10 23/33/10 11/16/10
f 11/16/11 23/33/11 24/34/11
f 12/17/12 24/35/12 13/20/12
f 25/36/356 26/37/356 14/22/356
f 26/38/294 27/39/294 15/23/294
f 27/39/15 28/41/15 16/24/15
f 28/41/16 29/42/16 17/25/16
f 17/26/17 29/43/17 30/44/17
f 30/44/18 31/45/18 19/28/18
f 31/45/19 32/47/19 20/30/19
f 32/46/20 33/48/20 21/31/20
f 21/31/21 33/48/21 34/49/21
f 22/32/22 34/49/22 35/50/22
f 23/33/297 35/50/297 36/51/297
f 24/35/357 36/52/357 25/36/357
f 25/36/25 37/53/25 38/54/25
f 38/54/26 39/55/26 27/40/26
f 39/56/27 40/57/27 28/41/27
f 28/41/28 40/57/28 41/58/28
f 29/43/29 41/59/29 42/60/29
f 30/44/30 42/60/30 43/62/30
f 43/62/31 44/63/31 32/47/31
f 44/64/32 45/66/32 33/48/32
f 33/48/33 45/66/33 46/67/33
f 34/49/34 46/67/34 47/68/34
f 35/50/35 47/68/35 48/70/35
f 48/69/36 37/53/36 25/36/36
f 37/53/37 49/71/37 50/72/37
f 38/54/38 50/72/38 51/74/38
f 39/56/39 51/75/39 52/76/39
f 52/76/40 53/77/40 41/58/40
f 41/59/41 53/78/41 54/80/41
f 54/80/42 55/81/42 43/62/42
f 55/82/43 56/84/43 44/65/43
f 56/83/44 57/85/44 45/66/44
f 45/66/45 57/85/45 58/86/45
f 58/86/46 59/87/46 47/68/46
f 59/87/47 60/88/47 48/70/47
f 60/89/48 49/71/48 37/53/48
f 61/90/49 62/93/49 50/72/49
f 50/73/50 62/94/50 63/95/50
f 63/95/51 64/96/51 52/76/51
f 64/96/52 65/98/52 53/77/52
f 53/78/53 65/97/53 66/99/53
f 66/100/54 67/102/54 55/82/54
f 67/102/55 68/103/55 56/84/55
f 68/104/56 69/105/56 57/85/56
f 69/105/57 70/106/57 58/86/57
f 70/106/58 71/107/58 59/87/58
f 71/107/59 72/110/59 60/88/59
f 60/89/60 72/109/60 61/90/60
f 61/91/358 73/111/358 74/113/358
f 62/94/359 74/114/359 75/116/359
f 75/116/63 76/117/63 64/96/63
f 76/117/64 77/118/64 65/98/64
f 77/118/65 78/119/65 66/101/65
f 78/120/66 79/121/66 67/102/66
f 67/102/67 79/121/67 80/123/67
f 80/122/68 81/125/68 69/105/68
f 81/125/69 82/126/69 70/106/69
f 82/126/70 83/127/70 71/107/70
f 83/127/360 84/129/360 72/110/360
f 84/130/361 73/111/361 61/91/361
f 85/132/73 86/133/73 74/115/73
f 86/134/74 87/136/74 75/116/74
f 87/136/75 88/137/75 76/117/75
f 88/137/76 89/138/76 77/118/76
f 77/118/77 89/138/77 90/139/77
f 90/140/78 91/141/78 79/121/78
f 91/141/79 92/142/79 80/123/79
f 92/142/80 93/144/80 81/124/80
f 81/125/81 93/143/81 94/145/81
f 82/126/82 94/145/82 95/146/82
f 83/127/83 95/146/83 96/147/83
f 96/148/84 85/132/84 73/112/84
f 97/150/362 98/151/362 86/135/362
f 98/152/310 99/153/310 87/136/310
f 87/136/87 99/153/87 100/154/87
f 100/154/88 101/155/88 89/138/88
f 89/138/89 101/155/89 102/157/89
f 102/156/90 103/158/90 91/141/90
f 103/158/91 104/159/91 92/142/91
f 104/159/92 105/160/92 93/144/92
f 105/161/93 106/162/93 94/145/93
f 106/162/94 107/163/94 95/146/94
f 95/146/313 107/163/313 108/165/313
f 96/149/363 108/164/363 97/150/363
f 97/150/97 109/166/97 110/168/97
f 110/167/98 111/169/98 99/153/98
f 111/169/99 112/170/99 100/154/99
f 112/170/100 113/171/100 101/155/100
f 113/171/101 114/172/101 102/157/101
f 114/173/102 115/174/102 103/158/102
f 115/174/103 116/175/103 104/159/103
f 116/175/104 117/177/104 105/160/104
f 105/161/105 117/176/105 118/178/105
f 106/162/106 118/178/106 119/179/106
f 119/179/107 120/181/107 108/165/107
f 120/180/108 109/166/108 97/150/108
f 121/182/109 122/184/109 110/168/109
f 122/183/110 123/185/110 111/169/110
f 123/185/111 124/186/111 112/170/111
f 124/186/112 125/187/112 113/171/112
f 113/171/113 125/187/113 126/189/113
f 126/188/114 127/190/114 115/174/114
f 127/190/115 128/192/115 116/175/115
f 128/192/116 129/193/116 117/177/116
f 129/194/117 130/195/117 118/178/117
f 130/195/118 131/196/118 119/179/118
f 131/196/119 132/198/119 120/181/119
f 132/197/120 121/182/120 109/166/120
f 133/199/121 134/201/121 122/184/121
f 134/200/122 135/202/122 123/185/122
f 123/185/123 135/202/123 136/203/123
f 136/203/124 137/204/124 125/187/124
f 137/204/125 138/205/125 126/189/125
f 138/206/126 139/207/126 127/190/126
f 127/190/127 139/207/127 140/209/127
f 140/208/128 141/210/128 129/194/128
f 129/194/129 141/210/129 142/211/129
f 142/211/130 143/213/130 131/196/130
f 143/213/131 144/214/131 132/198/131
f 144/215/132 133/199/132 121/182/132
f 145/216/133 146/219/133 134/201/133
f 146/220/134 147/221/134 135/202/134
f 147/221/135 148/222/135 136/203/135
f 136/203/136 148/222/136 149/223/136
f 137/204/137 149/223/137 150/225/137
f 150/224/138 151/226/138 139/207/138
f 151/226/139 152/227/139 140/209/139
f 152/228/140 153/229/140 141/210/140
f 153/229/141 154/230/141 142/211/141
f 154/230/142 155/232/142 143/213/142
f 155/231/143 156/235/143 144/215/143
f 144/215/144 156/235/144 145/216/144
f 145/217/364 157/236/364 158/239/364
f 146/220/365 158/240/365 159/241/365
f 159/241/147 160/242/147 148/222/147
f 160/242/148 161/243/148 149/223/148
f 161/243/149 162/245/149 150/225/149
f 162/244/150 163/246/150 151/226/150
f 151/226/151 163/246/151 164/248/151
f 164/247/152 165/249/152 153/229/152
f 153/229/153 165/249/153 166/250/153
f 154/230/154 166/250/154 167/251/154
f 155/232/366 167/251/366 168/253/366
f 168/254/367 157/236/367 145/217/367
f 157/237/157 169/255/157 170/257/157
f 170/256/158 171/258/158 159/241/158
f 159/241/159 171/258/159 172/259/159
f 172/259/160 173/260/160 161/243/160
f 173/260/161 174/262/161 162/245/161
f 174/261/162 175/263/162 163/246/162
f 175/263/163 176/265/163 164/248/163
f 176/264/164 177/266/164 165/249/164
f 177/266/165 178/267/165 166/250/165
f 178/267/166 179/268/166 167/251/166
f 167/251/167 179/268/167 180/269/167
f 180/270/168 169/255/168 157/237/168
f 181/271/368 182/272/368 170/257/368
f 182/273/331 183/274/331 171/258/331
f 183/274/171 184/275/171 172/259/171
f 172/259/172 184/275/172 185/276/172
f 185/276/173 186/278/173 174/262/173
f 186/277/174 187/279/174 175/263/174
f 187/279/175 188/281/175 176/265/175
f 188/280/176 189/282/176 177/266/176
f 177/266/177 189/282/177 190/283/177
f 190/283/178 191/285/178 179/268/178
f 179/268/334 191/285/334 192/286/334
f 180/270/369 192/287/369 181/271/369
f 193/288/181 194/290/181 182/272/181
f 182/273/182 194/289/182 195/291/182
f 195/291/183 196/292/183 184/275/183
f 196/292/184 197/293/184 185/276/184
f 197/293/185 198/294/185 186/278/185
f 198/295/186 199/296/186 187/279/186
f 199/296/187 200/297/187 188/281/187
f 200/298/188 201/299/188 189/282/188
f 201/299/189 202/300/189 190/283/189
f 202/300/190 203/301/190 191/285/190
f 203/302/191 204/303/191 192/287/191
f 204/303/192 193/288/192 181/271/192
f 205/304/193 206/306/193 194/290/193
f 206/305/194 207/307/194 195/291/194
f 207/307/195 208/308/195 196/292/195
f 208/308/196 209/309/196 197/293/196
f 209/309/197 210/312/197 198/294/197
f 198/295/198 210/311/198 211/313/198
f 211/313/199 212/315/199 200/297/199
f 200/298/200 212/317/200 213/318/200
f 201/299/201 213/318/201 214/319/201
f 202/300/202 214/319/202 215/321/202
f 203/302/203 215/320/203 216/322/203
f 216/322/204 205/304/204 193/288/204
f 217/324/205 218/327/205 206/306/205
f 218/328/206 219/329/206 207/307/206
f 207/307/207 219/329/207 220/330/207
f 220/330/208 221/331/208 209/309/208
f 221/331/209 222/333/209 210/312/209
f 222/332/210 223/334/210 211/314/210
f 223/334/211 224/335/211 212/316/211
f 212/317/212 224/336/212 225/337/212
f 225/337/213 226/338/213 214/319/213
f 226/338/214 227/339/214 215/321/214
f 227/339/215 228/342/215 216/323/215
f 228/341/216 217/324/216 205/304/216
f 217/325/370 229/343/370 230/346/370
f 218/328/371 230/347/371 231/348/371
f 231/348/219 232/349/219 220/330/219
f 220/330/220 232/349/220 233/350/220
f 233/350/221 234/352/221 222/333/221
f 234/351/222 235/353/222 223/334/222
f 235/353/223 236/355/223 224/335/223
f 224/336/224 236/354/224 237/356/224
f 237/356/225 238/357/225 226/338/225
f 238/357/226 239/358/226 227/339/226
f 239/358/372 240/360/372 228/342/372
f 240/361/373 229/343/373 217/325/373
f 229/344/229 241/362/229 242/364/229
f 242/363/230 243/365/230 231/348/230
f 231/348/231 243/365/231 244/366/231
f 244/366/232 245/367/232 233/350/232
f 245/367/233 246/369/233 234/352/233
f 246/368/234 247/370/234 235/353/234
f 247/370/235 248/371/235 236/355/235
f 248/372/236 249/373/236 237/356/236
f 237/356/237 249/373/237 250/374/237
f 250/374/238 251/375/238 239/358/238
f 239/358/239 251/375/239 252/376/239
f 252/377/240 241/362/240 229/344/240
f 253/378/374 254/379/374 242/364/374
f 254/380/347 255/381/347 243/365/347
f 255/381/243 256/383/243 244/366/243
f 244/366/244 256/383/244 257/384/244
f 257/384/245 258/386/245 246/369/245
f 258/385/246 259/387/246 247/370/246
f 247/370/247 259/387/247 260/389/247
f 260/388/248 261/390/248 249/373/248
f 261/390/249 262/391/249 250/374/249
f 262/391/250 263/392/250 251/375/250
f 251/375/350 263/392/350 264/394/350
f 252/377/375 264/393/375 253/378/375
f 253/378/253 265/395/253 266/396/253
f 266/396/254 267/398/254 255/382/254
f 267/397/255 268/399/255 256/383/255
f 256/383/256 268/399/256 269/400/256
f 269/400/257 270/402/257 258/386/257
f 270/401/258 271/403/258 259/387/258
f 271/403/259 272/404/259 260/389/259
f 272/405/260 273/406/260 261/390/260
f 273/406/261 274/407/261 262/391/261
f 262/391/262 274/407/262 275/408/262
f 275/408/263 276/409/263 264/394/263
f 276/410/264 265/395/264 253/378/264
f 277/411/265 278/412/265 266/396/265
f 278/412/266 279/414/266 267/398/266
f 279/413/267 280/415/267 268/399/267
f 280/415/268 281/417/268 269/400/268
f 281/417/269 282/418/269 270/402/269
f 282/419/270 283/420/270 271/403/270
f 283/420/271 284/421/271 272/404/271
f 272/405/272 284/422/272 285/423/272
f 273/406/273 285/423/273 286/424/273
f 274/407/274 286/424/274 287/425/274
f 275/408/275 287/425/275 288/427/275
f 276/410/276 288/426/276 277/411/276
f 277/411/277 289/428/277 290/431/277
f 290/431/278 291/433/278 279/414/278
f 291/434/279 292/435/279 280/415/279
f 292/435/280 293/437/280 281/417/280
f 293/436/281 294/438/281 282/419/281
f 294/438/282 295/439/282 283/420/282
f 295/439/283 296/440/283 284/421/283
f 284/422/284 296/441/284 297/442/284
f 297/442/285 298/443/285 286/424/285
f 298/443/286 299/444/286 287/425/286
f 299/444/287 300/447/287 288/427/287
f 300/446/288 289/428/288 277/411/288
f 289/429/376 301/448/376 302/451/376
f 290/432/377 302/452/377 303/453/377
f 303/453/4 304/454/4 292/435/4
f 304/454/3 305/455/3 293/437/3
f 305/456/290 306/457/290 294/438/290
f 306/457/1 307/458/1 295/439/1
f 295/439/12 307/458/12 308/460/12
f 308/459/291 309/461/291 297/442/291
f 297/442/10 309/461/10 310/462/10
f 298/443/9 310/462/9 311/463/9
f 311/463/378 312/465/378 300/447/378
f 312/466/379 301/448/379 289/429/379
f 301/449/18 313/468/18 314/469/18
f 314/470/293 315/472/293 303/453/293
f 303/453/16 315/472/16 316/473/16
f 304/454/15 316/473/15 317/475/15
f 305/456/294 317/474/294 318/476/294
f 318/476/295 319/477/295 307/458/295
f 319/477/296 320/478/296 308/460/296
f 320/479/297 321/480/297 309/461/297
f 321/480/22 322/481/22 310/462/22
f 322/481/21 323/482/21 311/463/21
f 311/463/298 323/482/298 324/483/298
f 324/484/19 313/468/19 301/449/19
f 325/487/380 326/488/380 314/471/380
f 326/489/29 327/491/29 315/472/29
f 315/472/28 327/491/28 328/493/28
f 328/493/27 329/495/27 317/475/27
f 329/494/26 330/496/26 318/476/26
f 330/496/25 331/497/25 319/477/25
f 331/497/36 332/499/36 320/478/36
f 320/479/35 332/498/35 333/500/35
f 333/500/34 334/501/34 322/481/34
f 334/501/33 335/502/33 323/482/33
f 323/482/32 335/502/32 336/503/32
f 324/485/381 336/504/381 325/487/381
f 337/505/42 338/507/42 326/490/42
f 338/507/41 339/510/41 327/492/41
f 339/509/40 340/511/40 328/493/40
f 340/511/39 341/512/39 329/495/39
f 341/513/38 342/514/38 330/496/38
f 330/496/37 342/514/37 343/516/37
f 343/516/48 344/517/48 332/499/48
f 344/518/47 345/519/47 333/500/47
f 345/519/46 346/520/46 334/501/46
f 334/501/45 346/520/45 347/521/45
f 335/502/44 347/521/44 348/522/44
f 348/523/43 337/506/43 325/487/43
f 349/524/54 350/526/54 338/508/54
f 350/525/53 351/528/53 339/510/53
f 351/529/52 352/530/52 340/511/52
f 340/511/51 352/530/51 353/531/51
f 353/531/50 354/533/50 342/515/50
f 354/532/49 355/534/49 343/516/49
f 355/534/60 356/536/60 344/517/60
f 344/518/59 356/535/59 357/537/59
f 357/537/58 358/538/58 346/520/58
f 358/538/57 359/539/57 347/521/57
f 347/521/56 359/539/56 360/541/56
f 360/540/55 349/524/55 337/506/55
f 361/542/66 362/545/66 350/526/66
f 350/527/65 362/546/65 363/547/65
f 363/547/64 364/548/64 352/530/64
f 364/548/63 365/549/63 353/531/63
f 365/549/62 366/551/62 354/533/62
f 366/550/303 367/552/303 355/534/303
f 367/552/304 368/554/304 356/536/304
f 368/553/71 369/555/71 357/537/71
f 357/537/70 369/555/70 370/556/70
f 370/556/69 371/557/69 359/539/69
f 371/557/68 372/560/68 360/541/68
f 372/559/67 361/542/67 349/524/67
f 361/543/382 373/561/382 374/563/382
f 362/546/383 374/564/383 375/566/383
f 375/566/76 376/567/76 364/548/76
f 364/548/75 376/567/75 377/568/75
f 377/568/306 378/569/306 366/551/306
f 378/570/73 379/571/73 367/552/73
f 379/571/84 380/573/84 368/554/84
f 380/572/307 381/574/307 369/555/307
f 381/574/82 382/575/82 370/556/82
f 382/575/81 383/576/81 371/557/81
f 383/576/384 384/578/384 372/560/384
f 384/579/385 373/561/385 361/543/385
f 385/580/90 386/582/90 374/565/90
f 386/581/309 387/583/309 375/566/309
f 387/583/88 388/584/88 376/567/88
f 388/584/87 389/585/87 377/568/87
f 377/568/310 389/585/310 390/588/310
f 390/587/311 391/589/311 379/571/311
f 391/589/312 392/591/312 380/573/312
f 392/592/313 393/594/313 381/574/313
f 393/594/94 394/595/94 382/575/94
f 382/575/93 394/595/93 395/596/93
f 383/576/314 395/596/314 396/597/314
f 396/598/91 385/580/91 373/562/91
f 397/599/386 398/601/386 386/582/386
f 398/600/101 399/602/101 387/583/101
f 399/602/100 400/603/100 388/584/100
f 400/603/99 401/604/99 389/585/99
f 401/604/98 402/605/98 390/588/98
f 402/606/97 403/607/97 391/590/97
f 403/607/108 404/609/108 392/593/108
f 404/608/107 405/610/107 393/594/107
f 393/594/106 405/610/106 406/611/106
f 406/611/105 407/612/105 395/596/105
f 395/596/104 407/612/104 408/614/104
f 396/598/387 408/615/387 397/599/387
f 409/616/114 410/617/114 398/601/114
f 410/618/113 411/619/113 399/602/113
f 411/619/112 412/620/112 400/603/112
f 412/620/111 413/621/111 401/604/111
f 401/604/110 413/621/110 414/622/110
f 414/623/109 415/624/109 403/607/109
f 415/624/120 416/626/120 404/609/120
f 416/625/119 417/627/119 405/610/119
f 417/627/118 418/628/118 406/611/118
f 418/628/117 419/630/117 407/612/117
f 407/613/116 419/629/116 420/631/116
f 420/631/115 409/616/115 397/599/115
f 421/633/126 422/635/126 410/617/126
f 410/618/125 422/634/125 423/636/125
f 423/636/124 424/637/124 412/620/124
f 424/637/123 425/638/123 413/621/123
f 413/621/122 425/638/122 426/639/122
f 426/640/121 427/641/121 415/624/121
f 427/641/132 428/643/132 416/626/132
f 428/642/131 429/644/131 417/627/131
f 417/627/130 429/644/130 430/646/130
f 430/646/129 431/647/129 419/630/129
f 431/647/128 432/649/128 420/632/128
f 432/648/127 421/633/127 409/616/127
f 433/650/138 434/654/138 422/635/138
f 434/655/137 435/658/137 423/636/137
f 423/636/136 435/658/136 436/659/136
f 424/637/135 436/659/135 437/660/135
f 437/660/134 438/662/134 426/639/134
f 426/640/133 438/661/133 439/663/133
f 439/663/144 440/664/144 428/643/144
f 440/664/143 441/665/143 429/645/143
f 441/666/142 442/667/142 430/646/142
f 442/667/141 443/668/141 431/647/141
f 443/668/140 444/670/140 432/649/140
f 444/671/139 433/650/139 421/633/139
f 433/651/388 445/673/388 446/675/388
f 434/656/389 446/676/389 447/678/389
f 447/679/148 448/680/148 436/659/148
f 448/680/147 449/681/147 437/660/147
f 449/681/146 450/682/146 438/662/146
f 450/683/320 451/684/320 439/663/320
f 451/684/321 452/685/321 440/664/321
f 440/664/322 452/685/322 453/686/322
f 441/666/154 453/687/154 454/688/154
f 454/688/153 455/689/153 443/668/153
f 443/668/390 455/689/390 456/690/390
f 456/691/391 445/673/391 433/652/391
f 457/693/162 458/695/162 446/677/162
f 458/694/325 459/696/325 447/679/325
f 459/696/160 460/697/160 448/680/160
f 460/697/159 461/698/159 449/681/159
f 461/698/326 462/700/326 450/682/326
f 450/683/157 462/699/157 463/701/157
f 463/701/168 464/702/168 452/685/168
f 464/702/327 465/704/327 453/686/327
f 453/687/166 465/703/166 466/705/166
f 454/688/165 466/705/165 467/706/165
f 455/689/328 467/706/328 468/707/328
f 456/692/163 468/708/163 457/693/163
f 469/709/392 470/711/392 458/695/392
f 470/710/173 471/712/173 459/696/173
f 471/712/172 472/713/172 460/697/172
f 472/713/171 473/714/171 461/698/171
f 473/714/331 474/716/331 462/700/331
f 474/715/332 475/717/332 463/701/332
f 475/717/333 476/718/333 464/702/333
f 476/718/334 477/720/334 465/704/334
f 477/719/178 478/721/178 466/705/178
f 466/705/177 478/721/177 479/722/177
f 467/706/176 479/722/176 480/723/176
f 468/708/393 480/724/393 469/709/393
f 481/725/186 482/726/186 470/711/186
f 482/727/185 483/728/185 471/712/185
f 471/712/184 483/728/184 484/729/184
f 472/713/183 484/729/183 485/730/183
f 485/730/182 486/732/182 474/716/182
f 486/731/181 487/733/181 475/717/181
f 487/733/192 488/734/192 476/718/192
f 488/734/191 489/736/191 477/720/191
f 489/735/190 490/737/190 478/721/190
f 490/737/189 491/738/189 479/722/189
f 491/738/188 492/739/188 480/723/188
f 480/724/187 492/740/187 481/725/187
f 481/725/198 493/741/198 494/744/198
f 494/745/197 495/746/197 483/728/197
f 495/746/196 496/747/196 484/729/196
f 496/747/195 497/748/195 485/730/195
f 497/748/194 498/749/194 486/732/194
f 498/750/193 499/751/193 487/733/193
f 499/751/204 500/753/204 488/734/204
f 500/753/203 501/754/203 489/736/203
f 501/755/202 502/756/202 490/737/202
f 502/756/201 503/757/201 491/738/201
f 491/738/200 503/757/200 504/759/200
f 504/760/199 493/741/199 481/725/199
f 493/742/210 505/761/210 506/764/210
f 506/765/209 507/766/209 495/746/209
f 495/746/208 507/766/208 508/767/208
f 496/747/207 508/767/207 509/769/207
f 497/748/206 509/769/206 510/770/206
f 510/771/205 511/773/205 499/751/205
f 511/773/216 512/775/216 500/753/216
f 512/776/215 513/777/215 501/755/215
f 513/777/214 514/778/214 502/756/214
f 514/778/213 515/779/213 503/757/213
f 503/757/212 515/779/212 516/782/212
f 516/781/211 505/761/211 493/742/211
f 505/762/394 517/783/394 518/786/394
f 506/765/395 518/787/395 519/788/395
f 507/766/220 519/788/220 520/789/220
f 520/789/219 521/791/219 509/769/219
f 521/790/218 522/792/218 510/772/218
f 522/792/338 523/794/338 511/774/338
f 523/793/339 524/795/339 512/775/339
f 512/776/227 524/797/227 525/798/227
f 513/777/226 525/798/226 526/799/226
f 526/799/225 527/800/225 515/779/225
f 527/800/396 528/802/396 516/782/396
f 528/803/397 517/783/397 505/762/397
f 517/784/234 529/804/234 530/806/234
f 530/805/341 531/807/341 519/788/341
f 531/807/232 532/808/232 520/789/232
f 532/808/231 533/810/231 521/791/231
f 533/809/342 534/811/342 522/792/342
f 534/811/229 535/812/229 523/794/229
f 535/812/240 536/814/240 524/796/240
f 524/797/343 536/813/343 537/815/343
f 537/815/238 538/816/238 526/799/238
f 538/816/237 539/817/237 527/800/237
f 527/800/344 539/817/344 540/818/344
f 540/819/235 529/804/235 517/784/235
f 541/820/398 542/822/398 530/806/398
f 542/821/245 543/823/245 531/807/245
f 531/807/244 543/823/244 544/824/244
f 544/824/243 545/826/243 533/810/243
f 545/825/347 546/827/347 534/811/347
f 546/827/348 547/828/348 535/812/348
f 547/828/349 548/829/349 536/814/349
f 548/830/350 549/831/350 537/815/350
f 549/831/250 550/832/250 538/816/250
f 550/832/249 551/833/249 539/817/249
f 539/817/248 551/833/248 552/835/248
f 540/819/399 552/834/399 541/820/399
f 553/836/258 554/837/258 542/822/258
f 554/838/257 555/839/257 543/823/257
f 555/839/256 556/840/256 544/824/256
f 556/840/255 557/842/255 545/826/255
f 557/841/254 558/843/254 546/827/254
f 558/843/253 559/844/253 547/828/253
f 559/844/264 560/846/264 548/829/264
f 548/830/263 560/845/263 561/847/263
f 561/847/262 562/848/262 550/832/262
f 562/848/261 563/849/261 551/833/261
f 563/849/260 564/851/260 552/835/260
f 564/850/259 553/836/259 541/820/259
f 553/836/270 565/852/270 566/855/270
f 554/838/269 566/856/269 567/857/269
f 555/839/268 567/857/268 568/858/268
f 568/858/267 569/860/267 557/842/267
f 569/859/266 570/861/266 558/843/266
f 558/843/265 570/861/265 571/862/265
f 571/862/276 572/863/276 560/846/276
f 572/864/275 573/865/275 561/847/275
f 561/847/274 573/865/274 574/866/274
f 574/866/273 575/867/273 563/849/273
f 575/867/272 576/870/272 564/851/272
f 576/869/271 565/852/271 553/836/271
f 565/853/400 1/2/400 2/4/400
f 566/856/401 2/5/401 3/6/401
f 3/6/280 4/7/280 568/858/280
f 4/7/279 5/8/279 569/860/279
f 5/9/278 6/10/278 570/861/278
f 6/10/277 7/11/277 571/862/277
f 571/862/288 7/11/288 8/12/288
f 8/13/287 9/14/287 573/865/287
f 9/14/286 10/15/286 574/866/286
f 10/15/285 11/16/285 575/867/285
f 11/16/402 12/18/402 576/870/402
f 12/19/403 1/2/403 565/853/403
f 583/877/355 584/878/355 581/875/355
f 581/875/355 579/873/355 577/871/355
f 582/876/355 577/871/355 578/872/355
f 583/877/355 578/872/355 580/874/355
f 584/878/355 580/874/355 579/873/355
