# Blender 4.1.1
# www.blender.org
mtllib cyclone.mtl
o 立方体.002
v 0.372651 0.187257 0.217412
v 0.191797 0.192363 -0.572784
v -0.322279 0.206878 0.217137
v -0.593743 0.214542 -0.564372
v 0.660084 -1.821655 0.021776
v -0.709851 -8.233643 -1.012943
v -0.824712 -1.690427 0.312164
v -0.570476 -4.183105 -1.018238
v -0.033177 0.619718 -2.051543
v -0.033177 0.617645 0.644642
v 0.084903 0.608088 -2.051552
v 0.084903 0.606015 0.644633
v 0.198445 0.573645 -2.051579
v 0.198445 0.571572 0.644607
v 0.303087 0.517713 -2.051621
v 0.303087 0.515640 0.644564
v 0.394806 0.442442 -2.051680
v 0.394806 0.440368 0.644506
v 0.470078 0.350723 -2.051750
v 0.470077 0.348649 0.644435
v 0.526009 0.246081 -2.051830
v 0.526009 0.244008 0.644355
v 0.560452 0.132539 -2.051918
v 0.560452 0.130465 0.644267
v 0.572082 0.014458 -2.052009
v 0.572082 0.012385 0.644177
v 0.560452 -0.103622 -2.052099
v 0.560452 -0.105695 0.644086
v 0.526009 -0.217165 -2.052186
v 0.526009 -0.219238 0.643999
v 0.470078 -0.321806 -2.052267
v 0.470078 -0.323879 0.643918
v 0.394806 -0.413525 -2.052338
v 0.394806 -0.415598 0.643847
v 0.303087 -0.488797 -2.052396
v 0.303087 -0.490870 0.643790
v 0.198445 -0.544729 -2.052439
v 0.198445 -0.546802 0.643747
v 0.084903 -0.579172 -2.052465
v 0.084903 -0.581245 0.643720
v -0.033177 -0.590802 -2.052474
v -0.033177 -0.592875 0.643711
v -0.151257 -0.579172 -2.052465
v -0.151258 -0.581245 0.643720
v -0.264800 -0.544729 -2.052439
v -0.264800 -0.546802 0.643747
v -0.369441 -0.488797 -2.052395
v -0.369441 -0.490870 0.643790
v -0.461160 -0.413525 -2.052338
v -0.461160 -0.415598 0.643847
v -0.536432 -0.321806 -2.052267
v -0.536432 -0.323879 0.643918
v -0.592364 -0.217165 -2.052186
v -0.592364 -0.219238 0.643999
v -0.626807 -0.103622 -2.052099
v -0.626807 -0.105695 0.644086
v -0.638437 0.014458 -2.052009
v -0.638437 0.012385 0.644177
v -0.626807 0.132538 -2.051918
v -0.626807 0.130465 0.644267
v -0.592364 0.246081 -2.051830
v -0.592364 0.244008 0.644355
v -0.536432 0.350723 -2.051750
v -0.536432 0.348649 0.644435
v -0.461160 0.442442 -2.051679
v -0.461160 0.440368 0.644506
v -0.369441 0.517713 -2.051621
v -0.369441 0.515640 0.644564
v -0.264800 0.573645 -2.051579
v -0.264800 0.571572 0.644607
v -0.151257 0.608088 -2.051552
v -0.151258 0.606015 0.644633
v -0.354783 0.156655 0.217412
v -0.258547 0.003447 -0.572785
v 0.015003 -0.432047 0.217137
v 0.159455 -0.662015 -0.564372
v 1.155837 1.511785 0.021776
v 7.248232 3.935218 -1.012943
v 1.871672 0.204337 0.312164
v 3.802964 1.800642 -1.018238
v 0.005358 -0.697046 0.217412
v 0.118706 -0.556027 -0.572785
v 0.440899 -0.155182 0.217137
v 0.611037 0.056489 -0.564372
v -1.769021 0.287803 0.021776
v -6.050310 5.253775 -1.012943
v -0.767279 1.391592 0.312164
v -2.907063 2.695205 -1.018238
vn 0.0282 0.9996 -0.0000
vn -0.9120 0.2575 0.3193
vn 0.1318 -0.4563 0.8800
vn 0.9626 0.1591 -0.2193
vn 0.0010 0.0498 0.9988
vn 0.5934 -0.0215 -0.8046
vn 0.0980 0.9952 0.0008
vn 0.2903 0.9569 0.0007
vn 0.4714 0.8819 0.0007
vn 0.6344 0.7730 0.0006
vn 0.7730 0.6344 0.0005
vn 0.8819 0.4714 0.0004
vn 0.9569 0.2903 0.0002
vn 0.9952 0.0980 0.0001
vn 0.9952 -0.0980 -0.0001
vn 0.9569 -0.2903 -0.0002
vn 0.8819 -0.4714 -0.0004
vn 0.7730 -0.6344 -0.0005
vn 0.6344 -0.7730 -0.0006
vn 0.4714 -0.8819 -0.0007
vn 0.2903 -0.9569 -0.0007
vn 0.0980 -0.9952 -0.0008
vn -0.0980 -0.9952 -0.0008
vn -0.2903 -0.9569 -0.0007
vn -0.4714 -0.8819 -0.0007
vn -0.6344 -0.7730 -0.0006
vn -0.7730 -0.6344 -0.0005
vn -0.8819 -0.4714 -0.0004
vn -0.9569 -0.2903 -0.0002
vn -0.9952 -0.0980 -0.0001
vn -0.9952 0.0980 0.0001
vn -0.9569 0.2903 0.0002
vn -0.8819 0.4714 0.0004
vn -0.7730 0.6344 0.0005
vn -0.6344 0.7730 0.0006
vn -0.4714 0.8819 0.0007
vn -0.0000 -0.0008 1.0000
vn -0.2903 0.9569 0.0007
vn -0.0980 0.9952 0.0008
vn -0.0000 0.0008 -1.0000
vn -0.8468 -0.5319 -0.0000
vn 0.2926 -0.9013 0.3193
vn 0.3061 0.3631 0.8800
vn -0.6671 0.7120 -0.2193
vn -0.0419 -0.0268 0.9988
vn -0.3119 0.5053 -0.8046
vn 0.7794 -0.6265 -0.0000
vn 0.7562 0.5711 0.3193
vn -0.4432 0.1707 0.8800
vn -0.4549 -0.8631 -0.2193
vn 0.0390 -0.0309 0.9988
vn -0.3757 -0.4599 -0.8046
vn -0.9755 0.0175 -0.2191
vn -0.6719 0.0241 0.7403
vn 0.7146 -0.0400 -0.6983
vn 0.1856 -0.0689 0.9802
vn -0.0078 0.1026 -0.9947
vn -0.0000 0.0007 -1.0000
vn 0.5275 -0.8208 -0.2191
vn 0.3533 -0.5720 0.7403
vn -0.3638 0.6164 -0.6983
vn -0.0458 0.1926 0.9802
vn -0.0810 -0.0635 -0.9947
vn 0.6034 0.7668 -0.2191
vn 0.4252 0.5208 0.7403
vn -0.4637 -0.5453 -0.6983
vn -0.1671 -0.1063 0.9802
vn 0.0865 -0.0558 -0.9947
vt 0.625000 0.000000
vt 0.375000 0.250000
vt 0.375000 0.000000
vt 0.625000 0.250000
vt 0.375000 0.500000
vt 0.625000 0.500000
vt 0.375000 0.750000
vt 0.625000 1.000000
vt 0.375000 1.000000
vt 0.125000 0.750000
vt 0.125000 0.500000
vt 0.875000 0.750000
vt 0.625000 0.750000
vt 1.000000 1.000000
vt 0.968750 0.500000
vt 1.000000 0.500000
vt 0.937500 1.000000
vt 0.937500 0.500000
vt 0.906250 1.000000
vt 0.906250 0.500000
vt 0.875000 0.500000
vt 0.843750 1.000000
vt 0.843750 0.500000
vt 0.812500 1.000000
vt 0.812500 0.500000
vt 0.781250 1.000000
vt 0.781250 0.500000
vt 0.750000 1.000000
vt 0.750000 0.500000
vt 0.718750 0.500000
vt 0.687500 1.000000
vt 0.687500 0.500000
vt 0.656250 1.000000
vt 0.656250 0.500000
vt 0.593750 0.500000
vt 0.593750 1.000000
vt 0.562500 0.500000
vt 0.531250 1.000000
vt 0.531250 0.500000
vt 0.500000 0.500000
vt 0.468750 1.000000
vt 0.468750 0.500000
vt 0.437500 1.000000
vt 0.437500 0.500000
vt 0.406250 1.000000
vt 0.406250 0.500000
vt 0.343750 0.500000
vt 0.343750 1.000000
vt 0.312500 0.500000
vt 0.281250 1.000000
vt 0.281250 0.500000
vt 0.250000 0.500000
vt 0.218750 1.000000
vt 0.218750 0.500000
vt 0.187500 0.500000
vt 0.187500 1.000000
vt 0.156250 0.500000
vt 0.156250 1.000000
vt 0.125000 1.000000
vt 0.093750 0.500000
vt 0.093750 1.000000
vt 0.062500 0.500000
vt 0.158156 0.028269
vt 0.471731 0.158156
vt 0.341844 0.471731
vt 0.031250 1.000000
vt 0.031250 0.500000
vt 0.000000 0.500000
vt 0.796822 0.014612
vt 0.514612 0.203178
vt 0.703178 0.485388
vt 0.968750 1.000000
vt 0.875000 1.000000
vt 0.718750 1.000000
vt 0.562500 1.000000
vt 0.500000 1.000000
vt 0.312500 1.000000
vt 0.250000 1.000000
vt 0.062500 1.000000
vt 0.296822 0.485388
vt 0.250000 0.490000
vt 0.203178 0.485388
vt 0.158156 0.471731
vt 0.116663 0.449553
vt 0.080294 0.419706
vt 0.050447 0.383337
vt 0.028269 0.341844
vt 0.014612 0.296822
vt 0.010000 0.250000
vt 0.014612 0.203178
vt 0.028269 0.158156
vt 0.050447 0.116663
vt 0.080294 0.080294
vt 0.116663 0.050447
vt 0.203178 0.014612
vt 0.250000 0.010000
vt 0.296822 0.014612
vt 0.341844 0.028269
vt 0.383337 0.050447
vt 0.419706 0.080294
vt 0.449553 0.116663
vt 0.485388 0.203178
vt 0.490000 0.250000
vt 0.485388 0.296822
vt 0.471731 0.341844
vt 0.449553 0.383337
vt 0.419706 0.419706
vt 0.383337 0.449553
vt 0.000000 1.000000
vt 0.750000 0.490000
vt 0.796822 0.485388
vt 0.841844 0.471731
vt 0.883337 0.449553
vt 0.919706 0.419706
vt 0.949553 0.383337
vt 0.971731 0.341844
vt 0.985388 0.296822
vt 0.990000 0.250000
vt 0.985388 0.203178
vt 0.971731 0.158156
vt 0.949553 0.116663
vt 0.919706 0.080294
vt 0.883337 0.050447
vt 0.841844 0.028269
vt 0.750000 0.010000
vt 0.703178 0.014612
vt 0.658156 0.028269
vt 0.616663 0.050447
vt 0.580294 0.080294
vt 0.550447 0.116663
vt 0.528269 0.158156
vt 0.510000 0.250000
vt 0.514612 0.296822
vt 0.528269 0.341844
vt 0.550447 0.383337
vt 0.580294 0.419706
vt 0.616663 0.449553
vt 0.658156 0.471731
s 0
f 2/1/1 3/2/1 1/3/1
f 4/4/2 7/5/2 3/2/2
f 8/6/3 5/7/3 7/5/3
f 5/7/4 2/8/4 1/9/4
f 7/5/5 1/10/5 3/11/5
f 8/6/6 2/12/6 6/13/6
f 10/14/7 11/15/7 9/16/7
f 11/15/8 14/17/8 13/18/8
f 13/18/9 16/19/9 15/20/9
f 16/19/10 17/21/10 15/20/10
f 17/21/11 20/22/11 19/23/11
f 19/23/12 22/24/12 21/25/12
f 21/25/13 24/26/13 23/27/13
f 23/27/14 26/28/14 25/29/14
f 26/28/15 27/30/15 25/29/15
f 27/30/16 30/31/16 29/32/16
f 29/32/17 32/33/17 31/34/17
f 32/33/18 33/6/18 31/34/18
f 34/8/19 35/35/19 33/6/19
f 36/36/20 37/37/20 35/35/20
f 37/37/21 40/38/21 39/39/21
f 40/38/22 41/40/22 39/39/22
f 41/40/23 44/41/23 43/42/23
f 43/42/24 46/43/24 45/44/24
f 45/44/25 48/45/25 47/46/25
f 48/45/26 49/5/26 47/46/26
f 50/9/27 51/47/27 49/5/27
f 52/48/28 53/49/28 51/47/28
f 53/49/29 56/50/29 55/51/29
f 56/50/30 57/52/30 55/51/30
f 57/52/31 60/53/31 59/54/31
f 60/53/32 61/55/32 59/54/32
f 62/56/33 63/57/33 61/55/33
f 64/58/34 65/11/34 63/57/34
f 66/59/35 67/60/35 65/11/35
f 68/61/36 69/62/36 67/60/36
f 46/63/37 30/64/37 14/65/37
f 69/62/38 72/66/38 71/67/38
f 72/66/39 9/68/39 71/67/39
f 39/69/40 55/70/40 71/71/40
f 74/1/41 75/2/41 73/3/41
f 76/4/42 79/5/42 75/2/42
f 80/6/43 77/7/43 79/5/43
f 77/7/44 74/8/44 73/9/44
f 79/5/45 73/10/45 75/11/45
f 80/6/46 74/12/46 78/13/46
f 82/1/47 83/2/47 81/3/47
f 84/4/48 87/5/48 83/2/48
f 88/6/49 85/7/49 87/5/49
f 85/7/50 82/8/50 81/9/50
f 87/5/51 81/10/51 83/11/51
f 88/6/52 82/12/52 86/13/52
f 2/1/1 4/4/1 3/2/1
f 4/4/53 8/6/53 7/5/53
f 8/6/54 6/13/54 5/7/54
f 5/7/55 6/13/55 2/8/55
f 7/5/56 5/7/56 1/10/56
f 8/6/57 4/21/57 2/12/57
f 10/14/7 12/72/7 11/15/7
f 11/15/8 12/72/8 14/17/8
f 13/18/9 14/17/9 16/19/9
f 16/19/10 18/73/10 17/21/10
f 17/21/11 18/73/11 20/22/11
f 19/23/12 20/22/12 22/24/12
f 21/25/13 22/24/13 24/26/13
f 23/27/14 24/26/14 26/28/14
f 26/28/15 28/74/15 27/30/15
f 27/30/16 28/74/16 30/31/16
f 29/32/17 30/31/17 32/33/17
f 32/33/18 34/8/18 33/6/18
f 34/8/19 36/36/19 35/35/19
f 36/36/20 38/75/20 37/37/20
f 37/37/21 38/75/21 40/38/21
f 40/38/22 42/76/22 41/40/22
f 41/40/23 42/76/23 44/41/23
f 43/42/24 44/41/24 46/43/24
f 45/44/25 46/43/25 48/45/25
f 48/45/26 50/9/26 49/5/26
f 50/9/27 52/48/27 51/47/27
f 52/48/28 54/77/28 53/49/28
f 53/49/29 54/77/29 56/50/29
f 56/50/30 58/78/30 57/52/30
f 57/52/31 58/78/31 60/53/31
f 60/53/32 62/56/32 61/55/32
f 62/56/33 64/58/33 63/57/33
f 64/58/34 66/59/34 65/11/34
f 66/59/35 68/61/35 67/60/35
f 68/61/36 70/79/36 69/62/36
f 14/65/37 12/80/37 10/81/37
f 10/81/37 72/82/37 70/83/37
f 70/83/37 68/84/37 66/85/37
f 66/85/37 64/86/37 62/87/37
f 62/87/37 60/88/37 58/89/37
f 58/89/37 56/90/37 54/91/37
f 54/91/37 52/92/37 50/93/37
f 50/93/37 48/94/37 46/63/37
f 46/63/37 44/95/37 42/96/37
f 42/96/37 40/97/37 38/98/37
f 38/98/37 36/99/37 34/100/37
f 34/100/37 32/101/37 30/64/37
f 30/64/37 28/102/37 26/103/37
f 26/103/37 24/104/37 22/105/37
f 22/105/37 20/106/37 18/107/37
f 18/107/37 16/108/37 14/65/37
f 14/65/37 10/81/37 70/83/37
f 70/83/37 66/85/37 62/87/37
f 62/87/37 58/89/37 54/91/37
f 54/91/37 50/93/37 46/63/37
f 46/63/37 42/96/37 38/98/37
f 38/98/37 34/100/37 30/64/37
f 30/64/37 26/103/37 22/105/37
f 22/105/37 18/107/37 14/65/37
f 14/65/37 70/83/37 62/87/37
f 62/87/37 54/91/37 46/63/37
f 46/63/37 38/98/37 30/64/37
f 30/64/37 22/105/37 14/65/37
f 14/65/37 62/87/37 46/63/37
f 69/62/38 70/79/38 72/66/38
f 72/66/39 10/109/39 9/68/39
f 71/71/40 9/110/40 11/111/40
f 11/111/58 13/112/58 15/113/58
f 15/113/40 17/114/40 19/115/40
f 19/115/40 21/116/40 23/117/40
f 23/117/40 25/118/40 27/119/40
f 27/119/40 29/120/40 31/121/40
f 31/121/40 33/122/40 35/123/40
f 35/123/40 37/124/40 39/69/40
f 39/69/40 41/125/40 43/126/40
f 43/126/58 45/127/58 47/128/58
f 47/128/40 49/129/40 51/130/40
f 51/130/40 53/131/40 55/70/40
f 55/70/40 57/132/40 59/133/40
f 59/133/40 61/134/40 63/135/40
f 63/135/40 65/136/40 67/137/40
f 67/137/40 69/138/40 71/71/40
f 71/71/40 11/111/40 15/113/40
f 15/113/40 19/115/40 23/117/40
f 23/117/40 27/119/40 31/121/40
f 31/121/40 35/123/40 39/69/40
f 39/69/40 43/126/40 47/128/40
f 47/128/40 51/130/40 55/70/40
f 55/70/40 59/133/40 63/135/40
f 63/135/40 67/137/40 71/71/40
f 71/71/40 15/113/40 23/117/40
f 23/117/40 31/121/40 39/69/40
f 39/69/40 47/128/40 55/70/40
f 55/70/40 63/135/40 71/71/40
f 71/71/40 23/117/40 39/69/40
f 74/1/41 76/4/41 75/2/41
f 76/4/59 80/6/59 79/5/59
f 80/6/60 78/13/60 77/7/60
f 77/7/61 78/13/61 74/8/61
f 79/5/62 77/7/62 73/10/62
f 80/6/63 76/21/63 74/12/63
f 82/1/47 84/4/47 83/2/47
f 84/4/64 88/6/64 87/5/64
f 88/6/65 86/13/65 85/7/65
f 85/7/66 86/13/66 82/8/66
f 87/5/67 85/7/67 81/10/67
f 88/6/68 84/21/68 82/12/68
