# Blender 3.5.0
# www.blender.org
mtllib Cannon1.mtl
o 円柱
v 0.000000 -2.529150 -0.669803
v 0.000000 2.529150 -0.669803
v 0.130672 -2.529150 -0.656933
v 0.130672 2.529150 -0.656933
v 0.256322 -2.529150 -0.618817
v 0.256322 2.529150 -0.618817
v 0.372122 -2.529150 -0.556921
v 0.372122 2.529150 -0.556921
v 0.473622 -2.529150 -0.473622
v 0.473622 2.529150 -0.473622
v 0.556921 -2.529150 -0.372122
v 0.556921 2.529150 -0.372122
v 0.618817 -2.529150 -0.256322
v 0.618817 2.529150 -0.256322
v 0.656933 -2.529150 -0.130672
v 0.656933 2.529150 -0.130672
v 0.669803 -2.529150 0.000000
v 0.669803 2.529150 0.000000
v 0.656933 -2.529150 0.130672
v 0.656933 2.529150 0.130672
v 0.618817 -2.529150 0.256322
v 0.618817 2.529150 0.256322
v 0.556921 -2.529150 0.372122
v 0.556921 2.529150 0.372122
v 0.473622 -2.529150 0.473622
v 0.473622 2.529150 0.473622
v 0.372122 -2.529150 0.556921
v 0.372122 2.529150 0.556921
v 0.256322 -2.529150 0.618817
v 0.256322 2.529150 0.618817
v 0.130672 -2.529150 0.656933
v 0.130672 2.529150 0.656933
v 0.000000 -2.529150 0.669803
v 0.000000 2.529150 0.669803
v -0.130672 -2.529150 0.656933
v -0.130672 2.529150 0.656933
v -0.256322 -2.529150 0.618817
v -0.256322 2.529150 0.618817
v -0.372122 -2.529150 0.556921
v -0.372122 2.529150 0.556921
v -0.473622 -2.529150 0.473622
v -0.473622 2.529150 0.473622
v -0.556921 -2.529150 0.372122
v -0.556921 2.529150 0.372122
v -0.618817 -2.529150 0.256322
v -0.618817 2.529150 0.256322
v -0.656933 -2.529150 0.130672
v -0.656933 2.529150 0.130672
v -0.669803 -2.529150 0.000000
v -0.669803 2.529150 0.000000
v -0.656933 -2.529150 -0.130672
v -0.656933 2.529150 -0.130672
v -0.618817 -2.529150 -0.256322
v -0.618817 2.529150 -0.256322
v -0.556921 -2.529150 -0.372122
v -0.556921 2.529150 -0.372122
v -0.473622 -2.529150 -0.473622
v -0.473622 2.529150 -0.473622
v -0.372122 -2.529150 -0.556921
v -0.372122 2.529150 -0.556921
v -0.256322 -2.529150 -0.618817
v -0.256322 2.529150 -0.618817
v -0.130672 -2.529150 -0.656933
v -0.130672 2.529150 -0.656933
v 0.666156 2.506971 -0.000000
v 0.648307 2.573587 -0.000000
v 0.599541 2.622353 -0.000000
v 0.532925 2.640203 -0.000000
v 0.466309 2.622353 -0.000000
v 0.417543 2.573587 -0.000000
v 0.399694 2.506971 -0.000000
v 0.417543 2.440356 -0.000000
v 0.466309 2.391589 -0.000000
v 0.532925 2.373740 -0.000000
v 0.599541 2.391589 -0.000000
v 0.648307 2.440356 -0.000000
v 0.660457 2.506971 -0.086951
v 0.642761 2.573587 -0.084621
v 0.594412 2.622353 -0.078256
v 0.528366 2.640203 -0.069561
v 0.462320 2.622353 -0.060866
v 0.413971 2.573587 -0.054500
v 0.396274 2.506971 -0.052171
v 0.413971 2.440356 -0.054500
v 0.462320 2.391589 -0.060866
v 0.528366 2.373740 -0.069561
v 0.594412 2.391589 -0.078256
v 0.642761 2.440356 -0.084621
v 0.643458 2.506971 -0.172414
v 0.626216 2.573587 -0.167794
v 0.579112 2.622353 -0.155173
v 0.514766 2.640203 -0.137931
v 0.450420 2.622353 -0.120690
v 0.403316 2.573587 -0.108068
v 0.386075 2.506971 -0.103448
v 0.403316 2.440356 -0.108068
v 0.450420 2.391589 -0.120690
v 0.514766 2.373740 -0.137931
v 0.579112 2.391589 -0.155173
v 0.626216 2.440356 -0.167794
v 0.615448 2.506971 -0.254927
v 0.598957 2.573587 -0.248096
v 0.553903 2.622353 -0.229434
v 0.492359 2.640203 -0.203942
v 0.430814 2.622353 -0.178449
v 0.385760 2.573587 -0.159787
v 0.369269 2.506971 -0.152956
v 0.385760 2.440356 -0.159787
v 0.430814 2.391589 -0.178449
v 0.492359 2.373740 -0.203942
v 0.553903 2.391589 -0.229434
v 0.598957 2.440356 -0.248096
v 0.576908 2.506971 -0.333078
v 0.561450 2.573587 -0.324154
v 0.519217 2.622353 -0.299771
v 0.461527 2.640203 -0.266463
v 0.403836 2.622353 -0.233155
v 0.361603 2.573587 -0.208772
v 0.346145 2.506971 -0.199847
v 0.361603 2.440356 -0.208772
v 0.403836 2.391589 -0.233155
v 0.461527 2.373740 -0.266463
v 0.519217 2.391589 -0.299771
v 0.561450 2.440356 -0.324154
v 0.528498 2.506971 -0.405530
v 0.514336 2.573587 -0.394664
v 0.475648 2.622353 -0.364977
v 0.422798 2.640203 -0.324424
v 0.369948 2.622353 -0.283871
v 0.331260 2.573587 -0.254184
v 0.317098 2.506971 -0.243318
v 0.331260 2.440356 -0.254184
v 0.369948 2.391589 -0.283871
v 0.422798 2.373740 -0.324424
v 0.475648 2.391589 -0.364977
v 0.514336 2.440356 -0.394664
v 0.471044 2.506971 -0.471044
v 0.458422 2.573587 -0.458422
v 0.423939 2.622353 -0.423939
v 0.376835 2.640203 -0.376835
v 0.329731 2.622353 -0.329731
v 0.295248 2.573587 -0.295248
v 0.282626 2.506971 -0.282626
v 0.295248 2.440356 -0.295248
v 0.329731 2.391589 -0.329731
v 0.376835 2.373740 -0.376835
v 0.423939 2.391589 -0.423939
v 0.458422 2.440356 -0.458422
v 0.405530 2.506971 -0.528497
v 0.394664 2.573587 -0.514336
v 0.364977 2.622353 -0.475648
v 0.324424 2.640203 -0.422798
v 0.283871 2.622353 -0.369948
v 0.254184 2.573587 -0.331259
v 0.243318 2.506971 -0.317098
v 0.254184 2.440356 -0.331259
v 0.283871 2.391589 -0.369948
v 0.324424 2.373740 -0.422798
v 0.364977 2.391589 -0.475648
v 0.394664 2.440356 -0.514336
v 0.333078 2.506971 -0.576908
v 0.324153 2.573587 -0.561450
v 0.299770 2.622353 -0.519218
v 0.266463 2.640203 -0.461527
v 0.233155 2.622353 -0.403836
v 0.208772 2.573587 -0.361603
v 0.199847 2.506971 -0.346145
v 0.208772 2.440356 -0.361603
v 0.233155 2.391589 -0.403836
v 0.266463 2.373740 -0.461527
v 0.299770 2.391589 -0.519218
v 0.324153 2.440356 -0.561450
v 0.254927 2.506971 -0.615448
v 0.248096 2.573587 -0.598957
v 0.229434 2.622353 -0.553903
v 0.203942 2.640203 -0.492359
v 0.178449 2.622353 -0.430814
v 0.159787 2.573587 -0.385760
v 0.152956 2.506971 -0.369269
v 0.159787 2.440356 -0.385760
v 0.178449 2.391589 -0.430814
v 0.203942 2.373740 -0.492359
v 0.229434 2.391589 -0.553903
v 0.248096 2.440356 -0.598957
v 0.172414 2.506971 -0.643458
v 0.167794 2.573587 -0.626216
v 0.155173 2.622353 -0.579112
v 0.137931 2.640203 -0.514766
v 0.120690 2.622353 -0.450420
v 0.108068 2.573587 -0.403316
v 0.103448 2.506971 -0.386075
v 0.108068 2.440356 -0.403316
v 0.120690 2.391589 -0.450420
v 0.137931 2.373740 -0.514766
v 0.155173 2.391589 -0.579112
v 0.167794 2.440356 -0.626216
v 0.086951 2.506971 -0.660457
v 0.084621 2.573587 -0.642761
v 0.078256 2.622353 -0.594412
v 0.069561 2.640203 -0.528366
v 0.060865 2.622353 -0.462320
v 0.054500 2.573587 -0.413971
v 0.052170 2.506971 -0.396274
v 0.054500 2.440356 -0.413971
v 0.060865 2.391589 -0.462320
v 0.069561 2.373740 -0.528366
v 0.078256 2.391589 -0.594412
v 0.084621 2.440356 -0.642761
v 0.000000 2.506971 -0.666156
v 0.000000 2.573587 -0.648307
v 0.000000 2.622353 -0.599541
v 0.000000 2.640203 -0.532925
v 0.000000 2.622353 -0.466309
v 0.000000 2.573587 -0.417543
v 0.000000 2.506971 -0.399694
v 0.000000 2.440356 -0.417543
v 0.000000 2.391589 -0.466309
v 0.000000 2.373740 -0.532925
v 0.000000 2.391589 -0.599541
v 0.000000 2.440356 -0.648307
v -0.086951 2.506971 -0.660457
v -0.084621 2.573587 -0.642760
v -0.078256 2.622353 -0.594412
v -0.069561 2.640203 -0.528366
v -0.060866 2.622353 -0.462320
v -0.054500 2.573587 -0.413971
v -0.052171 2.506971 -0.396274
v -0.054500 2.440356 -0.413971
v -0.060866 2.391589 -0.462320
v -0.069561 2.373740 -0.528366
v -0.078256 2.391589 -0.594412
v -0.084621 2.440356 -0.642760
v -0.172414 2.506971 -0.643458
v -0.167794 2.573587 -0.626216
v -0.155173 2.622353 -0.579112
v -0.137931 2.640203 -0.514766
v -0.120690 2.622353 -0.450420
v -0.108068 2.573587 -0.403316
v -0.103448 2.506971 -0.386075
v -0.108068 2.440356 -0.403316
v -0.120690 2.391589 -0.450420
v -0.137931 2.373740 -0.514766
v -0.155173 2.391589 -0.579112
v -0.167794 2.440356 -0.626216
v -0.254927 2.506971 -0.615448
v -0.248096 2.573587 -0.598957
v -0.229434 2.622353 -0.553903
v -0.203942 2.640203 -0.492359
v -0.178449 2.622353 -0.430814
v -0.159787 2.573587 -0.385760
v -0.152956 2.506971 -0.369269
v -0.159787 2.440356 -0.385760
v -0.178449 2.391589 -0.430814
v -0.203942 2.373740 -0.492359
v -0.229434 2.391589 -0.553903
v -0.248096 2.440356 -0.598957
v -0.333078 2.506971 -0.576909
v -0.324153 2.573587 -0.561450
v -0.299770 2.622353 -0.519218
v -0.266463 2.640203 -0.461527
v -0.233155 2.622353 -0.403836
v -0.208772 2.573587 -0.361603
v -0.199847 2.506971 -0.346145
v -0.208772 2.440356 -0.361603
v -0.233155 2.391589 -0.403836
v -0.266463 2.373740 -0.461527
v -0.299770 2.391589 -0.519218
v -0.324153 2.440356 -0.561450
v -0.405530 2.506971 -0.528497
v -0.394664 2.573587 -0.514336
v -0.364977 2.622353 -0.475648
v -0.324424 2.640203 -0.422798
v -0.283871 2.622353 -0.369948
v -0.254184 2.573587 -0.331260
v -0.243318 2.506971 -0.317098
v -0.254184 2.440356 -0.331260
v -0.283871 2.391589 -0.369948
v -0.324424 2.373740 -0.422798
v -0.364977 2.391589 -0.475648
v -0.394664 2.440356 -0.514336
v -0.471044 2.506971 -0.471044
v -0.458422 2.573587 -0.458422
v -0.423940 2.622353 -0.423939
v -0.376835 2.640203 -0.376835
v -0.329731 2.622353 -0.329731
v -0.295248 2.573587 -0.295248
v -0.282626 2.506971 -0.282626
v -0.295248 2.440356 -0.295248
v -0.329731 2.391589 -0.329731
v -0.376835 2.373740 -0.376835
v -0.423940 2.391589 -0.423939
v -0.458422 2.440356 -0.458422
v -0.528497 2.506971 -0.405530
v -0.514336 2.573587 -0.394664
v -0.475648 2.622353 -0.364977
v -0.422798 2.640203 -0.324424
v -0.369948 2.622353 -0.283871
v -0.331260 2.573587 -0.254184
v -0.317098 2.506971 -0.243318
v -0.331260 2.440356 -0.254184
v -0.369948 2.391589 -0.283871
v -0.422798 2.373740 -0.324424
v -0.475648 2.391589 -0.364977
v -0.514336 2.440356 -0.394664
v -0.576908 2.506971 -0.333078
v -0.561450 2.573587 -0.324154
v -0.519218 2.622353 -0.299771
v -0.461527 2.640203 -0.266463
v -0.403836 2.622353 -0.233155
v -0.361603 2.573587 -0.208772
v -0.346145 2.506971 -0.199847
v -0.361603 2.440356 -0.208772
v -0.403836 2.391589 -0.233155
v -0.461527 2.373740 -0.266463
v -0.519218 2.391589 -0.299771
v -0.561450 2.440356 -0.324154
v -0.615448 2.506971 -0.254927
v -0.598958 2.573587 -0.248096
v -0.553904 2.622353 -0.229434
v -0.492359 2.640203 -0.203942
v -0.430814 2.622353 -0.178449
v -0.385760 2.573587 -0.159787
v -0.369269 2.506971 -0.152956
v -0.385760 2.440356 -0.159787
v -0.430814 2.391589 -0.178449
v -0.492359 2.373740 -0.203942
v -0.553904 2.391589 -0.229434
v -0.598958 2.440356 -0.248096
v -0.643458 2.506971 -0.172414
v -0.626216 2.573587 -0.167794
v -0.579112 2.622353 -0.155172
v -0.514766 2.640203 -0.137931
v -0.450420 2.622353 -0.120690
v -0.403316 2.573587 -0.108068
v -0.386075 2.506971 -0.103448
v -0.403316 2.440356 -0.108068
v -0.450420 2.391589 -0.120690
v -0.514766 2.373740 -0.137931
v -0.579112 2.391589 -0.155172
v -0.626216 2.440356 -0.167794
v -0.660457 2.506971 -0.086951
v -0.642761 2.573587 -0.084621
v -0.594412 2.622353 -0.078256
v -0.528366 2.640203 -0.069561
v -0.462320 2.622353 -0.060866
v -0.413971 2.573587 -0.054500
v -0.396275 2.506971 -0.052171
v -0.413971 2.440356 -0.054500
v -0.462320 2.391589 -0.060866
v -0.528366 2.373740 -0.069561
v -0.594412 2.391589 -0.078256
v -0.642761 2.440356 -0.084621
v -0.666157 2.506971 -0.000000
v -0.648307 2.573587 -0.000000
v -0.599541 2.622353 -0.000000
v -0.532925 2.640203 -0.000000
v -0.466310 2.622353 -0.000000
v -0.417544 2.573587 -0.000000
v -0.399694 2.506971 -0.000000
v -0.417544 2.440356 -0.000000
v -0.466310 2.391589 -0.000000
v -0.532925 2.373740 -0.000000
v -0.599541 2.391589 -0.000000
v -0.648307 2.440356 -0.000000
v -0.660457 2.506971 0.086951
v -0.642761 2.573587 0.084621
v -0.594412 2.622353 0.078256
v -0.528366 2.640203 0.069561
v -0.462320 2.622353 0.060866
v -0.413971 2.573587 0.054500
v -0.396275 2.506971 0.052171
v -0.413971 2.440356 0.054500
v -0.462320 2.391589 0.060866
v -0.528366 2.373740 0.069561
v -0.594412 2.391589 0.078256
v -0.642761 2.440356 0.084621
v -0.643458 2.506971 0.172414
v -0.626216 2.573587 0.167794
v -0.579112 2.622353 0.155173
v -0.514766 2.640203 0.137931
v -0.450420 2.622353 0.120690
v -0.403316 2.573587 0.108068
v -0.386075 2.506971 0.103448
v -0.403316 2.440356 0.108068
v -0.450420 2.391589 0.120690
v -0.514766 2.373740 0.137931
v -0.579112 2.391589 0.155173
v -0.626216 2.440356 0.167794
v -0.615448 2.506971 0.254927
v -0.598958 2.573587 0.248096
v -0.553904 2.622353 0.229434
v -0.492359 2.640203 0.203941
v -0.430814 2.622353 0.178449
v -0.385760 2.573587 0.159787
v -0.369269 2.506971 0.152956
v -0.385760 2.440356 0.159787
v -0.430814 2.391589 0.178449
v -0.492359 2.373740 0.203941
v -0.553904 2.391589 0.229434
v -0.598958 2.440356 0.248096
v -0.576909 2.506971 0.333078
v -0.561450 2.573587 0.324153
v -0.519218 2.622353 0.299770
v -0.461527 2.640203 0.266463
v -0.403836 2.622353 0.233155
v -0.361603 2.573587 0.208772
v -0.346145 2.506971 0.199847
v -0.361603 2.440356 0.208772
v -0.403836 2.391589 0.233155
v -0.461527 2.373740 0.266463
v -0.519218 2.391589 0.299770
v -0.561450 2.440356 0.324153
v -0.528497 2.506971 0.405530
v -0.514336 2.573587 0.394664
v -0.475648 2.622353 0.364977
v -0.422798 2.640203 0.324424
v -0.369948 2.622353 0.283871
v -0.331260 2.573587 0.254184
v -0.317098 2.506971 0.243318
v -0.331260 2.440356 0.254184
v -0.369948 2.391589 0.283871
v -0.422798 2.373740 0.324424
v -0.475648 2.391589 0.364977
v -0.514336 2.440356 0.394664
v -0.471044 2.506971 0.471044
v -0.458422 2.573587 0.458422
v -0.423940 2.622353 0.423939
v -0.376835 2.640203 0.376835
v -0.329731 2.622353 0.329731
v -0.295248 2.573587 0.295248
v -0.282626 2.506971 0.282626
v -0.295248 2.440356 0.295248
v -0.329731 2.391589 0.329731
v -0.376835 2.373740 0.376835
v -0.423940 2.391589 0.423939
v -0.458422 2.440356 0.458422
v -0.405531 2.506971 0.528497
v -0.394665 2.573587 0.514336
v -0.364978 2.622353 0.475648
v -0.324425 2.640203 0.422798
v -0.283871 2.622353 0.369948
v -0.254185 2.573587 0.331259
v -0.243318 2.506971 0.317098
v -0.254185 2.440356 0.331259
v -0.283871 2.391589 0.369948
v -0.324425 2.373740 0.422798
v -0.364978 2.391589 0.475648
v -0.394665 2.440356 0.514336
v -0.333078 2.506971 0.576909
v -0.324153 2.573587 0.561450
v -0.299770 2.622353 0.519218
v -0.266463 2.640203 0.461527
v -0.233155 2.622353 0.403836
v -0.208772 2.573587 0.361603
v -0.199847 2.506971 0.346145
v -0.208772 2.440356 0.361603
v -0.233155 2.391589 0.403836
v -0.266463 2.373740 0.461527
v -0.299770 2.391589 0.519218
v -0.324153 2.440356 0.561450
v -0.254927 2.506971 0.615448
v -0.248096 2.573587 0.598957
v -0.229434 2.622353 0.553904
v -0.203942 2.640203 0.492359
v -0.178449 2.622353 0.430814
v -0.159787 2.573587 0.385760
v -0.152956 2.506971 0.369269
v -0.159787 2.440356 0.385760
v -0.178449 2.391589 0.430814
v -0.203942 2.373740 0.492359
v -0.229434 2.391589 0.553904
v -0.248096 2.440356 0.598957
v -0.172414 2.506971 0.643458
v -0.167794 2.573587 0.626216
v -0.155173 2.622353 0.579112
v -0.137931 2.640203 0.514766
v -0.120690 2.622353 0.450420
v -0.108068 2.573587 0.403316
v -0.103449 2.506971 0.386075
v -0.108068 2.440356 0.403316
v -0.120690 2.391589 0.450420
v -0.137931 2.373740 0.514766
v -0.155173 2.391589 0.579112
v -0.167794 2.440356 0.626216
v -0.086951 2.506971 0.660457
v -0.084621 2.573587 0.642761
v -0.078256 2.622353 0.594412
v -0.069561 2.640203 0.528366
v -0.060866 2.622353 0.462320
v -0.054501 2.573587 0.413971
v -0.052171 2.506971 0.396274
v -0.054501 2.440356 0.413971
v -0.060866 2.391589 0.462320
v -0.069561 2.373740 0.528366
v -0.078256 2.391589 0.594412
v -0.084621 2.440356 0.642761
v 0.000000 2.506971 0.666156
v 0.000000 2.573587 0.648307
v 0.000000 2.622353 0.599541
v 0.000000 2.640203 0.532925
v 0.000000 2.622353 0.466310
v 0.000000 2.573587 0.417544
v 0.000000 2.506971 0.399694
v 0.000000 2.440356 0.417544
v 0.000000 2.391589 0.466310
v 0.000000 2.373740 0.532925
v 0.000000 2.391589 0.599541
v 0.000000 2.440356 0.648307
v 0.086951 2.506971 0.660457
v 0.084621 2.573587 0.642761
v 0.078256 2.622353 0.594412
v 0.069561 2.640203 0.528366
v 0.060865 2.622353 0.462320
v 0.054500 2.573587 0.413971
v 0.052170 2.506971 0.396275
v 0.054500 2.440356 0.413971
v 0.060865 2.391589 0.462320
v 0.069561 2.373740 0.528366
v 0.078256 2.391589 0.594412
v 0.084621 2.440356 0.642761
v 0.172414 2.506971 0.643458
v 0.167794 2.573587 0.626216
v 0.155172 2.622353 0.579112
v 0.137931 2.640203 0.514766
v 0.120690 2.622353 0.450420
v 0.108068 2.573587 0.403316
v 0.103448 2.506971 0.386075
v 0.108068 2.440356 0.403316
v 0.120690 2.391589 0.450420
v 0.137931 2.373740 0.514766
v 0.155172 2.391589 0.579112
v 0.167794 2.440356 0.626216
v 0.254927 2.506971 0.615448
v 0.248096 2.573587 0.598957
v 0.229434 2.622353 0.553903
v 0.203942 2.640203 0.492359
v 0.178449 2.622353 0.430814
v 0.159787 2.573587 0.385760
v 0.152956 2.506971 0.369269
v 0.159787 2.440356 0.385760
v 0.178449 2.391589 0.430814
v 0.203942 2.373740 0.492359
v 0.229434 2.391589 0.553903
v 0.248096 2.440356 0.598957
v 0.333078 2.506971 0.576908
v 0.324153 2.573587 0.561450
v 0.299770 2.622353 0.519218
v 0.266463 2.640203 0.461527
v 0.233155 2.622353 0.403836
v 0.208772 2.573587 0.361603
v 0.199847 2.506971 0.346145
v 0.208772 2.440356 0.361603
v 0.233155 2.391589 0.403836
v 0.266463 2.373740 0.461527
v 0.299770 2.391589 0.519218
v 0.324153 2.440356 0.561450
v 0.405530 2.506971 0.528498
v 0.394664 2.573587 0.514337
v 0.364977 2.622353 0.475648
v 0.324424 2.640203 0.422798
v 0.283871 2.622353 0.369948
v 0.254184 2.573587 0.331260
v 0.243318 2.506971 0.317099
v 0.254184 2.440356 0.331260
v 0.283871 2.391589 0.369948
v 0.324424 2.373740 0.422798
v 0.364977 2.391589 0.475648
v 0.394664 2.440356 0.514337
v 0.471043 2.506971 0.471044
v 0.458422 2.573587 0.458422
v 0.423939 2.622353 0.423940
v 0.376835 2.640203 0.376835
v 0.329730 2.622353 0.329731
v 0.295248 2.573587 0.295248
v 0.282626 2.506971 0.282626
v 0.295248 2.440356 0.295248
v 0.329730 2.391589 0.329731
v 0.376835 2.373740 0.376835
v 0.423939 2.391589 0.423940
v 0.458422 2.440356 0.458422
v 0.528498 2.506971 0.405530
v 0.514336 2.573587 0.394664
v 0.475648 2.622353 0.364977
v 0.422798 2.640203 0.324424
v 0.369948 2.622353 0.283871
v 0.331260 2.573587 0.254184
v 0.317098 2.506971 0.243318
v 0.331260 2.440356 0.254184
v 0.369948 2.391589 0.283871
v 0.422798 2.373740 0.324424
v 0.475648 2.391589 0.364977
v 0.514336 2.440356 0.394664
v 0.576908 2.506971 0.333078
v 0.561450 2.573587 0.324154
v 0.519217 2.622353 0.299771
v 0.461527 2.640203 0.266463
v 0.403836 2.622353 0.233155
v 0.361603 2.573587 0.208772
v 0.346145 2.506971 0.199847
v 0.361603 2.440356 0.208772
v 0.403836 2.391589 0.233155
v 0.461527 2.373740 0.266463
v 0.519217 2.391589 0.299771
v 0.561450 2.440356 0.324154
v 0.615448 2.506971 0.254927
v 0.598957 2.573587 0.248097
v 0.553903 2.622353 0.229435
v 0.492359 2.640203 0.203942
v 0.430814 2.622353 0.178449
v 0.385760 2.573587 0.159787
v 0.369269 2.506971 0.152956
v 0.385760 2.440356 0.159787
v 0.430814 2.391589 0.178449
v 0.492359 2.373740 0.203942
v 0.553903 2.391589 0.229435
v 0.598957 2.440356 0.248097
v 0.643458 2.506971 0.172414
v 0.626216 2.573587 0.167794
v 0.579112 2.622353 0.155172
v 0.514766 2.640203 0.137931
v 0.450420 2.622353 0.120690
v 0.403316 2.573587 0.108068
v 0.386075 2.506971 0.103448
v 0.403316 2.440356 0.108068
v 0.450420 2.391589 0.120690
v 0.514766 2.373740 0.137931
v 0.579112 2.391589 0.155172
v 0.626216 2.440356 0.167794
v 0.660457 2.506971 0.086951
v 0.642761 2.573587 0.084621
v 0.594412 2.622353 0.078256
v 0.528366 2.640203 0.069561
v 0.462320 2.622353 0.060866
v 0.413971 2.573587 0.054500
v 0.396274 2.506971 0.052171
v 0.413971 2.440356 0.054500
v 0.462320 2.391589 0.060866
v 0.528366 2.373740 0.069561
v 0.594412 2.391589 0.078256
v 0.642761 2.440356 0.084621
vn 0.0980 -0.0000 -0.9952
vn 0.2903 -0.0000 -0.9569
vn 0.4714 -0.0000 -0.8819
vn 0.6344 -0.0000 -0.7730
vn 0.7730 -0.0000 -0.6344
vn 0.8819 -0.0000 -0.4714
vn 0.9569 -0.0000 -0.2903
vn 0.9952 -0.0000 -0.0980
vn 0.9952 -0.0000 0.0980
vn 0.9569 -0.0000 0.2903
vn 0.8819 -0.0000 0.4714
vn 0.7730 -0.0000 0.6344
vn 0.6344 -0.0000 0.7730
vn 0.4714 -0.0000 0.8819
vn 0.2903 -0.0000 0.9569
vn 0.0980 -0.0000 0.9952
vn -0.0980 -0.0000 0.9952
vn -0.2903 -0.0000 0.9569
vn -0.4714 -0.0000 0.8819
vn -0.6344 -0.0000 0.7730
vn -0.7730 -0.0000 0.6344
vn -0.8819 -0.0000 0.4714
vn -0.9569 -0.0000 0.2903
vn -0.9952 -0.0000 0.0980
vn -0.9952 -0.0000 -0.0980
vn -0.9569 -0.0000 -0.2903
vn -0.8819 -0.0000 -0.4714
vn -0.7730 -0.0000 -0.6344
vn -0.6344 -0.0000 -0.7730
vn -0.4714 -0.0000 -0.8819
vn -0.0000 1.0000 -0.0000
vn -0.2903 -0.0000 -0.9569
vn -0.0980 -0.0000 -0.9952
vn -0.0000 -1.0000 -0.0000
vn 0.9640 0.2583 -0.0632
vn 0.7063 0.7064 -0.0463
vn 0.2588 0.9658 -0.0170
vn -0.2588 0.9658 0.0170
vn -0.7063 0.7063 0.0463
vn -0.9640 0.2583 0.0632
vn -0.9640 -0.2583 0.0632
vn -0.7063 -0.7063 0.0463
vn -0.2588 -0.9658 0.0170
vn 0.2588 -0.9658 -0.0170
vn 0.7064 -0.7063 -0.0463
vn 0.9640 -0.2583 -0.0632
vn 0.9475 0.2583 -0.1885
vn 0.6943 0.7064 -0.1381
vn 0.2544 0.9658 -0.0506
vn -0.2544 0.9658 0.0506
vn -0.6943 0.7064 0.1381
vn -0.9475 0.2583 0.1885
vn -0.9475 -0.2583 0.1885
vn -0.6943 -0.7063 0.1381
vn -0.2544 -0.9658 0.0506
vn 0.2544 -0.9658 -0.0506
vn 0.6943 -0.7063 -0.1381
vn 0.9475 -0.2583 -0.1885
vn 0.9148 0.2583 -0.3105
vn 0.6703 0.7063 -0.2275
vn 0.2456 0.9658 -0.0834
vn -0.2456 0.9658 0.0834
vn -0.6703 0.7064 0.2275
vn -0.9148 0.2583 0.3105
vn -0.9148 -0.2583 0.3105
vn -0.6703 -0.7063 0.2275
vn -0.2456 -0.9658 0.0834
vn 0.2456 -0.9658 -0.0834
vn 0.6703 -0.7063 -0.2275
vn 0.9148 -0.2583 -0.3105
vn 0.8664 0.2583 -0.4273
vn 0.6349 0.7064 -0.3131
vn 0.2326 0.9658 -0.1147
vn -0.2326 0.9658 0.1147
vn -0.6349 0.7063 0.3131
vn -0.8664 0.2583 0.4273
vn -0.8664 -0.2583 0.4273
vn -0.6349 -0.7063 0.3131
vn -0.2326 -0.9658 0.1147
vn 0.2326 -0.9658 -0.1147
vn 0.6349 -0.7063 -0.3131
vn 0.8664 -0.2583 -0.4273
vn 0.8033 0.2583 -0.5367
vn 0.5886 0.7063 -0.3933
vn 0.2156 0.9658 -0.1441
vn -0.2156 0.9658 0.1441
vn -0.5886 0.7064 0.3933
vn -0.8033 0.2583 0.5367
vn -0.8033 -0.2583 0.5367
vn -0.5886 -0.7063 0.3933
vn -0.2156 -0.9658 0.1441
vn 0.2156 -0.9658 -0.1441
vn 0.5886 -0.7063 -0.3933
vn 0.8033 -0.2583 -0.5367
vn 0.7263 0.2583 -0.6370
vn 0.5322 0.7064 -0.4667
vn 0.1950 0.9658 -0.1710
vn -0.1950 0.9658 0.1710
vn -0.5322 0.7063 0.4667
vn -0.7263 0.2583 0.6370
vn -0.7263 -0.2583 0.6370
vn -0.5322 -0.7063 0.4667
vn -0.1950 -0.9658 0.1710
vn 0.1950 -0.9658 -0.1710
vn 0.5322 -0.7063 -0.4667
vn 0.7263 -0.2583 -0.6370
vn 0.6370 0.2583 -0.7263
vn 0.4667 0.7064 -0.5322
vn 0.1710 0.9658 -0.1950
vn -0.1710 0.9658 0.1950
vn -0.4667 0.7063 0.5322
vn -0.6370 0.2583 0.7263
vn -0.6370 -0.2583 0.7263
vn -0.4667 -0.7063 0.5322
vn -0.1710 -0.9658 0.1950
vn 0.1710 -0.9658 -0.1950
vn 0.4667 -0.7063 -0.5322
vn 0.6370 -0.2583 -0.7263
vn 0.5367 0.2583 -0.8033
vn 0.3933 0.7063 -0.5886
vn 0.1441 0.9658 -0.2156
vn -0.1441 0.9658 0.2156
vn -0.3933 0.7064 0.5886
vn -0.5367 0.2583 0.8033
vn -0.5367 -0.2583 0.8033
vn -0.3933 -0.7063 0.5886
vn -0.1441 -0.9658 0.2156
vn 0.1441 -0.9658 -0.2156
vn 0.3933 -0.7063 -0.5886
vn 0.5367 -0.2583 -0.8033
vn 0.4273 0.2583 -0.8664
vn 0.3131 0.7064 -0.6349
vn 0.1147 0.9658 -0.2326
vn -0.1147 0.9658 0.2326
vn -0.3131 0.7064 0.6349
vn -0.4273 0.2583 0.8664
vn -0.4273 -0.2583 0.8664
vn -0.3131 -0.7063 0.6349
vn -0.1147 -0.9658 0.2326
vn 0.1147 -0.9658 -0.2326
vn 0.3131 -0.7063 -0.6349
vn 0.4273 -0.2583 -0.8664
vn 0.3105 0.2583 -0.9148
vn 0.2275 0.7063 -0.6703
vn 0.0834 0.9658 -0.2456
vn -0.0834 0.9658 0.2456
vn -0.2275 0.7064 0.6703
vn -0.3105 0.2583 0.9148
vn -0.3105 -0.2583 0.9148
vn -0.2275 -0.7063 0.6703
vn -0.0834 -0.9658 0.2456
vn 0.0834 -0.9658 -0.2456
vn 0.2275 -0.7063 -0.6703
vn 0.3105 -0.2583 -0.9148
vn 0.1885 0.2583 -0.9475
vn 0.1381 0.7064 -0.6943
vn 0.0506 0.9658 -0.2544
vn -0.0506 0.9658 0.2544
vn -0.1381 0.7063 0.6943
vn -0.1885 0.2583 0.9475
vn -0.1885 -0.2583 0.9475
vn -0.1381 -0.7063 0.6943
vn -0.0506 -0.9658 0.2544
vn 0.0506 -0.9658 -0.2544
vn 0.1381 -0.7063 -0.6943
vn 0.1885 -0.2583 -0.9475
vn 0.0632 0.2583 -0.9640
vn 0.0463 0.7063 -0.7063
vn 0.0170 0.9658 -0.2588
vn -0.0170 0.9658 0.2588
vn -0.0463 0.7064 0.7063
vn -0.0632 0.2583 0.9640
vn -0.0632 -0.2583 0.9640
vn -0.0463 -0.7063 0.7063
vn -0.0170 -0.9658 0.2588
vn 0.0170 -0.9658 -0.2588
vn 0.0463 -0.7063 -0.7063
vn 0.0632 -0.2583 -0.9640
vn -0.0632 0.2583 -0.9640
vn -0.0463 0.7064 -0.7063
vn -0.0170 0.9658 -0.2588
vn 0.0170 0.9658 0.2588
vn 0.0463 0.7063 0.7063
vn 0.0632 0.2583 0.9640
vn 0.0632 -0.2583 0.9640
vn 0.0463 -0.7063 0.7063
vn 0.0170 -0.9658 0.2588
vn -0.0170 -0.9658 -0.2588
vn -0.0463 -0.7063 -0.7063
vn -0.0632 -0.2583 -0.9640
vn -0.1885 0.2583 -0.9475
vn -0.1381 0.7064 -0.6943
vn -0.0506 0.9658 -0.2544
vn 0.0506 0.9658 0.2544
vn 0.1381 0.7063 0.6943
vn 0.1885 0.2583 0.9475
vn 0.1885 -0.2583 0.9475
vn 0.1381 -0.7063 0.6943
vn 0.0506 -0.9658 0.2544
vn -0.0506 -0.9658 -0.2544
vn -0.1381 -0.7063 -0.6943
vn -0.1885 -0.2583 -0.9475
vn -0.3105 0.2583 -0.9148
vn -0.2275 0.7064 -0.6703
vn -0.0834 0.9658 -0.2456
vn 0.0834 0.9658 0.2456
vn 0.2275 0.7064 0.6703
vn 0.3105 0.2583 0.9148
vn 0.3105 -0.2583 0.9148
vn 0.2275 -0.7063 0.6703
vn 0.0834 -0.9658 0.2456
vn -0.0834 -0.9658 -0.2456
vn -0.2275 -0.7063 -0.6703
vn -0.3105 -0.2583 -0.9148
vn -0.4273 0.2583 -0.8664
vn -0.3131 0.7064 -0.6349
vn -0.1147 0.9658 -0.2326
vn 0.1147 0.9658 0.2326
vn 0.3131 0.7064 0.6349
vn 0.4273 0.2583 0.8664
vn 0.4273 -0.2583 0.8664
vn 0.3131 -0.7063 0.6349
vn 0.1147 -0.9658 0.2326
vn -0.1147 -0.9658 -0.2326
vn -0.3131 -0.7063 -0.6349
vn -0.4273 -0.2583 -0.8664
vn -0.5367 0.2583 -0.8033
vn -0.3933 0.7064 -0.5886
vn -0.1441 0.9658 -0.2156
vn 0.1441 0.9658 0.2156
vn 0.3933 0.7063 0.5886
vn 0.5367 0.2583 0.8033
vn 0.5367 -0.2583 0.8033
vn 0.3933 -0.7063 0.5886
vn 0.1441 -0.9658 0.2156
vn -0.1441 -0.9658 -0.2156
vn -0.3933 -0.7063 -0.5886
vn -0.5367 -0.2583 -0.8033
vn -0.6370 0.2583 -0.7263
vn -0.4667 0.7063 -0.5322
vn -0.1710 0.9658 -0.1950
vn 0.1710 0.9658 0.1950
vn 0.4667 0.7064 0.5322
vn 0.6370 0.2583 0.7263
vn 0.6370 -0.2583 0.7263
vn 0.4667 -0.7063 0.5322
vn 0.1710 -0.9658 0.1950
vn -0.1710 -0.9658 -0.1950
vn -0.4667 -0.7063 -0.5322
vn -0.6370 -0.2583 -0.7263
vn -0.7263 0.2583 -0.6370
vn -0.5322 0.7064 -0.4667
vn -0.1950 0.9658 -0.1710
vn 0.1950 0.9658 0.1710
vn 0.5322 0.7064 0.4667
vn 0.7263 0.2583 0.6370
vn 0.7263 -0.2583 0.6370
vn 0.5322 -0.7063 0.4667
vn 0.1950 -0.9658 0.1710
vn -0.1950 -0.9658 -0.1710
vn -0.5322 -0.7063 -0.4667
vn -0.7263 -0.2583 -0.6370
vn -0.8033 0.2583 -0.5367
vn -0.5886 0.7064 -0.3933
vn -0.2156 0.9658 -0.1441
vn 0.2156 0.9658 0.1441
vn 0.5886 0.7063 0.3933
vn 0.8033 0.2583 0.5367
vn 0.8033 -0.2583 0.5367
vn 0.5886 -0.7064 0.3933
vn 0.2156 -0.9658 0.1441
vn -0.2156 -0.9658 -0.1441
vn -0.5886 -0.7063 -0.3933
vn -0.8033 -0.2583 -0.5367
vn -0.8664 0.2583 -0.4273
vn -0.6349 0.7064 -0.3131
vn -0.2326 0.9658 -0.1147
vn 0.2326 0.9658 0.1147
vn 0.6349 0.7063 0.3131
vn 0.8664 0.2583 0.4273
vn 0.8664 -0.2583 0.4273
vn 0.6349 -0.7063 0.3131
vn 0.2326 -0.9658 0.1147
vn -0.2326 -0.9658 -0.1147
vn -0.6349 -0.7063 -0.3131
vn -0.8664 -0.2583 -0.4273
vn -0.9148 0.2583 -0.3105
vn -0.6703 0.7064 -0.2275
vn -0.2456 0.9658 -0.0834
vn 0.2456 0.9658 0.0834
vn 0.6703 0.7064 0.2275
vn 0.9148 0.2583 0.3105
vn 0.9148 -0.2583 0.3105
vn 0.6703 -0.7063 0.2275
vn 0.2456 -0.9658 0.0834
vn -0.2456 -0.9658 -0.0834
vn -0.6703 -0.7063 -0.2275
vn -0.9148 -0.2583 -0.3105
vn -0.9475 0.2583 -0.1885
vn -0.6943 0.7064 -0.1381
vn -0.2544 0.9658 -0.0506
vn 0.2544 0.9658 0.0506
vn 0.6943 0.7063 0.1381
vn 0.9475 0.2583 0.1885
vn 0.9475 -0.2583 0.1885
vn 0.6943 -0.7063 0.1381
vn 0.2544 -0.9658 0.0506
vn -0.2544 -0.9658 -0.0506
vn -0.6943 -0.7064 -0.1381
vn -0.9475 -0.2583 -0.1885
vn -0.9640 0.2583 -0.0632
vn -0.7063 0.7064 -0.0463
vn -0.2588 0.9658 -0.0170
vn 0.2588 0.9658 0.0170
vn 0.7063 0.7064 0.0463
vn 0.9640 0.2583 0.0632
vn 0.9640 -0.2583 0.0632
vn 0.7064 -0.7063 0.0463
vn 0.2588 -0.9658 0.0170
vn -0.2588 -0.9658 -0.0170
vn -0.7064 -0.7063 -0.0463
vn -0.9640 -0.2583 -0.0632
vn -0.7063 0.7064 0.0463
vn 0.7063 0.7063 -0.0463
vn 0.7063 -0.7063 -0.0463
vn -0.7064 -0.7063 0.0463
vn -0.6943 0.7063 0.1381
vn 0.6703 0.7064 -0.2275
vn -0.6349 0.7064 0.3131
vn 0.6349 0.7063 -0.3131
vn -0.5886 0.7063 0.3933
vn 0.5322 0.7063 -0.4667
vn 0.1381 0.7063 -0.6943
vn -0.0463 0.7063 -0.7063
vn 0.0463 -0.7063 0.7064
vn 0.2275 0.7063 0.6703
vn -0.2275 0.7063 -0.6703
vn 0.3131 0.7063 0.6349
vn 0.3933 0.7064 0.5886
vn -0.3933 0.7063 -0.5886
vn -0.5322 0.7063 -0.4667
vn 0.5886 0.7064 0.3933
vn -0.5886 0.7063 -0.3933
vn 0.5886 -0.7063 0.3933
vn 0.6349 -0.7064 0.3131
vn 0.6703 0.7063 0.2275
vn -0.6703 0.7063 -0.2275
vn -0.6943 -0.7063 -0.1381
vn 0.7063 -0.7063 0.0463
vn 0.6943 0.7063 -0.1381
vn 0.2543 -0.9658 -0.0506
vn -0.6703 0.7063 0.2275
vn 0.5886 0.7064 -0.3933
vn -0.5322 0.7064 0.4667
vn -0.5322 -0.7064 0.4667
vn 0.5322 -0.7064 -0.4667
vn 0.4667 0.7063 -0.5322
vn -0.4667 0.7064 0.5322
vn 0.3933 0.7064 -0.5886
vn -0.3933 0.7063 0.5886
vn 0.3131 0.7063 -0.6349
vn 0.2275 0.7064 -0.6703
vn -0.2275 0.7063 0.6703
vn -0.1381 0.7064 0.6943
vn 0.0463 0.7064 -0.7063
vn 0.0463 -0.7063 -0.7064
vn 0.1381 0.7064 0.6943
vn -0.3131 0.7063 -0.6349
vn -0.4667 0.7064 -0.5322
vn 0.4667 0.7063 0.5322
vn -0.6349 0.7063 -0.3131
vn 0.6349 0.7064 0.3131
vn -0.6943 0.7063 -0.1381
vn 0.6943 0.7064 0.1381
vn -0.7064 0.7063 -0.0463
vn 0.7064 0.7063 0.0463
vn -0.7063 -0.7063 -0.0463
vn -0.7064 0.7063 0.0463
vn -0.7063 -0.7064 0.0463
vn -0.2543 -0.9658 0.0506
vn 0.5886 -0.7064 -0.3933
vn -0.0463 0.7063 0.7063
vn 0.0463 0.7064 0.7063
vn -0.0463 -0.7063 -0.7064
vn -0.1381 0.7063 -0.6943
vn 0.5322 0.7063 0.4667
vn 0.7063 0.7063 0.0463
vn -0.7063 0.7063 -0.0463
vt 0.383227 0.663749
vt 0.000000 0.482806
vt 0.000000 0.150009
vt 0.383227 0.998156
vt 0.355974 0.663749
vt 0.006395 0.450658
vt 0.355974 0.998156
vt 0.000000 0.182787
vt 0.923171 0.000000
vt 0.332797 0.663749
vt 0.018938 0.420376
vt 0.332797 0.998156
vt 0.923171 0.334407
vt 0.006395 0.214935
vt 0.899994 0.000000
vt 0.037148 0.393122
vt 0.899994 0.334407
vt 0.018938 0.245217
vt 0.872740 0.000000
vt 0.060326 0.369945
vt 0.872740 0.334407
vt 0.037148 0.272471
vt 0.842458 0.000000
vt 0.087579 0.351735
vt 0.842458 0.334407
vt 0.060326 0.295648
vt 0.810310 0.000000
vt 0.117862 0.339191
vt 0.810310 0.334407
vt 0.087579 0.313859
vt 0.777532 0.000000
vt 0.150010 0.332797
vt 0.777532 0.334407
vt 0.117862 0.326402
vt 0.745384 0.000000
vt 0.182787 0.332797
vt 0.745384 0.334407
vt 0.150009 0.332797
vt 0.715102 0.000000
vt 0.214935 0.339191
vt 0.715102 0.334407
vt 0.182787 0.332797
vt 0.687848 0.000000
vt 0.245217 0.351735
vt 0.687848 0.334407
vt 0.214935 0.326402
vt 0.212145 0.665593
vt 0.664671 0.000000
vt 0.272471 0.369945
vt 0.664671 0.334407
vt 0.212145 1.000000
vt 0.245217 0.313859
vt 0.184892 0.665593
vt 0.295648 0.393122
vt 0.184892 1.000000
vt 0.272471 0.295648
vt 0.154609 0.665593
vt 0.313859 0.420376
vt 0.154609 1.000000
vt 0.295648 0.272471
vt 0.122462 0.665593
vt 0.326402 0.450658
vt 0.122462 1.000000
vt 0.313859 0.245217
vt 0.089684 0.665593
vt 0.332797 0.482806
vt 0.089684 1.000000
vt 0.326402 0.214935
vt 0.057536 0.665593
vt 0.332797 0.515584
vt 0.057536 1.000000
vt 0.332797 0.182787
vt 0.027254 0.665593
vt 0.326402 0.547732
vt 0.027254 1.000000
vt 0.332797 0.150010
vt 0.899994 0.334407
vt 0.000000 0.665593
vt 0.313859 0.578014
vt 0.000000 1.000000
vt 0.899994 0.668814
vt 0.326402 0.117862
vt 0.872740 0.334407
vt 0.295648 0.605268
vt 0.872740 0.668814
vt 0.313859 0.087579
vt 0.842458 0.334407
vt 0.272471 0.628445
vt 0.842458 0.668814
vt 0.295648 0.060326
vt 0.810310 0.334407
vt 0.245217 0.646655
vt 0.810310 0.668814
vt 0.272471 0.037148
vt 0.777532 0.334407
vt 0.214935 0.659199
vt 0.777532 0.668814
vt 0.245217 0.018938
vt 0.745384 0.334407
vt 0.182787 0.665593
vt 0.745384 0.668814
vt 0.214935 0.006395
vt 0.715102 0.334407
vt 0.150009 0.665593
vt 0.715102 0.668814
vt 0.182787 0.000000
vt 0.687848 0.334407
vt 0.117862 0.659199
vt 0.687848 0.668814
vt 0.150010 0.000000
vt 0.568119 0.663749
vt 0.664671 0.334407
vt 0.087579 0.646655
vt 0.664671 0.668814
vt 0.568119 0.998156
vt 0.117862 0.006395
vt 0.540866 0.663749
vt 0.060326 0.628445
vt 0.540866 0.998156
vt 0.087579 0.018938
vt 0.510583 0.663749
vt 0.037148 0.605268
vt 0.510583 0.998156
vt 0.060326 0.037148
vt 0.478435 0.663749
vt 0.018938 0.578014
vt 0.478435 0.998156
vt 0.037148 0.060326
vt 0.445658 0.663749
vt 0.006395 0.547731
vt 0.018938 0.087579
vt 0.445658 0.998156
vt 0.413510 0.663749
vt 0.000000 0.515584
vt 0.006395 0.117862
vt 0.413510 0.998156
vt 0.572283 0.315081
vt 0.623760 0.388167
vt 0.570313 0.311085
vt 0.564928 0.300167
vt 0.557573 0.285252
vt 0.550218 0.270338
vt 0.544834 0.259420
vt 0.542863 0.255423
vt 0.573749 0.432025
vt 0.577099 0.429087
vt 0.586252 0.421060
vt 0.598754 0.410096
vt 0.611257 0.399131
vt 0.620410 0.391105
vt 0.552187 0.323405
vt 0.608378 0.372786
vt 0.550755 0.319186
vt 0.546842 0.307658
vt 0.541496 0.291912
vt 0.536151 0.276165
vt 0.532238 0.264637
vt 0.530806 0.260418
vt 0.564521 0.422796
vt 0.567458 0.419446
vt 0.575485 0.410293
vt 0.586450 0.397791
vt 0.597414 0.385288
vt 0.605441 0.376136
vt 0.531176 0.329035
vt 0.591121 0.359544
vt 0.530307 0.324665
vt 0.527932 0.312725
vt 0.524687 0.296416
vt 0.521443 0.280106
vt 0.519068 0.268166
vt 0.518199 0.263796
vt 0.554166 0.414851
vt 0.556642 0.411146
vt 0.563405 0.401024
vt 0.572644 0.387197
vt 0.581883 0.373370
vt 0.588646 0.363249
vt 0.509610 0.331874
vt 0.572283 0.348668
vt 0.509318 0.327428
vt 0.508522 0.315281
vt 0.507435 0.298687
vt 0.506347 0.282093
vt 0.505551 0.269946
vt 0.505259 0.265499
vt 0.542863 0.408325
vt 0.544834 0.404329
vt 0.550218 0.393411
vt 0.557573 0.378496
vt 0.564928 0.363582
vt 0.570313 0.352664
vt 0.487858 0.331874
vt 0.552187 0.340343
vt 0.488149 0.327428
vt 0.488945 0.315281
vt 0.490033 0.298687
vt 0.491120 0.282093
vt 0.491917 0.269946
vt 0.530806 0.403331
vt 0.492208 0.265499
vt 0.532238 0.399111
vt 0.536151 0.387584
vt 0.541496 0.371837
vt 0.546842 0.356090
vt 0.550755 0.344563
vt 0.466292 0.329035
vt 0.531176 0.334714
vt 0.467161 0.324665
vt 0.469536 0.312725
vt 0.472780 0.296416
vt 0.476024 0.280106
vt 0.478399 0.268166
vt 0.479268 0.263796
vt 0.518199 0.399953
vt 0.519068 0.395582
vt 0.521443 0.383643
vt 0.524687 0.367333
vt 0.527932 0.351023
vt 0.530307 0.339084
vt 0.445281 0.323405
vt 0.509610 0.331874
vt 0.446713 0.319186
vt 0.450626 0.307658
vt 0.455971 0.291912
vt 0.461316 0.276165
vt 0.465230 0.264637
vt 0.466662 0.260418
vt 0.505259 0.398249
vt 0.505551 0.393803
vt 0.506347 0.381655
vt 0.507435 0.365062
vt 0.508522 0.348468
vt 0.509318 0.336321
vt 0.425184 0.315081
vt 0.487858 0.331874
vt 0.427155 0.311085
vt 0.432539 0.300167
vt 0.439894 0.285252
vt 0.447249 0.270338
vt 0.452633 0.259420
vt 0.454604 0.255423
vt 0.492208 0.398249
vt 0.491917 0.393803
vt 0.491120 0.381655
vt 0.490033 0.365062
vt 0.488945 0.348468
vt 0.488149 0.336321
vt 0.406346 0.304205
vt 0.466292 0.334714
vt 0.408822 0.300500
vt 0.415585 0.290378
vt 0.424824 0.276551
vt 0.434062 0.262725
vt 0.440826 0.252603
vt 0.479268 0.399953
vt 0.443301 0.248898
vt 0.478399 0.395582
vt 0.476024 0.383643
vt 0.472780 0.367333
vt 0.469536 0.351023
vt 0.467161 0.339084
vt 0.389089 0.290963
vt 0.445281 0.340343
vt 0.392027 0.287613
vt 0.400054 0.278460
vt 0.411018 0.265958
vt 0.421982 0.253455
vt 0.430009 0.244303
vt 0.466662 0.403331
vt 0.432947 0.240953
vt 0.465230 0.399111
vt 0.461317 0.387584
vt 0.455971 0.371837
vt 0.450626 0.356090
vt 0.446713 0.344563
vt 0.373708 0.275582
vt 0.425184 0.348668
vt 0.377058 0.272644
vt 0.386210 0.264617
vt 0.398713 0.253653
vt 0.411216 0.242688
vt 0.420368 0.234662
vt 0.423718 0.231724
vt 0.454604 0.408325
vt 0.452633 0.404329
vt 0.447249 0.393411
vt 0.439894 0.378496
vt 0.432539 0.363582
vt 0.427155 0.352664
vt 0.360466 0.258325
vt 0.406346 0.359544
vt 0.364171 0.255849
vt 0.374293 0.249086
vt 0.388120 0.239847
vt 0.401946 0.230608
vt 0.412068 0.223845
vt 0.415773 0.221370
vt 0.443301 0.414851
vt 0.440826 0.411146
vt 0.434062 0.401024
vt 0.424824 0.387197
vt 0.415585 0.373370
vt 0.408822 0.363249
vt 0.349590 0.239487
vt 0.389089 0.372786
vt 0.353586 0.237516
vt 0.364504 0.232132
vt 0.379419 0.224777
vt 0.394333 0.217422
vt 0.405251 0.212038
vt 0.432947 0.422796
vt 0.409247 0.210067
vt 0.430009 0.419446
vt 0.421982 0.410293
vt 0.411018 0.397791
vt 0.400053 0.385288
vt 0.392027 0.376136
vt 0.373708 0.388167
vt 0.341266 0.219390
vt 0.345485 0.217958
vt 0.357013 0.214045
vt 0.372759 0.208700
vt 0.388506 0.203354
vt 0.400034 0.199441
vt 0.404253 0.198009
vt 0.423718 0.432025
vt 0.420368 0.429087
vt 0.411216 0.421060
vt 0.398713 0.410096
vt 0.386210 0.399131
vt 0.377058 0.391105
vt 0.335636 0.198379
vt 0.360466 0.405424
vt 0.340006 0.197510
vt 0.351946 0.195135
vt 0.368255 0.191891
vt 0.384565 0.188647
vt 0.396505 0.186272
vt 0.400875 0.185402
vt 0.415773 0.442379
vt 0.412068 0.439903
vt 0.401946 0.433140
vt 0.388120 0.423901
vt 0.374293 0.414663
vt 0.364171 0.407899
vt 0.332797 0.176813
vt 0.349590 0.424262
vt 0.337243 0.176522
vt 0.349390 0.175726
vt 0.365984 0.174638
vt 0.382578 0.173550
vt 0.394725 0.172754
vt 0.399171 0.172463
vt 0.409247 0.453682
vt 0.405251 0.451711
vt 0.394333 0.446327
vt 0.379419 0.438972
vt 0.364504 0.431617
vt 0.353586 0.426233
vt 0.332797 0.155061
vt 0.341266 0.444358
vt 0.337243 0.155353
vt 0.349390 0.156149
vt 0.365984 0.157236
vt 0.382578 0.158324
vt 0.394725 0.159120
vt 0.399171 0.159412
vt 0.404253 0.465740
vt 0.400034 0.464307
vt 0.388506 0.460394
vt 0.372759 0.455049
vt 0.357013 0.449704
vt 0.345485 0.445791
vt 0.335636 0.133495
vt 0.335636 0.465369
vt 0.340006 0.134364
vt 0.351946 0.136739
vt 0.368255 0.139983
vt 0.384565 0.143228
vt 0.396505 0.145603
vt 0.400875 0.146472
vt 0.400875 0.478346
vt 0.396505 0.477477
vt 0.384565 0.475102
vt 0.368255 0.471858
vt 0.351946 0.468614
vt 0.340006 0.466239
vt 0.341266 0.112484
vt 0.332797 0.486935
vt 0.345485 0.113916
vt 0.357013 0.117829
vt 0.372759 0.123175
vt 0.388506 0.128520
vt 0.400034 0.132433
vt 0.404253 0.133865
vt 0.399171 0.491286
vt 0.394725 0.490994
vt 0.382578 0.490198
vt 0.365984 0.489111
vt 0.349390 0.488023
vt 0.337243 0.487227
vt 0.349590 0.092388
vt 0.332797 0.508688
vt 0.353586 0.094358
vt 0.364504 0.099742
vt 0.379419 0.107097
vt 0.394333 0.114452
vt 0.405251 0.119837
vt 0.399171 0.504337
vt 0.409247 0.121807
vt 0.394725 0.504629
vt 0.382578 0.505425
vt 0.365984 0.506512
vt 0.349390 0.507600
vt 0.337243 0.508396
vt 0.360466 0.073550
vt 0.335636 0.530254
vt 0.364171 0.076025
vt 0.374293 0.082788
vt 0.388120 0.092027
vt 0.401946 0.101266
vt 0.412068 0.108029
vt 0.400875 0.517277
vt 0.415773 0.110505
vt 0.396505 0.518146
vt 0.384565 0.520521
vt 0.368255 0.523765
vt 0.351946 0.527009
vt 0.340006 0.529384
vt 0.373708 0.056292
vt 0.341266 0.551265
vt 0.377058 0.059230
vt 0.386210 0.067257
vt 0.398713 0.078221
vt 0.411216 0.089186
vt 0.420368 0.097212
vt 0.423718 0.100150
vt 0.404253 0.529883
vt 0.400034 0.531316
vt 0.388506 0.535229
vt 0.372759 0.540574
vt 0.357013 0.545919
vt 0.345485 0.549832
vt 0.389089 0.040911
vt 0.349590 0.571361
vt 0.392027 0.044261
vt 0.400054 0.053414
vt 0.411018 0.065916
vt 0.421982 0.078419
vt 0.430009 0.087572
vt 0.409247 0.541941
vt 0.432947 0.090922
vt 0.405251 0.543912
vt 0.394333 0.549296
vt 0.379419 0.556651
vt 0.364504 0.564006
vt 0.353586 0.569390
vt 0.406346 0.027669
vt 0.360466 0.590199
vt 0.408822 0.031374
vt 0.415585 0.041496
vt 0.424824 0.055323
vt 0.434062 0.069150
vt 0.440826 0.079272
vt 0.443301 0.082977
vt 0.415773 0.553244
vt 0.412068 0.555719
vt 0.401946 0.562483
vt 0.388120 0.571721
vt 0.374293 0.580960
vt 0.364171 0.587723
vt 0.425184 0.016793
vt 0.373708 0.607456
vt 0.427155 0.020790
vt 0.432539 0.031708
vt 0.439894 0.046622
vt 0.447249 0.061536
vt 0.452633 0.072455
vt 0.454604 0.076451
vt 0.423718 0.563598
vt 0.420368 0.566536
vt 0.411216 0.574563
vt 0.398713 0.585527
vt 0.386210 0.596492
vt 0.377058 0.604518
vt 0.445281 0.008469
vt 0.389089 0.622837
vt 0.446713 0.012688
vt 0.450626 0.024216
vt 0.455971 0.039963
vt 0.461317 0.055710
vt 0.465230 0.067237
vt 0.466662 0.071456
vt 0.432947 0.572827
vt 0.430009 0.576177
vt 0.421982 0.585330
vt 0.411018 0.597832
vt 0.400054 0.610335
vt 0.392027 0.619487
vt 0.466292 0.002839
vt 0.406346 0.636079
vt 0.467161 0.007209
vt 0.469536 0.019149
vt 0.472780 0.035459
vt 0.476024 0.051769
vt 0.478399 0.063708
vt 0.479268 0.068078
vt 0.443301 0.580772
vt 0.440826 0.584477
vt 0.434062 0.594599
vt 0.424824 0.608426
vt 0.415585 0.622252
vt 0.408822 0.632374
vt 0.487858 0.000000
vt 0.425184 0.646955
vt 0.488149 0.004446
vt 0.488945 0.016594
vt 0.490033 0.033187
vt 0.491120 0.049781
vt 0.491917 0.061929
vt 0.492208 0.066375
vt 0.454604 0.587298
vt 0.452633 0.591294
vt 0.447249 0.602212
vt 0.439894 0.617127
vt 0.432539 0.632041
vt 0.427155 0.642959
vt 0.509610 0.000000
vt 0.445281 0.655280
vt 0.509318 0.004446
vt 0.508522 0.016594
vt 0.507435 0.033187
vt 0.506347 0.049781
vt 0.505551 0.061929
vt 0.466662 0.592292
vt 0.505259 0.066375
vt 0.465230 0.596512
vt 0.461316 0.608039
vt 0.455971 0.623786
vt 0.450626 0.639533
vt 0.446713 0.651060
vt 0.531176 0.002839
vt 0.466292 0.660909
vt 0.530307 0.007209
vt 0.527932 0.019149
vt 0.524688 0.035459
vt 0.521443 0.051769
vt 0.519068 0.063708
vt 0.518199 0.068078
vt 0.479268 0.595670
vt 0.478399 0.600040
vt 0.476024 0.611980
vt 0.472780 0.628290
vt 0.469536 0.644600
vt 0.467161 0.656539
vt 0.552187 0.008469
vt 0.487858 0.663749
vt 0.550755 0.012688
vt 0.546842 0.024216
vt 0.541496 0.039963
vt 0.536151 0.055710
vt 0.532238 0.067237
vt 0.530806 0.071456
vt 0.492208 0.597374
vt 0.491917 0.601820
vt 0.491120 0.613967
vt 0.490033 0.630561
vt 0.488945 0.647155
vt 0.488149 0.659302
vt 0.572283 0.016793
vt 0.509610 0.663749
vt 0.570312 0.020790
vt 0.564928 0.031708
vt 0.557573 0.046622
vt 0.550218 0.061536
vt 0.544834 0.072455
vt 0.542863 0.076451
vt 0.505259 0.597374
vt 0.505551 0.601820
vt 0.506347 0.613967
vt 0.507435 0.630561
vt 0.508522 0.647155
vt 0.509318 0.659302
vt 0.591121 0.027669
vt 0.531176 0.660909
vt 0.588646 0.031374
vt 0.581883 0.041496
vt 0.572644 0.055323
vt 0.563405 0.069150
vt 0.556642 0.079272
vt 0.518199 0.595670
vt 0.554166 0.082977
vt 0.519068 0.600040
vt 0.521443 0.611980
vt 0.524688 0.628290
vt 0.527932 0.644600
vt 0.530307 0.656539
vt 0.608378 0.040911
vt 0.552187 0.655280
vt 0.605441 0.044261
vt 0.597414 0.053414
vt 0.586450 0.065916
vt 0.575485 0.078419
vt 0.567459 0.087572
vt 0.564521 0.090922
vt 0.530806 0.592292
vt 0.532238 0.596512
vt 0.536151 0.608039
vt 0.541496 0.623786
vt 0.546842 0.639533
vt 0.550755 0.651060
vt 0.623760 0.056292
vt 0.572283 0.646955
vt 0.620409 0.059230
vt 0.611257 0.067257
vt 0.598754 0.078221
vt 0.586252 0.089186
vt 0.577099 0.097212
vt 0.573749 0.100150
vt 0.542863 0.587298
vt 0.544834 0.591294
vt 0.550218 0.602212
vt 0.557573 0.617127
vt 0.564928 0.632041
vt 0.570313 0.642959
vt 0.637001 0.073550
vt 0.591121 0.636079
vt 0.633297 0.076025
vt 0.623175 0.082788
vt 0.609348 0.092027
vt 0.595521 0.101266
vt 0.585399 0.108029
vt 0.581694 0.110505
vt 0.554166 0.580772
vt 0.556642 0.584477
vt 0.563405 0.594599
vt 0.572644 0.608426
vt 0.581882 0.622252
vt 0.588646 0.632374
vt 0.647878 0.092388
vt 0.608378 0.622837
vt 0.643881 0.094358
vt 0.632963 0.099743
vt 0.618049 0.107098
vt 0.603134 0.114452
vt 0.592216 0.119837
vt 0.564521 0.572827
vt 0.588220 0.121807
vt 0.567459 0.576177
vt 0.575485 0.585330
vt 0.586450 0.597832
vt 0.597414 0.610335
vt 0.605441 0.619487
vt 0.656202 0.112484
vt 0.623760 0.607456
vt 0.651982 0.113916
vt 0.640455 0.117829
vt 0.624708 0.123175
vt 0.608961 0.128520
vt 0.597434 0.132433
vt 0.593215 0.133865
vt 0.573749 0.563598
vt 0.577099 0.566536
vt 0.586252 0.574563
vt 0.598754 0.585527
vt 0.611257 0.596492
vt 0.620410 0.604518
vt 0.661832 0.133495
vt 0.637001 0.590199
vt 0.657461 0.134364
vt 0.645522 0.136739
vt 0.629212 0.139983
vt 0.612902 0.143228
vt 0.600963 0.145603
vt 0.596592 0.146472
vt 0.581694 0.553244
vt 0.585399 0.555719
vt 0.595521 0.562483
vt 0.609348 0.571721
vt 0.623175 0.580960
vt 0.633297 0.587724
vt 0.664671 0.155061
vt 0.647878 0.571361
vt 0.660225 0.155353
vt 0.648077 0.156149
vt 0.631483 0.157236
vt 0.614890 0.158324
vt 0.602742 0.159120
vt 0.598296 0.159412
vt 0.588220 0.541941
vt 0.592216 0.543912
vt 0.603134 0.549296
vt 0.618049 0.556651
vt 0.632963 0.564006
vt 0.643881 0.569390
vt 0.664671 0.176813
vt 0.656202 0.551265
vt 0.660225 0.176522
vt 0.648077 0.175726
vt 0.631483 0.174638
vt 0.614890 0.173550
vt 0.602742 0.172754
vt 0.598296 0.172463
vt 0.593215 0.529883
vt 0.597434 0.531316
vt 0.608961 0.535229
vt 0.624708 0.540574
vt 0.640455 0.545919
vt 0.651982 0.549832
vt 0.661832 0.198379
vt 0.661832 0.530254
vt 0.657461 0.197510
vt 0.645522 0.195135
vt 0.629212 0.191891
vt 0.612902 0.188647
vt 0.600963 0.186272
vt 0.596592 0.185402
vt 0.596592 0.517277
vt 0.600963 0.518146
vt 0.612902 0.520521
vt 0.629212 0.523765
vt 0.645522 0.527009
vt 0.657461 0.529384
vt 0.656202 0.219390
vt 0.664671 0.508688
vt 0.651982 0.217958
vt 0.640455 0.214045
vt 0.624708 0.208700
vt 0.608961 0.203354
vt 0.597434 0.199441
vt 0.598296 0.504337
vt 0.593215 0.198009
vt 0.602742 0.504629
vt 0.614890 0.505425
vt 0.631483 0.506512
vt 0.648077 0.507600
vt 0.660225 0.508396
vt 0.647878 0.239487
vt 0.664671 0.486935
vt 0.643881 0.237516
vt 0.632963 0.232132
vt 0.618049 0.224777
vt 0.603134 0.217422
vt 0.592216 0.212038
vt 0.588220 0.210067
vt 0.598296 0.491286
vt 0.602742 0.490994
vt 0.614890 0.490198
vt 0.631483 0.489111
vt 0.648077 0.488023
vt 0.660225 0.487227
vt 0.637002 0.258325
vt 0.661832 0.465369
vt 0.633297 0.255849
vt 0.623175 0.249086
vt 0.609348 0.239847
vt 0.595521 0.230608
vt 0.585399 0.223845
vt 0.581694 0.221370
vt 0.596592 0.478346
vt 0.600963 0.477477
vt 0.612902 0.475102
vt 0.629212 0.471858
vt 0.645522 0.468613
vt 0.657461 0.466239
vt 0.623760 0.275582
vt 0.656202 0.444358
vt 0.620410 0.272644
vt 0.611257 0.264617
vt 0.598754 0.253653
vt 0.586252 0.242688
vt 0.577099 0.234662
vt 0.573749 0.231724
vt 0.593215 0.465740
vt 0.597434 0.464307
vt 0.608961 0.460394
vt 0.624708 0.455049
vt 0.640455 0.449704
vt 0.651982 0.445791
vt 0.608378 0.290963
vt 0.647878 0.424262
vt 0.605440 0.287613
vt 0.597414 0.278460
vt 0.586450 0.265958
vt 0.575485 0.253455
vt 0.567458 0.244303
vt 0.588220 0.453682
vt 0.564521 0.240953
vt 0.592216 0.451711
vt 0.603134 0.446327
vt 0.618049 0.438972
vt 0.632963 0.431617
vt 0.643881 0.426233
vt 0.591121 0.304205
vt 0.637001 0.405424
vt 0.588646 0.300500
vt 0.581883 0.290378
vt 0.572644 0.276551
vt 0.563405 0.262725
vt 0.556642 0.252603
vt 0.554166 0.248898
vt 0.581694 0.442379
vt 0.585399 0.439903
vt 0.595521 0.433140
vt 0.609348 0.423901
vt 0.623175 0.414663
vt 0.633297 0.407899
s 0
usemtl マテリアル
f 2/4/1 3/5/1 1/1/1
f 4/7/2 5/10/2 3/5/2
f 6/13/3 7/15/3 5/9/3
f 8/17/4 9/19/4 7/15/4
f 10/21/5 11/23/5 9/19/5
f 12/25/6 13/27/6 11/23/6
f 14/29/7 15/31/7 13/27/7
f 16/33/8 17/35/8 15/31/8
f 18/37/9 19/39/9 17/35/9
f 20/41/10 21/43/10 19/39/10
f 22/45/11 23/48/11 21/43/11
f 24/51/12 25/53/12 23/47/12
f 26/55/13 27/57/13 25/53/13
f 28/59/14 29/61/14 27/57/14
f 30/63/15 31/65/15 29/61/15
f 32/67/16 33/69/16 31/65/16
f 34/71/17 35/73/17 33/69/17
f 36/75/18 37/78/18 35/73/18
f 38/81/19 39/83/19 37/77/19
f 40/85/20 41/87/20 39/83/20
f 42/89/21 43/91/21 41/87/21
f 44/93/22 45/95/22 43/91/22
f 46/97/23 47/99/23 45/95/23
f 48/101/24 49/103/24 47/99/24
f 50/105/25 51/107/25 49/103/25
f 52/109/26 53/112/26 51/107/26
f 54/115/27 55/117/27 53/111/27
f 56/119/28 57/121/28 55/117/28
f 58/123/29 59/125/29 57/121/29
f 60/127/30 61/129/30 59/125/30
f 38/82/31 22/46/31 6/14/31
f 62/132/32 63/133/32 61/129/32
f 64/136/33 1/1/33 63/133/33
f 31/66/34 47/100/34 63/134/34
f 65/137/35 78/153/35 66/139/35
f 78/153/36 67/140/36 66/139/36
f 67/140/37 80/155/37 68/141/37
f 68/141/38 81/156/38 69/142/38
f 81/156/39 70/143/39 69/142/39
f 82/157/40 71/144/40 70/143/40
f 83/159/41 72/146/41 71/145/41
f 84/160/42 73/147/42 72/146/42
f 85/161/43 74/148/43 73/147/43
f 74/148/44 87/163/44 75/149/44
f 87/163/45 76/150/45 75/149/45
f 88/164/46 65/138/46 76/150/46
f 89/165/47 78/153/47 77/151/47
f 90/167/48 79/154/48 78/153/48
f 91/168/49 80/155/49 79/154/49
f 92/169/50 81/156/50 80/155/50
f 81/156/51 94/171/51 82/157/51
f 94/171/52 83/158/52 82/157/52
f 83/159/53 96/174/53 84/160/53
f 96/174/54 85/161/54 84/160/54
f 85/161/55 98/176/55 86/162/55
f 86/162/56 99/177/56 87/163/56
f 87/163/57 100/178/57 88/164/57
f 88/164/58 89/166/58 77/152/58
f 89/165/59 102/181/59 90/167/59
f 90/167/60 103/182/60 91/168/60
f 91/168/61 104/183/61 92/169/61
f 92/169/62 105/184/62 93/170/62
f 93/170/63 106/185/63 94/171/63
f 106/185/64 95/172/64 94/171/64
f 95/173/65 108/188/65 96/174/65
f 96/174/66 109/189/66 97/175/66
f 109/189/67 98/176/67 97/175/67
f 110/190/68 99/177/68 98/176/68
f 111/191/69 100/178/69 99/177/69
f 112/192/70 89/166/70 100/178/70
f 113/193/71 102/181/71 101/179/71
f 114/195/72 103/182/72 102/181/72
f 115/196/73 104/183/73 103/182/73
f 116/197/74 105/184/74 104/183/74
f 117/198/75 106/185/75 105/184/75
f 106/185/76 119/201/76 107/186/76
f 119/200/77 108/188/77 107/187/77
f 108/188/78 121/203/78 109/189/78
f 109/189/79 122/204/79 110/190/79
f 122/204/80 111/191/80 110/190/80
f 111/191/81 124/206/81 112/192/81
f 112/192/82 113/194/82 101/180/82
f 125/207/83 114/195/83 113/193/83
f 114/195/84 127/210/84 115/196/84
f 127/210/85 116/197/85 115/196/85
f 116/197/86 129/212/86 117/198/86
f 117/198/87 130/213/87 118/199/87
f 130/213/88 119/201/88 118/199/88
f 131/215/89 120/202/89 119/200/89
f 132/216/90 121/203/90 120/202/90
f 133/217/91 122/204/91 121/203/91
f 122/204/92 135/219/92 123/205/92
f 135/219/93 124/206/93 123/205/93
f 124/206/94 125/208/94 113/194/94
f 137/221/95 126/209/95 125/207/95
f 138/223/96 127/210/96 126/209/96
f 139/224/97 128/211/97 127/210/97
f 140/225/98 129/212/98 128/211/98
f 141/226/99 130/213/99 129/212/99
f 130/213/100 143/228/100 131/214/100
f 143/229/101 132/216/101 131/215/101
f 144/230/102 133/217/102 132/216/102
f 145/231/103 134/218/103 133/217/103
f 134/218/104 147/233/104 135/219/104
f 135/219/105 148/234/105 136/220/105
f 136/220/106 137/222/106 125/208/106
f 149/235/107 138/223/107 137/221/107
f 150/237/108 139/224/108 138/223/108
f 139/224/109 152/239/109 140/225/109
f 140/225/110 153/240/110 141/226/110
f 153/240/111 142/227/111 141/226/111
f 142/227/112 155/242/112 143/228/112
f 155/243/113 144/230/113 143/229/113
f 144/230/114 157/245/114 145/231/114
f 157/245/115 146/232/115 145/231/115
f 158/246/116 147/233/116 146/232/116
f 147/233/117 160/248/117 148/234/117
f 148/234/118 149/236/118 137/222/118
f 161/249/119 150/237/119 149/235/119
f 150/237/120 163/252/120 151/238/120
f 151/238/121 164/253/121 152/239/121
f 164/253/122 153/240/122 152/239/122
f 153/240/123 166/255/123 154/241/123
f 154/241/124 167/257/124 155/242/124
f 155/243/125 168/258/125 156/244/125
f 168/258/126 157/245/126 156/244/126
f 169/259/127 158/246/127 157/245/127
f 170/260/128 159/247/128 158/246/128
f 171/261/129 160/248/129 159/247/129
f 172/262/130 149/236/130 160/248/130
f 161/249/131 174/265/131 162/251/131
f 174/265/132 163/252/132 162/251/132
f 175/266/133 164/253/133 163/252/133
f 176/267/134 165/254/134 164/253/134
f 177/268/135 166/255/135 165/254/135
f 178/269/136 167/257/136 166/255/136
f 179/270/137 168/258/137 167/256/137
f 180/272/138 169/259/138 168/258/138
f 169/259/139 182/274/139 170/260/139
f 170/260/140 183/275/140 171/261/140
f 171/261/141 184/276/141 172/262/141
f 184/276/142 161/250/142 172/262/142
f 173/263/143 186/279/143 174/265/143
f 174/265/144 187/280/144 175/266/144
f 187/280/145 176/267/145 175/266/145
f 188/281/146 177/268/146 176/267/146
f 177/268/147 190/283/147 178/269/147
f 190/283/148 179/271/148 178/269/148
f 191/285/149 180/272/149 179/270/149
f 192/286/150 181/273/150 180/272/150
f 193/287/151 182/274/151 181/273/151
f 194/288/152 183/275/152 182/274/152
f 195/289/153 184/276/153 183/275/153
f 196/290/154 173/264/154 184/276/154
f 185/277/155 198/293/155 186/279/155
f 186/279/156 199/294/156 187/280/156
f 187/280/157 200/295/157 188/281/157
f 200/295/158 189/282/158 188/281/158
f 201/296/159 190/283/159 189/282/159
f 190/283/160 203/298/160 191/284/160
f 203/299/161 192/286/161 191/285/161
f 192/286/162 205/301/162 193/287/162
f 193/287/163 206/302/163 194/288/163
f 206/302/164 195/289/164 194/288/164
f 207/303/165 196/290/165 195/289/165
f 208/304/166 185/278/166 196/290/166
f 209/305/167 198/293/167 197/291/167
f 210/307/168 199/294/168 198/293/168
f 199/294/169 212/309/169 200/295/169
f 212/309/170 201/296/170 200/295/170
f 213/310/171 202/297/171 201/296/171
f 214/311/172 203/298/172 202/297/172
f 203/299/173 216/314/173 204/300/173
f 204/300/174 217/315/174 205/301/174
f 217/315/175 206/302/175 205/301/175
f 218/316/176 207/303/176 206/302/176
f 219/317/177 208/304/177 207/303/177
f 220/318/178 197/292/178 208/304/178
f 221/320/179 210/307/179 209/305/179
f 222/321/180 211/308/180 210/307/180
f 223/322/181 212/309/181 211/308/181
f 212/309/182 225/324/182 213/310/182
f 213/310/183 226/325/183 214/311/183
f 226/325/184 215/313/184 214/311/184
f 227/327/185 216/314/185 215/312/185
f 228/328/186 217/315/186 216/314/186
f 229/329/187 218/316/187 217/315/187
f 218/316/188 231/331/188 219/317/188
f 219/317/189 232/332/189 220/318/189
f 232/332/190 209/306/190 220/318/190
f 221/320/191 234/335/191 222/321/191
f 222/321/192 235/336/192 223/322/192
f 235/336/193 224/323/193 223/322/193
f 224/323/194 237/338/194 225/324/194
f 237/338/195 226/325/195 225/324/195
f 238/339/196 227/326/196 226/325/196
f 227/327/197 240/342/197 228/328/197
f 240/342/198 229/329/198 228/328/198
f 241/343/199 230/330/199 229/329/199
f 242/344/200 231/331/200 230/330/200
f 243/345/201 232/332/201 231/331/201
f 232/332/202 233/334/202 221/319/202
f 245/347/203 234/335/203 233/333/203
f 246/349/204 235/336/204 234/335/204
f 247/350/205 236/337/205 235/336/205
f 236/337/206 249/352/206 237/338/206
f 249/352/207 238/339/207 237/338/207
f 250/353/208 239/340/208 238/339/208
f 239/341/209 252/356/209 240/342/209
f 252/356/210 241/343/210 240/342/210
f 253/357/211 242/344/211 241/343/211
f 242/344/212 255/359/212 243/345/212
f 243/345/213 256/360/213 244/346/213
f 256/360/214 233/334/214 244/346/214
f 257/361/215 246/349/215 245/347/215
f 258/363/216 247/350/216 246/349/216
f 247/350/217 260/365/217 248/351/217
f 260/365/218 249/352/218 248/351/218
f 261/366/219 250/353/219 249/352/219
f 250/353/220 263/368/220 251/354/220
f 263/369/221 252/356/221 251/355/221
f 252/356/222 265/371/222 253/357/222
f 253/357/223 266/372/223 254/358/223
f 266/372/224 255/359/224 254/358/224
f 267/373/225 256/360/225 255/359/225
f 256/360/226 257/362/226 245/348/226
f 257/361/227 270/377/227 258/363/227
f 258/363/228 271/378/228 259/364/228
f 259/364/229 272/379/229 260/365/229
f 260/365/230 273/380/230 261/366/230
f 261/366/231 274/381/231 262/367/231
f 262/367/232 275/382/232 263/368/232
f 275/383/233 264/370/233 263/369/233
f 276/384/234 265/371/234 264/370/234
f 277/385/235 266/372/235 265/371/235
f 278/386/236 267/373/236 266/372/236
f 279/387/237 268/374/237 267/373/237
f 280/388/238 257/362/238 268/374/238
f 269/375/239 282/391/239 270/377/239
f 270/377/240 283/392/240 271/378/240
f 283/392/241 272/379/241 271/378/241
f 272/379/242 285/394/242 273/380/242
f 273/380/243 286/395/243 274/381/243
f 274/381/244 287/396/244 275/382/244
f 287/397/245 276/384/245 275/383/245
f 288/398/246 277/385/246 276/384/246
f 289/399/247 278/386/247 277/385/247
f 290/400/248 279/387/248 278/386/248
f 291/401/249 280/388/249 279/387/249
f 292/402/250 269/376/250 280/388/250
f 293/403/251 282/391/251 281/389/251
f 294/405/252 283/392/252 282/391/252
f 283/392/253 296/407/253 284/393/253
f 284/393/254 297/408/254 285/394/254
f 285/394/255 298/409/255 286/395/255
f 286/395/256 299/411/256 287/396/256
f 299/410/257 288/398/257 287/397/257
f 300/412/258 289/399/258 288/398/258
f 301/413/259 290/400/259 289/399/259
f 302/414/260 291/401/260 290/400/260
f 291/401/261 304/416/261 292/402/261
f 292/402/262 293/404/262 281/390/262
f 293/403/263 306/419/263 294/405/263
f 306/419/264 295/406/264 294/405/264
f 295/406/265 308/421/265 296/407/265
f 308/421/266 297/408/266 296/407/266
f 309/422/267 298/409/267 297/408/267
f 310/423/268 299/411/268 298/409/268
f 311/424/269 300/412/269 299/410/269
f 312/426/270 301/413/270 300/412/270
f 301/413/271 314/428/271 302/414/271
f 314/428/272 303/415/272 302/414/272
f 303/415/273 316/430/273 304/416/273
f 316/430/274 293/404/274 304/416/274
f 305/417/275 318/433/275 306/419/275
f 318/433/276 307/420/276 306/419/276
f 319/434/277 308/421/277 307/420/277
f 308/421/278 321/436/278 309/422/278
f 321/436/279 310/423/279 309/422/279
f 322/437/280 311/425/280 310/423/280
f 323/439/281 312/426/281 311/424/281
f 324/440/282 313/427/282 312/426/282
f 325/441/283 314/428/283 313/427/283
f 326/442/284 315/429/284 314/428/284
f 327/443/285 316/430/285 315/429/285
f 328/444/286 305/418/286 316/430/286
f 329/445/287 318/433/287 317/431/287
f 318/433/288 331/448/288 319/434/288
f 331/448/289 320/435/289 319/434/289
f 332/449/290 321/436/290 320/435/290
f 321/436/291 334/451/291 322/437/291
f 322/437/292 335/453/292 323/438/292
f 335/452/293 324/440/293 323/439/293
f 336/454/294 325/441/294 324/440/294
f 325/441/295 338/456/295 326/442/295
f 338/456/296 327/443/296 326/442/296
f 339/457/297 328/444/297 327/443/297
f 340/458/298 317/432/298 328/444/298
f 341/459/299 330/447/299 329/445/299
f 342/461/300 331/448/300 330/447/300
f 331/448/301 344/463/301 332/449/301
f 344/463/302 333/450/302 332/449/302
f 345/464/303 334/451/303 333/450/303
f 346/465/304 335/453/304 334/451/304
f 347/467/305 336/454/305 335/452/305
f 336/454/306 349/469/306 337/455/306
f 337/455/307 350/470/307 338/456/307
f 350/470/308 339/457/308 338/456/308
f 351/471/309 340/458/309 339/457/309
f 352/472/310 329/446/310 340/458/310
f 341/459/311 354/475/311 342/461/311
f 354/475/312 343/462/312 342/461/312
f 343/462/313 356/477/313 344/463/313
f 356/477/314 345/464/314 344/463/314
f 345/464/315 358/479/315 346/465/315
f 358/479/316 347/466/316 346/465/316
f 347/467/317 360/482/317 348/468/317
f 348/468/318 361/483/318 349/469/318
f 361/483/319 350/470/319 349/469/319
f 362/484/320 351/471/320 350/470/320
f 363/485/321 352/472/321 351/471/321
f 364/486/322 341/460/322 352/472/322
f 365/487/40 354/475/40 353/473/40
f 366/489/323 355/476/323 354/475/323
f 367/490/38 356/477/38 355/476/38
f 368/491/37 357/478/37 356/477/37
f 369/492/324 358/479/324 357/478/324
f 358/479/35 371/494/35 359/480/35
f 371/495/46 360/482/46 359/481/46
f 372/496/325 361/483/325 360/482/325
f 373/497/44 362/484/44 361/483/44
f 362/484/43 375/499/43 363/485/43
f 363/485/326 376/500/326 364/486/326
f 376/500/41 353/474/41 364/486/41
f 365/487/52 378/503/52 366/489/52
f 366/489/327 379/504/327 367/490/327
f 379/504/50 368/491/50 367/490/50
f 368/491/49 381/506/49 369/492/49
f 369/492/48 382/507/48 370/493/48
f 370/493/47 383/508/47 371/494/47
f 371/495/58 384/510/58 372/496/58
f 384/510/57 373/497/57 372/496/57
f 385/511/56 374/498/56 373/497/56
f 374/498/55 387/513/55 375/499/55
f 375/499/54 388/514/54 376/500/54
f 388/514/53 365/488/53 376/500/53
f 389/515/64 378/503/64 377/501/64
f 390/517/63 379/504/63 378/503/63
f 379/504/62 392/519/62 380/505/62
f 380/505/61 393/520/61 381/506/61
f 381/506/328 394/521/328 382/507/328
f 394/521/59 383/508/59 382/507/59
f 383/509/70 396/524/70 384/510/70
f 384/510/69 397/525/69 385/511/69
f 397/525/68 386/512/68 385/511/68
f 386/512/67 399/527/67 387/513/67
f 387/513/66 400/528/66 388/514/66
f 400/528/65 377/502/65 388/514/65
f 401/529/76 390/517/76 389/515/76
f 402/531/329 391/518/329 390/517/329
f 403/532/74 392/519/74 391/518/74
f 392/519/73 405/534/73 393/520/73
f 405/534/330 394/521/330 393/520/330
f 406/535/71 395/522/71 394/521/71
f 395/523/82 408/538/82 396/524/82
f 408/538/81 397/525/81 396/524/81
f 409/539/80 398/526/80 397/525/80
f 410/540/79 399/527/79 398/526/79
f 399/527/78 412/542/78 400/528/78
f 412/542/77 389/516/77 400/528/77
f 413/543/88 402/531/88 401/529/88
f 402/531/331 415/546/331 403/532/331
f 415/546/86 404/533/86 403/532/86
f 404/533/85 417/548/85 405/534/85
f 417/548/84 406/535/84 405/534/84
f 418/549/83 407/537/83 406/535/83
f 419/551/94 408/538/94 407/536/94
f 408/538/93 421/553/93 409/539/93
f 421/553/92 410/540/92 409/539/92
f 422/554/91 411/541/91 410/540/91
f 423/555/90 412/542/90 411/541/90
f 424/556/89 401/530/89 412/542/89
f 413/543/100 426/559/100 414/545/100
f 414/545/99 427/560/99 415/546/99
f 427/560/98 416/547/98 415/546/98
f 416/547/97 429/562/97 417/548/97
f 429/562/332 418/549/332 417/548/332
f 418/549/95 431/564/95 419/550/95
f 419/551/106 432/566/106 420/552/106
f 420/552/105 433/567/105 421/553/105
f 433/567/104 422/554/104 421/553/104
f 422/554/103 435/569/103 423/555/103
f 435/569/102 424/556/102 423/555/102
f 436/570/101 413/544/101 424/556/101
f 437/571/112 426/559/112 425/557/112
f 438/573/111 427/560/111 426/559/111
f 427/560/110 440/575/110 428/561/110
f 428/561/109 441/576/109 429/562/109
f 429/562/108 442/577/108 430/563/108
f 430/563/107 443/578/107 431/564/107
f 443/579/118 432/566/118 431/565/118
f 444/580/117 433/567/117 432/566/117
f 445/581/116 434/568/116 433/567/116
f 434/568/115 447/583/115 435/569/115
f 435/569/114 448/584/114 436/570/114
f 448/584/113 425/558/113 436/570/113
f 437/571/124 450/587/124 438/573/124
f 450/587/123 439/574/123 438/573/123
f 451/588/122 440/575/122 439/574/122
f 440/575/121 453/590/121 441/576/121
f 441/576/120 454/591/120 442/577/120
f 442/577/119 455/593/119 443/578/119
f 455/592/130 444/580/130 443/579/130
f 456/594/129 445/581/129 444/580/129
f 457/595/128 446/582/128 445/581/128
f 446/582/127 459/597/127 447/583/127
f 447/583/126 460/598/126 448/584/126
f 460/598/125 437/572/125 448/584/125
f 449/585/136 462/601/136 450/587/136
f 450/587/135 463/602/135 451/588/135
f 451/588/134 464/603/134 452/589/134
f 452/589/133 465/604/133 453/590/133
f 453/590/132 466/605/132 454/591/132
f 466/605/131 455/593/131 454/591/131
f 467/607/142 456/594/142 455/592/142
f 468/608/141 457/595/141 456/594/141
f 469/609/140 458/596/140 457/595/140
f 470/610/139 459/597/139 458/596/139
f 471/611/138 460/598/138 459/597/138
f 472/612/137 449/586/137 460/598/137
f 461/599/148 474/615/148 462/601/148
f 462/601/147 475/616/147 463/602/147
f 475/616/146 464/603/146 463/602/146
f 476/617/145 465/604/145 464/603/145
f 477/618/144 466/605/144 465/604/144
f 466/605/143 479/620/143 467/606/143
f 479/621/154 468/608/154 467/607/154
f 480/622/153 469/609/153 468/608/153
f 469/609/152 482/624/152 470/610/152
f 470/610/151 483/625/151 471/611/151
f 483/625/150 472/612/150 471/611/150
f 484/626/149 461/600/149 472/612/149
f 485/627/160 474/615/160 473/613/160
f 474/615/159 487/630/159 475/616/159
f 487/630/158 476/617/158 475/616/158
f 488/631/157 477/618/157 476/617/157
f 489/632/333 478/619/333 477/618/333
f 478/619/155 491/634/155 479/620/155
f 491/635/166 480/622/166 479/621/166
f 480/622/165 493/637/165 481/623/165
f 481/623/164 494/638/164 482/624/164
f 482/624/163 495/639/163 483/625/163
f 483/625/162 496/640/162 484/626/162
f 484/626/161 485/628/161 473/614/161
f 497/641/172 486/629/172 485/627/172
f 498/643/171 487/630/171 486/629/171
f 487/630/170 500/645/170 488/631/170
f 488/631/169 501/646/169 489/632/169
f 489/632/168 502/647/168 490/633/168
f 490/633/167 503/649/167 491/634/167
f 503/648/178 492/636/178 491/635/178
f 504/650/177 493/637/177 492/636/177
f 505/651/176 494/638/176 493/637/176
f 494/638/175 507/653/175 495/639/175
f 495/639/174 508/654/174 496/640/174
f 508/654/173 485/628/173 496/640/173
f 497/641/184 510/657/184 498/643/184
f 510/657/183 499/644/183 498/643/183
f 499/644/182 512/659/182 500/645/182
f 500/645/181 513/660/181 501/646/181
f 513/660/334 502/647/334 501/646/334
f 514/661/179 503/649/179 502/647/179
f 515/663/190 504/650/190 503/648/190
f 516/664/189 505/651/189 504/650/189
f 517/665/188 506/652/188 505/651/188
f 518/666/187 507/653/187 506/652/187
f 519/667/335 508/654/335 507/653/335
f 520/668/185 497/642/185 508/654/185
f 509/655/196 522/671/196 510/657/196
f 522/671/195 511/658/195 510/657/195
f 523/672/194 512/659/194 511/658/194
f 524/673/193 513/660/193 512/659/193
f 513/660/192 526/675/192 514/661/192
f 526/675/191 515/662/191 514/661/191
f 515/663/202 528/678/202 516/664/202
f 528/678/201 517/665/201 516/664/201
f 517/665/200 530/680/200 518/666/200
f 518/666/199 531/681/199 519/667/199
f 519/667/198 532/682/198 520/668/198
f 532/682/197 509/656/197 520/668/197
f 533/683/208 522/671/208 521/669/208
f 534/685/336 523/672/336 522/671/336
f 523/672/206 536/687/206 524/673/206
f 524/673/205 537/688/205 525/674/205
f 525/674/337 538/689/337 526/675/337
f 526/675/203 539/690/203 527/676/203
f 539/691/214 528/678/214 527/677/214
f 528/678/213 541/693/213 529/679/213
f 541/693/212 530/680/212 529/679/212
f 542/694/211 531/681/211 530/680/211
f 543/695/210 532/682/210 531/681/210
f 544/696/209 521/670/209 532/682/209
f 545/697/220 534/685/220 533/683/220
f 534/685/338 547/700/338 535/686/338
f 547/700/218 536/687/218 535/686/218
f 536/687/217 549/702/217 537/688/217
f 549/702/216 538/689/216 537/688/216
f 550/703/215 539/690/215 538/689/215
f 539/691/226 552/706/226 540/692/226
f 552/706/225 541/693/225 540/692/225
f 541/693/224 554/708/224 542/694/224
f 542/694/223 555/709/223 543/695/223
f 555/709/222 544/696/222 543/695/222
f 544/696/221 545/698/221 533/684/221
f 545/697/232 558/713/232 546/699/232
f 558/713/339 547/700/339 546/699/339
f 559/714/230 548/701/230 547/700/230
f 560/715/229 549/702/229 548/701/229
f 561/716/340 550/703/340 549/702/340
f 562/717/227 551/704/227 550/703/227
f 551/705/238 564/720/238 552/706/238
f 552/706/237 565/721/237 553/707/237
f 565/721/236 554/708/236 553/707/236
f 554/708/235 567/723/235 555/709/235
f 567/723/234 556/710/234 555/709/234
f 568/724/233 545/698/233 556/710/233
f 557/711/244 570/727/244 558/713/244
f 570/727/243 559/714/243 558/713/243
f 571/728/242 560/715/242 559/714/242
f 560/715/241 573/730/241 561/716/241
f 573/730/240 562/717/240 561/716/240
f 574/731/239 563/718/239 562/717/239
f 563/719/250 576/734/250 564/720/250
f 564/720/249 577/735/249 565/721/249
f 577/735/248 566/722/248 565/721/248
f 566/722/247 579/737/247 567/723/247
f 567/723/246 580/738/246 568/724/246
f 580/738/245 557/712/245 568/724/245
f 569/725/256 582/741/256 570/727/256
f 582/741/255 571/728/255 570/727/255
f 571/728/254 584/743/254 572/729/254
f 584/743/253 573/730/253 572/729/253
f 585/744/341 574/731/341 573/730/341
f 586/745/251 575/733/251 574/731/251
f 587/747/262 576/734/262 575/732/262
f 576/734/261 589/749/261 577/735/261
f 577/735/260 590/750/260 578/736/260
f 590/750/259 579/737/259 578/736/259
f 579/737/258 592/752/258 580/738/258
f 592/752/257 569/726/257 580/738/257
f 581/739/268 594/755/268 582/741/268
f 594/755/342 583/742/342 582/741/342
f 583/742/266 596/757/266 584/743/266
f 596/757/265 585/744/265 584/743/265
f 597/758/343 586/745/343 585/744/343
f 586/745/263 599/760/263 587/746/263
f 587/747/274 600/762/274 588/748/274
f 588/748/273 601/763/273 589/749/273
f 589/749/272 602/764/272 590/750/272
f 602/764/271 591/751/271 590/750/271
f 591/751/344 604/766/344 592/752/344
f 604/766/269 581/740/269 592/752/269
f 605/767/280 594/755/280 593/753/280
f 594/755/279 607/770/279 595/756/279
f 595/756/278 608/771/278 596/757/278
f 596/757/277 609/772/277 597/758/277
f 597/758/276 610/773/276 598/759/276
f 598/759/275 611/774/275 599/760/275
f 611/775/286 600/762/286 599/761/286
f 612/776/285 601/763/285 600/762/285
f 613/777/284 602/764/284 601/763/284
f 614/778/283 603/765/283 602/764/283
f 615/779/345 604/766/345 603/765/345
f 616/780/281 593/754/281 604/766/281
f 617/781/292 606/769/292 605/767/292
f 606/769/346 619/784/346 607/770/346
f 619/784/290 608/771/290 607/770/290
f 620/785/289 609/772/289 608/771/289
f 621/786/347 610/773/347 609/772/347
f 610/773/287 623/789/287 611/774/287
f 623/788/298 612/776/298 611/775/298
f 612/776/297 625/791/297 613/777/297
f 613/777/296 626/792/296 614/778/296
f 614/778/295 627/793/295 615/779/295
f 627/793/294 616/780/294 615/779/294
f 628/794/293 605/768/293 616/780/293
f 629/795/304 618/783/304 617/781/304
f 618/783/303 631/798/303 619/784/303
f 619/784/302 632/799/302 620/785/302
f 620/785/301 633/800/301 621/786/301
f 621/786/300 634/801/300 622/787/300
f 634/801/299 623/789/299 622/787/299
f 635/803/310 624/790/310 623/788/310
f 624/790/348 637/805/348 625/791/348
f 637/805/308 626/792/308 625/791/308
f 638/806/307 627/793/307 626/792/307
f 639/807/306 628/794/306 627/793/306
f 628/794/305 629/796/305 617/782/305
f 65/137/316 630/797/316 629/795/316
f 66/139/315 631/798/315 630/797/315
f 67/140/314 632/799/314 631/798/314
f 68/141/313 633/800/313 632/799/313
f 633/800/312 70/143/312 634/801/312
f 70/143/311 635/802/311 634/801/311
f 635/803/322 72/146/322 636/804/322
f 72/146/321 637/805/321 636/804/321
f 637/805/320 74/148/320 638/806/320
f 74/148/319 639/807/319 638/806/319
f 639/807/349 76/150/349 640/808/349
f 76/150/317 629/796/317 640/808/317
f 2/4/1 4/7/1 3/5/1
f 4/7/2 6/12/2 5/10/2
f 6/13/3 8/17/3 7/15/3
f 8/17/4 10/21/4 9/19/4
f 10/21/5 12/25/5 11/23/5
f 12/25/6 14/29/6 13/27/6
f 14/29/7 16/33/7 15/31/7
f 16/33/8 18/37/8 17/35/8
f 18/37/9 20/41/9 19/39/9
f 20/41/10 22/45/10 21/43/10
f 22/45/11 24/50/11 23/48/11
f 24/51/12 26/55/12 25/53/12
f 26/55/13 28/59/13 27/57/13
f 28/59/14 30/63/14 29/61/14
f 30/63/15 32/67/15 31/65/15
f 32/67/16 34/71/16 33/69/16
f 34/71/17 36/75/17 35/73/17
f 36/75/18 38/80/18 37/78/18
f 38/81/19 40/85/19 39/83/19
f 40/85/20 42/89/20 41/87/20
f 42/89/21 44/93/21 43/91/21
f 44/93/22 46/97/22 45/95/22
f 46/97/23 48/101/23 47/99/23
f 48/101/24 50/105/24 49/103/24
f 50/105/25 52/109/25 51/107/25
f 52/109/26 54/114/26 53/112/26
f 54/115/27 56/119/27 55/117/27
f 56/119/28 58/123/28 57/121/28
f 58/123/29 60/127/29 59/125/29
f 60/127/30 62/132/30 61/129/30
f 6/14/31 4/8/31 2/3/31
f 2/3/31 64/135/31 62/131/31
f 62/131/31 60/128/31 58/124/31
f 58/124/31 56/120/31 54/116/31
f 54/116/31 52/110/31 50/106/31
f 50/106/31 48/102/31 46/98/31
f 46/98/31 44/94/31 42/90/31
f 42/90/31 40/86/31 38/82/31
f 38/82/31 36/76/31 34/72/31
f 34/72/31 32/68/31 30/64/31
f 30/64/31 28/60/31 26/56/31
f 26/56/31 24/52/31 22/46/31
f 22/46/31 20/42/31 18/38/31
f 18/38/31 16/34/31 14/30/31
f 14/30/31 12/26/31 10/22/31
f 10/22/31 8/18/31 6/14/31
f 6/14/31 2/3/31 62/131/31
f 62/131/31 58/124/31 54/116/31
f 54/116/31 50/106/31 46/98/31
f 46/98/31 42/90/31 38/82/31
f 38/82/31 34/72/31 30/64/31
f 30/64/31 26/56/31 22/46/31
f 22/46/31 18/38/31 14/30/31
f 14/30/31 10/22/31 6/14/31
f 6/14/31 62/131/31 54/116/31
f 54/116/31 46/98/31 38/82/31
f 38/82/31 30/64/31 22/46/31
f 22/46/31 14/30/31 6/14/31
f 6/14/31 54/116/31 38/82/31
f 62/132/32 64/136/32 63/133/32
f 64/136/33 2/4/33 1/1/33
f 63/134/34 1/2/34 3/6/34
f 3/6/34 5/11/34 7/16/34
f 7/16/34 9/20/34 11/24/34
f 11/24/34 13/28/34 15/32/34
f 15/32/34 17/36/34 19/40/34
f 19/40/34 21/44/34 23/49/34
f 23/49/34 25/54/34 27/58/34
f 27/58/34 29/62/34 31/66/34
f 31/66/34 33/70/34 35/74/34
f 35/74/34 37/79/34 39/84/34
f 39/84/34 41/88/34 43/92/34
f 43/92/34 45/96/34 47/100/34
f 47/100/34 49/104/34 51/108/34
f 51/108/34 53/113/34 55/118/34
f 55/118/34 57/122/34 59/126/34
f 59/126/34 61/130/34 63/134/34
f 63/134/34 3/6/34 7/16/34
f 7/16/34 11/24/34 15/32/34
f 15/32/34 19/40/34 23/49/34
f 23/49/34 27/58/34 31/66/34
f 31/66/34 35/74/34 39/84/34
f 39/84/34 43/92/34 47/100/34
f 47/100/34 51/108/34 55/118/34
f 55/118/34 59/126/34 63/134/34
f 63/134/34 7/16/34 15/32/34
f 15/32/34 23/49/34 31/66/34
f 31/66/34 39/84/34 47/100/34
f 47/100/34 55/118/34 63/134/34
f 63/134/34 15/32/34 31/66/34
f 65/137/35 77/151/35 78/153/35
f 78/153/324 79/154/324 67/140/324
f 67/140/37 79/154/37 80/155/37
f 68/141/38 80/155/38 81/156/38
f 81/156/323 82/157/323 70/143/323
f 82/157/40 83/158/40 71/144/40
f 83/159/41 84/160/41 72/146/41
f 84/160/326 85/161/326 73/147/326
f 85/161/43 86/162/43 74/148/43
f 74/148/44 86/162/44 87/163/44
f 87/163/325 88/164/325 76/150/325
f 88/164/46 77/152/46 65/138/46
f 89/165/47 90/167/47 78/153/47
f 90/167/350 91/168/350 79/154/350
f 91/168/49 92/169/49 80/155/49
f 92/169/50 93/170/50 81/156/50
f 81/156/327 93/170/327 94/171/327
f 94/171/52 95/172/52 83/158/52
f 83/159/53 95/173/53 96/174/53
f 96/174/54 97/175/54 85/161/54
f 85/161/55 97/175/55 98/176/55
f 86/162/351 98/176/351 99/177/351
f 87/163/57 99/177/57 100/178/57
f 88/164/58 100/178/58 89/166/58
f 89/165/59 101/179/59 102/181/59
f 90/167/328 102/181/328 103/182/328
f 91/168/61 103/182/61 104/183/61
f 92/169/62 104/183/62 105/184/62
f 93/170/352 105/184/352 106/185/352
f 106/185/64 107/186/64 95/172/64
f 95/173/65 107/187/65 108/188/65
f 96/174/66 108/188/66 109/189/66
f 109/189/67 110/190/67 98/176/67
f 110/190/68 111/191/68 99/177/68
f 111/191/69 112/192/69 100/178/69
f 112/192/70 101/180/70 89/166/70
f 113/193/71 114/195/71 102/181/71
f 114/195/330 115/196/330 103/182/330
f 115/196/73 116/197/73 104/183/73
f 116/197/74 117/198/74 105/184/74
f 117/198/329 118/199/329 106/185/329
f 106/185/76 118/199/76 119/201/76
f 119/200/77 120/202/77 108/188/77
f 108/188/78 120/202/78 121/203/78
f 109/189/79 121/203/79 122/204/79
f 122/204/80 123/205/80 111/191/80
f 111/191/81 123/205/81 124/206/81
f 112/192/82 124/206/82 113/194/82
f 125/207/83 126/209/83 114/195/83
f 114/195/353 126/209/353 127/210/353
f 127/210/85 128/211/85 116/197/85
f 116/197/86 128/211/86 129/212/86
f 117/198/331 129/212/331 130/213/331
f 130/213/88 131/214/88 119/201/88
f 131/215/89 132/216/89 120/202/89
f 132/216/90 133/217/90 121/203/90
f 133/217/91 134/218/91 122/204/91
f 122/204/92 134/218/92 135/219/92
f 135/219/93 136/220/93 124/206/93
f 124/206/94 136/220/94 125/208/94
f 137/221/95 138/223/95 126/209/95
f 138/223/332 139/224/332 127/210/332
f 139/224/97 140/225/97 128/211/97
f 140/225/98 141/226/98 129/212/98
f 141/226/354 142/227/354 130/213/354
f 130/213/100 142/227/100 143/228/100
f 143/229/101 144/230/101 132/216/101
f 144/230/355 145/231/355 133/217/355
f 145/231/103 146/232/103 134/218/103
f 134/218/104 146/232/104 147/233/104
f 135/219/356 147/233/356 148/234/356
f 136/220/106 148/234/106 137/222/106
f 149/235/107 150/237/107 138/223/107
f 150/237/357 151/238/357 139/224/357
f 139/224/109 151/238/109 152/239/109
f 140/225/110 152/239/110 153/240/110
f 153/240/358 154/241/358 142/227/358
f 142/227/112 154/241/112 155/242/112
f 155/243/113 156/244/113 144/230/113
f 144/230/114 156/244/114 157/245/114
f 157/245/115 158/246/115 146/232/115
f 158/246/116 159/247/116 147/233/116
f 147/233/117 159/247/117 160/248/117
f 148/234/118 160/248/118 149/236/118
f 161/249/119 162/251/119 150/237/119
f 150/237/359 162/251/359 163/252/359
f 151/238/121 163/252/121 164/253/121
f 164/253/122 165/254/122 153/240/122
f 153/240/360 165/254/360 166/255/360
f 154/241/124 166/255/124 167/257/124
f 155/243/125 167/256/125 168/258/125
f 168/258/126 169/259/126 157/245/126
f 169/259/127 170/260/127 158/246/127
f 170/260/128 171/261/128 159/247/128
f 171/261/129 172/262/129 160/248/129
f 172/262/130 161/250/130 149/236/130
f 161/249/131 173/263/131 174/265/131
f 174/265/361 175/266/361 163/252/361
f 175/266/133 176/267/133 164/253/133
f 176/267/134 177/268/134 165/254/134
f 177/268/135 178/269/135 166/255/135
f 178/269/136 179/271/136 167/257/136
f 179/270/137 180/272/137 168/258/137
f 180/272/138 181/273/138 169/259/138
f 169/259/139 181/273/139 182/274/139
f 170/260/140 182/274/140 183/275/140
f 171/261/141 183/275/141 184/276/141
f 184/276/142 173/264/142 161/250/142
f 173/263/143 185/277/143 186/279/143
f 174/265/362 186/279/362 187/280/362
f 187/280/145 188/281/145 176/267/145
f 188/281/146 189/282/146 177/268/146
f 177/268/363 189/282/363 190/283/363
f 190/283/148 191/284/148 179/271/148
f 191/285/149 192/286/149 180/272/149
f 192/286/150 193/287/150 181/273/150
f 193/287/151 194/288/151 182/274/151
f 194/288/152 195/289/152 183/275/152
f 195/289/153 196/290/153 184/276/153
f 196/290/154 185/278/154 173/264/154
f 185/277/155 197/291/155 198/293/155
f 186/279/156 198/293/156 199/294/156
f 187/280/157 199/294/157 200/295/157
f 200/295/158 201/296/158 189/282/158
f 201/296/364 202/297/364 190/283/364
f 190/283/160 202/297/160 203/298/160
f 203/299/161 204/300/161 192/286/161
f 192/286/162 204/300/162 205/301/162
f 193/287/163 205/301/163 206/302/163
f 206/302/164 207/303/164 195/289/164
f 207/303/165 208/304/165 196/290/165
f 208/304/166 197/292/166 185/278/166
f 209/305/167 210/307/167 198/293/167
f 210/307/365 211/308/365 199/294/365
f 199/294/169 211/308/169 212/309/169
f 212/309/170 213/310/170 201/296/170
f 213/310/171 214/311/171 202/297/171
f 214/311/172 215/313/172 203/298/172
f 203/299/173 215/312/173 216/314/173
f 204/300/174 216/314/174 217/315/174
f 217/315/175 218/316/175 206/302/175
f 218/316/176 219/317/176 207/303/176
f 219/317/366 220/318/366 208/304/366
f 220/318/178 209/306/178 197/292/178
f 221/320/179 222/321/179 210/307/179
f 222/321/334 223/322/334 211/308/334
f 223/322/181 224/323/181 212/309/181
f 212/309/182 224/323/182 225/324/182
f 213/310/183 225/324/183 226/325/183
f 226/325/184 227/326/184 215/313/184
f 227/327/185 228/328/185 216/314/185
f 228/328/186 229/329/186 217/315/186
f 229/329/187 230/330/187 218/316/187
f 218/316/188 230/330/188 231/331/188
f 219/317/189 231/331/189 232/332/189
f 232/332/190 221/319/190 209/306/190
f 221/320/191 233/333/191 234/335/191
f 222/321/192 234/335/192 235/336/192
f 235/336/193 236/337/193 224/323/193
f 224/323/194 236/337/194 237/338/194
f 237/338/367 238/339/367 226/325/367
f 238/339/196 239/340/196 227/326/196
f 227/327/197 239/341/197 240/342/197
f 240/342/198 241/343/198 229/329/198
f 241/343/199 242/344/199 230/330/199
f 242/344/200 243/345/200 231/331/200
f 243/345/201 244/346/201 232/332/201
f 232/332/202 244/346/202 233/334/202
f 245/347/203 246/349/203 234/335/203
f 246/349/204 247/350/204 235/336/204
f 247/350/205 248/351/205 236/337/205
f 236/337/206 248/351/206 249/352/206
f 249/352/207 250/353/207 238/339/207
f 250/353/208 251/354/208 239/340/208
f 239/341/209 251/355/209 252/356/209
f 252/356/210 253/357/210 241/343/210
f 253/357/211 254/358/211 242/344/211
f 242/344/212 254/358/212 255/359/212
f 243/345/213 255/359/213 256/360/213
f 256/360/214 245/348/214 233/334/214
f 257/361/215 258/363/215 246/349/215
f 258/363/368 259/364/368 247/350/368
f 247/350/217 259/364/217 260/365/217
f 260/365/218 261/366/218 249/352/218
f 261/366/338 262/367/338 250/353/338
f 250/353/220 262/367/220 263/368/220
f 263/369/221 264/370/221 252/356/221
f 252/356/222 264/370/222 265/371/222
f 253/357/223 265/371/223 266/372/223
f 266/372/224 267/373/224 255/359/224
f 267/373/225 268/374/225 256/360/225
f 256/360/226 268/374/226 257/362/226
f 257/361/227 269/375/227 270/377/227
f 258/363/228 270/377/228 271/378/228
f 259/364/229 271/378/229 272/379/229
f 260/365/230 272/379/230 273/380/230
f 261/366/231 273/380/231 274/381/231
f 262/367/232 274/381/232 275/382/232
f 275/383/233 276/384/233 264/370/233
f 276/384/234 277/385/234 265/371/234
f 277/385/235 278/386/235 266/372/235
f 278/386/236 279/387/236 267/373/236
f 279/387/237 280/388/237 268/374/237
f 280/388/238 269/376/238 257/362/238
f 269/375/239 281/389/239 282/391/239
f 270/377/369 282/391/369 283/392/369
f 283/392/241 284/393/241 272/379/241
f 272/379/242 284/393/242 285/394/242
f 273/380/370 285/394/370 286/395/370
f 274/381/244 286/395/244 287/396/244
f 287/397/245 288/398/245 276/384/245
f 288/398/246 289/399/246 277/385/246
f 289/399/247 290/400/247 278/386/247
f 290/400/248 291/401/248 279/387/248
f 291/401/249 292/402/249 280/388/249
f 292/402/250 281/390/250 269/376/250
f 293/403/251 294/405/251 282/391/251
f 294/405/341 295/406/341 283/392/341
f 283/392/253 295/406/253 296/407/253
f 284/393/254 296/407/254 297/408/254
f 285/394/255 297/408/255 298/409/255
f 286/395/256 298/409/256 299/411/256
f 299/410/257 300/412/257 288/398/257
f 300/412/258 301/413/258 289/399/258
f 301/413/259 302/414/259 290/400/259
f 302/414/260 303/415/260 291/401/260
f 291/401/261 303/415/261 304/416/261
f 292/402/262 304/416/262 293/404/262
f 293/403/263 305/417/263 306/419/263
f 306/419/343 307/420/343 295/406/343
f 295/406/265 307/420/265 308/421/265
f 308/421/266 309/422/266 297/408/266
f 309/422/342 310/423/342 298/409/342
f 310/423/268 311/425/268 299/411/268
f 311/424/269 312/426/269 300/412/269
f 312/426/344 313/427/344 301/413/344
f 301/413/271 313/427/271 314/428/271
f 314/428/272 315/429/272 303/415/272
f 303/415/273 315/429/273 316/430/273
f 316/430/274 305/418/274 293/404/274
f 305/417/275 317/431/275 318/433/275
f 318/433/371 319/434/371 307/420/371
f 319/434/277 320/435/277 308/421/277
f 308/421/278 320/435/278 321/436/278
f 321/436/372 322/437/372 310/423/372
f 322/437/280 323/438/280 311/425/280
f 323/439/281 324/440/281 312/426/281
f 324/440/282 325/441/282 313/427/282
f 325/441/283 326/442/283 314/428/283
f 326/442/284 327/443/284 315/429/284
f 327/443/285 328/444/285 316/430/285
f 328/444/286 317/432/286 305/418/286
f 329/445/287 330/447/287 318/433/287
f 318/433/288 330/447/288 331/448/288
f 331/448/289 332/449/289 320/435/289
f 332/449/290 333/450/290 321/436/290
f 321/436/346 333/450/346 334/451/346
f 322/437/292 334/451/292 335/453/292
f 335/452/293 336/454/293 324/440/293
f 336/454/294 337/455/294 325/441/294
f 325/441/295 337/455/295 338/456/295
f 338/456/296 339/457/296 327/443/296
f 339/457/297 340/458/297 328/444/297
f 340/458/298 329/446/298 317/432/298
f 341/459/299 342/461/299 330/447/299
f 342/461/373 343/462/373 331/448/373
f 331/448/301 343/462/301 344/463/301
f 344/463/302 345/464/302 333/450/302
f 345/464/374 346/465/374 334/451/374
f 346/465/304 347/466/304 335/453/304
f 347/467/305 348/468/305 336/454/305
f 336/454/306 348/468/306 349/469/306
f 337/455/307 349/469/307 350/470/307
f 350/470/308 351/471/308 339/457/308
f 351/471/348 352/472/348 340/458/348
f 352/472/310 341/460/310 329/446/310
f 341/459/311 353/473/311 354/475/311
f 354/475/375 355/476/375 343/462/375
f 343/462/313 355/476/313 356/477/313
f 356/477/314 357/478/314 345/464/314
f 345/464/376 357/478/376 358/479/376
f 358/479/316 359/480/316 347/466/316
f 347/467/317 359/481/317 360/482/317
f 348/468/349 360/482/349 361/483/349
f 361/483/319 362/484/319 350/470/319
f 362/484/320 363/485/320 351/471/320
f 363/485/377 364/486/377 352/472/377
f 364/486/322 353/474/322 341/460/322
f 365/487/40 366/489/40 354/475/40
f 366/489/378 367/490/378 355/476/378
f 367/490/38 368/491/38 356/477/38
f 368/491/37 369/492/37 357/478/37
f 369/492/36 370/493/36 358/479/36
f 358/479/35 370/493/35 371/494/35
f 371/495/46 372/496/46 360/482/46
f 372/496/325 373/497/325 361/483/325
f 373/497/44 374/498/44 362/484/44
f 362/484/43 374/498/43 375/499/43
f 363/485/379 375/499/379 376/500/379
f 376/500/41 365/488/41 353/474/41
f 365/487/52 377/501/52 378/503/52
f 366/489/51 378/503/51 379/504/51
f 379/504/50 380/505/50 368/491/50
f 368/491/49 380/505/49 381/506/49
f 369/492/350 381/506/350 382/507/350
f 370/493/47 382/507/47 383/508/47
f 371/495/58 383/509/58 384/510/58
f 384/510/57 385/511/57 373/497/57
f 385/511/56 386/512/56 374/498/56
f 374/498/380 386/512/380 387/513/380
f 375/499/54 387/513/54 388/514/54
f 388/514/53 377/502/53 365/488/53
f 389/515/64 390/517/64 378/503/64
f 390/517/352 391/518/352 379/504/352
f 379/504/62 391/518/62 392/519/62
f 380/505/61 392/519/61 393/520/61
f 381/506/60 393/520/60 394/521/60
f 394/521/59 395/522/59 383/508/59
f 383/509/70 395/523/70 396/524/70
f 384/510/69 396/524/69 397/525/69
f 397/525/68 398/526/68 386/512/68
f 386/512/67 398/526/67 399/527/67
f 387/513/66 399/527/66 400/528/66
f 400/528/65 389/516/65 377/502/65
f 401/529/76 402/531/76 390/517/76
f 402/531/75 403/532/75 391/518/75
f 403/532/74 404/533/74 392/519/74
f 392/519/73 404/533/73 405/534/73
f 405/534/72 406/535/72 394/521/72
f 406/535/71 407/537/71 395/522/71
f 395/523/82 407/536/82 408/538/82
f 408/538/81 409/539/81 397/525/81
f 409/539/80 410/540/80 398/526/80
f 410/540/79 411/541/79 399/527/79
f 399/527/78 411/541/78 412/542/78
f 412/542/77 401/530/77 389/516/77
f 413/543/88 414/545/88 402/531/88
f 402/531/87 414/545/87 415/546/87
f 415/546/86 416/547/86 404/533/86
f 404/533/85 416/547/85 417/548/85
f 417/548/353 418/549/353 406/535/353
f 418/549/83 419/550/83 407/537/83
f 419/551/94 420/552/94 408/538/94
f 408/538/381 420/552/381 421/553/381
f 421/553/92 422/554/92 410/540/92
f 422/554/91 423/555/91 411/541/91
f 423/555/90 424/556/90 412/542/90
f 424/556/89 413/544/89 401/530/89
f 413/543/100 425/557/100 426/559/100
f 414/545/354 426/559/354 427/560/354
f 427/560/98 428/561/98 416/547/98
f 416/547/97 428/561/97 429/562/97
f 429/562/96 430/563/96 418/549/96
f 418/549/95 430/563/95 431/564/95
f 419/551/106 431/565/106 432/566/106
f 420/552/105 432/566/105 433/567/105
f 433/567/104 434/568/104 422/554/104
f 422/554/103 434/568/103 435/569/103
f 435/569/102 436/570/102 424/556/102
f 436/570/101 425/558/101 413/544/101
f 437/571/112 438/573/112 426/559/112
f 438/573/111 439/574/111 427/560/111
f 427/560/110 439/574/110 440/575/110
f 428/561/109 440/575/109 441/576/109
f 429/562/357 441/576/357 442/577/357
f 430/563/107 442/577/107 443/578/107
f 443/579/118 444/580/118 432/566/118
f 444/580/117 445/581/117 433/567/117
f 445/581/116 446/582/116 434/568/116
f 434/568/115 446/582/115 447/583/115
f 435/569/114 447/583/114 448/584/114
f 448/584/113 437/572/113 425/558/113
f 437/571/124 449/585/124 450/587/124
f 450/587/123 451/588/123 439/574/123
f 451/588/122 452/589/122 440/575/122
f 440/575/121 452/589/121 453/590/121
f 441/576/120 453/590/120 454/591/120
f 442/577/119 454/591/119 455/593/119
f 455/592/130 456/594/130 444/580/130
f 456/594/129 457/595/129 445/581/129
f 457/595/128 458/596/128 446/582/128
f 446/582/127 458/596/127 459/597/127
f 447/583/126 459/597/126 460/598/126
f 460/598/125 449/586/125 437/572/125
f 449/585/136 461/599/136 462/601/136
f 450/587/135 462/601/135 463/602/135
f 451/588/134 463/602/134 464/603/134
f 452/589/133 464/603/133 465/604/133
f 453/590/132 465/604/132 466/605/132
f 466/605/131 467/606/131 455/593/131
f 467/607/142 468/608/142 456/594/142
f 468/608/141 469/609/141 457/595/141
f 469/609/140 470/610/140 458/596/140
f 470/610/139 471/611/139 459/597/139
f 471/611/138 472/612/138 460/598/138
f 472/612/137 461/600/137 449/586/137
f 461/599/148 473/613/148 474/615/148
f 462/601/363 474/615/363 475/616/363
f 475/616/146 476/617/146 464/603/146
f 476/617/145 477/618/145 465/604/145
f 477/618/362 478/619/362 466/605/362
f 466/605/143 478/619/143 479/620/143
f 479/621/154 480/622/154 468/608/154
f 480/622/153 481/623/153 469/609/153
f 469/609/152 481/623/152 482/624/152
f 470/610/151 482/624/151 483/625/151
f 483/625/150 484/626/150 472/612/150
f 484/626/149 473/614/149 461/600/149
f 485/627/160 486/629/160 474/615/160
f 474/615/364 486/629/364 487/630/364
f 487/630/158 488/631/158 476/617/158
f 488/631/157 489/632/157 477/618/157
f 489/632/156 490/633/156 478/619/156
f 478/619/155 490/633/155 491/634/155
f 491/635/166 492/636/166 480/622/166
f 480/622/165 492/636/165 493/637/165
f 481/623/164 493/637/164 494/638/164
f 482/624/163 494/638/163 495/639/163
f 483/625/162 495/639/162 496/640/162
f 484/626/161 496/640/161 485/628/161
f 497/641/172 498/643/172 486/629/172
f 498/643/382 499/644/382 487/630/382
f 487/630/170 499/644/170 500/645/170
f 488/631/169 500/645/169 501/646/169
f 489/632/168 501/646/168 502/647/168
f 490/633/167 502/647/167 503/649/167
f 503/648/178 504/650/178 492/636/178
f 504/650/177 505/651/177 493/637/177
f 505/651/176 506/652/176 494/638/176
f 494/638/175 506/652/175 507/653/175
f 495/639/174 507/653/174 508/654/174
f 508/654/173 497/642/173 485/628/173
f 497/641/184 509/655/184 510/657/184
f 510/657/383 511/658/383 499/644/383
f 499/644/182 511/658/182 512/659/182
f 500/645/181 512/659/181 513/660/181
f 513/660/180 514/661/180 502/647/180
f 514/661/179 515/662/179 503/649/179
f 515/663/190 516/664/190 504/650/190
f 516/664/384 517/665/384 505/651/384
f 517/665/188 518/666/188 506/652/188
f 518/666/187 519/667/187 507/653/187
f 519/667/186 520/668/186 508/654/186
f 520/668/185 509/656/185 497/642/185
f 509/655/196 521/669/196 522/671/196
f 522/671/367 523/672/367 511/658/367
f 523/672/194 524/673/194 512/659/194
f 524/673/193 525/674/193 513/660/193
f 513/660/385 525/674/385 526/675/385
f 526/675/191 527/676/191 515/662/191
f 515/663/202 527/677/202 528/678/202
f 528/678/201 529/679/201 517/665/201
f 517/665/200 529/679/200 530/680/200
f 518/666/199 530/680/199 531/681/199
f 519/667/198 531/681/198 532/682/198
f 532/682/197 521/670/197 509/656/197
f 533/683/208 534/685/208 522/671/208
f 534/685/207 535/686/207 523/672/207
f 523/672/206 535/686/206 536/687/206
f 524/673/205 536/687/205 537/688/205
f 525/674/337 537/688/337 538/689/337
f 526/675/203 538/689/203 539/690/203
f 539/691/214 540/692/214 528/678/214
f 528/678/213 540/692/213 541/693/213
f 541/693/212 542/694/212 530/680/212
f 542/694/211 543/695/211 531/681/211
f 543/695/210 544/696/210 532/682/210
f 544/696/209 533/684/209 521/670/209
f 545/697/220 546/699/220 534/685/220
f 534/685/338 546/699/338 547/700/338
f 547/700/218 548/701/218 536/687/218
f 536/687/217 548/701/217 549/702/217
f 549/702/216 550/703/216 538/689/216
f 550/703/215 551/704/215 539/690/215
f 539/691/226 551/705/226 552/706/226
f 552/706/225 553/707/225 541/693/225
f 541/693/224 553/707/224 554/708/224
f 542/694/223 554/708/223 555/709/223
f 555/709/222 556/710/222 544/696/222
f 544/696/221 556/710/221 545/698/221
f 545/697/232 557/711/232 558/713/232
f 558/713/339 559/714/339 547/700/339
f 559/714/230 560/715/230 548/701/230
f 560/715/229 561/716/229 549/702/229
f 561/716/228 562/717/228 550/703/228
f 562/717/227 563/718/227 551/704/227
f 551/705/238 563/719/238 564/720/238
f 552/706/237 564/720/237 565/721/237
f 565/721/236 566/722/236 554/708/236
f 554/708/235 566/722/235 567/723/235
f 567/723/234 568/724/234 556/710/234
f 568/724/233 557/712/233 545/698/233
f 557/711/244 569/725/244 570/727/244
f 570/727/370 571/728/370 559/714/370
f 571/728/242 572/729/242 560/715/242
f 560/715/241 572/729/241 573/730/241
f 573/730/369 574/731/369 562/717/369
f 574/731/239 575/733/239 563/718/239
f 563/719/250 575/732/250 576/734/250
f 564/720/249 576/734/249 577/735/249
f 577/735/248 578/736/248 566/722/248
f 566/722/247 578/736/247 579/737/247
f 567/723/246 579/737/246 580/738/246
f 580/738/245 569/726/245 557/712/245
f 569/725/256 581/739/256 582/741/256
f 582/741/386 583/742/386 571/728/386
f 571/728/254 583/742/254 584/743/254
f 584/743/253 585/744/253 573/730/253
f 585/744/252 586/745/252 574/731/252
f 586/745/251 587/746/251 575/733/251
f 587/747/262 588/748/262 576/734/262
f 576/734/261 588/748/261 589/749/261
f 577/735/260 589/749/260 590/750/260
f 590/750/259 591/751/259 579/737/259
f 579/737/258 591/751/258 592/752/258
f 592/752/257 581/740/257 569/726/257
f 581/739/268 593/753/268 594/755/268
f 594/755/267 595/756/267 583/742/267
f 583/742/266 595/756/266 596/757/266
f 596/757/265 597/758/265 585/744/265
f 597/758/264 598/759/264 586/745/264
f 586/745/263 598/759/263 599/760/263
f 587/747/274 599/761/274 600/762/274
f 588/748/273 600/762/273 601/763/273
f 589/749/272 601/763/272 602/764/272
f 602/764/271 603/765/271 591/751/271
f 591/751/344 603/765/344 604/766/344
f 604/766/269 593/754/269 581/740/269
f 605/767/280 606/769/280 594/755/280
f 594/755/279 606/769/279 607/770/279
f 595/756/278 607/770/278 608/771/278
f 596/757/277 608/771/277 609/772/277
f 597/758/371 609/772/371 610/773/371
f 598/759/275 610/773/275 611/774/275
f 611/775/286 612/776/286 600/762/286
f 612/776/285 613/777/285 601/763/285
f 613/777/284 614/778/284 602/764/284
f 614/778/283 615/779/283 603/765/283
f 615/779/282 616/780/282 604/766/282
f 616/780/281 605/768/281 593/754/281
f 617/781/292 618/783/292 606/769/292
f 606/769/291 618/783/291 619/784/291
f 619/784/290 620/785/290 608/771/290
f 620/785/289 621/786/289 609/772/289
f 621/786/288 622/787/288 610/773/288
f 610/773/287 622/787/287 623/789/287
f 623/788/298 624/790/298 612/776/298
f 612/776/297 624/790/297 625/791/297
f 613/777/296 625/791/296 626/792/296
f 614/778/295 626/792/295 627/793/295
f 627/793/294 628/794/294 616/780/294
f 628/794/293 617/782/293 605/768/293
f 629/795/304 630/797/304 618/783/304
f 618/783/374 630/797/374 631/798/374
f 619/784/302 631/798/302 632/799/302
f 620/785/301 632/799/301 633/800/301
f 621/786/373 633/800/373 634/801/373
f 634/801/299 635/802/299 623/789/299
f 635/803/310 636/804/310 624/790/310
f 624/790/348 636/804/348 637/805/348
f 637/805/308 638/806/308 626/792/308
f 638/806/307 639/807/307 627/793/307
f 639/807/306 640/808/306 628/794/306
f 628/794/305 640/808/305 629/796/305
f 65/137/316 66/139/316 630/797/316
f 66/139/387 67/140/387 631/798/387
f 67/140/314 68/141/314 632/799/314
f 68/141/313 69/142/313 633/800/313
f 633/800/388 69/142/388 70/143/388
f 70/143/311 71/144/311 635/802/311
f 635/803/322 71/145/322 72/146/322
f 72/146/377 73/147/377 637/805/377
f 637/805/320 73/147/320 74/148/320
f 74/148/319 75/149/319 639/807/319
f 639/807/318 75/149/318 76/150/318
f 76/150/317 65/138/317 629/796/317
