# Blender 3.5.0
# www.blender.org
mtllib ArrowUp.mtl
o Cube
v 2.321820 0.302972 -1.266655
v 2.321820 -0.302972 -1.266655
v 0.492343 0.302972 1.266655
v 0.492343 -0.302972 1.266655
v -2.431087 0.302972 -1.266655
v -2.431087 -0.302972 -1.266655
v -0.492342 0.302972 1.266655
v -0.492342 -0.302972 1.266655
v 0.000000 -0.302972 0.391176
v 0.000000 0.302972 1.927984
v 0.000000 -0.302972 1.927984
v 0.000000 0.302972 0.391176
v 1.922650 0.302932 -3.047755
v 1.922650 -0.303012 -3.047755
v 0.467866 0.302932 -0.739031
v 0.467866 -0.303012 -0.739031
v -1.888010 0.302932 -3.047755
v -1.888010 -0.303012 -3.047755
v -0.516819 0.302932 -0.739031
v -0.516819 -0.303012 -0.739031
v -0.024476 -0.303012 -1.315538
v -0.024476 0.302932 -0.077702
v -0.024476 -0.303012 -0.077702
v -0.024476 0.302932 -1.315538
vn -0.0000 1.0000 -0.0000
vn -0.8021 -0.0000 0.5972
vn -0.7941 -0.0000 0.6077
vn -0.0000 -1.0000 -0.0000
vn 0.8107 -0.0000 0.5855
vn -0.5811 -0.0000 -0.8138
vn 0.5634 -0.0000 -0.8262
vn 0.8021 -0.0000 0.5972
vn -0.8598 -0.0000 0.5106
vn 0.8460 -0.0000 0.5331
vn -0.6647 -0.0000 -0.7471
vn 0.6808 -0.0000 -0.7324
vt 0.625000 0.500000
vt 0.375000 0.500000
vt 0.625000 0.750000
vt 0.375000 0.750000
vt 0.875000 0.500000
vt 0.625000 0.250000
vt 0.125000 0.500000
vt 0.375000 0.250000
vt 0.875000 0.750000
vt 0.625000 1.000000
vt 0.625000 0.000000
vt 0.375000 0.000000
vt 0.375000 1.000000
vt 0.125000 0.750000
vt 0.375000 0.375000
vt 0.250000 0.500000
vt 0.625000 0.875000
vt 0.750000 0.750000
vt 0.250000 0.750000
vt 0.375000 0.875000
vt 0.625000 0.375000
vt 0.750000 0.500000
vt 0.625000 0.500000
vt 0.375000 0.500000
vt 0.625000 0.750000
vt 0.375000 0.750000
vt 0.875000 0.500000
vt 0.625000 0.250000
vt 0.125000 0.500000
vt 0.375000 0.250000
vt 0.875000 0.750000
vt 0.625000 1.000000
vt 0.625000 0.000000
vt 0.375000 0.000000
vt 0.375000 1.000000
vt 0.125000 0.750000
vt 0.375000 0.375000
vt 0.250000 0.500000
vt 0.625000 0.875000
vt 0.750000 0.750000
vt 0.250000 0.750000
vt 0.375000 0.875000
vt 0.625000 0.375000
vt 0.750000 0.500000
s 0
usemtl Material
f 12/22/1 7/9/1 10/18/1
f 10/17/2 8/13/2 11/20/2
f 7/11/3 6/8/3 8/12/3
f 9/16/4 4/4/4 11/19/4
f 1/1/5 4/4/5 2/2/5
f 12/21/6 2/2/6 9/15/6
f 5/6/7 9/15/7 6/8/7
f 9/16/4 8/14/4 6/7/4
f 3/3/8 11/20/8 4/4/8
f 12/22/1 3/3/1 1/1/1
f 24/44/1 19/31/1 22/40/1
f 22/39/2 20/35/2 23/42/2
f 19/33/9 18/30/9 20/34/9
f 21/38/4 16/26/4 23/41/4
f 13/23/10 16/26/10 14/24/10
f 24/43/11 14/24/11 21/37/11
f 17/28/12 21/37/12 18/30/12
f 21/38/4 20/36/4 18/29/4
f 15/25/8 23/42/8 16/26/8
f 24/44/1 15/25/1 13/23/1
f 12/22/1 5/5/1 7/9/1
f 10/17/2 7/10/2 8/13/2
f 7/11/3 5/6/3 6/8/3
f 9/16/4 2/2/4 4/4/4
f 1/1/5 3/3/5 4/4/5
f 12/21/6 1/1/6 2/2/6
f 5/6/7 12/21/7 9/15/7
f 9/16/4 11/19/4 8/14/4
f 3/3/8 10/17/8 11/20/8
f 12/22/1 10/18/1 3/3/1
f 24/44/1 17/27/1 19/31/1
f 22/39/2 19/32/2 20/35/2
f 19/33/9 17/28/9 18/30/9
f 21/38/4 14/24/4 16/26/4
f 13/23/10 15/25/10 16/26/10
f 24/43/11 13/23/11 14/24/11
f 17/28/12 24/43/12 21/37/12
f 21/38/4 23/41/4 20/36/4
f 15/25/8 22/39/8 23/42/8
f 24/44/1 22/40/1 15/25/1
